{
	"asset":{
		"generator":"Khronos glTF Blender I/O v3.6.28",
		"version":"2.0"
	},
	"scene":0,
	"scenes":[
		{
			"extras":{
				"xol_link_apps":[
					{
						"id":52251,
						"port":"52251",
						"type":"BLD",
						"label":"Blender Foundation - Blender"
					},
					{
						"id":53466,
						"port":"53466",
						"type":"BLD",
						"label":"Blender Foundation - Blender"
					},
					{
						"id":53637,
						"port":"53637",
						"type":"BLD",
						"label":"Blender Foundation - Blender"
					}
				],
				"xol_link_apps_list":0
			},
			"name":"Scene",
			"nodes":[
				2
			]
		}
	],
	"nodes":[
		{
			"extras":{
				"xrengine.entity":"cherryBlossom_colilider",
				"xrengine.EE_collider.shape":"box"
			},
			"mesh":0,
			"name":"Cube_collider",
			"rotation":[
				0,
				1,
				0,
				0
			],
			"scale":[
				-142.1035919189453,
				-31.842636108398438,
				-142.1035919189453
			],
			"translation":[
				0,
				-42.0392951965332,
				0
			]
		},
		{
			"extras":{
				"xrengine.entity":"cherryBlossom_colilider",
				"xrengine.EE_collider.shape":"box"
			},
			"mesh":1,
			"name":"Cube_collider.001",
			"rotation":[
				0,
				1,
				0,
				0
			],
			"scale":[
				-65.298583984375,
				-233.0358428955078,
				-65.298583984375
			],
			"translation":[
				0,
				177.0660400390625,
				0
			]
		},
		{
			"children":[
				0,
				1
			],
			"extras":{
				"xrengine.entity":"cherryBlossom_rbd",
				"xrengine.EE_rigidbody.type":"fixed"
			},
			"mesh":2,
			"name":"cherry_Blossom",
			"scale":[
				0.25,
				0.25,
				0.25
			]
		}
	],
	"materials":[
		{
			"name":"cherryBlossom",
			"normalTexture":{
				"index":0
			},
			"pbrMetallicRoughness":{
				"baseColorTexture":{
					"index":1
				},
				"metallicFactor":0,
				"roughnessFactor":0.953000009059906
			}
		}
	],
	"meshes":[
		{
			"name":"Cube.001",
			"primitives":[
				{
					"attributes":{
						"POSITION":0,
						"NORMAL":1,
						"TEXCOORD_0":2
					},
					"indices":3
				}
			]
		},
		{
			"name":"Cube.002",
			"primitives":[
				{
					"attributes":{
						"POSITION":4,
						"NORMAL":5,
						"TEXCOORD_0":6
					},
					"indices":3
				}
			]
		},
		{
			"name":"unpack2",
			"primitives":[
				{
					"attributes":{
						"POSITION":7,
						"NORMAL":8,
						"TEXCOORD_0":9
					},
					"indices":10,
					"material":0
				}
			]
		}
	],
	"textures":[
		{
			"sampler":0,
			"source":0
		},
		{
			"sampler":0,
			"source":1
		}
	],
	"images":[
		{
			"mimeType":"image/png",
			"name":"Image_1cherry",
			"uri":"Image_1cherry.png"
		},
		{
			"mimeType":"image/png",
			"name":"Image_0cherry",
			"uri":"Image_0cherry.png"
		}
	],
	"accessors":[
		{
			"bufferView":0,
			"componentType":5126,
			"count":24,
			"max":[
				1,
				1,
				1
			],
			"min":[
				-1,
				-1,
				-1
			],
			"type":"VEC3"
		},
		{
			"bufferView":1,
			"componentType":5126,
			"count":24,
			"type":"VEC3"
		},
		{
			"bufferView":2,
			"componentType":5126,
			"count":24,
			"type":"VEC2"
		},
		{
			"bufferView":3,
			"componentType":5123,
			"count":36,
			"type":"SCALAR"
		},
		{
			"bufferView":4,
			"componentType":5126,
			"count":24,
			"max":[
				1,
				1,
				1
			],
			"min":[
				-1,
				-1,
				-1
			],
			"type":"VEC3"
		},
		{
			"bufferView":5,
			"componentType":5126,
			"count":24,
			"type":"VEC3"
		},
		{
			"bufferView":6,
			"componentType":5126,
			"count":24,
			"type":"VEC2"
		},
		{
			"bufferView":7,
			"componentType":5126,
			"count":423558,
			"max":[
				310.2822570800781,
				764.2276611328125,
				295.40277099609375
			],
			"min":[
				-369.7501525878906,
				-71.79165649414062,
				-359.41754150390625
			],
			"type":"VEC3"
		},
		{
			"bufferView":8,
			"componentType":5126,
			"count":423558,
			"type":"VEC3"
		},
		{
			"bufferView":9,
			"componentType":5126,
			"count":423558,
			"type":"VEC2"
		},
		{
			"bufferView":10,
			"componentType":5125,
			"count":937149,
			"type":"SCALAR"
		}
	],
	"bufferViews":[
		{
			"buffer":0,
			"byteLength":288,
			"byteOffset":0,
			"target":34962
		},
		{
			"buffer":0,
			"byteLength":288,
			"byteOffset":288,
			"target":34962
		},
		{
			"buffer":0,
			"byteLength":192,
			"byteOffset":576,
			"target":34962
		},
		{
			"buffer":0,
			"byteLength":72,
			"byteOffset":768,
			"target":34963
		},
		{
			"buffer":0,
			"byteLength":288,
			"byteOffset":840,
			"target":34962
		},
		{
			"buffer":0,
			"byteLength":288,
			"byteOffset":1128,
			"target":34962
		},
		{
			"buffer":0,
			"byteLength":192,
			"byteOffset":1416,
			"target":34962
		},
		{
			"buffer":0,
			"byteLength":5082696,
			"byteOffset":1608,
			"target":34962
		},
		{
			"buffer":0,
			"byteLength":5082696,
			"byteOffset":5084304,
			"target":34962
		},
		{
			"buffer":0,
			"byteLength":3388464,
			"byteOffset":10167000,
			"target":34962
		},
		{
			"buffer":0,
			"byteLength":3748596,
			"byteOffset":13555464,
			"target":34963
		}
	],
	"samplers":[
		{
			"magFilter":9729,
			"minFilter":9987
		}
	],
	"buffers":[
		{
			"byteLength":17304060,
			"uri":"cherry_blossom.bin"
		}
	]
}
