{
	"asset":{
		"generator":"Khronos glTF Blender I/O v3.6.28",
		"version":"2.0"
	},
	"scene":0,
	"scenes":[
		{
			"extras":{
				"xol_link_apps":[
					{
						"id":52251,
						"port":"52251",
						"type":"BLD",
						"label":"Blender Foundation - Blender"
					},
					{
						"id":53466,
						"port":"53466",
						"type":"BLD",
						"label":"Blender Foundation - Blender"
					},
					{
						"id":53637,
						"port":"53637",
						"type":"BLD",
						"label":"Blender Foundation - Blender"
					}
				],
				"xol_link_apps_list":0
			},
			"name":"Scene",
			"nodes":[
				4
			]
		}
	],
	"nodes":[
		{
			"extras":{
				"xrengine.entity":"collider",
				"xrengine.EE_collider.shape":"box"
			},
			"mesh":0,
			"name":"Cube",
			"scale":[
				1.2218409776687622,
				0.262046754360199,
				1.2218409776687622
			],
			"translation":[
				0,
				-0.45778995752334595,
				0
			]
		},
		{
			"extras":{
				"xrengine.entity":"collider",
				"xrengine.EE_collider.shape":"box"
			},
			"mesh":1,
			"name":"Cube.001",
			"scale":[
				0.499994158744812,
				3.307415008544922,
				0.499994158744812
			],
			"translation":[
				0,
				2.7950897216796875,
				0
			]
		},
		{
			"extras":{
				"xrengine.entity":"collider",
				"xrengine.EE_collider.shape":"box"
			},
			"mesh":2,
			"name":"Cube.002",
			"rotation":[
				0,
				0,
				-0.062118664383888245,
				0.9980688095092773
			],
			"scale":[
				0.4999941885471344,
				3.307415008544922,
				0.499994158744812
			],
			"translation":[
				0.21609078347682953,
				6.6507415771484375,
				0.1798550933599472
			]
		},
		{
			"extras":{
				"xrengine.entity":"collider",
				"xrengine.EE_collider.shape":"box"
			},
			"mesh":3,
			"name":"Cube.003",
			"rotation":[
				0,
				0,
				0.1629277467727661,
				0.9866380095481873
			],
			"scale":[
				0.499994158744812,
				3.307415008544922,
				0.499994158744812
			],
			"translation":[
				-1.1698031425476074,
				6.594050884246826,
				-0.05473414063453674
			]
		},
		{
			"children":[
				0,
				1,
				2,
				3
			],
			"extras":{
				"xrengine.entity":"rbd_maple",
				"xrengine.EE_rigidbody.type":"fixed"
			},
			"mesh":4,
			"name":"import_assets"
		}
	],
	"materials":[
		{
			"name":"globe_objects",
			"normalTexture":{
				"index":0
			},
			"pbrMetallicRoughness":{
				"baseColorTexture":{
					"index":1
				},
				"metallicFactor":0,
				"metallicRoughnessTexture":{
					"index":2
				},
				"roughnessFactor":0.4399999976158142
			}
		}
	],
	"meshes":[
		{
			"name":"Cube.001",
			"primitives":[
				{
					"attributes":{
						"POSITION":0,
						"NORMAL":1,
						"TEXCOORD_0":2
					},
					"indices":3
				}
			]
		},
		{
			"name":"Cube.004",
			"primitives":[
				{
					"attributes":{
						"POSITION":4,
						"NORMAL":5,
						"TEXCOORD_0":6
					},
					"indices":3
				}
			]
		},
		{
			"name":"Cube.005",
			"primitives":[
				{
					"attributes":{
						"POSITION":7,
						"NORMAL":8,
						"TEXCOORD_0":9
					},
					"indices":3
				}
			]
		},
		{
			"name":"Cube.006",
			"primitives":[
				{
					"attributes":{
						"POSITION":10,
						"NORMAL":11,
						"TEXCOORD_0":12
					},
					"indices":3
				}
			]
		},
		{
			"name":"material35",
			"primitives":[
				{
					"attributes":{
						"POSITION":13,
						"NORMAL":14,
						"TEXCOORD_0":15
					},
					"indices":16,
					"material":0
				}
			]
		}
	],
	"textures":[
		{
			"sampler":0,
			"source":0
		},
		{
			"sampler":0,
			"source":1
		},
		{
			"sampler":0,
			"source":2
		}
	],
	"images":[
		{
			"mimeType":"image/png",
			"name":"globe_foliage_out02_Normal",
			"uri":"globe_foliage_out02_Normal.png"
		},
		{
			"mimeType":"image/png",
			"name":"globe_foliage_out02_Base_color",
			"uri":"globe_foliage_out02_Base_color.png"
		},
		{
			"mimeType":"image/png",
			"name":"globe_foliage_out02_Roughness",
			"uri":"globe_foliage_out02_Roughness.png"
		}
	],
	"accessors":[
		{
			"bufferView":0,
			"componentType":5126,
			"count":24,
			"max":[
				1,
				1,
				1
			],
			"min":[
				-1,
				-1,
				-1
			],
			"type":"VEC3"
		},
		{
			"bufferView":1,
			"componentType":5126,
			"count":24,
			"type":"VEC3"
		},
		{
			"bufferView":2,
			"componentType":5126,
			"count":24,
			"type":"VEC2"
		},
		{
			"bufferView":3,
			"componentType":5123,
			"count":36,
			"type":"SCALAR"
		},
		{
			"bufferView":4,
			"componentType":5126,
			"count":24,
			"max":[
				1,
				1,
				1
			],
			"min":[
				-1,
				-1,
				-1
			],
			"type":"VEC3"
		},
		{
			"bufferView":5,
			"componentType":5126,
			"count":24,
			"type":"VEC3"
		},
		{
			"bufferView":6,
			"componentType":5126,
			"count":24,
			"type":"VEC2"
		},
		{
			"bufferView":7,
			"componentType":5126,
			"count":24,
			"max":[
				1,
				1,
				1
			],
			"min":[
				-1,
				-1,
				-1
			],
			"type":"VEC3"
		},
		{
			"bufferView":8,
			"componentType":5126,
			"count":24,
			"type":"VEC3"
		},
		{
			"bufferView":9,
			"componentType":5126,
			"count":24,
			"type":"VEC2"
		},
		{
			"bufferView":10,
			"componentType":5126,
			"count":24,
			"max":[
				1,
				1,
				1
			],
			"min":[
				-1,
				-1,
				-1
			],
			"type":"VEC3"
		},
		{
			"bufferView":11,
			"componentType":5126,
			"count":24,
			"type":"VEC3"
		},
		{
			"bufferView":12,
			"componentType":5126,
			"count":24,
			"type":"VEC2"
		},
		{
			"bufferView":13,
			"componentType":5126,
			"count":25276,
			"max":[
				6.099246025085449,
				21.277570724487305,
				5.357712268829346
			],
			"min":[
				-7.916467189788818,
				-1.6848336458206177,
				-6.5411295890808105
			],
			"type":"VEC3"
		},
		{
			"bufferView":14,
			"componentType":5126,
			"count":25276,
			"type":"VEC3"
		},
		{
			"bufferView":15,
			"componentType":5126,
			"count":25276,
			"type":"VEC2"
		},
		{
			"bufferView":16,
			"componentType":5123,
			"count":81246,
			"type":"SCALAR"
		}
	],
	"bufferViews":[
		{
			"buffer":0,
			"byteLength":288,
			"byteOffset":0,
			"target":34962
		},
		{
			"buffer":0,
			"byteLength":288,
			"byteOffset":288,
			"target":34962
		},
		{
			"buffer":0,
			"byteLength":192,
			"byteOffset":576,
			"target":34962
		},
		{
			"buffer":0,
			"byteLength":72,
			"byteOffset":768,
			"target":34963
		},
		{
			"buffer":0,
			"byteLength":288,
			"byteOffset":840,
			"target":34962
		},
		{
			"buffer":0,
			"byteLength":288,
			"byteOffset":1128,
			"target":34962
		},
		{
			"buffer":0,
			"byteLength":192,
			"byteOffset":1416,
			"target":34962
		},
		{
			"buffer":0,
			"byteLength":288,
			"byteOffset":1608,
			"target":34962
		},
		{
			"buffer":0,
			"byteLength":288,
			"byteOffset":1896,
			"target":34962
		},
		{
			"buffer":0,
			"byteLength":192,
			"byteOffset":2184,
			"target":34962
		},
		{
			"buffer":0,
			"byteLength":288,
			"byteOffset":2376,
			"target":34962
		},
		{
			"buffer":0,
			"byteLength":288,
			"byteOffset":2664,
			"target":34962
		},
		{
			"buffer":0,
			"byteLength":192,
			"byteOffset":2952,
			"target":34962
		},
		{
			"buffer":0,
			"byteLength":303312,
			"byteOffset":3144,
			"target":34962
		},
		{
			"buffer":0,
			"byteLength":303312,
			"byteOffset":306456,
			"target":34962
		},
		{
			"buffer":0,
			"byteLength":202208,
			"byteOffset":609768,
			"target":34962
		},
		{
			"buffer":0,
			"byteLength":162492,
			"byteOffset":811976,
			"target":34963
		}
	],
	"samplers":[
		{
			"magFilter":9729,
			"minFilter":9987
		}
	],
	"buffers":[
		{
			"byteLength":974468,
			"uri":"green_maple_colliders.bin"
		}
	]
}
