{
	"asset":{
		"generator":"Khronos glTF Blender I/O v3.6.28",
		"version":"2.0"
	},
	"scene":0,
	"scenes":[
		{
			"extras":{
				"xol_link_apps":[
					{
						"id":52251,
						"port":"52251",
						"type":"BLD",
						"label":"Blender Foundation - Blender"
					},
					{
						"id":53466,
						"port":"53466",
						"type":"BLD",
						"label":"Blender Foundation - Blender"
					},
					{
						"id":53637,
						"port":"53637",
						"type":"BLD",
						"label":"Blender Foundation - Blender"
					}
				],
				"xol_link_apps_list":0
			},
			"name":"Scene",
			"nodes":[
				24
			]
		}
	],
	"nodes":[
		{
			"extras":{
				"xrengine.entity":"collider_pine",
				"xrengine.EE_collider.shape":"box"
			},
			"mesh":0,
			"name":"collider_shape.027",
			"scale":[
				-0.039344992488622665,
				-0.5959108471870422,
				-0.039344992488622665
			],
			"translation":[
				0.010790012776851654,
				0.642653226852417,
				-0.021131467074155807
			]
		},
		{
			"extras":{
				"xrengine.entity":"collider_pine",
				"xrengine.EE_collider.shape":"box"
			},
			"mesh":1,
			"name":"collider_shape.031",
			"scale":[
				-0.053077470511198044,
				-0.053077470511198044,
				-0.053077470511198044
			],
			"translation":[
				0.005266672931611538,
				0.04630114883184433,
				-0.021131467074155807
			]
		},
		{
			"mesh":2,
			"name":"pine_bushy_01.004",
			"rotation":[
				0.42090272903442383,
				0.2889914810657501,
				-0.5627748370170593,
				0.6500841975212097
			],
			"translation":[
				0.9078162312507629,
				32.10626220703125,
				-0.3049369156360626
			]
		},
		{
			"mesh":2,
			"name":"pine_bushy_01.005",
			"rotation":[
				-0.3082122206687927,
				0.7038717269897461,
				-0.6351815462112427,
				0.07819393277168274
			],
			"translation":[
				1.0921342372894287,
				34.49094009399414,
				-0.30049222707748413
			]
		},
		{
			"mesh":2,
			"name":"pine_bushy_01.006",
			"rotation":[
				0.6769014000892639,
				-0.5151126980781555,
				0.12521061301231384,
				0.5106719136238098
			],
			"translation":[
				1.2159055471420288,
				36.54273986816406,
				-0.5574462413787842
			]
		},
		{
			"children":[
				2,
				3,
				4
			],
			"name":"pine_bushy.003",
			"scale":[
				0.059411920607089996,
				0.059411920607089996,
				0.059411920607089996
			]
		},
		{
			"mesh":3,
			"name":"pine_filler_01.007",
			"rotation":[
				0.6899971961975098,
				-0.15460918843746185,
				-0.15460915863513947,
				0.6899970173835754
			],
			"translation":[
				0.8040274977684021,
				31.139787673950195,
				-0.3880603313446045
			]
		},
		{
			"mesh":3,
			"name":"pine_filler_01.008",
			"rotation":[
				0.266889363527298,
				0.6211581230163574,
				-0.6775145530700684,
				0.2896665632724762
			],
			"translation":[
				1.1716450452804565,
				30.396812438964844,
				-0.43873247504234314
			]
		},
		{
			"mesh":3,
			"name":"pine_filler_01.009",
			"rotation":[
				0.2113054245710373,
				-0.6230378746986389,
				0.6871559023857117,
				0.30820560455322266
			],
			"translation":[
				1.1768754720687866,
				29.198089599609375,
				-0.699373185634613
			]
		},
		{
			"mesh":3,
			"name":"pine_filler_01.010",
			"rotation":[
				0.5844881534576416,
				-0.5178155899047852,
				0.21204832196235657,
				0.5876019597053528
			],
			"translation":[
				0.8578196167945862,
				28.553712844848633,
				-1.0601860284805298
			]
		},
		{
			"children":[
				6,
				7,
				8,
				9
			],
			"name":"pine_filler.003",
			"scale":[
				0.059411920607089996,
				0.059411920607089996,
				0.059411920607089996
			]
		},
		{
			"mesh":4,
			"name":"pine_sapling_small",
			"rotation":[
				0.7071069478988647,
				0,
				0,
				0.7071066498756409
			],
			"scale":[
				0.059411920607089996,
				0.059411920607089996,
				0.059411920607089996
			]
		},
		{
			"mesh":5,
			"name":"pine_short_01.005",
			"rotation":[
				0.6577607989311218,
				-0.3769978880882263,
				0.036981575191020966,
				0.651042103767395
			],
			"scale":[
				0.962221086025238,
				0.9622210264205933,
				0.9622210264205933
			],
			"translation":[
				0.3817887008190155,
				23.46297836303711,
				-0.32000911235809326
			]
		},
		{
			"mesh":5,
			"name":"pine_short_01.006",
			"rotation":[
				0.4696764647960663,
				0.26328805088996887,
				-0.5761507749557495,
				0.6149259209632874
			],
			"scale":[
				0.8126570582389832,
				0.8126570582389832,
				0.8126569390296936
			],
			"translation":[
				0.9776058793067932,
				21.211917877197266,
				-0.4439714550971985
			]
		},
		{
			"mesh":5,
			"name":"pine_short_01.007",
			"rotation":[
				0.34809279441833496,
				-0.6529165506362915,
				0.6723701357841492,
				0.021208249032497406
			],
			"scale":[
				0.8126569986343384,
				0.8126569986343384,
				0.8126569986343384
			],
			"translation":[
				0.47892436385154724,
				20.251462936401367,
				-0.7498084902763367
			]
		},
		{
			"children":[
				12,
				13,
				14
			],
			"name":"pine_short.004",
			"scale":[
				0.059411920607089996,
				0.059411920607089996,
				0.059411920607089996
			]
		},
		{
			"mesh":6,
			"name":"pine_tiny_01",
			"rotation":[
				-0.7151082158088684,
				0.2823953628540039,
				-0.00931693147867918,
				0.6393640041351318
			],
			"translation":[
				0.6405138969421387,
				18.594816207885742,
				-0.4333660304546356
			]
		},
		{
			"mesh":6,
			"name":"pine_tiny_01.011",
			"rotation":[
				-0.7347754240036011,
				0.4427754282951355,
				0.08259719610214233,
				0.5071812868118286
			],
			"translation":[
				0.934725821018219,
				26.395471572875977,
				-0.499817818403244
			]
		},
		{
			"mesh":6,
			"name":"pine_tiny_01.012",
			"rotation":[
				0.5885390043258667,
				-0.5712004899978638,
				-0.39352947473526,
				0.41531509160995483
			],
			"translation":[
				1.3117163181304932,
				44.87779235839844,
				-1.0019817352294922
			]
		},
		{
			"mesh":6,
			"name":"pine_tiny_01.013",
			"rotation":[
				-0.7232109904289246,
				0.5980773568153381,
				0.3130609691143036,
				0.1458156257867813
			],
			"translation":[
				0.9020264148712158,
				41.12431716918945,
				-0.8395134806632996
			]
		},
		{
			"mesh":6,
			"name":"pine_tiny_01.014",
			"rotation":[
				-0.3498314619064331,
				0.6789805889129639,
				0.6441869735717773,
				0.040330830961465836
			],
			"translation":[
				0.6162290573120117,
				24.178144454956055,
				-0.576958179473877
			]
		},
		{
			"mesh":6,
			"name":"pine_tiny_01.015",
			"rotation":[
				-0.5173500180244446,
				-0.3262288570404053,
				-0.4551364481449127,
				0.6471279859542847
			],
			"translation":[
				0.5223112106323242,
				18.146833419799805,
				-0.48767781257629395
			]
		},
		{
			"mesh":6,
			"name":"pine_tiny_01.016",
			"rotation":[
				-0.2572080194950104,
				0.691087007522583,
				0.6752699017524719,
				0.015918295830488205
			],
			"translation":[
				0.35336509346961975,
				16.74118995666504,
				-0.4497084319591522
			]
		},
		{
			"children":[
				16,
				17,
				18,
				19,
				20,
				21,
				22
			],
			"name":"pine_tiny.002",
			"scale":[
				0.059411920607089996,
				0.059411920607089996,
				0.059411920607089996
			]
		},
		{
			"children":[
				0,
				1,
				5,
				10,
				11,
				15,
				23
			],
			"extras":{
				"xrengine.entity":"rbd_nature",
				"xrengine.EE_rigidbody.type":"fixed"
			},
			"name":"pineForestSaplingSM.001"
		}
	],
	"materials":[
		{
			"doubleSided":true,
			"name":"19___Default.002",
			"pbrMetallicRoughness":{
				"baseColorTexture":{
					"index":0
				},
				"metallicFactor":0,
				"roughnessFactor":0
			}
		}
	],
	"meshes":[
		{
			"name":"Cube.053",
			"primitives":[
				{
					"attributes":{
						"POSITION":0,
						"NORMAL":1,
						"TEXCOORD_0":2
					},
					"indices":3
				}
			]
		},
		{
			"name":"Cube.032",
			"primitives":[
				{
					"attributes":{
						"POSITION":4,
						"NORMAL":5,
						"TEXCOORD_0":6
					},
					"indices":3
				}
			]
		},
		{
			"name":"pine_bushy_01.002",
			"primitives":[
				{
					"attributes":{
						"POSITION":7,
						"NORMAL":8,
						"TEXCOORD_0":9
					},
					"indices":10,
					"material":0
				}
			]
		},
		{
			"name":"pine_filler_01.003",
			"primitives":[
				{
					"attributes":{
						"POSITION":11,
						"NORMAL":12,
						"TEXCOORD_0":13
					},
					"indices":14,
					"material":0
				}
			]
		},
		{
			"name":"pine_sapling_small",
			"primitives":[
				{
					"attributes":{
						"POSITION":15,
						"NORMAL":16,
						"TEXCOORD_0":17
					},
					"indices":18,
					"material":0
				}
			]
		},
		{
			"name":"pine_short_01.001",
			"primitives":[
				{
					"attributes":{
						"POSITION":19,
						"NORMAL":20,
						"TEXCOORD_0":21
					},
					"indices":22,
					"material":0
				}
			]
		},
		{
			"name":"pine_tiny_01",
			"primitives":[
				{
					"attributes":{
						"POSITION":23,
						"NORMAL":24,
						"TEXCOORD_0":25
					},
					"indices":26,
					"material":0
				}
			]
		}
	],
	"textures":[
		{
			"sampler":0,
			"source":0
		}
	],
	"images":[
		{
			"mimeType":"image/png",
			"name":"Map__20_Map_Output_Selector",
			"uri":"Map__20_Map_Output_Selector.png"
		}
	],
	"accessors":[
		{
			"bufferView":0,
			"componentType":5126,
			"count":24,
			"max":[
				1,
				1,
				1
			],
			"min":[
				-1,
				-1,
				-1
			],
			"type":"VEC3"
		},
		{
			"bufferView":1,
			"componentType":5126,
			"count":24,
			"type":"VEC3"
		},
		{
			"bufferView":2,
			"componentType":5126,
			"count":24,
			"type":"VEC2"
		},
		{
			"bufferView":3,
			"componentType":5123,
			"count":36,
			"type":"SCALAR"
		},
		{
			"bufferView":4,
			"componentType":5126,
			"count":24,
			"max":[
				1,
				1,
				1
			],
			"min":[
				-1,
				-1,
				-1
			],
			"type":"VEC3"
		},
		{
			"bufferView":5,
			"componentType":5126,
			"count":24,
			"type":"VEC3"
		},
		{
			"bufferView":6,
			"componentType":5126,
			"count":24,
			"type":"VEC2"
		},
		{
			"bufferView":7,
			"componentType":5126,
			"count":17014,
			"max":[
				-0.0052999998442828655,
				4.109499931335449,
				1.1050000190734863
			],
			"min":[
				-16.542800903320312,
				-6.461999893188477,
				-10.596500396728516
			],
			"type":"VEC3"
		},
		{
			"bufferView":8,
			"componentType":5126,
			"count":17014,
			"type":"VEC3"
		},
		{
			"bufferView":9,
			"componentType":5126,
			"count":17014,
			"type":"VEC2"
		},
		{
			"bufferView":10,
			"componentType":5123,
			"count":17016,
			"type":"SCALAR"
		},
		{
			"bufferView":11,
			"componentType":5126,
			"count":2705,
			"max":[
				0.020099999383091927,
				7.497099876403809,
				0.12290000170469284
			],
			"min":[
				-15.869600296020508,
				-6.0279998779296875,
				-10.625100135803223
			],
			"type":"VEC3"
		},
		{
			"bufferView":12,
			"componentType":5126,
			"count":2705,
			"type":"VEC3"
		},
		{
			"bufferView":13,
			"componentType":5126,
			"count":2705,
			"type":"VEC2"
		},
		{
			"bufferView":14,
			"componentType":5123,
			"count":5862,
			"type":"SCALAR"
		},
		{
			"bufferView":15,
			"componentType":5126,
			"count":660,
			"max":[
				1.7222000360488892,
				0.8039000034332275,
				-0.13779999315738678
			],
			"min":[
				-1.0377999544143677,
				-1.6002999544143677,
				-46.606201171875
			],
			"type":"VEC3"
		},
		{
			"bufferView":16,
			"componentType":5126,
			"count":660,
			"type":"VEC3"
		},
		{
			"bufferView":17,
			"componentType":5126,
			"count":660,
			"type":"VEC2"
		},
		{
			"bufferView":18,
			"componentType":5123,
			"count":768,
			"type":"SCALAR"
		},
		{
			"bufferView":19,
			"componentType":5126,
			"count":4606,
			"max":[
				0.08179999887943268,
				9.274100303649902,
				2.664599895477295
			],
			"min":[
				-27.326499938964844,
				-8.868399620056152,
				-9.961099624633789
			],
			"type":"VEC3"
		},
		{
			"bufferView":20,
			"componentType":5126,
			"count":4606,
			"type":"VEC3"
		},
		{
			"bufferView":21,
			"componentType":5126,
			"count":4606,
			"type":"VEC2"
		},
		{
			"bufferView":22,
			"componentType":5123,
			"count":10038,
			"type":"SCALAR"
		},
		{
			"bufferView":23,
			"componentType":5126,
			"count":933,
			"max":[
				-0.05000000074505806,
				4.440999984741211,
				2.8153998851776123
			],
			"min":[
				-13.258099555969238,
				-6.823699951171875,
				-1.6092000007629395
			],
			"type":"VEC3"
		},
		{
			"bufferView":24,
			"componentType":5126,
			"count":933,
			"type":"VEC3"
		},
		{
			"bufferView":25,
			"componentType":5126,
			"count":933,
			"type":"VEC2"
		},
		{
			"bufferView":26,
			"componentType":5123,
			"count":2112,
			"type":"SCALAR"
		}
	],
	"bufferViews":[
		{
			"buffer":0,
			"byteLength":288,
			"byteOffset":0,
			"target":34962
		},
		{
			"buffer":0,
			"byteLength":288,
			"byteOffset":288,
			"target":34962
		},
		{
			"buffer":0,
			"byteLength":192,
			"byteOffset":576,
			"target":34962
		},
		{
			"buffer":0,
			"byteLength":72,
			"byteOffset":768,
			"target":34963
		},
		{
			"buffer":0,
			"byteLength":288,
			"byteOffset":840,
			"target":34962
		},
		{
			"buffer":0,
			"byteLength":288,
			"byteOffset":1128,
			"target":34962
		},
		{
			"buffer":0,
			"byteLength":192,
			"byteOffset":1416,
			"target":34962
		},
		{
			"buffer":0,
			"byteLength":204168,
			"byteOffset":1608,
			"target":34962
		},
		{
			"buffer":0,
			"byteLength":204168,
			"byteOffset":205776,
			"target":34962
		},
		{
			"buffer":0,
			"byteLength":136112,
			"byteOffset":409944,
			"target":34962
		},
		{
			"buffer":0,
			"byteLength":34032,
			"byteOffset":546056,
			"target":34963
		},
		{
			"buffer":0,
			"byteLength":32460,
			"byteOffset":580088,
			"target":34962
		},
		{
			"buffer":0,
			"byteLength":32460,
			"byteOffset":612548,
			"target":34962
		},
		{
			"buffer":0,
			"byteLength":21640,
			"byteOffset":645008,
			"target":34962
		},
		{
			"buffer":0,
			"byteLength":11724,
			"byteOffset":666648,
			"target":34963
		},
		{
			"buffer":0,
			"byteLength":7920,
			"byteOffset":678372,
			"target":34962
		},
		{
			"buffer":0,
			"byteLength":7920,
			"byteOffset":686292,
			"target":34962
		},
		{
			"buffer":0,
			"byteLength":5280,
			"byteOffset":694212,
			"target":34962
		},
		{
			"buffer":0,
			"byteLength":1536,
			"byteOffset":699492,
			"target":34963
		},
		{
			"buffer":0,
			"byteLength":55272,
			"byteOffset":701028,
			"target":34962
		},
		{
			"buffer":0,
			"byteLength":55272,
			"byteOffset":756300,
			"target":34962
		},
		{
			"buffer":0,
			"byteLength":36848,
			"byteOffset":811572,
			"target":34962
		},
		{
			"buffer":0,
			"byteLength":20076,
			"byteOffset":848420,
			"target":34963
		},
		{
			"buffer":0,
			"byteLength":11196,
			"byteOffset":868496,
			"target":34962
		},
		{
			"buffer":0,
			"byteLength":11196,
			"byteOffset":879692,
			"target":34962
		},
		{
			"buffer":0,
			"byteLength":7464,
			"byteOffset":890888,
			"target":34962
		},
		{
			"buffer":0,
			"byteLength":4224,
			"byteOffset":898352,
			"target":34963
		}
	],
	"samplers":[
		{
			"magFilter":9729,
			"minFilter":9987
		}
	],
	"buffers":[
		{
			"byteLength":902576,
			"uri":"pineSaplingSm.bin"
		}
	]
}
