{
	"asset":{
		"generator":"Khronos glTF Blender I/O v4.1.63",
		"version":"2.0"
	},
	"extensionsUsed":[
		"EXT_mesh_gpu_instancing"
	],
	"scene":0,
	"scenes":[
		{
			"name":"Scene",
			"nodes":[
				6
			]
		}
	],
	"nodes":[
		{
			"extras":{
				"xrengine.entity":"collider_container",
				"xrengine.EE_collider.shape":"box"
			},
			"mesh":0,
			"name":"collider_container.001",
			"scale":[
				0.04761209711432457,
				0.7168033123016357,
				0.04761209711432457
			],
			"translation":[
				0,
				0.6480528712272644,
				0
			]
		},
		{
			"extensions":{
				"EXT_mesh_gpu_instancing":{
					"attributes":{
						"TRANSLATION":24,
						"ROTATION":25,
						"SCALE":26
					}
				}
			},
			"mesh":1,
			"name":"pine_bushy.003",
			"scale":[
				0.059411920607089996,
				0.059411920607089996,
				0.059411920607089996
			]
		},
		{
			"extensions":{
				"EXT_mesh_gpu_instancing":{
					"attributes":{
						"TRANSLATION":27,
						"ROTATION":28,
						"SCALE":29
					}
				}
			},
			"mesh":2,
			"name":"pine_filler.003",
			"scale":[
				0.059411920607089996,
				0.059411920607089996,
				0.059411920607089996
			]
		},
		{
			"mesh":3,
			"name":"pine_sapling_small",
			"rotation":[
				0.7071069478988647,
				0,
				0,
				0.7071066498756409
			],
			"scale":[
				0.059411920607089996,
				0.059411920607089996,
				0.059411920607089996
			]
		},
		{
			"extensions":{
				"EXT_mesh_gpu_instancing":{
					"attributes":{
						"TRANSLATION":30,
						"ROTATION":31,
						"SCALE":32
					}
				}
			},
			"mesh":4,
			"name":"pine_short.004",
			"scale":[
				0.059411920607089996,
				0.059411920607089996,
				0.059411920607089996
			]
		},
		{
			"extensions":{
				"EXT_mesh_gpu_instancing":{
					"attributes":{
						"TRANSLATION":33,
						"ROTATION":34,
						"SCALE":35
					}
				}
			},
			"mesh":5,
			"name":"pine_tiny.002",
			"scale":[
				0.059411920607089996,
				0.059411920607089996,
				0.059411920607089996
			]
		},
		{
			"children":[
				0,
				1,
				2,
				3,
				4,
				5
			],
			"extras":{
				"xrengine.entity":"rbd_container",
				"xrengine.EE_rigidbody.type":"fixed"
			},
			"name":"pinSaplingSm"
		}
	],
	"materials":[
		{
			"doubleSided":true,
			"name":"19___Default.002",
			"pbrMetallicRoughness":{
				"baseColorTexture":{
					"index":0
				},
				"metallicFactor":0,
				"roughnessFactor":0
			}
		}
	],
	"meshes":[
		{
			"name":"Cube.004",
			"primitives":[
				{
					"attributes":{
						"POSITION":0,
						"NORMAL":1,
						"TEXCOORD_0":2
					},
					"indices":3
				}
			]
		},
		{
			"name":"pine_bushy_01.002",
			"primitives":[
				{
					"attributes":{
						"POSITION":4,
						"NORMAL":5,
						"TEXCOORD_0":6
					},
					"indices":7,
					"material":0
				}
			]
		},
		{
			"name":"pine_filler_01.003",
			"primitives":[
				{
					"attributes":{
						"POSITION":8,
						"NORMAL":9,
						"TEXCOORD_0":10
					},
					"indices":11,
					"material":0
				}
			]
		},
		{
			"name":"pine_sapling_small",
			"primitives":[
				{
					"attributes":{
						"POSITION":12,
						"NORMAL":13,
						"TEXCOORD_0":14
					},
					"indices":15,
					"material":0
				}
			]
		},
		{
			"name":"pine_short_01.001",
			"primitives":[
				{
					"attributes":{
						"POSITION":16,
						"NORMAL":17,
						"TEXCOORD_0":18
					},
					"indices":19,
					"material":0
				}
			]
		},
		{
			"name":"pine_tiny_01",
			"primitives":[
				{
					"attributes":{
						"POSITION":20,
						"NORMAL":21,
						"TEXCOORD_0":22
					},
					"indices":23,
					"material":0
				}
			]
		}
	],
	"textures":[
		{
			"sampler":0,
			"source":0
		}
	],
	"images":[
		{
			"mimeType":"image/png",
			"name":"Map__20_Map_Output_Selector",
			"uri":"Map__20_Map_Output_Selector.png"
		}
	],
	"accessors":[
		{
			"bufferView":0,
			"componentType":5126,
			"count":24,
			"max":[
				1,
				1,
				1
			],
			"min":[
				-1,
				-1,
				-1
			],
			"type":"VEC3"
		},
		{
			"bufferView":1,
			"componentType":5126,
			"count":24,
			"type":"VEC3"
		},
		{
			"bufferView":2,
			"componentType":5126,
			"count":24,
			"type":"VEC2"
		},
		{
			"bufferView":3,
			"componentType":5123,
			"count":36,
			"type":"SCALAR"
		},
		{
			"bufferView":4,
			"componentType":5126,
			"count":17014,
			"max":[
				-0.0052999998442828655,
				4.109499931335449,
				1.1050000190734863
			],
			"min":[
				-16.542800903320312,
				-6.461999893188477,
				-10.596500396728516
			],
			"type":"VEC3"
		},
		{
			"bufferView":5,
			"componentType":5126,
			"count":17014,
			"type":"VEC3"
		},
		{
			"bufferView":6,
			"componentType":5126,
			"count":17014,
			"type":"VEC2"
		},
		{
			"bufferView":7,
			"componentType":5123,
			"count":17016,
			"type":"SCALAR"
		},
		{
			"bufferView":8,
			"componentType":5126,
			"count":2705,
			"max":[
				0.020099999383091927,
				7.497099876403809,
				0.12290000170469284
			],
			"min":[
				-15.869600296020508,
				-6.0279998779296875,
				-10.625100135803223
			],
			"type":"VEC3"
		},
		{
			"bufferView":9,
			"componentType":5126,
			"count":2705,
			"type":"VEC3"
		},
		{
			"bufferView":10,
			"componentType":5126,
			"count":2705,
			"type":"VEC2"
		},
		{
			"bufferView":11,
			"componentType":5123,
			"count":5862,
			"type":"SCALAR"
		},
		{
			"bufferView":12,
			"componentType":5126,
			"count":660,
			"max":[
				1.7222000360488892,
				0.8039000034332275,
				-0.13779999315738678
			],
			"min":[
				-1.0377999544143677,
				-1.6002999544143677,
				-46.606201171875
			],
			"type":"VEC3"
		},
		{
			"bufferView":13,
			"componentType":5126,
			"count":660,
			"type":"VEC3"
		},
		{
			"bufferView":14,
			"componentType":5126,
			"count":660,
			"type":"VEC2"
		},
		{
			"bufferView":15,
			"componentType":5123,
			"count":768,
			"type":"SCALAR"
		},
		{
			"bufferView":16,
			"componentType":5126,
			"count":4608,
			"max":[
				0.08179999887943268,
				9.274100303649902,
				2.664599895477295
			],
			"min":[
				-27.326499938964844,
				-8.868399620056152,
				-9.961099624633789
			],
			"type":"VEC3"
		},
		{
			"bufferView":17,
			"componentType":5126,
			"count":4608,
			"type":"VEC3"
		},
		{
			"bufferView":18,
			"componentType":5126,
			"count":4608,
			"type":"VEC2"
		},
		{
			"bufferView":19,
			"componentType":5123,
			"count":10038,
			"type":"SCALAR"
		},
		{
			"bufferView":20,
			"componentType":5126,
			"count":933,
			"max":[
				-0.05000000074505806,
				4.440999984741211,
				2.8153998851776123
			],
			"min":[
				-13.258099555969238,
				-6.823699951171875,
				-1.6092000007629395
			],
			"type":"VEC3"
		},
		{
			"bufferView":21,
			"componentType":5126,
			"count":933,
			"type":"VEC3"
		},
		{
			"bufferView":22,
			"componentType":5126,
			"count":933,
			"type":"VEC2"
		},
		{
			"bufferView":23,
			"componentType":5123,
			"count":2112,
			"type":"SCALAR"
		},
		{
			"bufferView":24,
			"componentType":5126,
			"count":3,
			"type":"VEC3"
		},
		{
			"bufferView":25,
			"componentType":5126,
			"count":3,
			"type":"VEC4"
		},
		{
			"bufferView":26,
			"componentType":5126,
			"count":3,
			"type":"VEC3"
		},
		{
			"bufferView":27,
			"componentType":5126,
			"count":4,
			"type":"VEC3"
		},
		{
			"bufferView":28,
			"componentType":5126,
			"count":4,
			"type":"VEC4"
		},
		{
			"bufferView":29,
			"componentType":5126,
			"count":4,
			"type":"VEC3"
		},
		{
			"bufferView":30,
			"componentType":5126,
			"count":3,
			"type":"VEC3"
		},
		{
			"bufferView":31,
			"componentType":5126,
			"count":3,
			"type":"VEC4"
		},
		{
			"bufferView":32,
			"componentType":5126,
			"count":3,
			"type":"VEC3"
		},
		{
			"bufferView":33,
			"componentType":5126,
			"count":7,
			"type":"VEC3"
		},
		{
			"bufferView":34,
			"componentType":5126,
			"count":7,
			"type":"VEC4"
		},
		{
			"bufferView":35,
			"componentType":5126,
			"count":7,
			"type":"VEC3"
		}
	],
	"bufferViews":[
		{
			"buffer":0,
			"byteLength":288,
			"byteOffset":0,
			"target":34962
		},
		{
			"buffer":0,
			"byteLength":288,
			"byteOffset":288,
			"target":34962
		},
		{
			"buffer":0,
			"byteLength":192,
			"byteOffset":576,
			"target":34962
		},
		{
			"buffer":0,
			"byteLength":72,
			"byteOffset":768,
			"target":34963
		},
		{
			"buffer":0,
			"byteLength":204168,
			"byteOffset":840,
			"target":34962
		},
		{
			"buffer":0,
			"byteLength":204168,
			"byteOffset":205008,
			"target":34962
		},
		{
			"buffer":0,
			"byteLength":136112,
			"byteOffset":409176,
			"target":34962
		},
		{
			"buffer":0,
			"byteLength":34032,
			"byteOffset":545288,
			"target":34963
		},
		{
			"buffer":0,
			"byteLength":32460,
			"byteOffset":579320,
			"target":34962
		},
		{
			"buffer":0,
			"byteLength":32460,
			"byteOffset":611780,
			"target":34962
		},
		{
			"buffer":0,
			"byteLength":21640,
			"byteOffset":644240,
			"target":34962
		},
		{
			"buffer":0,
			"byteLength":11724,
			"byteOffset":665880,
			"target":34963
		},
		{
			"buffer":0,
			"byteLength":7920,
			"byteOffset":677604,
			"target":34962
		},
		{
			"buffer":0,
			"byteLength":7920,
			"byteOffset":685524,
			"target":34962
		},
		{
			"buffer":0,
			"byteLength":5280,
			"byteOffset":693444,
			"target":34962
		},
		{
			"buffer":0,
			"byteLength":1536,
			"byteOffset":698724,
			"target":34963
		},
		{
			"buffer":0,
			"byteLength":55296,
			"byteOffset":700260,
			"target":34962
		},
		{
			"buffer":0,
			"byteLength":55296,
			"byteOffset":755556,
			"target":34962
		},
		{
			"buffer":0,
			"byteLength":36864,
			"byteOffset":810852,
			"target":34962
		},
		{
			"buffer":0,
			"byteLength":20076,
			"byteOffset":847716,
			"target":34963
		},
		{
			"buffer":0,
			"byteLength":11196,
			"byteOffset":867792,
			"target":34962
		},
		{
			"buffer":0,
			"byteLength":11196,
			"byteOffset":878988,
			"target":34962
		},
		{
			"buffer":0,
			"byteLength":7464,
			"byteOffset":890184,
			"target":34962
		},
		{
			"buffer":0,
			"byteLength":4224,
			"byteOffset":897648,
			"target":34963
		},
		{
			"buffer":0,
			"byteLength":36,
			"byteOffset":901872
		},
		{
			"buffer":0,
			"byteLength":48,
			"byteOffset":901908
		},
		{
			"buffer":0,
			"byteLength":36,
			"byteOffset":901956
		},
		{
			"buffer":0,
			"byteLength":48,
			"byteOffset":901992
		},
		{
			"buffer":0,
			"byteLength":64,
			"byteOffset":902040
		},
		{
			"buffer":0,
			"byteLength":48,
			"byteOffset":902104
		},
		{
			"buffer":0,
			"byteLength":36,
			"byteOffset":902152
		},
		{
			"buffer":0,
			"byteLength":48,
			"byteOffset":902188
		},
		{
			"buffer":0,
			"byteLength":36,
			"byteOffset":902236
		},
		{
			"buffer":0,
			"byteLength":84,
			"byteOffset":902272
		},
		{
			"buffer":0,
			"byteLength":112,
			"byteOffset":902356
		},
		{
			"buffer":0,
			"byteLength":84,
			"byteOffset":902468
		}
	],
	"samplers":[
		{
			"magFilter":9729,
			"minFilter":9987
		}
	],
	"buffers":[
		{
			"byteLength":902552,
			"uri":"pineSaplingSm.bin"
		}
	]
}
