{
	"asset":{
		"generator":"Khronos glTF Blender I/O v3.6.28",
		"version":"2.0"
	},
	"scene":0,
	"scenes":[
		{
			"extras":{
				"xol_link_apps":[
					{
						"id":52251,
						"port":"52251",
						"type":"BLD",
						"label":"Blender Foundation - Blender"
					},
					{
						"id":53466,
						"port":"53466",
						"type":"BLD",
						"label":"Blender Foundation - Blender"
					},
					{
						"id":53637,
						"port":"53637",
						"type":"BLD",
						"label":"Blender Foundation - Blender"
					}
				],
				"xol_link_apps_list":0
			},
			"name":"Scene",
			"nodes":[
				49
			]
		}
	],
	"nodes":[
		{
			"extras":{
				"xrengine.entity":"collider_pine",
				"xrengine.EE_collider.shape":"box"
			},
			"mesh":0,
			"name":"collider_shape",
			"scale":[
				0.09935714304447174,
				1.2665984630584717,
				0.09935714304447174
			],
			"translation":[
				-0.001258239266462624,
				1.2500452995300293,
				0.07436995953321457
			]
		},
		{
			"mesh":1,
			"name":"pine_filler_01.011",
			"rotation":[
				0.6865562200546265,
				-0.1692354828119278,
				-0.1692354381084442,
				0.6865561604499817
			],
			"translation":[
				0,
				94.17994689941406,
				0.6491376161575317
			]
		},
		{
			"mesh":1,
			"name":"pine_filler_01.012",
			"rotation":[
				0.47556087374687195,
				0.28367888927459717,
				-0.5641584396362305,
				0.6124486923217773
			],
			"translation":[
				0.04375375807285309,
				102.49347686767578,
				1.501104474067688
			]
		},
		{
			"mesh":1,
			"name":"pine_filler_01.013",
			"rotation":[
				0.2719263434410095,
				0.6579466462135315,
				-0.6513281464576721,
				0.26255276799201965
			],
			"translation":[
				-0.0001606136211194098,
				91.94419860839844,
				0.6260590553283691
			]
		},
		{
			"mesh":1,
			"name":"pine_filler_01.014",
			"rotation":[
				0.09327284246683121,
				-0.6564307808876038,
				0.6956003308296204,
				0.27665698528289795
			],
			"translation":[
				-0.09748244285583496,
				89.5819320678711,
				0.5767449736595154
			]
		},
		{
			"mesh":1,
			"name":"pine_filler_01.015",
			"rotation":[
				0.5232886672019958,
				-0.031584229320287704,
				0.45786193013191223,
				0.71800696849823
			],
			"translation":[
				-0.10268090665340424,
				87.60088348388672,
				0.5715101361274719
			]
		},
		{
			"mesh":1,
			"name":"pine_filler_01.016",
			"rotation":[
				0.6532686948776245,
				0.294791579246521,
				0.23401986062526703,
				0.6569418907165527
			],
			"translation":[
				-0.25697723031044006,
				81.0196304321289,
				0.7996675372123718
			]
		},
		{
			"mesh":1,
			"name":"pine_filler_01.017",
			"rotation":[
				0.6877554059028625,
				0.5636702179908752,
				-0.09229215234518051,
				0.4480520188808441
			],
			"translation":[
				-0.10429360717535019,
				70.30738830566406,
				1.0594635009765625
			]
		},
		{
			"mesh":1,
			"name":"pine_filler_01.018",
			"rotation":[
				-0.375508189201355,
				-0.7217437624931335,
				0.5598387122154236,
				0.1570359170436859
			],
			"translation":[
				-0.04004275053739548,
				55.28291702270508,
				1.0549707412719727
			]
		},
		{
			"mesh":1,
			"name":"pine_filler_01.019",
			"rotation":[
				-0.3286093771457672,
				-0.6934897303581238,
				0.6111801266670227,
				0.19376987218856812
			],
			"translation":[
				0.030176816508173943,
				69.30754852294922,
				1.0549707412719727
			]
		},
		{
			"mesh":1,
			"name":"pine_filler_01.020",
			"rotation":[
				-0.011518819257616997,
				-0.5885345935821533,
				0.6488335132598877,
				0.4821923077106476
			],
			"translation":[
				0.6627100706100464,
				56.5501823425293,
				-2.1523423194885254
			]
		},
		{
			"mesh":1,
			"name":"pine_filler_01.021",
			"rotation":[
				-0.048161063343286514,
				-0.3204532563686371,
				0.6216884851455688,
				0.7130874395370483
			],
			"translation":[
				4.0383710861206055,
				69.96429443359375,
				-1.6297281980514526
			]
		},
		{
			"mesh":1,
			"name":"pine_filler_01.022",
			"rotation":[
				0.30398276448249817,
				-0.11572254449129105,
				0.6677391529083252,
				0.6695724129676819
			],
			"translation":[
				0.2735925018787384,
				46.226158142089844,
				0.7661592364311218
			]
		},
		{
			"mesh":1,
			"name":"pine_filler_01.023",
			"rotation":[
				-0.25875821709632874,
				-0.6102066040039062,
				0.6314112544059753,
				0.4025070369243622
			],
			"translation":[
				0.29363688826560974,
				42.942161560058594,
				0.9102844595909119
			]
		},
		{
			"mesh":1,
			"name":"pine_filler_01.024",
			"rotation":[
				0.6219138503074646,
				0.7335134148597717,
				-0.1363202929496765,
				0.2379034161567688
			],
			"translation":[
				-0.059955891221761703,
				40.26909255981445,
				0.9102844595909119
			]
		},
		{
			"children":[
				1,
				2,
				3,
				4,
				5,
				6,
				7,
				8,
				9,
				10,
				11,
				12,
				13,
				14
			],
			"name":"pine_filler.004",
			"scale":[
				0.06565051525831223,
				0.06565051525831223,
				0.06565051525831223
			]
		},
		{
			"children":[
				15
			],
			"name":"colliderParent.011",
			"translation":[
				-0.001258239266462624,
				-0.001432110439054668,
				-0.0007585214916616678
			]
		},
		{
			"mesh":2,
			"name":"pine_large_01.001",
			"rotation":[
				0.6580156683921814,
				0.5612191557884216,
				-0.16837099194526672,
				0.4729689955711365
			],
			"translation":[
				-0.2543625831604004,
				54.27329635620117,
				1.1152093410491943
			]
		},
		{
			"mesh":2,
			"name":"pine_large_01.002",
			"rotation":[
				-0.05186105892062187,
				-0.6281458139419556,
				0.6772324442863464,
				0.37960439920425415
			],
			"translation":[
				-0.5395807027816772,
				73.91233825683594,
				0.850713849067688
			]
		},
		{
			"children":[
				17,
				18
			],
			"name":"pine_large.003",
			"scale":[
				0.06565051525831223,
				0.06565051525831223,
				0.06565051525831223
			]
		},
		{
			"children":[
				19
			],
			"name":"colliderParent.012",
			"translation":[
				-0.001258239266462624,
				-0.001432110439054668,
				-0.0007585214916616678
			]
		},
		{
			"mesh":3,
			"name":"pine_med_01",
			"rotation":[
				0.7298408150672913,
				0.21839307248592377,
				0.18073759973049164,
				0.622069776058197
			],
			"translation":[
				-0.2479330599308014,
				47.89031219482422,
				1.117641568183899
			]
		},
		{
			"mesh":3,
			"name":"pine_med_01.001",
			"rotation":[
				0.6852186322212219,
				0.4176340699195862,
				-0.004534892737865448,
				0.5966880321502686
			],
			"translation":[
				0,
				67.47596740722656,
				1.1896328926086426
			]
		},
		{
			"mesh":3,
			"name":"pine_med_01.002",
			"rotation":[
				0.5330609679222107,
				0.698470413684845,
				-0.4305705428123474,
				0.20638340711593628
			],
			"translation":[
				0.02589869126677513,
				71.68042755126953,
				0.8447690606117249
			]
		},
		{
			"mesh":3,
			"name":"pine_med_01.003",
			"rotation":[
				0.15148566663265228,
				-0.4621986150741577,
				0.6614992022514343,
				0.5708269476890564
			],
			"translation":[
				-0.3240358233451843,
				60.25382995605469,
				0.6756386756896973
			]
		},
		{
			"mesh":3,
			"name":"pine_med_01.004",
			"rotation":[
				0.5309737920761108,
				-0.0052837529219686985,
				0.42260608077049255,
				0.7344678640365601
			],
			"translation":[
				-0.38436195254325867,
				63.346649169921875,
				0.6379435658454895
			]
		},
		{
			"mesh":3,
			"name":"pine_med_01.005",
			"rotation":[
				-0.407573401927948,
				-0.6592736840248108,
				0.6318368315696716,
				0.0049398550763726234
			],
			"translation":[
				0.46886277198791504,
				79.78623962402344,
				0.7982702851295471
			]
		},
		{
			"mesh":3,
			"name":"pine_med_01.006",
			"rotation":[
				0.4528532922267914,
				-0.2223762720823288,
				0.6002147197723389,
				0.6206569671630859
			],
			"translation":[
				-0.2479330599308014,
				50.01164245605469,
				1.117641568183899
			]
		},
		{
			"children":[
				21,
				22,
				23,
				24,
				25,
				26,
				27
			],
			"name":"pine_med.003",
			"scale":[
				0.06565051525831223,
				0.06565051525831223,
				0.06565051525831223
			]
		},
		{
			"children":[
				28
			],
			"name":"colliderParent.013",
			"translation":[
				-0.001258239266462624,
				-0.001432110439054668,
				-0.0007585214916616678
			]
		},
		{
			"mesh":4,
			"name":"pine_short_01.008",
			"rotation":[
				0.5218421220779419,
				-0.47567665576934814,
				-0.5346673727035522,
				0.46426641941070557
			],
			"translation":[
				0.16691556572914124,
				102.35249328613281,
				1.639746904373169
			]
		},
		{
			"mesh":4,
			"name":"pine_short_01.009",
			"rotation":[
				0.6986791491508484,
				-0.1021525114774704,
				-0.18326209485530853,
				0.6839790940284729
			],
			"translation":[
				0,
				90.67957305908203,
				0.9445880651473999
			]
		},
		{
			"mesh":4,
			"name":"pine_short_01.010",
			"rotation":[
				0.4966645836830139,
				0.4315616488456726,
				-0.5539678931236267,
				0.510096549987793
			],
			"translation":[
				-0.00533168064430356,
				88.67781066894531,
				0.9989713430404663
			]
		},
		{
			"mesh":4,
			"name":"pine_short_01.011",
			"rotation":[
				-0.2032611072063446,
				-0.6792846322059631,
				0.7050461173057556,
				0.012933467514812946
			],
			"translation":[
				0.06482893228530884,
				87.70409393310547,
				0.39515671133995056
			]
		},
		{
			"mesh":4,
			"name":"pine_short_01.012",
			"rotation":[
				0.25465747714042664,
				-0.5554357171058655,
				0.6448339819908142,
				0.45916223526000977
			],
			"translation":[
				-0.4254244267940521,
				86.18408966064453,
				0.5046727061271667
			]
		},
		{
			"mesh":4,
			"name":"pine_short_01.013",
			"rotation":[
				0.5258857607841492,
				-0.17252089083194733,
				0.44807204604148865,
				0.7020770311355591
			],
			"translation":[
				-0.4409753084182739,
				83.49882507324219,
				0.9821903705596924
			]
		},
		{
			"mesh":4,
			"name":"pine_short_01.014",
			"rotation":[
				0.6688554883003235,
				0.15177057683467865,
				0.17308031022548676,
				0.7068530917167664
			],
			"translation":[
				-0.4409753084182739,
				65.0474853515625,
				1.2397832870483398
			]
		},
		{
			"mesh":4,
			"name":"pine_short_01.015",
			"rotation":[
				0.38436830043792725,
				0.7209416627883911,
				-0.5752061605453491,
				0.040522120893001556
			],
			"translation":[
				0.38147684931755066,
				47.88893127441406,
				0.7026777267456055
			]
		},
		{
			"mesh":4,
			"name":"pine_short_01.016",
			"rotation":[
				0.5981059670448303,
				0.5925279259681702,
				-0.34618520736694336,
				0.4139271676540375
			],
			"translation":[
				0.3195940852165222,
				82.12120819091797,
				0.8415400981903076
			]
		},
		{
			"mesh":4,
			"name":"pine_short_01.017",
			"rotation":[
				0.34200575947761536,
				-0.24823033809661865,
				0.602154016494751,
				0.6773656606674194
			],
			"translation":[
				-0.3399048447608948,
				72.1624755859375,
				0.8204337358474731
			]
		},
		{
			"mesh":4,
			"name":"pine_short_01.018",
			"rotation":[
				0.6018431782722473,
				0.012453745119273663,
				0.34115397930145264,
				0.7219721078872681
			],
			"translation":[
				0.0994257926940918,
				74.6918716430664,
				1.0739731788635254
			]
		},
		{
			"mesh":4,
			"name":"pine_short_021.002",
			"rotation":[
				0.7070936560630798,
				0.004310900811105967,
				-0.0043109022080898285,
				0.7070935964584351
			],
			"translation":[
				-0.21620160341262817,
				85.31945037841797,
				0.9102122187614441
			]
		},
		{
			"children":[
				30,
				31,
				32,
				33,
				34,
				35,
				36,
				37,
				38,
				39,
				40,
				41
			],
			"name":"pine_short.005",
			"scale":[
				0.06565051525831223,
				0.06565051525831223,
				0.06565051525831223
			]
		},
		{
			"children":[
				42
			],
			"name":"colliderParent.014",
			"translation":[
				-0.001258239266462624,
				-0.001432110439054668,
				-0.0007585214916616678
			]
		},
		{
			"mesh":5,
			"name":"pine_tree_small",
			"rotation":[
				0.70710688829422,
				0,
				0,
				0.7071066498756409
			],
			"scale":[
				0.06565051525831223,
				0.06565050780773163,
				0.06565050780773163
			]
		},
		{
			"children":[
				44
			],
			"name":"colliderParent.015",
			"translation":[
				-0.001258239266462624,
				-0.001432110439054668,
				-0.0007585214916616678
			]
		},
		{
			"mesh":6,
			"name":"pine_bushy_01.007",
			"rotation":[
				0.4328538477420807,
				-0.47504666447639465,
				0.5338112115859985,
				0.5495578050613403
			],
			"translation":[
				-0.12554210424423218,
				92.9437026977539,
				0.767997682094574
			]
		},
		{
			"mesh":6,
			"name":"pine_bushy_01.008",
			"rotation":[
				0.1491117775440216,
				-0.7276223301887512,
				0.6681696176528931,
				0.04336932301521301
			],
			"translation":[
				-0.12554210424423218,
				98.20503997802734,
				0.767997682094574
			]
		},
		{
			"mesh":6,
			"name":"pine_bushy_01.009",
			"rotation":[
				-0.10928890854120255,
				-0.543647289276123,
				0.710016667842865,
				0.43402746319770813
			],
			"translation":[
				0.17047683894634247,
				80.19229888916016,
				0.7178230881690979
			]
		},
		{
			"children":[
				0,
				16,
				20,
				29,
				43,
				45,
				46,
				47,
				48
			],
			"extras":{
				"xrengine.entity":"rbd_nature",
				"xrengine.EE_rigidbody.type":"fixed"
			},
			"name":"pineTreeSmall",
			"translation":[
				0.001258239266462624,
				0.001432110439054668,
				0.0007585214916616678
			]
		}
	],
	"materials":[
		{
			"doubleSided":true,
			"name":"19___Default.003",
			"pbrMetallicRoughness":{
				"baseColorTexture":{
					"index":0
				},
				"metallicFactor":0,
				"roughnessFactor":0
			}
		}
	],
	"meshes":[
		{
			"name":"Cube",
			"primitives":[
				{
					"attributes":{
						"POSITION":0,
						"NORMAL":1,
						"TEXCOORD_0":2
					},
					"indices":3
				}
			]
		},
		{
			"name":"pine_filler_01.004",
			"primitives":[
				{
					"attributes":{
						"POSITION":4,
						"NORMAL":5,
						"TEXCOORD_0":6
					},
					"indices":7,
					"material":0
				}
			]
		},
		{
			"name":"pine_large_01.003",
			"primitives":[
				{
					"attributes":{
						"POSITION":8,
						"NORMAL":9,
						"TEXCOORD_0":10
					},
					"indices":11,
					"material":0
				}
			]
		},
		{
			"name":"pine_med_01",
			"primitives":[
				{
					"attributes":{
						"POSITION":12,
						"NORMAL":13,
						"TEXCOORD_0":14
					},
					"indices":15,
					"material":0
				}
			]
		},
		{
			"name":"pine_short_01.004",
			"primitives":[
				{
					"attributes":{
						"POSITION":16,
						"NORMAL":17,
						"TEXCOORD_0":18
					},
					"indices":19,
					"material":0
				}
			]
		},
		{
			"name":"pine_tree_small",
			"primitives":[
				{
					"attributes":{
						"POSITION":20,
						"NORMAL":21,
						"TEXCOORD_0":22
					},
					"indices":23,
					"material":0
				}
			]
		},
		{
			"name":"pine_bushy_01.003",
			"primitives":[
				{
					"attributes":{
						"POSITION":24,
						"NORMAL":25,
						"TEXCOORD_0":26
					},
					"indices":27,
					"material":0
				}
			]
		}
	],
	"textures":[
		{
			"sampler":0,
			"source":0
		}
	],
	"images":[
		{
			"mimeType":"image/png",
			"name":"Map__20_Map_Output_Selector",
			"uri":"Map__20_Map_Output_Selector.png"
		}
	],
	"accessors":[
		{
			"bufferView":0,
			"componentType":5126,
			"count":24,
			"max":[
				1,
				1,
				1
			],
			"min":[
				-1,
				-1,
				-1
			],
			"type":"VEC3"
		},
		{
			"bufferView":1,
			"componentType":5126,
			"count":24,
			"type":"VEC3"
		},
		{
			"bufferView":2,
			"componentType":5126,
			"count":24,
			"type":"VEC2"
		},
		{
			"bufferView":3,
			"componentType":5123,
			"count":36,
			"type":"SCALAR"
		},
		{
			"bufferView":4,
			"componentType":5126,
			"count":2705,
			"max":[
				0.020099999383091927,
				7.497099876403809,
				0.12290000170469284
			],
			"min":[
				-15.869600296020508,
				-6.0279998779296875,
				-10.625100135803223
			],
			"type":"VEC3"
		},
		{
			"bufferView":5,
			"componentType":5126,
			"count":2705,
			"type":"VEC3"
		},
		{
			"bufferView":6,
			"componentType":5126,
			"count":2705,
			"type":"VEC2"
		},
		{
			"bufferView":7,
			"componentType":5123,
			"count":5862,
			"type":"SCALAR"
		},
		{
			"bufferView":8,
			"componentType":5126,
			"count":7249,
			"max":[
				0.03999999910593033,
				9.17770004272461,
				0.8100000023841858
			],
			"min":[
				-43.62080001831055,
				-11.179400444030762,
				-14.457300186157227
			],
			"type":"VEC3"
		},
		{
			"bufferView":9,
			"componentType":5126,
			"count":7249,
			"type":"VEC3"
		},
		{
			"bufferView":10,
			"componentType":5126,
			"count":7249,
			"type":"VEC2"
		},
		{
			"bufferView":11,
			"componentType":5123,
			"count":16659,
			"type":"SCALAR"
		},
		{
			"bufferView":12,
			"componentType":5126,
			"count":7096,
			"max":[
				-0.004900000058114529,
				12.190999984741211,
				6.879799842834473
			],
			"min":[
				-47.65510177612305,
				-10.111200332641602,
				-11.309800148010254
			],
			"type":"VEC3"
		},
		{
			"bufferView":13,
			"componentType":5126,
			"count":7096,
			"type":"VEC3"
		},
		{
			"bufferView":14,
			"componentType":5126,
			"count":7096,
			"type":"VEC2"
		},
		{
			"bufferView":15,
			"componentType":5123,
			"count":16662,
			"type":"SCALAR"
		},
		{
			"bufferView":16,
			"componentType":5126,
			"count":4606,
			"max":[
				0.08179999887943268,
				9.274100303649902,
				2.664599895477295
			],
			"min":[
				-27.326499938964844,
				-8.868399620056152,
				-9.961099624633789
			],
			"type":"VEC3"
		},
		{
			"bufferView":17,
			"componentType":5126,
			"count":4606,
			"type":"VEC3"
		},
		{
			"bufferView":18,
			"componentType":5126,
			"count":4606,
			"type":"VEC2"
		},
		{
			"bufferView":19,
			"componentType":5123,
			"count":10038,
			"type":"SCALAR"
		},
		{
			"bufferView":20,
			"componentType":5126,
			"count":353,
			"max":[
				1.7030999660491943,
				2.5915000438690186,
				-0.17980000376701355
			],
			"min":[
				-1.5492000579833984,
				-0.7196000218391418,
				-106.08360290527344
			],
			"type":"VEC3"
		},
		{
			"bufferView":21,
			"componentType":5126,
			"count":353,
			"type":"VEC3"
		},
		{
			"bufferView":22,
			"componentType":5126,
			"count":353,
			"type":"VEC2"
		},
		{
			"bufferView":23,
			"componentType":5123,
			"count":966,
			"type":"SCALAR"
		},
		{
			"bufferView":24,
			"componentType":5126,
			"count":17014,
			"max":[
				-0.0052999998442828655,
				4.109499931335449,
				1.1050000190734863
			],
			"min":[
				-16.542800903320312,
				-6.461999893188477,
				-10.596500396728516
			],
			"type":"VEC3"
		},
		{
			"bufferView":25,
			"componentType":5126,
			"count":17014,
			"type":"VEC3"
		},
		{
			"bufferView":26,
			"componentType":5126,
			"count":17014,
			"type":"VEC2"
		},
		{
			"bufferView":27,
			"componentType":5123,
			"count":17016,
			"type":"SCALAR"
		}
	],
	"bufferViews":[
		{
			"buffer":0,
			"byteLength":288,
			"byteOffset":0,
			"target":34962
		},
		{
			"buffer":0,
			"byteLength":288,
			"byteOffset":288,
			"target":34962
		},
		{
			"buffer":0,
			"byteLength":192,
			"byteOffset":576,
			"target":34962
		},
		{
			"buffer":0,
			"byteLength":72,
			"byteOffset":768,
			"target":34963
		},
		{
			"buffer":0,
			"byteLength":32460,
			"byteOffset":840,
			"target":34962
		},
		{
			"buffer":0,
			"byteLength":32460,
			"byteOffset":33300,
			"target":34962
		},
		{
			"buffer":0,
			"byteLength":21640,
			"byteOffset":65760,
			"target":34962
		},
		{
			"buffer":0,
			"byteLength":11724,
			"byteOffset":87400,
			"target":34963
		},
		{
			"buffer":0,
			"byteLength":86988,
			"byteOffset":99124,
			"target":34962
		},
		{
			"buffer":0,
			"byteLength":86988,
			"byteOffset":186112,
			"target":34962
		},
		{
			"buffer":0,
			"byteLength":57992,
			"byteOffset":273100,
			"target":34962
		},
		{
			"buffer":0,
			"byteLength":33318,
			"byteOffset":331092,
			"target":34963
		},
		{
			"buffer":0,
			"byteLength":85152,
			"byteOffset":364412,
			"target":34962
		},
		{
			"buffer":0,
			"byteLength":85152,
			"byteOffset":449564,
			"target":34962
		},
		{
			"buffer":0,
			"byteLength":56768,
			"byteOffset":534716,
			"target":34962
		},
		{
			"buffer":0,
			"byteLength":33324,
			"byteOffset":591484,
			"target":34963
		},
		{
			"buffer":0,
			"byteLength":55272,
			"byteOffset":624808,
			"target":34962
		},
		{
			"buffer":0,
			"byteLength":55272,
			"byteOffset":680080,
			"target":34962
		},
		{
			"buffer":0,
			"byteLength":36848,
			"byteOffset":735352,
			"target":34962
		},
		{
			"buffer":0,
			"byteLength":20076,
			"byteOffset":772200,
			"target":34963
		},
		{
			"buffer":0,
			"byteLength":4236,
			"byteOffset":792276,
			"target":34962
		},
		{
			"buffer":0,
			"byteLength":4236,
			"byteOffset":796512,
			"target":34962
		},
		{
			"buffer":0,
			"byteLength":2824,
			"byteOffset":800748,
			"target":34962
		},
		{
			"buffer":0,
			"byteLength":1932,
			"byteOffset":803572,
			"target":34963
		},
		{
			"buffer":0,
			"byteLength":204168,
			"byteOffset":805504,
			"target":34962
		},
		{
			"buffer":0,
			"byteLength":204168,
			"byteOffset":1009672,
			"target":34962
		},
		{
			"buffer":0,
			"byteLength":136112,
			"byteOffset":1213840,
			"target":34962
		},
		{
			"buffer":0,
			"byteLength":34032,
			"byteOffset":1349952,
			"target":34963
		}
	],
	"samplers":[
		{
			"magFilter":9729,
			"minFilter":9987
		}
	],
	"buffers":[
		{
			"byteLength":1383984,
			"uri":"pineTreeSm.bin"
		}
	]
}
