{
	"asset":{
		"generator":"Khronos glTF Blender I/O v4.1.63",
		"version":"2.0"
	},
	"extensionsUsed":[
		"EXT_mesh_gpu_instancing"
	],
	"scene":0,
	"scenes":[
		{
			"name":"Scene",
			"nodes":[
				17
			]
		}
	],
	"nodes":[
		{
			"extras":{
				"xrengine.entity":"collider_container",
				"xrengine.EE_collider.shape":"box"
			},
			"mesh":0,
			"name":"collider_container.002",
			"scale":[
				0.25528112053871155,
				4.638198375701904,
				0.25528112053871155
			],
			"translation":[
				0,
				3.992133140563965,
				0
			]
		},
		{
			"extensions":{
				"EXT_mesh_gpu_instancing":{
					"attributes":{
						"TRANSLATION":53,
						"ROTATION":54,
						"SCALE":55
					}
				}
			},
			"mesh":1,
			"name":"pine_large",
			"scale":[
				0.12399718910455704,
				0.12399718910455704,
				0.12399718910455704
			]
		},
		{
			"extensions":{
				"EXT_mesh_gpu_instancing":{
					"attributes":{
						"TRANSLATION":56,
						"ROTATION":57,
						"SCALE":58
					}
				}
			},
			"mesh":2,
			"name":"pine_med",
			"scale":[
				0.12399718910455704,
				0.12399718910455704,
				0.12399718910455704
			]
		},
		{
			"extensions":{
				"EXT_mesh_gpu_instancing":{
					"attributes":{
						"TRANSLATION":59,
						"ROTATION":60,
						"SCALE":61
					}
				}
			},
			"mesh":3,
			"name":"pine_short",
			"scale":[
				0.12399718910455704,
				0.12399718910455704,
				0.12399718910455704
			]
		},
		{
			"extensions":{
				"EXT_mesh_gpu_instancing":{
					"attributes":{
						"TRANSLATION":62,
						"ROTATION":63,
						"SCALE":64
					}
				}
			},
			"mesh":4,
			"name":"pine_sparse",
			"scale":[
				0.12399718910455704,
				0.12399718910455704,
				0.12399718910455704
			]
		},
		{
			"mesh":5,
			"name":"pine_tree_large_002",
			"rotation":[
				0.7071069478988647,
				0,
				0,
				0.7071066498756409
			],
			"scale":[
				0.12399718910455704,
				0.12399718165397644,
				0.12399718165397644
			]
		},
		{
			"name":"pine_twig_large_001",
			"rotation":[
				0.70710688829422,
				0,
				0,
				0.7071066498756409
			],
			"translation":[
				-0.03024604171514511,
				-0.0009445101604796946,
				-0.6467819213867188
			]
		},
		{
			"mesh":6,
			"name":"pine_twig_large_003",
			"rotation":[
				0.5488515496253967,
				0.5500085949897766,
				-0.4455823302268982,
				0.4446447491645813
			],
			"translation":[
				0.3908146619796753,
				71.5447006225586,
				14.235898971557617
			]
		},
		{
			"mesh":7,
			"name":"pine_twig_large_004",
			"rotation":[
				0.5983887910842896,
				-0.2115897387266159,
				0.310213178396225,
				0.7077630758285522
			],
			"scale":[
				0.9554361701011658,
				0.9554362893104553,
				0.9554361701011658
			],
			"translation":[
				-10.038522720336914,
				68.0615463256836,
				-10.61172103881836
			]
		},
		{
			"mesh":8,
			"name":"pine_twig_large_005",
			"rotation":[
				0.14506155252456665,
				-0.6632330417633057,
				0.6550523638725281,
				0.3316406011581421
			],
			"scale":[
				0.9554362297058105,
				0.9554361701011658,
				0.955436110496521
			],
			"translation":[
				11.25731372833252,
				63.2260627746582,
				-9.867228507995605
			]
		},
		{
			"mesh":9,
			"name":"pine_twig_large_006",
			"rotation":[
				0.7044137120246887,
				-0.061655443161726,
				0.06165545433759689,
				0.7044135928153992
			],
			"translation":[
				-14.894116401672363,
				91.51079559326172,
				-4.231173992156982
			]
		},
		{
			"mesh":10,
			"name":"pine_twig_large_007",
			"rotation":[
				0.23455335199832916,
				-0.6532621383666992,
				0.690751850605011,
				0.20271949470043182
			],
			"scale":[
				0.8596749901771545,
				0.8596751093864441,
				0.8596749305725098
			],
			"translation":[
				11.954538345336914,
				93.89888000488281,
				-7.834507465362549
			]
		},
		{
			"mesh":11,
			"name":"pine_twig_large_009",
			"rotation":[
				0.20303772389888763,
				0.02464628592133522,
				0.3175412714481354,
				0.9259243011474609
			],
			"scale":[
				0.7287569642066956,
				0.7287570834159851,
				0.7287570834159851
			],
			"translation":[
				-2.1821231842041016,
				-10.983129501342773,
				34.157867431640625
			]
		},
		{
			"children":[
				12
			],
			"mesh":12,
			"name":"pine_twig_large_008",
			"rotation":[
				0.3831898868083954,
				0.693430483341217,
				-0.5507285594940186,
				0.2627123296260834
			],
			"scale":[
				0.9554362893104553,
				0.9554361701011658,
				0.9554362297058105
			],
			"translation":[
				8.65464973449707,
				82.27368927001953,
				10.422194480895996
			]
		},
		{
			"children":[
				6,
				7,
				8,
				9,
				10,
				11,
				13
			],
			"name":"pine_twig_large",
			"scale":[
				0.12399718910455704,
				0.12399718910455704,
				0.12399718910455704
			]
		},
		{
			"mesh":13,
			"name":"pine_twig_med.001",
			"rotation":[
				0.26058992743492126,
				0.6602333784103394,
				-0.6567648649215698,
				0.2546463906764984
			],
			"scale":[
				0.687919557094574,
				0.6879194974899292,
				0.6879194378852844
			],
			"translation":[
				0.5375742316246033,
				40.89316940307617,
				-0.6185888648033142
			]
		},
		{
			"children":[
				15
			],
			"extensions":{
				"EXT_mesh_gpu_instancing":{
					"attributes":{
						"TRANSLATION":65,
						"ROTATION":66,
						"SCALE":67
					}
				}
			},
			"mesh":14,
			"name":"pine_twig_med",
			"scale":[
				0.12399718910455704,
				0.12399718910455704,
				0.12399718910455704
			]
		},
		{
			"children":[
				0,
				1,
				2,
				3,
				4,
				5,
				14,
				16
			],
			"extras":{
				"xrengine.entity":"rbd_container",
				"xrengine.EE_rigidbody.type":"fixed"
			},
			"name":"pineTreeLG"
		}
	],
	"materials":[
		{
			"doubleSided":true,
			"name":"19___Default.001",
			"pbrMetallicRoughness":{
				"baseColorTexture":{
					"index":0
				},
				"metallicFactor":0,
				"roughnessFactor":0
			}
		},
		{
			"doubleSided":true,
			"name":"pine_forest",
			"pbrMetallicRoughness":{
				"baseColorTexture":{
					"index":1
				},
				"metallicFactor":0
			}
		},
		{
			"doubleSided":true,
			"name":"19___Default.006",
			"pbrMetallicRoughness":{
				"baseColorTexture":{
					"index":2
				},
				"metallicFactor":0,
				"roughnessFactor":0
			}
		},
		{
			"doubleSided":true,
			"name":"19___Default.007",
			"pbrMetallicRoughness":{
				"baseColorTexture":{
					"index":3
				},
				"metallicFactor":0,
				"roughnessFactor":0
			}
		}
	],
	"meshes":[
		{
			"name":"Cube.007",
			"primitives":[
				{
					"attributes":{
						"POSITION":0,
						"NORMAL":1,
						"TEXCOORD_0":2
					},
					"indices":3
				}
			]
		},
		{
			"name":"pine_large_023.003",
			"primitives":[
				{
					"attributes":{
						"POSITION":4,
						"NORMAL":5,
						"TEXCOORD_0":6
					},
					"indices":7,
					"material":0
				}
			]
		},
		{
			"name":"pine_med_025.003",
			"primitives":[
				{
					"attributes":{
						"POSITION":8,
						"NORMAL":9,
						"TEXCOORD_0":10
					},
					"indices":11,
					"material":0
				}
			]
		},
		{
			"name":"pine_short_022.004",
			"primitives":[
				{
					"attributes":{
						"POSITION":12,
						"NORMAL":13,
						"TEXCOORD_0":14
					},
					"indices":15,
					"material":0
				}
			]
		},
		{
			"name":"pine_sparse_034.003",
			"primitives":[
				{
					"attributes":{
						"POSITION":16,
						"NORMAL":17,
						"TEXCOORD_0":18
					},
					"indices":19,
					"material":0
				}
			]
		},
		{
			"name":"pine_tree_large.002",
			"primitives":[
				{
					"attributes":{
						"POSITION":20,
						"NORMAL":21,
						"TEXCOORD_0":22
					},
					"indices":23,
					"material":1
				}
			]
		},
		{
			"name":"pine_twig_large001.004",
			"primitives":[
				{
					"attributes":{
						"POSITION":24,
						"NORMAL":25,
						"TEXCOORD_0":26
					},
					"indices":27,
					"material":2
				}
			]
		},
		{
			"name":"pine_twig_large001.005",
			"primitives":[
				{
					"attributes":{
						"POSITION":28,
						"NORMAL":29,
						"TEXCOORD_0":30
					},
					"indices":27,
					"material":2
				}
			]
		},
		{
			"name":"pine_twig_large001.006",
			"primitives":[
				{
					"attributes":{
						"POSITION":31,
						"NORMAL":32,
						"TEXCOORD_0":33
					},
					"indices":27,
					"material":0
				}
			]
		},
		{
			"name":"pine_twig_large001.007",
			"primitives":[
				{
					"attributes":{
						"POSITION":34,
						"NORMAL":35,
						"TEXCOORD_0":36
					},
					"indices":27,
					"material":2
				}
			]
		},
		{
			"name":"pine_twig_large001.008",
			"primitives":[
				{
					"attributes":{
						"POSITION":37,
						"NORMAL":38,
						"TEXCOORD_0":39
					},
					"indices":27,
					"material":2
				}
			]
		},
		{
			"name":"pine_twig_large001.010",
			"primitives":[
				{
					"attributes":{
						"POSITION":40,
						"NORMAL":41,
						"TEXCOORD_0":42
					},
					"indices":27,
					"material":2
				}
			]
		},
		{
			"name":"pine_twig_large001.009",
			"primitives":[
				{
					"attributes":{
						"POSITION":43,
						"NORMAL":44,
						"TEXCOORD_0":45
					},
					"indices":27,
					"material":2
				}
			]
		},
		{
			"name":"pine_twig_med.009",
			"primitives":[
				{
					"attributes":{
						"POSITION":46,
						"NORMAL":47,
						"TEXCOORD_0":48
					},
					"indices":49,
					"material":3
				}
			]
		},
		{
			"name":"pine_twig_med.001",
			"primitives":[
				{
					"attributes":{
						"POSITION":50,
						"NORMAL":51,
						"TEXCOORD_0":52
					},
					"indices":49,
					"material":3
				}
			]
		}
	],
	"textures":[
		{
			"sampler":0,
			"source":0
		},
		{
			"sampler":0,
			"source":0
		},
		{
			"sampler":0,
			"source":0
		},
		{
			"sampler":0,
			"source":0
		}
	],
	"images":[
		{
			"mimeType":"image/png",
			"name":"Map__20_Map_Output_Selector",
			"uri":"Map__20_Map_Output_Selector.png"
		}
	],
	"accessors":[
		{
			"bufferView":0,
			"componentType":5126,
			"count":24,
			"max":[
				1,
				1,
				1
			],
			"min":[
				-1,
				-1,
				-1
			],
			"type":"VEC3"
		},
		{
			"bufferView":1,
			"componentType":5126,
			"count":24,
			"type":"VEC3"
		},
		{
			"bufferView":2,
			"componentType":5126,
			"count":24,
			"type":"VEC2"
		},
		{
			"bufferView":3,
			"componentType":5123,
			"count":36,
			"type":"SCALAR"
		},
		{
			"bufferView":4,
			"componentType":5126,
			"count":7253,
			"max":[
				0.03440000116825104,
				6.21619987487793,
				2.610100030899048
			],
			"min":[
				-29.697399139404297,
				-7.218900203704834,
				-6.146999835968018
			],
			"type":"VEC3"
		},
		{
			"bufferView":5,
			"componentType":5126,
			"count":7253,
			"type":"VEC3"
		},
		{
			"bufferView":6,
			"componentType":5126,
			"count":7253,
			"type":"VEC2"
		},
		{
			"bufferView":7,
			"componentType":5123,
			"count":16659,
			"type":"SCALAR"
		},
		{
			"bufferView":8,
			"componentType":5126,
			"count":7096,
			"max":[
				-0.0010999999940395355,
				8.186800003051758,
				4.606400012969971
			],
			"min":[
				-31.60810089111328,
				-6.5320000648498535,
				-6.982600212097168
			],
			"type":"VEC3"
		},
		{
			"bufferView":9,
			"componentType":5126,
			"count":7096,
			"type":"VEC3"
		},
		{
			"bufferView":10,
			"componentType":5126,
			"count":7096,
			"type":"VEC2"
		},
		{
			"bufferView":11,
			"componentType":5123,
			"count":16662,
			"type":"SCALAR"
		},
		{
			"bufferView":12,
			"componentType":5126,
			"count":4606,
			"max":[
				0.038600001484155655,
				6.504899978637695,
				3.129699945449829
			],
			"min":[
				-18.665800094604492,
				-5.468599796295166,
				-4.717800140380859
			],
			"type":"VEC3"
		},
		{
			"bufferView":13,
			"componentType":5126,
			"count":4606,
			"type":"VEC3"
		},
		{
			"bufferView":14,
			"componentType":5126,
			"count":4606,
			"type":"VEC2"
		},
		{
			"bufferView":15,
			"componentType":5123,
			"count":10038,
			"type":"SCALAR"
		},
		{
			"bufferView":16,
			"componentType":5126,
			"count":5148,
			"max":[
				0.031599998474121094,
				3.554500102996826,
				3.0423998832702637
			],
			"min":[
				-27.992799758911133,
				-8.738100051879883,
				-5.228799819946289
			],
			"type":"VEC3"
		},
		{
			"bufferView":17,
			"componentType":5126,
			"count":5148,
			"type":"VEC3"
		},
		{
			"bufferView":18,
			"componentType":5126,
			"count":5148,
			"type":"VEC2"
		},
		{
			"bufferView":19,
			"componentType":5123,
			"count":12207,
			"type":"SCALAR"
		},
		{
			"bufferView":20,
			"componentType":5126,
			"count":564,
			"max":[
				8.733400344848633,
				8.85569953918457,
				0.4702000021934509
			],
			"min":[
				-7.280200004577637,
				-8.331000328063965,
				-136.414794921875
			],
			"type":"VEC3"
		},
		{
			"bufferView":21,
			"componentType":5126,
			"count":564,
			"type":"VEC3"
		},
		{
			"bufferView":22,
			"componentType":5126,
			"count":564,
			"type":"VEC2"
		},
		{
			"bufferView":23,
			"componentType":5123,
			"count":2769,
			"type":"SCALAR"
		},
		{
			"bufferView":24,
			"componentType":5126,
			"count":188,
			"max":[
				15.769570350646973,
				0.6757157444953918,
				0.7322390079498291
			],
			"min":[
				-10.48422908782959,
				-1.4425841569900513,
				-3.7853610515594482
			],
			"type":"VEC3"
		},
		{
			"bufferView":25,
			"componentType":5126,
			"count":188,
			"type":"VEC3"
		},
		{
			"bufferView":26,
			"componentType":5126,
			"count":188,
			"type":"VEC2"
		},
		{
			"bufferView":27,
			"componentType":5123,
			"count":324,
			"type":"SCALAR"
		},
		{
			"bufferView":28,
			"componentType":5126,
			"count":188,
			"max":[
				15.769570350646973,
				0.6757157444953918,
				0.7322390079498291
			],
			"min":[
				-10.48422908782959,
				-1.4425841569900513,
				-3.7853610515594482
			],
			"type":"VEC3"
		},
		{
			"bufferView":29,
			"componentType":5126,
			"count":188,
			"type":"VEC3"
		},
		{
			"bufferView":30,
			"componentType":5126,
			"count":188,
			"type":"VEC2"
		},
		{
			"bufferView":31,
			"componentType":5126,
			"count":188,
			"max":[
				15.769570350646973,
				0.6757157444953918,
				0.7322390079498291
			],
			"min":[
				-10.48422908782959,
				-1.4425841569900513,
				-3.7853610515594482
			],
			"type":"VEC3"
		},
		{
			"bufferView":32,
			"componentType":5126,
			"count":188,
			"type":"VEC3"
		},
		{
			"bufferView":33,
			"componentType":5126,
			"count":188,
			"type":"VEC2"
		},
		{
			"bufferView":34,
			"componentType":5126,
			"count":188,
			"max":[
				15.769570350646973,
				0.6757157444953918,
				0.7322390079498291
			],
			"min":[
				-10.48422908782959,
				-1.4425841569900513,
				-3.7853610515594482
			],
			"type":"VEC3"
		},
		{
			"bufferView":35,
			"componentType":5126,
			"count":188,
			"type":"VEC3"
		},
		{
			"bufferView":36,
			"componentType":5126,
			"count":188,
			"type":"VEC2"
		},
		{
			"bufferView":37,
			"componentType":5126,
			"count":188,
			"max":[
				15.769570350646973,
				0.6757157444953918,
				0.7322390079498291
			],
			"min":[
				-10.48422908782959,
				-1.4425841569900513,
				-3.7853610515594482
			],
			"type":"VEC3"
		},
		{
			"bufferView":38,
			"componentType":5126,
			"count":188,
			"type":"VEC3"
		},
		{
			"bufferView":39,
			"componentType":5126,
			"count":188,
			"type":"VEC2"
		},
		{
			"bufferView":40,
			"componentType":5126,
			"count":188,
			"max":[
				15.769570350646973,
				0.6757157444953918,
				0.7322390079498291
			],
			"min":[
				-10.48422908782959,
				-1.4425841569900513,
				-3.7853610515594482
			],
			"type":"VEC3"
		},
		{
			"bufferView":41,
			"componentType":5126,
			"count":188,
			"type":"VEC3"
		},
		{
			"bufferView":42,
			"componentType":5126,
			"count":188,
			"type":"VEC2"
		},
		{
			"bufferView":43,
			"componentType":5126,
			"count":188,
			"max":[
				15.769570350646973,
				0.6757157444953918,
				0.7322390079498291
			],
			"min":[
				-10.48422908782959,
				-1.4425841569900513,
				-3.7853610515594482
			],
			"type":"VEC3"
		},
		{
			"bufferView":44,
			"componentType":5126,
			"count":188,
			"type":"VEC3"
		},
		{
			"bufferView":45,
			"componentType":5126,
			"count":188,
			"type":"VEC2"
		},
		{
			"bufferView":46,
			"componentType":5126,
			"count":80,
			"max":[
				-0.0010000000474974513,
				0.23880000412464142,
				3.435800075531006
			],
			"min":[
				-16.24020004272461,
				-0.5163000226020813,
				-0.47530001401901245
			],
			"type":"VEC3"
		},
		{
			"bufferView":47,
			"componentType":5126,
			"count":80,
			"type":"VEC3"
		},
		{
			"bufferView":48,
			"componentType":5126,
			"count":80,
			"type":"VEC2"
		},
		{
			"bufferView":49,
			"componentType":5123,
			"count":204,
			"type":"SCALAR"
		},
		{
			"bufferView":50,
			"componentType":5126,
			"count":80,
			"max":[
				-0.0010000000474974513,
				0.23880000412464142,
				3.435800075531006
			],
			"min":[
				-16.24020004272461,
				-0.5163000226020813,
				-0.47530001401901245
			],
			"type":"VEC3"
		},
		{
			"bufferView":51,
			"componentType":5126,
			"count":80,
			"type":"VEC3"
		},
		{
			"bufferView":52,
			"componentType":5126,
			"count":80,
			"type":"VEC2"
		},
		{
			"bufferView":53,
			"componentType":5126,
			"count":12,
			"type":"VEC3"
		},
		{
			"bufferView":54,
			"componentType":5126,
			"count":12,
			"type":"VEC4"
		},
		{
			"bufferView":55,
			"componentType":5126,
			"count":12,
			"type":"VEC3"
		},
		{
			"bufferView":56,
			"componentType":5126,
			"count":32,
			"type":"VEC3"
		},
		{
			"bufferView":57,
			"componentType":5126,
			"count":32,
			"type":"VEC4"
		},
		{
			"bufferView":58,
			"componentType":5126,
			"count":32,
			"type":"VEC3"
		},
		{
			"bufferView":59,
			"componentType":5126,
			"count":26,
			"type":"VEC3"
		},
		{
			"bufferView":60,
			"componentType":5126,
			"count":26,
			"type":"VEC4"
		},
		{
			"bufferView":61,
			"componentType":5126,
			"count":26,
			"type":"VEC3"
		},
		{
			"bufferView":62,
			"componentType":5126,
			"count":3,
			"type":"VEC3"
		},
		{
			"bufferView":63,
			"componentType":5126,
			"count":3,
			"type":"VEC4"
		},
		{
			"bufferView":64,
			"componentType":5126,
			"count":3,
			"type":"VEC3"
		},
		{
			"bufferView":65,
			"componentType":5126,
			"count":8,
			"type":"VEC3"
		},
		{
			"bufferView":66,
			"componentType":5126,
			"count":8,
			"type":"VEC4"
		},
		{
			"bufferView":67,
			"componentType":5126,
			"count":8,
			"type":"VEC3"
		}
	],
	"bufferViews":[
		{
			"buffer":0,
			"byteLength":288,
			"byteOffset":0,
			"target":34962
		},
		{
			"buffer":0,
			"byteLength":288,
			"byteOffset":288,
			"target":34962
		},
		{
			"buffer":0,
			"byteLength":192,
			"byteOffset":576,
			"target":34962
		},
		{
			"buffer":0,
			"byteLength":72,
			"byteOffset":768,
			"target":34963
		},
		{
			"buffer":0,
			"byteLength":87036,
			"byteOffset":840,
			"target":34962
		},
		{
			"buffer":0,
			"byteLength":87036,
			"byteOffset":87876,
			"target":34962
		},
		{
			"buffer":0,
			"byteLength":58024,
			"byteOffset":174912,
			"target":34962
		},
		{
			"buffer":0,
			"byteLength":33318,
			"byteOffset":232936,
			"target":34963
		},
		{
			"buffer":0,
			"byteLength":85152,
			"byteOffset":266256,
			"target":34962
		},
		{
			"buffer":0,
			"byteLength":85152,
			"byteOffset":351408,
			"target":34962
		},
		{
			"buffer":0,
			"byteLength":56768,
			"byteOffset":436560,
			"target":34962
		},
		{
			"buffer":0,
			"byteLength":33324,
			"byteOffset":493328,
			"target":34963
		},
		{
			"buffer":0,
			"byteLength":55272,
			"byteOffset":526652,
			"target":34962
		},
		{
			"buffer":0,
			"byteLength":55272,
			"byteOffset":581924,
			"target":34962
		},
		{
			"buffer":0,
			"byteLength":36848,
			"byteOffset":637196,
			"target":34962
		},
		{
			"buffer":0,
			"byteLength":20076,
			"byteOffset":674044,
			"target":34963
		},
		{
			"buffer":0,
			"byteLength":61776,
			"byteOffset":694120,
			"target":34962
		},
		{
			"buffer":0,
			"byteLength":61776,
			"byteOffset":755896,
			"target":34962
		},
		{
			"buffer":0,
			"byteLength":41184,
			"byteOffset":817672,
			"target":34962
		},
		{
			"buffer":0,
			"byteLength":24414,
			"byteOffset":858856,
			"target":34963
		},
		{
			"buffer":0,
			"byteLength":6768,
			"byteOffset":883272,
			"target":34962
		},
		{
			"buffer":0,
			"byteLength":6768,
			"byteOffset":890040,
			"target":34962
		},
		{
			"buffer":0,
			"byteLength":4512,
			"byteOffset":896808,
			"target":34962
		},
		{
			"buffer":0,
			"byteLength":5538,
			"byteOffset":901320,
			"target":34963
		},
		{
			"buffer":0,
			"byteLength":2256,
			"byteOffset":906860,
			"target":34962
		},
		{
			"buffer":0,
			"byteLength":2256,
			"byteOffset":909116,
			"target":34962
		},
		{
			"buffer":0,
			"byteLength":1504,
			"byteOffset":911372,
			"target":34962
		},
		{
			"buffer":0,
			"byteLength":648,
			"byteOffset":912876,
			"target":34963
		},
		{
			"buffer":0,
			"byteLength":2256,
			"byteOffset":913524,
			"target":34962
		},
		{
			"buffer":0,
			"byteLength":2256,
			"byteOffset":915780,
			"target":34962
		},
		{
			"buffer":0,
			"byteLength":1504,
			"byteOffset":918036,
			"target":34962
		},
		{
			"buffer":0,
			"byteLength":2256,
			"byteOffset":919540,
			"target":34962
		},
		{
			"buffer":0,
			"byteLength":2256,
			"byteOffset":921796,
			"target":34962
		},
		{
			"buffer":0,
			"byteLength":1504,
			"byteOffset":924052,
			"target":34962
		},
		{
			"buffer":0,
			"byteLength":2256,
			"byteOffset":925556,
			"target":34962
		},
		{
			"buffer":0,
			"byteLength":2256,
			"byteOffset":927812,
			"target":34962
		},
		{
			"buffer":0,
			"byteLength":1504,
			"byteOffset":930068,
			"target":34962
		},
		{
			"buffer":0,
			"byteLength":2256,
			"byteOffset":931572,
			"target":34962
		},
		{
			"buffer":0,
			"byteLength":2256,
			"byteOffset":933828,
			"target":34962
		},
		{
			"buffer":0,
			"byteLength":1504,
			"byteOffset":936084,
			"target":34962
		},
		{
			"buffer":0,
			"byteLength":2256,
			"byteOffset":937588,
			"target":34962
		},
		{
			"buffer":0,
			"byteLength":2256,
			"byteOffset":939844,
			"target":34962
		},
		{
			"buffer":0,
			"byteLength":1504,
			"byteOffset":942100,
			"target":34962
		},
		{
			"buffer":0,
			"byteLength":2256,
			"byteOffset":943604,
			"target":34962
		},
		{
			"buffer":0,
			"byteLength":2256,
			"byteOffset":945860,
			"target":34962
		},
		{
			"buffer":0,
			"byteLength":1504,
			"byteOffset":948116,
			"target":34962
		},
		{
			"buffer":0,
			"byteLength":960,
			"byteOffset":949620,
			"target":34962
		},
		{
			"buffer":0,
			"byteLength":960,
			"byteOffset":950580,
			"target":34962
		},
		{
			"buffer":0,
			"byteLength":640,
			"byteOffset":951540,
			"target":34962
		},
		{
			"buffer":0,
			"byteLength":408,
			"byteOffset":952180,
			"target":34963
		},
		{
			"buffer":0,
			"byteLength":960,
			"byteOffset":952588,
			"target":34962
		},
		{
			"buffer":0,
			"byteLength":960,
			"byteOffset":953548,
			"target":34962
		},
		{
			"buffer":0,
			"byteLength":640,
			"byteOffset":954508,
			"target":34962
		},
		{
			"buffer":0,
			"byteLength":144,
			"byteOffset":955148
		},
		{
			"buffer":0,
			"byteLength":192,
			"byteOffset":955292
		},
		{
			"buffer":0,
			"byteLength":144,
			"byteOffset":955484
		},
		{
			"buffer":0,
			"byteLength":384,
			"byteOffset":955628
		},
		{
			"buffer":0,
			"byteLength":512,
			"byteOffset":956012
		},
		{
			"buffer":0,
			"byteLength":384,
			"byteOffset":956524
		},
		{
			"buffer":0,
			"byteLength":312,
			"byteOffset":956908
		},
		{
			"buffer":0,
			"byteLength":416,
			"byteOffset":957220
		},
		{
			"buffer":0,
			"byteLength":312,
			"byteOffset":957636
		},
		{
			"buffer":0,
			"byteLength":36,
			"byteOffset":957948
		},
		{
			"buffer":0,
			"byteLength":48,
			"byteOffset":957984
		},
		{
			"buffer":0,
			"byteLength":36,
			"byteOffset":958032
		},
		{
			"buffer":0,
			"byteLength":96,
			"byteOffset":958068
		},
		{
			"buffer":0,
			"byteLength":128,
			"byteOffset":958164
		},
		{
			"buffer":0,
			"byteLength":96,
			"byteOffset":958292
		}
	],
	"samplers":[
		{
			"magFilter":9729,
			"minFilter":9987
		}
	],
	"buffers":[
		{
			"byteLength":958388,
			"uri":"pineTreeLG.bin"
		}
	]
}
