{
	"asset":{
		"generator":"Khronos glTF Blender I/O v3.6.28",
		"version":"2.0"
	},
	"extensionsUsed":[
		"KHR_materials_specular"
	],
	"scene":0,
	"scenes":[
		{
			"extras":{
				"xol_link_apps":[
					{
						"id":52251,
						"port":"52251",
						"type":"BLD",
						"label":"Blender Foundation - Blender"
					},
					{
						"id":53466,
						"port":"53466",
						"type":"BLD",
						"label":"Blender Foundation - Blender"
					},
					{
						"id":53637,
						"port":"53637",
						"type":"BLD",
						"label":"Blender Foundation - Blender"
					}
				],
				"xol_link_apps_list":0
			},
			"name":"Scene",
			"nodes":[
				38
			]
		}
	],
	"nodes":[
		{
			"extras":{
				"xrengine.entity":"collider_pine",
				"xrengine.EE_collider.shape":"box"
			},
			"mesh":0,
			"name":"collider_shape.028",
			"scale":[
				0.06839250773191452,
				0.06839250773191452,
				0.06839250773191452
			],
			"translation":[
				0,
				0.04751364141702652,
				-0.02298172190785408
			]
		},
		{
			"extras":{
				"xrengine.entity":"collider_pine",
				"xrengine.EE_collider.shape":"box"
			},
			"mesh":1,
			"name":"collider_shape.029",
			"scale":[
				0.050804685801267624,
				0.8008919358253479,
				0.050804685801267624
			],
			"translation":[
				0.007793543394654989,
				0.901835024356842,
				-0.016401592642068863
			]
		},
		{
			"mesh":2,
			"name":"pine_bushy_01",
			"rotation":[
				0.5091456770896912,
				0.412387877702713,
				-0.4754836857318878,
				0.5870453119277954
			],
			"translation":[
				-0.16301849484443665,
				55.22771453857422,
				0.6694315075874329
			]
		},
		{
			"mesh":2,
			"name":"pine_bushy_01.001",
			"rotation":[
				0.3711514472961426,
				0.6790143847465515,
				-0.5747580528259277,
				0.2661566436290741
			],
			"translation":[
				-0.328174889087677,
				53.2072868347168,
				0.7820521593093872
			]
		},
		{
			"mesh":2,
			"name":"pine_bushy_01.002",
			"rotation":[
				0.6251325011253357,
				0.14690259099006653,
				-0.10414856672286987,
				0.7594617009162903
			],
			"translation":[
				-0.1886497139930725,
				54.4848518371582,
				0.48505935072898865
			]
		},
		{
			"mesh":2,
			"name":"pine_bushy_01.003",
			"rotation":[
				0.40248578786849976,
				0.8217716217041016,
				-0.403066486120224,
				0.01529745478183031
			],
			"translation":[
				0.519393801689148,
				41.513431549072266,
				0.9527376890182495
			]
		},
		{
			"children":[
				2,
				3,
				4,
				5
			],
			"name":"pine_bushy.002",
			"scale":[
				0.0594853051006794,
				0.0594853051006794,
				0.0594853051006794
			]
		},
		{
			"mesh":3,
			"name":"pine_filler_01",
			"rotation":[
				0.7382224202156067,
				-0.30757802724838257,
				-0.11885906010866165,
				0.5884692072868347
			],
			"translation":[
				-0.035758137702941895,
				57.69620132446289,
				0.09247040748596191
			]
		},
		{
			"mesh":3,
			"name":"pine_filler_01.001",
			"rotation":[
				0.003307789796963334,
				0.6068689823150635,
				-0.6967180371284485,
				0.3824697732925415
			],
			"translation":[
				-0.0579569935798645,
				58.74104309082031,
				0.47691798210144043
			]
		},
		{
			"mesh":3,
			"name":"pine_filler_01.002",
			"rotation":[
				0.1588030606508255,
				-0.7313532829284668,
				0.6629541516304016,
				0.019893979653716087
			],
			"translation":[
				0.11937150359153748,
				56.730098724365234,
				0.39262455701828003
			]
		},
		{
			"mesh":3,
			"name":"pine_filler_01.003",
			"rotation":[
				0.24358414113521576,
				-0.6372365355491638,
				0.6596899032592773,
				0.3152865767478943
			],
			"translation":[
				0.048122286796569824,
				53.5053596496582,
				0.7218448519706726
			]
		},
		{
			"mesh":3,
			"name":"pine_filler_01.004",
			"rotation":[
				0.5199151635169983,
				-0.24726848304271698,
				0.4637683033943176,
				0.6733984351158142
			],
			"translation":[
				0.3898327350616455,
				51.657249450683594,
				0.6963487267494202
			]
		},
		{
			"mesh":3,
			"name":"pine_filler_01.005",
			"rotation":[
				0.6072191596031189,
				0.5788179636001587,
				-0.34550443291664124,
				0.4205727279186249
			],
			"translation":[
				0.539318323135376,
				49.02259063720703,
				0.5638907551765442
			]
		},
		{
			"mesh":3,
			"name":"pine_filler_01.006",
			"rotation":[
				-0.206387460231781,
				-0.6698660850524902,
				0.673324704170227,
				0.23519673943519592
			],
			"translation":[
				0.5168200731277466,
				46.96759033203125,
				0.7203369736671448
			]
		},
		{
			"children":[
				7,
				8,
				9,
				10,
				11,
				12,
				13
			],
			"name":"pine_filler.002",
			"scale":[
				0.0594853051006794,
				0.0594853051006794,
				0.0594853051006794
			]
		},
		{
			"mesh":4,
			"name":"pine_sapling_med_trunk",
			"rotation":[
				0.7071069478988647,
				0,
				0,
				0.7071066498756409
			],
			"scale":[
				0.0594853051006794,
				0.0594853013753891,
				0.0594853013753891
			]
		},
		{
			"mesh":5,
			"name":"pine_short_01",
			"rotation":[
				0.6044055223464966,
				-0.12547749280929565,
				0.35043859481811523,
				0.7043735980987549
			],
			"translation":[
				0.4734479784965515,
				41.48335266113281,
				1.3700531721115112
			]
		},
		{
			"mesh":5,
			"name":"pine_short_01.001",
			"rotation":[
				0.6415892839431763,
				0.5318304896354675,
				-0.25550928711891174,
				0.49013739824295044
			],
			"translation":[
				0.8890424966812134,
				45.16299819946289,
				1.3821015357971191
			]
		},
		{
			"mesh":5,
			"name":"pine_short_01.002",
			"rotation":[
				-0.0381166972219944,
				-0.6228753924369812,
				0.6996120810508728,
				0.34801778197288513
			],
			"translation":[
				0.5007748007774353,
				44.33627700805664,
				0.7408490180969238
			]
		},
		{
			"mesh":5,
			"name":"pine_short_01.003",
			"rotation":[
				0.6934537291526794,
				0.1610855758190155,
				0.0850604996085167,
				0.6970926523208618
			],
			"translation":[
				0.5639203786849976,
				47.55547332763672,
				0.9828539490699768
			]
		},
		{
			"mesh":5,
			"name":"pine_short_01.004",
			"rotation":[
				0.5654782056808472,
				0.6486179828643799,
				-0.43170735239982605,
				0.2704772353172302
			],
			"translation":[
				0.9513714909553528,
				38.79479217529297,
				0.442577064037323
			]
		},
		{
			"children":[
				16,
				17,
				18,
				19,
				20
			],
			"name":"pine_short.003",
			"scale":[
				0.0594853051006794,
				0.0594853051006794,
				0.0594853051006794
			]
		},
		{
			"mesh":6,
			"name":"pine_sparse_01.001",
			"rotation":[
				0.5470616221427917,
				-0.38528013229370117,
				0.4632510244846344,
				0.5811036825180054
			],
			"scale":[
				0.4917373061180115,
				0.4917372763156891,
				0.4917373061180115
			],
			"translation":[
				0.8604602217674255,
				34.00651168823242,
				-0.26682916283607483
			]
		},
		{
			"mesh":6,
			"name":"pine_sparse_01.002",
			"rotation":[
				0.1273512840270996,
				0.730809211730957,
				-0.6705280542373657,
				0.009580152109265327
			],
			"scale":[
				0.49173736572265625,
				0.4917373061180115,
				0.4917373061180115
			],
			"translation":[
				0.8704875111579895,
				33.510555267333984,
				-0.3509230315685272
			]
		},
		{
			"mesh":6,
			"name":"pine_sparse_01.003",
			"rotation":[
				0.6710762977600098,
				-0.006397026591002941,
				0.12442954629659653,
				0.7308439612388611
			],
			"scale":[
				0.4917372465133667,
				0.4917373061180115,
				0.4917372465133667
			],
			"translation":[
				0.9300615787506104,
				32.781593322753906,
				-0.38909775018692017
			]
		},
		{
			"mesh":6,
			"name":"pine_sparse_01.004",
			"rotation":[
				0.5586839914321899,
				0.5858437418937683,
				-0.382870078086853,
				0.44505029916763306
			],
			"scale":[
				0.4917373061180115,
				0.4917372465133667,
				0.4917372763156891
			],
			"translation":[
				1.7041505575180054,
				29.645465850830078,
				-0.7812950611114502
			]
		},
		{
			"children":[
				22,
				23,
				24,
				25
			],
			"name":"pine_sparse.003",
			"scale":[
				0.0594853051006794,
				0.0594853051006794,
				0.0594853051006794
			]
		},
		{
			"mesh":7,
			"name":"pine_tiny_01.001",
			"rotation":[
				-0.4695417284965515,
				0.6219742298126221,
				-0.5592511892318726,
				0.28269556164741516
			],
			"translation":[
				-0.0767141655087471,
				63.177650451660156,
				0.11981523036956787
			]
		},
		{
			"mesh":7,
			"name":"pine_tiny_01.002",
			"rotation":[
				0.7358788847923279,
				-0.6240929961204529,
				0.2502416968345642,
				0.0798083022236824
			],
			"translation":[
				-0.04527893289923668,
				59.686058044433594,
				0.16072838008403778
			]
		},
		{
			"mesh":7,
			"name":"pine_tiny_01.003",
			"rotation":[
				0.05979764088988304,
				-0.024473464116454124,
				-0.7925682067871094,
				0.6063504815101624
			],
			"translation":[
				-0.0403921902179718,
				67.54676055908203,
				0.2624046504497528
			]
		},
		{
			"mesh":7,
			"name":"pine_tiny_01.004",
			"rotation":[
				0.7697044014930725,
				-0.5245409607887268,
				-0.268121600151062,
				0.2460138201713562
			],
			"translation":[
				-0.0994393602013588,
				63.96342086791992,
				0.0513346828520298
			]
		},
		{
			"mesh":7,
			"name":"pine_tiny_01.005",
			"rotation":[
				0.6991371512413025,
				0.23758052289485931,
				-0.14420004189014435,
				0.6587633490562439
			],
			"translation":[
				0.9828817844390869,
				33.97703552246094,
				-0.4246525764465332
			]
		},
		{
			"mesh":7,
			"name":"pine_tiny_01.006",
			"rotation":[
				0.46770718693733215,
				-0.45840686559677124,
				0.5392925143241882,
				0.529411792755127
			],
			"translation":[
				0.6425310373306274,
				38.52242660522461,
				0.6437708139419556
			]
		},
		{
			"mesh":7,
			"name":"pine_tiny_01.007",
			"rotation":[
				0.2048211693763733,
				-0.5844199657440186,
				0.6836630702018738,
				0.3861430585384369
			],
			"translation":[
				0.7065014243125916,
				50.786903381347656,
				0.460767924785614
			]
		},
		{
			"mesh":7,
			"name":"pine_tiny_01.008",
			"rotation":[
				0.027587832883000374,
				-0.6888073086738586,
				0.7133198976516724,
				0.1263253390789032
			],
			"translation":[
				0.7998572587966919,
				28.704431533813477,
				-0.35570093989372253
			]
		},
		{
			"mesh":7,
			"name":"pine_tiny_01.009",
			"rotation":[
				0.35238346457481384,
				-0.44782474637031555,
				0.6390162110328674,
				0.516659677028656
			],
			"translation":[
				0.5924744009971619,
				26.61138916015625,
				-0.4840829074382782
			]
		},
		{
			"mesh":7,
			"name":"pine_tiny_01.010",
			"rotation":[
				0.7228533029556274,
				0.14602702856063843,
				0.09999486804008484,
				0.667952299118042
			],
			"translation":[
				0.5102370977401733,
				24.904582977294922,
				-0.4937945604324341
			]
		},
		{
			"children":[
				27,
				28,
				29,
				30,
				31,
				32,
				33,
				34,
				35,
				36
			],
			"name":"pine_tiny.001",
			"scale":[
				0.0594853051006794,
				0.0594853051006794,
				0.0594853051006794
			]
		},
		{
			"children":[
				0,
				1,
				6,
				14,
				15,
				21,
				26,
				37
			],
			"extras":{
				"xrengine.entity":"rbd_nature",
				"xrengine.EE_rigidbody.type":"fixed"
			},
			"name":"pineForestSaplingMed.002"
		}
	],
	"materials":[
		{
			"doubleSided":true,
			"extensions":{
				"KHR_materials_specular":{
					"specularColorFactor":[
						0.07086616754531859,
						0.07086616754531859,
						0.07086616754531859
					]
				}
			},
			"name":"pine_forest.001",
			"pbrMetallicRoughness":{
				"baseColorTexture":{
					"index":0
				},
				"metallicFactor":0
			}
		},
		{
			"doubleSided":true,
			"name":"19___Default.008",
			"pbrMetallicRoughness":{
				"baseColorTexture":{
					"index":1
				},
				"metallicFactor":0,
				"roughnessFactor":0
			}
		}
	],
	"meshes":[
		{
			"name":"Cube.054",
			"primitives":[
				{
					"attributes":{
						"POSITION":0,
						"NORMAL":1,
						"TEXCOORD_0":2
					},
					"indices":3
				}
			]
		},
		{
			"name":"Cube.055",
			"primitives":[
				{
					"attributes":{
						"POSITION":4,
						"NORMAL":5,
						"TEXCOORD_0":6
					},
					"indices":3
				}
			]
		},
		{
			"name":"pine_bushy_01.001",
			"primitives":[
				{
					"attributes":{
						"POSITION":7,
						"NORMAL":8,
						"TEXCOORD_0":9
					},
					"indices":10,
					"material":0
				}
			]
		},
		{
			"name":"pine_filler_01",
			"primitives":[
				{
					"attributes":{
						"POSITION":11,
						"NORMAL":12,
						"TEXCOORD_0":13
					},
					"indices":14,
					"material":0
				}
			]
		},
		{
			"name":"pine_sapling_med_trunk",
			"primitives":[
				{
					"attributes":{
						"POSITION":15,
						"NORMAL":16,
						"TEXCOORD_0":17
					},
					"indices":18,
					"material":1
				}
			]
		},
		{
			"name":"pine_short_01",
			"primitives":[
				{
					"attributes":{
						"POSITION":19,
						"NORMAL":20,
						"TEXCOORD_0":21
					},
					"indices":22,
					"material":0
				}
			]
		},
		{
			"name":"pine_sparse_01.001",
			"primitives":[
				{
					"attributes":{
						"POSITION":23,
						"NORMAL":24,
						"TEXCOORD_0":25
					},
					"indices":26,
					"material":1
				}
			]
		},
		{
			"name":"pine_tiny_01.001",
			"primitives":[
				{
					"attributes":{
						"POSITION":27,
						"NORMAL":28,
						"TEXCOORD_0":29
					},
					"indices":30,
					"material":1
				}
			]
		}
	],
	"textures":[
		{
			"sampler":0,
			"source":0
		},
		{
			"sampler":0,
			"source":1
		}
	],
	"images":[
		{
			"mimeType":"image/png",
			"name":"pine_forest_textures",
			"uri":"pine_forest_textures.png"
		},
		{
			"mimeType":"image/png",
			"name":"Map__20_Map_Output_Selector",
			"uri":"Map__20_Map_Output_Selector.png"
		}
	],
	"accessors":[
		{
			"bufferView":0,
			"componentType":5126,
			"count":24,
			"max":[
				1,
				1,
				1
			],
			"min":[
				-1,
				-1,
				-1
			],
			"type":"VEC3"
		},
		{
			"bufferView":1,
			"componentType":5126,
			"count":24,
			"type":"VEC3"
		},
		{
			"bufferView":2,
			"componentType":5126,
			"count":24,
			"type":"VEC2"
		},
		{
			"bufferView":3,
			"componentType":5123,
			"count":36,
			"type":"SCALAR"
		},
		{
			"bufferView":4,
			"componentType":5126,
			"count":24,
			"max":[
				1,
				1,
				1
			],
			"min":[
				-1,
				-1,
				-1
			],
			"type":"VEC3"
		},
		{
			"bufferView":5,
			"componentType":5126,
			"count":24,
			"type":"VEC3"
		},
		{
			"bufferView":6,
			"componentType":5126,
			"count":24,
			"type":"VEC2"
		},
		{
			"bufferView":7,
			"componentType":5126,
			"count":17014,
			"max":[
				-0.0052999998442828655,
				4.109499931335449,
				1.1050000190734863
			],
			"min":[
				-16.542800903320312,
				-6.461999893188477,
				-10.596500396728516
			],
			"type":"VEC3"
		},
		{
			"bufferView":8,
			"componentType":5126,
			"count":17014,
			"type":"VEC3"
		},
		{
			"bufferView":9,
			"componentType":5126,
			"count":17014,
			"type":"VEC2"
		},
		{
			"bufferView":10,
			"componentType":5123,
			"count":17016,
			"type":"SCALAR"
		},
		{
			"bufferView":11,
			"componentType":5126,
			"count":2705,
			"max":[
				0.020099999383091927,
				7.497099876403809,
				0.12290000170469284
			],
			"min":[
				-15.869600296020508,
				-6.0279998779296875,
				-10.625100135803223
			],
			"type":"VEC3"
		},
		{
			"bufferView":12,
			"componentType":5126,
			"count":2705,
			"type":"VEC3"
		},
		{
			"bufferView":13,
			"componentType":5126,
			"count":2705,
			"type":"VEC2"
		},
		{
			"bufferView":14,
			"componentType":5123,
			"count":5862,
			"type":"SCALAR"
		},
		{
			"bufferView":15,
			"componentType":5126,
			"count":603,
			"max":[
				1.6338000297546387,
				1.7032999992370605,
				0.2442999929189682
			],
			"min":[
				-2.0030999183654785,
				-1.8029999732971191,
				-68.6843032836914
			],
			"type":"VEC3"
		},
		{
			"bufferView":16,
			"componentType":5126,
			"count":603,
			"type":"VEC3"
		},
		{
			"bufferView":17,
			"componentType":5126,
			"count":603,
			"type":"VEC2"
		},
		{
			"bufferView":18,
			"componentType":5123,
			"count":672,
			"type":"SCALAR"
		},
		{
			"bufferView":19,
			"componentType":5126,
			"count":4606,
			"max":[
				0.08179999887943268,
				9.274100303649902,
				2.664599895477295
			],
			"min":[
				-27.326499938964844,
				-8.868399620056152,
				-9.961099624633789
			],
			"type":"VEC3"
		},
		{
			"bufferView":20,
			"componentType":5126,
			"count":4606,
			"type":"VEC3"
		},
		{
			"bufferView":21,
			"componentType":5126,
			"count":4606,
			"type":"VEC2"
		},
		{
			"bufferView":22,
			"componentType":5123,
			"count":10038,
			"type":"SCALAR"
		},
		{
			"bufferView":23,
			"componentType":5126,
			"count":5147,
			"max":[
				-0.04960000142455101,
				5.423699855804443,
				4.283400058746338
			],
			"min":[
				-42.524200439453125,
				-13.624899864196777,
				-7.718200206756592
			],
			"type":"VEC3"
		},
		{
			"bufferView":24,
			"componentType":5126,
			"count":5147,
			"type":"VEC3"
		},
		{
			"bufferView":25,
			"componentType":5126,
			"count":5147,
			"type":"VEC2"
		},
		{
			"bufferView":26,
			"componentType":5123,
			"count":12207,
			"type":"SCALAR"
		},
		{
			"bufferView":27,
			"componentType":5126,
			"count":933,
			"max":[
				-0.05000000074505806,
				4.440999984741211,
				2.8153998851776123
			],
			"min":[
				-13.258099555969238,
				-6.823699951171875,
				-1.6092000007629395
			],
			"type":"VEC3"
		},
		{
			"bufferView":28,
			"componentType":5126,
			"count":933,
			"type":"VEC3"
		},
		{
			"bufferView":29,
			"componentType":5126,
			"count":933,
			"type":"VEC2"
		},
		{
			"bufferView":30,
			"componentType":5123,
			"count":2112,
			"type":"SCALAR"
		}
	],
	"bufferViews":[
		{
			"buffer":0,
			"byteLength":288,
			"byteOffset":0,
			"target":34962
		},
		{
			"buffer":0,
			"byteLength":288,
			"byteOffset":288,
			"target":34962
		},
		{
			"buffer":0,
			"byteLength":192,
			"byteOffset":576,
			"target":34962
		},
		{
			"buffer":0,
			"byteLength":72,
			"byteOffset":768,
			"target":34963
		},
		{
			"buffer":0,
			"byteLength":288,
			"byteOffset":840,
			"target":34962
		},
		{
			"buffer":0,
			"byteLength":288,
			"byteOffset":1128,
			"target":34962
		},
		{
			"buffer":0,
			"byteLength":192,
			"byteOffset":1416,
			"target":34962
		},
		{
			"buffer":0,
			"byteLength":204168,
			"byteOffset":1608,
			"target":34962
		},
		{
			"buffer":0,
			"byteLength":204168,
			"byteOffset":205776,
			"target":34962
		},
		{
			"buffer":0,
			"byteLength":136112,
			"byteOffset":409944,
			"target":34962
		},
		{
			"buffer":0,
			"byteLength":34032,
			"byteOffset":546056,
			"target":34963
		},
		{
			"buffer":0,
			"byteLength":32460,
			"byteOffset":580088,
			"target":34962
		},
		{
			"buffer":0,
			"byteLength":32460,
			"byteOffset":612548,
			"target":34962
		},
		{
			"buffer":0,
			"byteLength":21640,
			"byteOffset":645008,
			"target":34962
		},
		{
			"buffer":0,
			"byteLength":11724,
			"byteOffset":666648,
			"target":34963
		},
		{
			"buffer":0,
			"byteLength":7236,
			"byteOffset":678372,
			"target":34962
		},
		{
			"buffer":0,
			"byteLength":7236,
			"byteOffset":685608,
			"target":34962
		},
		{
			"buffer":0,
			"byteLength":4824,
			"byteOffset":692844,
			"target":34962
		},
		{
			"buffer":0,
			"byteLength":1344,
			"byteOffset":697668,
			"target":34963
		},
		{
			"buffer":0,
			"byteLength":55272,
			"byteOffset":699012,
			"target":34962
		},
		{
			"buffer":0,
			"byteLength":55272,
			"byteOffset":754284,
			"target":34962
		},
		{
			"buffer":0,
			"byteLength":36848,
			"byteOffset":809556,
			"target":34962
		},
		{
			"buffer":0,
			"byteLength":20076,
			"byteOffset":846404,
			"target":34963
		},
		{
			"buffer":0,
			"byteLength":61764,
			"byteOffset":866480,
			"target":34962
		},
		{
			"buffer":0,
			"byteLength":61764,
			"byteOffset":928244,
			"target":34962
		},
		{
			"buffer":0,
			"byteLength":41176,
			"byteOffset":990008,
			"target":34962
		},
		{
			"buffer":0,
			"byteLength":24414,
			"byteOffset":1031184,
			"target":34963
		},
		{
			"buffer":0,
			"byteLength":11196,
			"byteOffset":1055600,
			"target":34962
		},
		{
			"buffer":0,
			"byteLength":11196,
			"byteOffset":1066796,
			"target":34962
		},
		{
			"buffer":0,
			"byteLength":7464,
			"byteOffset":1077992,
			"target":34962
		},
		{
			"buffer":0,
			"byteLength":4224,
			"byteOffset":1085456,
			"target":34963
		}
	],
	"samplers":[
		{
			"magFilter":9729,
			"minFilter":9987
		}
	],
	"buffers":[
		{
			"byteLength":1089680,
			"uri":"pineSaplingMed.bin"
		}
	]
}
