{
	"asset":{
		"generator":"Khronos glTF Blender I/O v4.1.63",
		"version":"2.0"
	},
	"extensionsUsed":[
		"EXT_mesh_gpu_instancing"
	],
	"scene":0,
	"scenes":[
		{
			"name":"Scene",
			"nodes":[
				7
			]
		}
	],
	"nodes":[
		{
			"extras":{
				"xrengine.entity":"collider_container",
				"xrengine.EE_collider.shape":"box"
			},
			"mesh":0,
			"name":"collider_container",
			"scale":[
				0.0588412880897522,
				1.1324325799942017,
				0.0588412880897522
			],
			"translation":[
				0,
				1.042096495628357,
				0
			]
		},
		{
			"extensions":{
				"EXT_mesh_gpu_instancing":{
					"attributes":{
						"TRANSLATION":28,
						"ROTATION":29,
						"SCALE":30
					}
				}
			},
			"mesh":1,
			"name":"pine_bushy.002",
			"scale":[
				0.0594853051006794,
				0.0594853051006794,
				0.0594853051006794
			]
		},
		{
			"extensions":{
				"EXT_mesh_gpu_instancing":{
					"attributes":{
						"TRANSLATION":31,
						"ROTATION":32,
						"SCALE":33
					}
				}
			},
			"mesh":2,
			"name":"pine_filler.002",
			"scale":[
				0.0594853051006794,
				0.0594853051006794,
				0.0594853051006794
			]
		},
		{
			"mesh":3,
			"name":"pine_sapling_med_trunk",
			"rotation":[
				0.7071069478988647,
				0,
				0,
				0.7071066498756409
			],
			"scale":[
				0.0594853051006794,
				0.0594853013753891,
				0.0594853013753891
			]
		},
		{
			"extensions":{
				"EXT_mesh_gpu_instancing":{
					"attributes":{
						"TRANSLATION":34,
						"ROTATION":35,
						"SCALE":36
					}
				}
			},
			"mesh":4,
			"name":"pine_short.003",
			"scale":[
				0.0594853051006794,
				0.0594853051006794,
				0.0594853051006794
			]
		},
		{
			"extensions":{
				"EXT_mesh_gpu_instancing":{
					"attributes":{
						"TRANSLATION":37,
						"ROTATION":38,
						"SCALE":39
					}
				}
			},
			"mesh":5,
			"name":"pine_sparse.003",
			"scale":[
				0.0594853051006794,
				0.0594853051006794,
				0.0594853051006794
			]
		},
		{
			"extensions":{
				"EXT_mesh_gpu_instancing":{
					"attributes":{
						"TRANSLATION":40,
						"ROTATION":41,
						"SCALE":42
					}
				}
			},
			"mesh":6,
			"name":"pine_tiny.001",
			"scale":[
				0.0594853051006794,
				0.0594853051006794,
				0.0594853051006794
			]
		},
		{
			"children":[
				0,
				1,
				2,
				3,
				4,
				5,
				6
			],
			"extras":{
				"xrengine.entity":"rbd_container",
				"xrengine.EE_rigidbody.type":"fixed"
			},
			"name":"pineSaplingMed"
		}
	],
	"materials":[
		{
			"doubleSided":true,
			"name":"19___Default.001",
			"pbrMetallicRoughness":{
				"baseColorTexture":{
					"index":0
				},
				"metallicFactor":0,
				"roughnessFactor":0
			}
		},
		{
			"doubleSided":true,
			"name":"19___Default.008",
			"pbrMetallicRoughness":{
				"baseColorTexture":{
					"index":1
				},
				"metallicFactor":0,
				"roughnessFactor":0
			}
		}
	],
	"meshes":[
		{
			"name":"Cube.003",
			"primitives":[
				{
					"attributes":{
						"POSITION":0,
						"NORMAL":1,
						"TEXCOORD_0":2
					},
					"indices":3
				}
			]
		},
		{
			"name":"pine_bushy_01.001",
			"primitives":[
				{
					"attributes":{
						"POSITION":4,
						"NORMAL":5,
						"TEXCOORD_0":6
					},
					"indices":7,
					"material":0
				}
			]
		},
		{
			"name":"pine_filler_01",
			"primitives":[
				{
					"attributes":{
						"POSITION":8,
						"NORMAL":9,
						"TEXCOORD_0":10
					},
					"indices":11,
					"material":0
				}
			]
		},
		{
			"name":"pine_sapling_med_trunk",
			"primitives":[
				{
					"attributes":{
						"POSITION":12,
						"NORMAL":13,
						"TEXCOORD_0":14
					},
					"indices":15,
					"material":1
				}
			]
		},
		{
			"name":"pine_short_01",
			"primitives":[
				{
					"attributes":{
						"POSITION":16,
						"NORMAL":17,
						"TEXCOORD_0":18
					},
					"indices":19,
					"material":0
				}
			]
		},
		{
			"name":"pine_sparse_01.001",
			"primitives":[
				{
					"attributes":{
						"POSITION":20,
						"NORMAL":21,
						"TEXCOORD_0":22
					},
					"indices":23,
					"material":1
				}
			]
		},
		{
			"name":"pine_tiny_01.001",
			"primitives":[
				{
					"attributes":{
						"POSITION":24,
						"NORMAL":25,
						"TEXCOORD_0":26
					},
					"indices":27,
					"material":1
				}
			]
		}
	],
	"textures":[
		{
			"sampler":0,
			"source":0
		},
		{
			"sampler":0,
			"source":0
		}
	],
	"images":[
		{
			"mimeType":"image/png",
			"name":"Map__20_Map_Output_Selector",
			"uri":"Map__20_Map_Output_Selector.png"
		}
	],
	"accessors":[
		{
			"bufferView":0,
			"componentType":5126,
			"count":24,
			"max":[
				1,
				1,
				1
			],
			"min":[
				-1,
				-1,
				-1
			],
			"type":"VEC3"
		},
		{
			"bufferView":1,
			"componentType":5126,
			"count":24,
			"type":"VEC3"
		},
		{
			"bufferView":2,
			"componentType":5126,
			"count":24,
			"type":"VEC2"
		},
		{
			"bufferView":3,
			"componentType":5123,
			"count":36,
			"type":"SCALAR"
		},
		{
			"bufferView":4,
			"componentType":5126,
			"count":17014,
			"max":[
				-0.0052999998442828655,
				4.109499931335449,
				1.1050000190734863
			],
			"min":[
				-16.542800903320312,
				-6.461999893188477,
				-10.596500396728516
			],
			"type":"VEC3"
		},
		{
			"bufferView":5,
			"componentType":5126,
			"count":17014,
			"type":"VEC3"
		},
		{
			"bufferView":6,
			"componentType":5126,
			"count":17014,
			"type":"VEC2"
		},
		{
			"bufferView":7,
			"componentType":5123,
			"count":17016,
			"type":"SCALAR"
		},
		{
			"bufferView":8,
			"componentType":5126,
			"count":2705,
			"max":[
				0.020099999383091927,
				7.497099876403809,
				0.12290000170469284
			],
			"min":[
				-15.869600296020508,
				-6.0279998779296875,
				-10.625100135803223
			],
			"type":"VEC3"
		},
		{
			"bufferView":9,
			"componentType":5126,
			"count":2705,
			"type":"VEC3"
		},
		{
			"bufferView":10,
			"componentType":5126,
			"count":2705,
			"type":"VEC2"
		},
		{
			"bufferView":11,
			"componentType":5123,
			"count":5862,
			"type":"SCALAR"
		},
		{
			"bufferView":12,
			"componentType":5126,
			"count":603,
			"max":[
				1.6338000297546387,
				1.7032999992370605,
				0.2442999929189682
			],
			"min":[
				-2.0030999183654785,
				-1.8029999732971191,
				-68.6843032836914
			],
			"type":"VEC3"
		},
		{
			"bufferView":13,
			"componentType":5126,
			"count":603,
			"type":"VEC3"
		},
		{
			"bufferView":14,
			"componentType":5126,
			"count":603,
			"type":"VEC2"
		},
		{
			"bufferView":15,
			"componentType":5123,
			"count":672,
			"type":"SCALAR"
		},
		{
			"bufferView":16,
			"componentType":5126,
			"count":4608,
			"max":[
				0.08179999887943268,
				9.274100303649902,
				2.664599895477295
			],
			"min":[
				-27.326499938964844,
				-8.868399620056152,
				-9.961099624633789
			],
			"type":"VEC3"
		},
		{
			"bufferView":17,
			"componentType":5126,
			"count":4608,
			"type":"VEC3"
		},
		{
			"bufferView":18,
			"componentType":5126,
			"count":4608,
			"type":"VEC2"
		},
		{
			"bufferView":19,
			"componentType":5123,
			"count":10038,
			"type":"SCALAR"
		},
		{
			"bufferView":20,
			"componentType":5126,
			"count":5147,
			"max":[
				-0.04960000142455101,
				5.423699855804443,
				4.283400058746338
			],
			"min":[
				-42.524200439453125,
				-13.624899864196777,
				-7.718200206756592
			],
			"type":"VEC3"
		},
		{
			"bufferView":21,
			"componentType":5126,
			"count":5147,
			"type":"VEC3"
		},
		{
			"bufferView":22,
			"componentType":5126,
			"count":5147,
			"type":"VEC2"
		},
		{
			"bufferView":23,
			"componentType":5123,
			"count":12207,
			"type":"SCALAR"
		},
		{
			"bufferView":24,
			"componentType":5126,
			"count":933,
			"max":[
				-0.05000000074505806,
				4.440999984741211,
				2.8153998851776123
			],
			"min":[
				-13.258099555969238,
				-6.823699951171875,
				-1.6092000007629395
			],
			"type":"VEC3"
		},
		{
			"bufferView":25,
			"componentType":5126,
			"count":933,
			"type":"VEC3"
		},
		{
			"bufferView":26,
			"componentType":5126,
			"count":933,
			"type":"VEC2"
		},
		{
			"bufferView":27,
			"componentType":5123,
			"count":2112,
			"type":"SCALAR"
		},
		{
			"bufferView":28,
			"componentType":5126,
			"count":4,
			"type":"VEC3"
		},
		{
			"bufferView":29,
			"componentType":5126,
			"count":4,
			"type":"VEC4"
		},
		{
			"bufferView":30,
			"componentType":5126,
			"count":4,
			"type":"VEC3"
		},
		{
			"bufferView":31,
			"componentType":5126,
			"count":7,
			"type":"VEC3"
		},
		{
			"bufferView":32,
			"componentType":5126,
			"count":7,
			"type":"VEC4"
		},
		{
			"bufferView":33,
			"componentType":5126,
			"count":7,
			"type":"VEC3"
		},
		{
			"bufferView":34,
			"componentType":5126,
			"count":5,
			"type":"VEC3"
		},
		{
			"bufferView":35,
			"componentType":5126,
			"count":5,
			"type":"VEC4"
		},
		{
			"bufferView":36,
			"componentType":5126,
			"count":5,
			"type":"VEC3"
		},
		{
			"bufferView":37,
			"componentType":5126,
			"count":4,
			"type":"VEC3"
		},
		{
			"bufferView":38,
			"componentType":5126,
			"count":4,
			"type":"VEC4"
		},
		{
			"bufferView":39,
			"componentType":5126,
			"count":4,
			"type":"VEC3"
		},
		{
			"bufferView":40,
			"componentType":5126,
			"count":10,
			"type":"VEC3"
		},
		{
			"bufferView":41,
			"componentType":5126,
			"count":10,
			"type":"VEC4"
		},
		{
			"bufferView":42,
			"componentType":5126,
			"count":10,
			"type":"VEC3"
		}
	],
	"bufferViews":[
		{
			"buffer":0,
			"byteLength":288,
			"byteOffset":0,
			"target":34962
		},
		{
			"buffer":0,
			"byteLength":288,
			"byteOffset":288,
			"target":34962
		},
		{
			"buffer":0,
			"byteLength":192,
			"byteOffset":576,
			"target":34962
		},
		{
			"buffer":0,
			"byteLength":72,
			"byteOffset":768,
			"target":34963
		},
		{
			"buffer":0,
			"byteLength":204168,
			"byteOffset":840,
			"target":34962
		},
		{
			"buffer":0,
			"byteLength":204168,
			"byteOffset":205008,
			"target":34962
		},
		{
			"buffer":0,
			"byteLength":136112,
			"byteOffset":409176,
			"target":34962
		},
		{
			"buffer":0,
			"byteLength":34032,
			"byteOffset":545288,
			"target":34963
		},
		{
			"buffer":0,
			"byteLength":32460,
			"byteOffset":579320,
			"target":34962
		},
		{
			"buffer":0,
			"byteLength":32460,
			"byteOffset":611780,
			"target":34962
		},
		{
			"buffer":0,
			"byteLength":21640,
			"byteOffset":644240,
			"target":34962
		},
		{
			"buffer":0,
			"byteLength":11724,
			"byteOffset":665880,
			"target":34963
		},
		{
			"buffer":0,
			"byteLength":7236,
			"byteOffset":677604,
			"target":34962
		},
		{
			"buffer":0,
			"byteLength":7236,
			"byteOffset":684840,
			"target":34962
		},
		{
			"buffer":0,
			"byteLength":4824,
			"byteOffset":692076,
			"target":34962
		},
		{
			"buffer":0,
			"byteLength":1344,
			"byteOffset":696900,
			"target":34963
		},
		{
			"buffer":0,
			"byteLength":55296,
			"byteOffset":698244,
			"target":34962
		},
		{
			"buffer":0,
			"byteLength":55296,
			"byteOffset":753540,
			"target":34962
		},
		{
			"buffer":0,
			"byteLength":36864,
			"byteOffset":808836,
			"target":34962
		},
		{
			"buffer":0,
			"byteLength":20076,
			"byteOffset":845700,
			"target":34963
		},
		{
			"buffer":0,
			"byteLength":61764,
			"byteOffset":865776,
			"target":34962
		},
		{
			"buffer":0,
			"byteLength":61764,
			"byteOffset":927540,
			"target":34962
		},
		{
			"buffer":0,
			"byteLength":41176,
			"byteOffset":989304,
			"target":34962
		},
		{
			"buffer":0,
			"byteLength":24414,
			"byteOffset":1030480,
			"target":34963
		},
		{
			"buffer":0,
			"byteLength":11196,
			"byteOffset":1054896,
			"target":34962
		},
		{
			"buffer":0,
			"byteLength":11196,
			"byteOffset":1066092,
			"target":34962
		},
		{
			"buffer":0,
			"byteLength":7464,
			"byteOffset":1077288,
			"target":34962
		},
		{
			"buffer":0,
			"byteLength":4224,
			"byteOffset":1084752,
			"target":34963
		},
		{
			"buffer":0,
			"byteLength":48,
			"byteOffset":1088976
		},
		{
			"buffer":0,
			"byteLength":64,
			"byteOffset":1089024
		},
		{
			"buffer":0,
			"byteLength":48,
			"byteOffset":1089088
		},
		{
			"buffer":0,
			"byteLength":84,
			"byteOffset":1089136
		},
		{
			"buffer":0,
			"byteLength":112,
			"byteOffset":1089220
		},
		{
			"buffer":0,
			"byteLength":84,
			"byteOffset":1089332
		},
		{
			"buffer":0,
			"byteLength":60,
			"byteOffset":1089416
		},
		{
			"buffer":0,
			"byteLength":80,
			"byteOffset":1089476
		},
		{
			"buffer":0,
			"byteLength":60,
			"byteOffset":1089556
		},
		{
			"buffer":0,
			"byteLength":48,
			"byteOffset":1089616
		},
		{
			"buffer":0,
			"byteLength":64,
			"byteOffset":1089664
		},
		{
			"buffer":0,
			"byteLength":48,
			"byteOffset":1089728
		},
		{
			"buffer":0,
			"byteLength":120,
			"byteOffset":1089776
		},
		{
			"buffer":0,
			"byteLength":160,
			"byteOffset":1089896
		},
		{
			"buffer":0,
			"byteLength":120,
			"byteOffset":1090056
		}
	],
	"samplers":[
		{
			"magFilter":9729,
			"minFilter":9987
		}
	],
	"buffers":[
		{
			"byteLength":1090176,
			"uri":"pineSaplingMed.bin"
		}
	]
}
