{
	"asset":{
		"generator":"Khronos glTF Blender I/O v3.6.28",
		"version":"2.0"
	},
	"extensionsUsed":[
		"KHR_materials_specular"
	],
	"scene":0,
	"scenes":[
		{
			"extras":{
				"xol_link_apps":[
					{
						"id":52251,
						"port":"52251",
						"type":"BLD",
						"label":"Blender Foundation - Blender"
					},
					{
						"id":53466,
						"port":"53466",
						"type":"BLD",
						"label":"Blender Foundation - Blender"
					},
					{
						"id":53637,
						"port":"53637",
						"type":"BLD",
						"label":"Blender Foundation - Blender"
					}
				],
				"xol_link_apps_list":0
			},
			"name":"Scene",
			"nodes":[
				4
			]
		}
	],
	"nodes":[
		{
			"extras":{
				"xrengine.entity":"collider_pine",
				"xrengine.EE_collider.shape":"box"
			},
			"mesh":0,
			"name":"collider_shape.038",
			"rotation":[
				-0.70710688829422,
				0,
				0,
				0.7071066498756409
			],
			"scale":[
				5.953287124633789,
				5.953287124633789,
				5.953287124633789
			],
			"translation":[
				4.4901533126831055,
				-0.5022383332252502,
				-0.7722424864768982
			]
		},
		{
			"extras":{
				"xrengine.entity":"collider_pine",
				"xrengine.EE_collider.shape":"box"
			},
			"mesh":1,
			"name":"collider_shape.042",
			"rotation":[
				-0.70710688829422,
				0,
				0,
				0.7071066498756409
			],
			"scale":[
				5.551372528076172,
				5.551372528076172,
				6.846070289611816
			],
			"translation":[
				-3.9180617332458496,
				-0.7230225205421448,
				2.000328540802002
			]
		},
		{
			"extras":{
				"xrengine.entity":"collider_pine",
				"xrengine.EE_collider.shape":"box"
			},
			"mesh":2,
			"name":"collider_shape.043",
			"rotation":[
				-0.7071069478988647,
				0,
				0,
				0.7071066498756409
			],
			"scale":[
				3.7387351989746094,
				3.7387351989746094,
				3.7387351989746094
			],
			"translation":[
				-0.16460511088371277,
				1.2612348794937134,
				-2.775693893432617
			]
		},
		{
			"children":[
				0,
				1,
				2
			],
			"mesh":3,
			"name":"pine_forest_rock_03",
			"rotation":[
				0.70710688829422,
				0,
				0,
				0.7071066498756409
			],
			"scale":[
				0.1000218391418457,
				0.1000218391418457,
				0.1000218391418457
			]
		},
		{
			"children":[
				3
			],
			"extras":{
				"xrengine.entity":"rbd_nature",
				"xrengine.EE_rigidbody.type":"fixed"
			},
			"name":"pineForestRock01.003"
		}
	],
	"materials":[
		{
			"doubleSided":true,
			"extensions":{
				"KHR_materials_specular":{
					"specularColorFactor":[
						0.07086616754531859,
						0.07086616754531859,
						0.07086616754531859
					]
				}
			},
			"name":"pine_forest.001",
			"pbrMetallicRoughness":{
				"baseColorTexture":{
					"index":0
				},
				"metallicFactor":0
			}
		}
	],
	"meshes":[
		{
			"name":"Cube.039",
			"primitives":[
				{
					"attributes":{
						"POSITION":0,
						"NORMAL":1,
						"TEXCOORD_0":2
					},
					"indices":3
				}
			]
		},
		{
			"name":"Cube.051",
			"primitives":[
				{
					"attributes":{
						"POSITION":4,
						"NORMAL":5,
						"TEXCOORD_0":6
					},
					"indices":3
				}
			]
		},
		{
			"name":"Cube.052",
			"primitives":[
				{
					"attributes":{
						"POSITION":7,
						"NORMAL":8,
						"TEXCOORD_0":9
					},
					"indices":3
				}
			]
		},
		{
			"name":"pine_forest_rock_03",
			"primitives":[
				{
					"attributes":{
						"POSITION":10,
						"NORMAL":11,
						"TEXCOORD_0":12
					},
					"indices":13,
					"material":0
				}
			]
		}
	],
	"textures":[
		{
			"sampler":0,
			"source":0
		}
	],
	"images":[
		{
			"mimeType":"image/png",
			"name":"pine_forest_textures",
			"uri":"pine_forest_textures.png"
		}
	],
	"accessors":[
		{
			"bufferView":0,
			"componentType":5126,
			"count":24,
			"max":[
				1,
				1,
				1
			],
			"min":[
				-1,
				-1,
				-1
			],
			"type":"VEC3"
		},
		{
			"bufferView":1,
			"componentType":5126,
			"count":24,
			"type":"VEC3"
		},
		{
			"bufferView":2,
			"componentType":5126,
			"count":24,
			"type":"VEC2"
		},
		{
			"bufferView":3,
			"componentType":5123,
			"count":36,
			"type":"SCALAR"
		},
		{
			"bufferView":4,
			"componentType":5126,
			"count":24,
			"max":[
				1,
				1,
				1
			],
			"min":[
				-1,
				-1,
				-1
			],
			"type":"VEC3"
		},
		{
			"bufferView":5,
			"componentType":5126,
			"count":24,
			"type":"VEC3"
		},
		{
			"bufferView":6,
			"componentType":5126,
			"count":24,
			"type":"VEC2"
		},
		{
			"bufferView":7,
			"componentType":5126,
			"count":24,
			"max":[
				1,
				1,
				1
			],
			"min":[
				-1,
				-1,
				-1
			],
			"type":"VEC3"
		},
		{
			"bufferView":8,
			"componentType":5126,
			"count":24,
			"type":"VEC3"
		},
		{
			"bufferView":9,
			"componentType":5126,
			"count":24,
			"type":"VEC2"
		},
		{
			"bufferView":10,
			"componentType":5126,
			"count":558,
			"max":[
				12.225299835205078,
				6.6493000984191895,
				7.294099807739258
			],
			"min":[
				-12.225299835205078,
				-6.6493000984191895,
				-7.294099807739258
			],
			"type":"VEC3"
		},
		{
			"bufferView":11,
			"componentType":5126,
			"count":558,
			"type":"VEC3"
		},
		{
			"bufferView":12,
			"componentType":5126,
			"count":558,
			"type":"VEC2"
		},
		{
			"bufferView":13,
			"componentType":5123,
			"count":3042,
			"type":"SCALAR"
		}
	],
	"bufferViews":[
		{
			"buffer":0,
			"byteLength":288,
			"byteOffset":0,
			"target":34962
		},
		{
			"buffer":0,
			"byteLength":288,
			"byteOffset":288,
			"target":34962
		},
		{
			"buffer":0,
			"byteLength":192,
			"byteOffset":576,
			"target":34962
		},
		{
			"buffer":0,
			"byteLength":72,
			"byteOffset":768,
			"target":34963
		},
		{
			"buffer":0,
			"byteLength":288,
			"byteOffset":840,
			"target":34962
		},
		{
			"buffer":0,
			"byteLength":288,
			"byteOffset":1128,
			"target":34962
		},
		{
			"buffer":0,
			"byteLength":192,
			"byteOffset":1416,
			"target":34962
		},
		{
			"buffer":0,
			"byteLength":288,
			"byteOffset":1608,
			"target":34962
		},
		{
			"buffer":0,
			"byteLength":288,
			"byteOffset":1896,
			"target":34962
		},
		{
			"buffer":0,
			"byteLength":192,
			"byteOffset":2184,
			"target":34962
		},
		{
			"buffer":0,
			"byteLength":6696,
			"byteOffset":2376,
			"target":34962
		},
		{
			"buffer":0,
			"byteLength":6696,
			"byteOffset":9072,
			"target":34962
		},
		{
			"buffer":0,
			"byteLength":4464,
			"byteOffset":15768,
			"target":34962
		},
		{
			"buffer":0,
			"byteLength":6084,
			"byteOffset":20232,
			"target":34963
		}
	],
	"samplers":[
		{
			"magFilter":9729,
			"minFilter":9987
		}
	],
	"buffers":[
		{
			"byteLength":26316,
			"uri":"pineForest_rock_03.bin"
		}
	]
}
