{
	"asset":{
		"generator":"Khronos glTF Blender I/O v3.6.28",
		"version":"2.0"
	},
	"scene":0,
	"scenes":[
		{
			"extras":{
				"xol_link_apps":[
					{
						"id":52251,
						"port":"52251",
						"type":"BLD",
						"label":"Blender Foundation - Blender"
					},
					{
						"id":53466,
						"port":"53466",
						"type":"BLD",
						"label":"Blender Foundation - Blender"
					},
					{
						"id":53637,
						"port":"53637",
						"type":"BLD",
						"label":"Blender Foundation - Blender"
					}
				],
				"xol_link_apps_list":0
			},
			"name":"Scene",
			"nodes":[
				15
			]
		}
	],
	"nodes":[
		{
			"extras":{
				"xrengine.entity":"bonsai_collider",
				"xrengine.EE_collider.shape":"box"
			},
			"mesh":0,
			"name":"Cube_collider",
			"rotation":[
				0.8210554122924805,
				0,
				0,
				0.5708485841751099
			],
			"scale":[
				1,
				0.5729910135269165,
				1
			],
			"translation":[
				-0.04518766701221466,
				0,
				0.6848865747451782
			]
		},
		{
			"extras":{
				"xrengine.entity":"bonsai_collider",
				"xrengine.EE_collider.shape":"box"
			},
			"mesh":1,
			"name":"Cube_collider.001",
			"rotation":[
				0.70710688829422,
				0,
				0,
				0.7071066498756409
			],
			"scale":[
				0.6466595530509949,
				0.3705301284790039,
				0.6466594934463501
			],
			"translation":[
				0.253445029258728,
				-1.276795506477356,
				0.37327292561531067
			]
		},
		{
			"extras":{
				"xrengine.entity":"bonsai_collider",
				"xrengine.EE_collider.shape":"box"
			},
			"mesh":2,
			"name":"Cube_collider.002",
			"rotation":[
				0.70710688829422,
				0,
				0,
				0.7071066498756409
			],
			"scale":[
				0.846790611743927,
				0.2592841684818268,
				0.45250990986824036
			],
			"translation":[
				-0.7497632503509521,
				0.9778954386711121,
				0.5037580132484436
			]
		},
		{
			"extras":{
				"xrengine.entity":"bonsai_collider",
				"xrengine.EE_collider.shape":"box"
			},
			"mesh":3,
			"name":"Cube_collider.003",
			"rotation":[
				0.4064238667488098,
				0.05899173393845558,
				0.03083212673664093,
				0.9112567901611328
			],
			"scale":[
				1.3734387159347534,
				1.9992687702178955,
				0.7339413166046143
			],
			"translation":[
				0.7106289863586426,
				1.6749008893966675,
				1.437555193901062
			]
		},
		{
			"extras":{
				"xrengine.entity":"bonsai_collider",
				"xrengine.EE_collider.shape":"box"
			},
			"mesh":4,
			"name":"Cube_collider.004",
			"rotation":[
				0.70710688829422,
				0,
				0,
				0.7071066498756409
			],
			"scale":[
				0.6466595530509949,
				2.1293716430664062,
				1.0908942222595215
			],
			"translation":[
				1.388874888420105,
				2.048748016357422,
				4.604787349700928
			]
		},
		{
			"mesh":5,
			"name":"Pine.Shape_Leaves_0"
		},
		{
			"mesh":6,
			"name":"Pine.Shape_Leaves_0.001"
		},
		{
			"mesh":7,
			"name":"Pine.Shape_Moss_0"
		},
		{
			"mesh":8,
			"name":"Pine.Shape_Pine_0"
		},
		{
			"mesh":9,
			"name":"Pine.Shape_Pine_0.001"
		},
		{
			"mesh":10,
			"name":"Pine.Shape_Stone_0"
		},
		{
			"children":[
				5,
				6,
				7,
				8,
				9,
				10
			],
			"name":"Pine.Shape"
		},
		{
			"children":[
				11
			],
			"name":"Pine"
		},
		{
			"children":[
				12
			],
			"name":"RootNode"
		},
		{
			"children":[
				13
			],
			"name":"Pine.fbx",
			"rotation":[
				0.70710688829422,
				0,
				0,
				0.7071066498756409
			],
			"scale":[
				0.009999999776482582,
				0.010000000707805157,
				0.010000000707805157
			]
		},
		{
			"children":[
				0,
				1,
				2,
				3,
				4,
				14
			],
			"extras":{
				"xrengine.entity":"bonsai_container",
				"xrengine.EE_rigidbody.type":"fixed"
			},
			"name":"bonsai",
			"rotation":[
				-0.70710688829422,
				0,
				0,
				0.7071066498756409
			]
		}
	],
	"materials":[
		{
			"doubleSided":true,
			"name":"Leaves",
			"pbrMetallicRoughness":{
				"baseColorTexture":{
					"index":0
				},
				"metallicFactor":0,
				"roughnessFactor":0.9577051401138306
			}
		},
		{
			"doubleSided":true,
			"name":"Moss",
			"pbrMetallicRoughness":{
				"baseColorTexture":{
					"index":1
				},
				"metallicFactor":0,
				"roughnessFactor":0.9577051401138306
			}
		},
		{
			"doubleSided":true,
			"name":"Pine",
			"pbrMetallicRoughness":{
				"baseColorTexture":{
					"index":2
				},
				"metallicFactor":0,
				"roughnessFactor":0.9577051401138306
			}
		},
		{
			"doubleSided":true,
			"name":"Stone",
			"pbrMetallicRoughness":{
				"baseColorTexture":{
					"index":3
				},
				"metallicFactor":0,
				"roughnessFactor":0.9577051401138306
			}
		}
	],
	"meshes":[
		{
			"name":"Cube",
			"primitives":[
				{
					"attributes":{
						"POSITION":0,
						"NORMAL":1,
						"TEXCOORD_0":2
					},
					"indices":3
				}
			]
		},
		{
			"name":"Cube.002",
			"primitives":[
				{
					"attributes":{
						"POSITION":4,
						"NORMAL":5,
						"TEXCOORD_0":6
					},
					"indices":3
				}
			]
		},
		{
			"name":"Cube.003",
			"primitives":[
				{
					"attributes":{
						"POSITION":7,
						"NORMAL":8,
						"TEXCOORD_0":9
					},
					"indices":3
				}
			]
		},
		{
			"name":"Cube.004",
			"primitives":[
				{
					"attributes":{
						"POSITION":10,
						"NORMAL":11,
						"TEXCOORD_0":12
					},
					"indices":3
				}
			]
		},
		{
			"name":"Cube.005",
			"primitives":[
				{
					"attributes":{
						"POSITION":13,
						"NORMAL":14,
						"TEXCOORD_0":15
					},
					"indices":3
				}
			]
		},
		{
			"name":"Pine.Shape_Leaves_0",
			"primitives":[
				{
					"attributes":{
						"POSITION":16,
						"NORMAL":17,
						"TEXCOORD_0":18
					},
					"indices":19,
					"material":0
				}
			]
		},
		{
			"name":"Pine.Shape_Leaves_0.001",
			"primitives":[
				{
					"attributes":{
						"POSITION":20,
						"NORMAL":21,
						"TEXCOORD_0":22
					},
					"indices":23,
					"material":0
				}
			]
		},
		{
			"name":"Pine.Shape_Moss_0",
			"primitives":[
				{
					"attributes":{
						"POSITION":24,
						"NORMAL":25,
						"TEXCOORD_0":26
					},
					"indices":27,
					"material":1
				}
			]
		},
		{
			"name":"Pine.Shape_Pine_0",
			"primitives":[
				{
					"attributes":{
						"POSITION":28,
						"NORMAL":29,
						"TEXCOORD_0":30
					},
					"indices":31,
					"material":2
				}
			]
		},
		{
			"name":"Pine.Shape_Pine_0.001",
			"primitives":[
				{
					"attributes":{
						"POSITION":32,
						"NORMAL":33,
						"TEXCOORD_0":34
					},
					"indices":35,
					"material":2
				}
			]
		},
		{
			"name":"Pine.Shape_Stone_0",
			"primitives":[
				{
					"attributes":{
						"POSITION":36,
						"NORMAL":37,
						"TEXCOORD_0":38
					},
					"indices":39,
					"material":3
				}
			]
		}
	],
	"textures":[
		{
			"sampler":0,
			"source":0
		},
		{
			"sampler":0,
			"source":1
		},
		{
			"sampler":0,
			"source":2
		},
		{
			"sampler":0,
			"source":3
		}
	],
	"images":[
		{
			"mimeType":"image/jpeg",
			"name":"Image_0_bonsai",
			"uri":"Image_0_bonsai.jpg"
		},
		{
			"mimeType":"image/jpeg",
			"name":"Image_1bonsai",
			"uri":"Image_1bonsai.jpg"
		},
		{
			"mimeType":"image/jpeg",
			"name":"Image_3_bonsai",
			"uri":"Image_3_bonsai.jpg"
		},
		{
			"mimeType":"image/jpeg",
			"name":"Image_4bonsai",
			"uri":"Image_4bonsai.jpg"
		}
	],
	"accessors":[
		{
			"bufferView":0,
			"componentType":5126,
			"count":24,
			"max":[
				1,
				1,
				1
			],
			"min":[
				-1,
				-1,
				-1
			],
			"type":"VEC3"
		},
		{
			"bufferView":1,
			"componentType":5126,
			"count":24,
			"type":"VEC3"
		},
		{
			"bufferView":2,
			"componentType":5126,
			"count":24,
			"type":"VEC2"
		},
		{
			"bufferView":3,
			"componentType":5123,
			"count":36,
			"type":"SCALAR"
		},
		{
			"bufferView":4,
			"componentType":5126,
			"count":24,
			"max":[
				1,
				1,
				1
			],
			"min":[
				-1,
				-1,
				-1
			],
			"type":"VEC3"
		},
		{
			"bufferView":5,
			"componentType":5126,
			"count":24,
			"type":"VEC3"
		},
		{
			"bufferView":6,
			"componentType":5126,
			"count":24,
			"type":"VEC2"
		},
		{
			"bufferView":7,
			"componentType":5126,
			"count":24,
			"max":[
				1,
				1,
				1
			],
			"min":[
				-1,
				-1,
				-1
			],
			"type":"VEC3"
		},
		{
			"bufferView":8,
			"componentType":5126,
			"count":24,
			"type":"VEC3"
		},
		{
			"bufferView":9,
			"componentType":5126,
			"count":24,
			"type":"VEC2"
		},
		{
			"bufferView":10,
			"componentType":5126,
			"count":24,
			"max":[
				1,
				1,
				1
			],
			"min":[
				-1,
				-1,
				-1
			],
			"type":"VEC3"
		},
		{
			"bufferView":11,
			"componentType":5126,
			"count":24,
			"type":"VEC3"
		},
		{
			"bufferView":12,
			"componentType":5126,
			"count":24,
			"type":"VEC2"
		},
		{
			"bufferView":13,
			"componentType":5126,
			"count":24,
			"max":[
				1,
				1,
				1
			],
			"min":[
				-1,
				-1,
				-1
			],
			"type":"VEC3"
		},
		{
			"bufferView":14,
			"componentType":5126,
			"count":24,
			"type":"VEC3"
		},
		{
			"bufferView":15,
			"componentType":5126,
			"count":24,
			"type":"VEC2"
		},
		{
			"bufferView":16,
			"componentType":5126,
			"count":90718,
			"max":[
				638.754150390625,
				1014.0199584960938,
				598.559326171875
			],
			"min":[
				-681.9794921875,
				206.55999755859375,
				-568.6359252929688
			],
			"type":"VEC3"
		},
		{
			"bufferView":17,
			"componentType":5126,
			"count":90718,
			"type":"VEC3"
		},
		{
			"bufferView":18,
			"componentType":5126,
			"count":90718,
			"type":"VEC2"
		},
		{
			"bufferView":19,
			"componentType":5125,
			"count":98298,
			"type":"SCALAR"
		},
		{
			"bufferView":20,
			"componentType":5126,
			"count":20785,
			"max":[
				514.19482421875,
				901.4371948242188,
				141.4615020751953
			],
			"min":[
				-384.7544860839844,
				554.3015747070312,
				-434.0060119628906
			],
			"type":"VEC3"
		},
		{
			"bufferView":21,
			"componentType":5126,
			"count":20785,
			"type":"VEC3"
		},
		{
			"bufferView":22,
			"componentType":5126,
			"count":20785,
			"type":"VEC2"
		},
		{
			"bufferView":23,
			"componentType":5123,
			"count":22302,
			"type":"SCALAR"
		},
		{
			"bufferView":24,
			"componentType":5126,
			"count":3028,
			"max":[
				207.25540161132812,
				586.4763793945312,
				196.50120544433594
			],
			"min":[
				-197.70140075683594,
				-0.7016000747680664,
				-293.2184143066406
			],
			"type":"VEC3"
		},
		{
			"bufferView":25,
			"componentType":5126,
			"count":3028,
			"type":"VEC3"
		},
		{
			"bufferView":26,
			"componentType":5126,
			"count":3028,
			"type":"VEC2"
		},
		{
			"bufferView":27,
			"componentType":5123,
			"count":15276,
			"type":"SCALAR"
		},
		{
			"bufferView":28,
			"componentType":5126,
			"count":66304,
			"max":[
				602.9276123046875,
				962.1090698242188,
				563.886474609375
			],
			"min":[
				-652.2432861328125,
				-10.937999725341797,
				-538.0628051757812
			],
			"type":"VEC3"
		},
		{
			"bufferView":29,
			"componentType":5126,
			"count":66304,
			"type":"VEC3"
		},
		{
			"bufferView":30,
			"componentType":5126,
			"count":66304,
			"type":"VEC2"
		},
		{
			"bufferView":31,
			"componentType":5125,
			"count":205740,
			"type":"SCALAR"
		},
		{
			"bufferView":32,
			"componentType":5126,
			"count":24211,
			"max":[
				481.5184020996094,
				983.7191162109375,
				464.10430908203125
			],
			"min":[
				-642.169189453125,
				-13.512999534606934,
				-497.27459716796875
			],
			"type":"VEC3"
		},
		{
			"bufferView":33,
			"componentType":5126,
			"count":24211,
			"type":"VEC3"
		},
		{
			"bufferView":34,
			"componentType":5126,
			"count":24211,
			"type":"VEC2"
		},
		{
			"bufferView":35,
			"componentType":5123,
			"count":57873,
			"type":"SCALAR"
		},
		{
			"bufferView":36,
			"componentType":5126,
			"count":1230,
			"max":[
				239.14218139648438,
				95.3329086303711,
				230.62649536132812
			],
			"min":[
				-58.89339065551758,
				0,
				-151.21629333496094
			],
			"type":"VEC3"
		},
		{
			"bufferView":37,
			"componentType":5126,
			"count":1230,
			"type":"VEC3"
		},
		{
			"bufferView":38,
			"componentType":5126,
			"count":1230,
			"type":"VEC2"
		},
		{
			"bufferView":39,
			"componentType":5123,
			"count":5760,
			"type":"SCALAR"
		}
	],
	"bufferViews":[
		{
			"buffer":0,
			"byteLength":288,
			"byteOffset":0,
			"target":34962
		},
		{
			"buffer":0,
			"byteLength":288,
			"byteOffset":288,
			"target":34962
		},
		{
			"buffer":0,
			"byteLength":192,
			"byteOffset":576,
			"target":34962
		},
		{
			"buffer":0,
			"byteLength":72,
			"byteOffset":768,
			"target":34963
		},
		{
			"buffer":0,
			"byteLength":288,
			"byteOffset":840,
			"target":34962
		},
		{
			"buffer":0,
			"byteLength":288,
			"byteOffset":1128,
			"target":34962
		},
		{
			"buffer":0,
			"byteLength":192,
			"byteOffset":1416,
			"target":34962
		},
		{
			"buffer":0,
			"byteLength":288,
			"byteOffset":1608,
			"target":34962
		},
		{
			"buffer":0,
			"byteLength":288,
			"byteOffset":1896,
			"target":34962
		},
		{
			"buffer":0,
			"byteLength":192,
			"byteOffset":2184,
			"target":34962
		},
		{
			"buffer":0,
			"byteLength":288,
			"byteOffset":2376,
			"target":34962
		},
		{
			"buffer":0,
			"byteLength":288,
			"byteOffset":2664,
			"target":34962
		},
		{
			"buffer":0,
			"byteLength":192,
			"byteOffset":2952,
			"target":34962
		},
		{
			"buffer":0,
			"byteLength":288,
			"byteOffset":3144,
			"target":34962
		},
		{
			"buffer":0,
			"byteLength":288,
			"byteOffset":3432,
			"target":34962
		},
		{
			"buffer":0,
			"byteLength":192,
			"byteOffset":3720,
			"target":34962
		},
		{
			"buffer":0,
			"byteLength":1088616,
			"byteOffset":3912,
			"target":34962
		},
		{
			"buffer":0,
			"byteLength":1088616,
			"byteOffset":1092528,
			"target":34962
		},
		{
			"buffer":0,
			"byteLength":725744,
			"byteOffset":2181144,
			"target":34962
		},
		{
			"buffer":0,
			"byteLength":393192,
			"byteOffset":2906888,
			"target":34963
		},
		{
			"buffer":0,
			"byteLength":249420,
			"byteOffset":3300080,
			"target":34962
		},
		{
			"buffer":0,
			"byteLength":249420,
			"byteOffset":3549500,
			"target":34962
		},
		{
			"buffer":0,
			"byteLength":166280,
			"byteOffset":3798920,
			"target":34962
		},
		{
			"buffer":0,
			"byteLength":44604,
			"byteOffset":3965200,
			"target":34963
		},
		{
			"buffer":0,
			"byteLength":36336,
			"byteOffset":4009804,
			"target":34962
		},
		{
			"buffer":0,
			"byteLength":36336,
			"byteOffset":4046140,
			"target":34962
		},
		{
			"buffer":0,
			"byteLength":24224,
			"byteOffset":4082476,
			"target":34962
		},
		{
			"buffer":0,
			"byteLength":30552,
			"byteOffset":4106700,
			"target":34963
		},
		{
			"buffer":0,
			"byteLength":795648,
			"byteOffset":4137252,
			"target":34962
		},
		{
			"buffer":0,
			"byteLength":795648,
			"byteOffset":4932900,
			"target":34962
		},
		{
			"buffer":0,
			"byteLength":530432,
			"byteOffset":5728548,
			"target":34962
		},
		{
			"buffer":0,
			"byteLength":822960,
			"byteOffset":6258980,
			"target":34963
		},
		{
			"buffer":0,
			"byteLength":290532,
			"byteOffset":7081940,
			"target":34962
		},
		{
			"buffer":0,
			"byteLength":290532,
			"byteOffset":7372472,
			"target":34962
		},
		{
			"buffer":0,
			"byteLength":193688,
			"byteOffset":7663004,
			"target":34962
		},
		{
			"buffer":0,
			"byteLength":115746,
			"byteOffset":7856692,
			"target":34963
		},
		{
			"buffer":0,
			"byteLength":14760,
			"byteOffset":7972440,
			"target":34962
		},
		{
			"buffer":0,
			"byteLength":14760,
			"byteOffset":7987200,
			"target":34962
		},
		{
			"buffer":0,
			"byteLength":9840,
			"byteOffset":8001960,
			"target":34962
		},
		{
			"buffer":0,
			"byteLength":11520,
			"byteOffset":8011800,
			"target":34963
		}
	],
	"samplers":[
		{
			"magFilter":9729,
			"minFilter":9987
		}
	],
	"buffers":[
		{
			"byteLength":8023320,
			"uri":"pine_bonsai.bin"
		}
	]
}
