{
	"asset":{
		"generator":"Khronos glTF Blender I/O v4.1.63",
		"version":"2.0"
	},
	"extensionsUsed":[
		"EXT_mesh_gpu_instancing"
	],
	"scene":0,
	"scenes":[
		{
			"name":"Scene",
			"nodes":[
				9
			]
		}
	],
	"nodes":[
		{
			"extras":{
				"xrengine.entity":"collider_container",
				"xrengine.EE_collider.shape":"box"
			},
			"mesh":0,
			"name":"collider.002",
			"scale":[
				0.2295599728822708,
				2.5913772583007812,
				0.2295599728822708
			],
			"translation":[
				0,
				2.573251724243164,
				0
			]
		},
		{
			"extensions":{
				"EXT_mesh_gpu_instancing":{
					"attributes":{
						"TRANSLATION":36,
						"ROTATION":37,
						"SCALE":38
					}
				}
			},
			"mesh":1,
			"name":"pine_bushy.001",
			"scale":[
				0.0833931565284729,
				0.0833931565284729,
				0.0833931565284729
			]
		},
		{
			"extensions":{
				"EXT_mesh_gpu_instancing":{
					"attributes":{
						"TRANSLATION":39,
						"ROTATION":40,
						"SCALE":41
					}
				}
			},
			"mesh":2,
			"name":"pine_filler.001",
			"scale":[
				0.0833931565284729,
				0.0833931565284729,
				0.0833931565284729
			]
		},
		{
			"extensions":{
				"EXT_mesh_gpu_instancing":{
					"attributes":{
						"TRANSLATION":42,
						"ROTATION":43,
						"SCALE":44
					}
				}
			},
			"mesh":3,
			"name":"pine_large.001",
			"scale":[
				0.0833931565284729,
				0.0833931565284729,
				0.0833931565284729
			]
		},
		{
			"extensions":{
				"EXT_mesh_gpu_instancing":{
					"attributes":{
						"TRANSLATION":45,
						"ROTATION":46,
						"SCALE":47
					}
				}
			},
			"mesh":4,
			"name":"pine_med.001",
			"scale":[
				0.0833931565284729,
				0.0833931565284729,
				0.0833931565284729
			]
		},
		{
			"extensions":{
				"EXT_mesh_gpu_instancing":{
					"attributes":{
						"TRANSLATION":48,
						"ROTATION":49,
						"SCALE":50
					}
				}
			},
			"mesh":5,
			"name":"pine_short.001",
			"scale":[
				0.0833931565284729,
				0.0833931565284729,
				0.0833931565284729
			]
		},
		{
			"extensions":{
				"EXT_mesh_gpu_instancing":{
					"attributes":{
						"TRANSLATION":51,
						"ROTATION":52,
						"SCALE":53
					}
				}
			},
			"mesh":6,
			"name":"pine_sparse.001",
			"scale":[
				0.0833931565284729,
				0.0833931565284729,
				0.0833931565284729
			]
		},
		{
			"extensions":{
				"EXT_mesh_gpu_instancing":{
					"attributes":{
						"TRANSLATION":54,
						"ROTATION":55,
						"SCALE":56
					}
				}
			},
			"mesh":7,
			"name":"pine_sparse_long.001",
			"scale":[
				0.0833931565284729,
				0.0833931565284729,
				0.0833931565284729
			]
		},
		{
			"mesh":8,
			"name":"pine_tree_med",
			"rotation":[
				0.70710688829422,
				0,
				0,
				0.7071066498756409
			],
			"scale":[
				0.0833931565284729,
				0.0833931490778923,
				0.0833931490778923
			]
		},
		{
			"children":[
				0,
				1,
				2,
				3,
				4,
				5,
				6,
				7,
				8
			],
			"extras":{
				"xrengine.entity":"rbd_container",
				"xrengine.EE_rigidbody.type":"fixed"
			},
			"name":"pineTreeMed"
		}
	],
	"materials":[
		{
			"doubleSided":true,
			"name":"19___Default.001",
			"pbrMetallicRoughness":{
				"baseColorTexture":{
					"index":0
				},
				"metallicFactor":0,
				"roughnessFactor":0
			}
		}
	],
	"meshes":[
		{
			"name":"Cube.001",
			"primitives":[
				{
					"attributes":{
						"POSITION":0,
						"NORMAL":1,
						"TEXCOORD_0":2
					},
					"indices":3
				}
			]
		},
		{
			"name":"pine_bushy_01",
			"primitives":[
				{
					"attributes":{
						"POSITION":4,
						"NORMAL":5,
						"TEXCOORD_0":6
					},
					"indices":7,
					"material":0
				}
			]
		},
		{
			"name":"pine_filler_01.001",
			"primitives":[
				{
					"attributes":{
						"POSITION":8,
						"NORMAL":9,
						"TEXCOORD_0":10
					},
					"indices":11,
					"material":0
				}
			]
		},
		{
			"name":"pine_large_01.002",
			"primitives":[
				{
					"attributes":{
						"POSITION":12,
						"NORMAL":13,
						"TEXCOORD_0":14
					},
					"indices":15,
					"material":0
				}
			]
		},
		{
			"name":"pine_med_01.001",
			"primitives":[
				{
					"attributes":{
						"POSITION":16,
						"NORMAL":17,
						"TEXCOORD_0":18
					},
					"indices":19,
					"material":0
				}
			]
		},
		{
			"name":"pine_short_01.003",
			"primitives":[
				{
					"attributes":{
						"POSITION":20,
						"NORMAL":21,
						"TEXCOORD_0":22
					},
					"indices":23,
					"material":0
				}
			]
		},
		{
			"name":"pine_sparse_01.002",
			"primitives":[
				{
					"attributes":{
						"POSITION":24,
						"NORMAL":25,
						"TEXCOORD_0":26
					},
					"indices":27,
					"material":0
				}
			]
		},
		{
			"name":"pine_sparse_long_01.001",
			"primitives":[
				{
					"attributes":{
						"POSITION":28,
						"NORMAL":29,
						"TEXCOORD_0":30
					},
					"indices":31,
					"material":0
				}
			]
		},
		{
			"name":"pine_tree_med",
			"primitives":[
				{
					"attributes":{
						"POSITION":32,
						"NORMAL":33,
						"TEXCOORD_0":34
					},
					"indices":35,
					"material":0
				}
			]
		}
	],
	"textures":[
		{
			"sampler":0,
			"source":0
		}
	],
	"images":[
		{
			"mimeType":"image/png",
			"name":"Map__20_Map_Output_Selector",
			"uri":"Map__20_Map_Output_Selector.png"
		}
	],
	"accessors":[
		{
			"bufferView":0,
			"componentType":5126,
			"count":24,
			"max":[
				1,
				1,
				1
			],
			"min":[
				-1,
				-1,
				-1
			],
			"type":"VEC3"
		},
		{
			"bufferView":1,
			"componentType":5126,
			"count":24,
			"type":"VEC3"
		},
		{
			"bufferView":2,
			"componentType":5126,
			"count":24,
			"type":"VEC2"
		},
		{
			"bufferView":3,
			"componentType":5123,
			"count":36,
			"type":"SCALAR"
		},
		{
			"bufferView":4,
			"componentType":5126,
			"count":17014,
			"max":[
				-0.0052999998442828655,
				4.109499931335449,
				1.1050000190734863
			],
			"min":[
				-16.542800903320312,
				-6.461999893188477,
				-10.596500396728516
			],
			"type":"VEC3"
		},
		{
			"bufferView":5,
			"componentType":5126,
			"count":17014,
			"type":"VEC3"
		},
		{
			"bufferView":6,
			"componentType":5126,
			"count":17014,
			"type":"VEC2"
		},
		{
			"bufferView":7,
			"componentType":5123,
			"count":17016,
			"type":"SCALAR"
		},
		{
			"bufferView":8,
			"componentType":5126,
			"count":2705,
			"max":[
				0.020099999383091927,
				7.497099876403809,
				0.12290000170469284
			],
			"min":[
				-15.869600296020508,
				-6.0279998779296875,
				-10.625100135803223
			],
			"type":"VEC3"
		},
		{
			"bufferView":9,
			"componentType":5126,
			"count":2705,
			"type":"VEC3"
		},
		{
			"bufferView":10,
			"componentType":5126,
			"count":2705,
			"type":"VEC2"
		},
		{
			"bufferView":11,
			"componentType":5123,
			"count":5862,
			"type":"SCALAR"
		},
		{
			"bufferView":12,
			"componentType":5126,
			"count":7252,
			"max":[
				0.03999999910593033,
				9.17770004272461,
				0.8100000023841858
			],
			"min":[
				-43.62080001831055,
				-11.179400444030762,
				-14.457300186157227
			],
			"type":"VEC3"
		},
		{
			"bufferView":13,
			"componentType":5126,
			"count":7252,
			"type":"VEC3"
		},
		{
			"bufferView":14,
			"componentType":5126,
			"count":7252,
			"type":"VEC2"
		},
		{
			"bufferView":15,
			"componentType":5123,
			"count":16659,
			"type":"SCALAR"
		},
		{
			"bufferView":16,
			"componentType":5126,
			"count":7095,
			"max":[
				-0.004900000058114529,
				12.190999984741211,
				6.879799842834473
			],
			"min":[
				-47.65510177612305,
				-10.111200332641602,
				-11.309800148010254
			],
			"type":"VEC3"
		},
		{
			"bufferView":17,
			"componentType":5126,
			"count":7095,
			"type":"VEC3"
		},
		{
			"bufferView":18,
			"componentType":5126,
			"count":7095,
			"type":"VEC2"
		},
		{
			"bufferView":19,
			"componentType":5123,
			"count":16662,
			"type":"SCALAR"
		},
		{
			"bufferView":20,
			"componentType":5126,
			"count":4608,
			"max":[
				0.08179999887943268,
				9.274100303649902,
				2.664599895477295
			],
			"min":[
				-27.326499938964844,
				-8.868399620056152,
				-9.961099624633789
			],
			"type":"VEC3"
		},
		{
			"bufferView":21,
			"componentType":5126,
			"count":4608,
			"type":"VEC3"
		},
		{
			"bufferView":22,
			"componentType":5126,
			"count":4608,
			"type":"VEC2"
		},
		{
			"bufferView":23,
			"componentType":5123,
			"count":10038,
			"type":"SCALAR"
		},
		{
			"bufferView":24,
			"componentType":5126,
			"count":5147,
			"max":[
				-0.04960000142455101,
				5.423699855804443,
				4.283400058746338
			],
			"min":[
				-42.524200439453125,
				-13.624899864196777,
				-7.718200206756592
			],
			"type":"VEC3"
		},
		{
			"bufferView":25,
			"componentType":5126,
			"count":5147,
			"type":"VEC3"
		},
		{
			"bufferView":26,
			"componentType":5126,
			"count":5147,
			"type":"VEC2"
		},
		{
			"bufferView":27,
			"componentType":5123,
			"count":12207,
			"type":"SCALAR"
		},
		{
			"bufferView":28,
			"componentType":5126,
			"count":11790,
			"max":[
				-0.011800000444054604,
				9.100000381469727,
				5.197800159454346
			],
			"min":[
				-35.3135986328125,
				-8.52340030670166,
				-10.533599853515625
			],
			"type":"VEC3"
		},
		{
			"bufferView":29,
			"componentType":5126,
			"count":11790,
			"type":"VEC3"
		},
		{
			"bufferView":30,
			"componentType":5126,
			"count":11790,
			"type":"VEC2"
		},
		{
			"bufferView":31,
			"componentType":5123,
			"count":12039,
			"type":"SCALAR"
		},
		{
			"bufferView":32,
			"componentType":5126,
			"count":353,
			"max":[
				4.144899845123291,
				4.126800060272217,
				-0.2345999926328659
			],
			"min":[
				-4.084499835968018,
				-5.076099872589111,
				-138.45379638671875
			],
			"type":"VEC3"
		},
		{
			"bufferView":33,
			"componentType":5126,
			"count":353,
			"type":"VEC3"
		},
		{
			"bufferView":34,
			"componentType":5126,
			"count":353,
			"type":"VEC2"
		},
		{
			"bufferView":35,
			"componentType":5123,
			"count":966,
			"type":"SCALAR"
		},
		{
			"bufferView":36,
			"componentType":5126,
			"count":5,
			"type":"VEC3"
		},
		{
			"bufferView":37,
			"componentType":5126,
			"count":5,
			"type":"VEC4"
		},
		{
			"bufferView":38,
			"componentType":5126,
			"count":5,
			"type":"VEC3"
		},
		{
			"bufferView":39,
			"componentType":5126,
			"count":4,
			"type":"VEC3"
		},
		{
			"bufferView":40,
			"componentType":5126,
			"count":4,
			"type":"VEC4"
		},
		{
			"bufferView":41,
			"componentType":5126,
			"count":4,
			"type":"VEC3"
		},
		{
			"bufferView":42,
			"componentType":5126,
			"count":11,
			"type":"VEC3"
		},
		{
			"bufferView":43,
			"componentType":5126,
			"count":11,
			"type":"VEC4"
		},
		{
			"bufferView":44,
			"componentType":5126,
			"count":11,
			"type":"VEC3"
		},
		{
			"bufferView":45,
			"componentType":5126,
			"count":2,
			"type":"VEC3"
		},
		{
			"bufferView":46,
			"componentType":5126,
			"count":2,
			"type":"VEC4"
		},
		{
			"bufferView":47,
			"componentType":5126,
			"count":2,
			"type":"VEC3"
		},
		{
			"bufferView":48,
			"componentType":5126,
			"count":21,
			"type":"VEC3"
		},
		{
			"bufferView":49,
			"componentType":5126,
			"count":21,
			"type":"VEC4"
		},
		{
			"bufferView":50,
			"componentType":5126,
			"count":21,
			"type":"VEC3"
		},
		{
			"bufferView":51,
			"componentType":5126,
			"count":2,
			"type":"VEC3"
		},
		{
			"bufferView":52,
			"componentType":5126,
			"count":2,
			"type":"VEC4"
		},
		{
			"bufferView":53,
			"componentType":5126,
			"count":2,
			"type":"VEC3"
		},
		{
			"bufferView":54,
			"componentType":5126,
			"count":3,
			"type":"VEC3"
		},
		{
			"bufferView":55,
			"componentType":5126,
			"count":3,
			"type":"VEC4"
		},
		{
			"bufferView":56,
			"componentType":5126,
			"count":3,
			"type":"VEC3"
		}
	],
	"bufferViews":[
		{
			"buffer":0,
			"byteLength":288,
			"byteOffset":0,
			"target":34962
		},
		{
			"buffer":0,
			"byteLength":288,
			"byteOffset":288,
			"target":34962
		},
		{
			"buffer":0,
			"byteLength":192,
			"byteOffset":576,
			"target":34962
		},
		{
			"buffer":0,
			"byteLength":72,
			"byteOffset":768,
			"target":34963
		},
		{
			"buffer":0,
			"byteLength":204168,
			"byteOffset":840,
			"target":34962
		},
		{
			"buffer":0,
			"byteLength":204168,
			"byteOffset":205008,
			"target":34962
		},
		{
			"buffer":0,
			"byteLength":136112,
			"byteOffset":409176,
			"target":34962
		},
		{
			"buffer":0,
			"byteLength":34032,
			"byteOffset":545288,
			"target":34963
		},
		{
			"buffer":0,
			"byteLength":32460,
			"byteOffset":579320,
			"target":34962
		},
		{
			"buffer":0,
			"byteLength":32460,
			"byteOffset":611780,
			"target":34962
		},
		{
			"buffer":0,
			"byteLength":21640,
			"byteOffset":644240,
			"target":34962
		},
		{
			"buffer":0,
			"byteLength":11724,
			"byteOffset":665880,
			"target":34963
		},
		{
			"buffer":0,
			"byteLength":87024,
			"byteOffset":677604,
			"target":34962
		},
		{
			"buffer":0,
			"byteLength":87024,
			"byteOffset":764628,
			"target":34962
		},
		{
			"buffer":0,
			"byteLength":58016,
			"byteOffset":851652,
			"target":34962
		},
		{
			"buffer":0,
			"byteLength":33318,
			"byteOffset":909668,
			"target":34963
		},
		{
			"buffer":0,
			"byteLength":85140,
			"byteOffset":942988,
			"target":34962
		},
		{
			"buffer":0,
			"byteLength":85140,
			"byteOffset":1028128,
			"target":34962
		},
		{
			"buffer":0,
			"byteLength":56760,
			"byteOffset":1113268,
			"target":34962
		},
		{
			"buffer":0,
			"byteLength":33324,
			"byteOffset":1170028,
			"target":34963
		},
		{
			"buffer":0,
			"byteLength":55296,
			"byteOffset":1203352,
			"target":34962
		},
		{
			"buffer":0,
			"byteLength":55296,
			"byteOffset":1258648,
			"target":34962
		},
		{
			"buffer":0,
			"byteLength":36864,
			"byteOffset":1313944,
			"target":34962
		},
		{
			"buffer":0,
			"byteLength":20076,
			"byteOffset":1350808,
			"target":34963
		},
		{
			"buffer":0,
			"byteLength":61764,
			"byteOffset":1370884,
			"target":34962
		},
		{
			"buffer":0,
			"byteLength":61764,
			"byteOffset":1432648,
			"target":34962
		},
		{
			"buffer":0,
			"byteLength":41176,
			"byteOffset":1494412,
			"target":34962
		},
		{
			"buffer":0,
			"byteLength":24414,
			"byteOffset":1535588,
			"target":34963
		},
		{
			"buffer":0,
			"byteLength":141480,
			"byteOffset":1560004,
			"target":34962
		},
		{
			"buffer":0,
			"byteLength":141480,
			"byteOffset":1701484,
			"target":34962
		},
		{
			"buffer":0,
			"byteLength":94320,
			"byteOffset":1842964,
			"target":34962
		},
		{
			"buffer":0,
			"byteLength":24078,
			"byteOffset":1937284,
			"target":34963
		},
		{
			"buffer":0,
			"byteLength":4236,
			"byteOffset":1961364,
			"target":34962
		},
		{
			"buffer":0,
			"byteLength":4236,
			"byteOffset":1965600,
			"target":34962
		},
		{
			"buffer":0,
			"byteLength":2824,
			"byteOffset":1969836,
			"target":34962
		},
		{
			"buffer":0,
			"byteLength":1932,
			"byteOffset":1972660,
			"target":34963
		},
		{
			"buffer":0,
			"byteLength":60,
			"byteOffset":1974592
		},
		{
			"buffer":0,
			"byteLength":80,
			"byteOffset":1974652
		},
		{
			"buffer":0,
			"byteLength":60,
			"byteOffset":1974732
		},
		{
			"buffer":0,
			"byteLength":48,
			"byteOffset":1974792
		},
		{
			"buffer":0,
			"byteLength":64,
			"byteOffset":1974840
		},
		{
			"buffer":0,
			"byteLength":48,
			"byteOffset":1974904
		},
		{
			"buffer":0,
			"byteLength":132,
			"byteOffset":1974952
		},
		{
			"buffer":0,
			"byteLength":176,
			"byteOffset":1975084
		},
		{
			"buffer":0,
			"byteLength":132,
			"byteOffset":1975260
		},
		{
			"buffer":0,
			"byteLength":24,
			"byteOffset":1975392
		},
		{
			"buffer":0,
			"byteLength":32,
			"byteOffset":1975416
		},
		{
			"buffer":0,
			"byteLength":24,
			"byteOffset":1975448
		},
		{
			"buffer":0,
			"byteLength":252,
			"byteOffset":1975472
		},
		{
			"buffer":0,
			"byteLength":336,
			"byteOffset":1975724
		},
		{
			"buffer":0,
			"byteLength":252,
			"byteOffset":1976060
		},
		{
			"buffer":0,
			"byteLength":24,
			"byteOffset":1976312
		},
		{
			"buffer":0,
			"byteLength":32,
			"byteOffset":1976336
		},
		{
			"buffer":0,
			"byteLength":24,
			"byteOffset":1976368
		},
		{
			"buffer":0,
			"byteLength":36,
			"byteOffset":1976392
		},
		{
			"buffer":0,
			"byteLength":48,
			"byteOffset":1976428
		},
		{
			"buffer":0,
			"byteLength":36,
			"byteOffset":1976476
		}
	],
	"samplers":[
		{
			"magFilter":9729,
			"minFilter":9987
		}
	],
	"buffers":[
		{
			"byteLength":1976512,
			"uri":"pineTreeMed.bin"
		}
	]
}
