{
	"asset":{
		"generator":"Khronos glTF Blender I/O v3.6.28",
		"version":"2.0"
	},
	"extensionsUsed":[
		"KHR_materials_specular"
	],
	"scene":0,
	"scenes":[
		{
			"extras":{
				"xol_link_apps":[
					{
						"id":52251,
						"port":"52251",
						"type":"BLD",
						"label":"Blender Foundation - Blender"
					},
					{
						"id":53466,
						"port":"53466",
						"type":"BLD",
						"label":"Blender Foundation - Blender"
					},
					{
						"id":53637,
						"port":"53637",
						"type":"BLD",
						"label":"Blender Foundation - Blender"
					}
				],
				"xol_link_apps_list":0
			},
			"name":"Scene",
			"nodes":[
				2
			]
		}
	],
	"nodes":[
		{
			"extras":{
				"xrengine.entity":"collider_pine",
				"xrengine.EE_collider.shape":"box"
			},
			"mesh":0,
			"name":"collider_shape.033",
			"rotation":[
				-0.6658324599266052,
				-0.23804883658885956,
				0.23804888129234314,
				0.6658324003219604
			],
			"scale":[
				9.625648498535156,
				3.5414021015167236,
				8.851548194885254
			],
			"translation":[
				1.3726953268051147,
				-1.7941752672195435,
				-0.46291008591651917
			]
		},
		{
			"children":[
				0
			],
			"mesh":1,
			"name":"pine_forest_rock_02",
			"rotation":[
				0.70710688829422,
				0,
				0,
				0.7071066498756409
			],
			"scale":[
				0.1000218391418457,
				0.1000218391418457,
				0.1000218391418457
			]
		},
		{
			"children":[
				1
			],
			"extras":{
				"xrengine.entity":"rbd_nature",
				"xrengine.EE_rigidbody.type":"fixed"
			},
			"name":"pineForestRock01.002"
		}
	],
	"materials":[
		{
			"doubleSided":true,
			"extensions":{
				"KHR_materials_specular":{
					"specularColorFactor":[
						0.07086616754531859,
						0.07086616754531859,
						0.07086616754531859
					]
				}
			},
			"name":"pine_forest.001",
			"pbrMetallicRoughness":{
				"baseColorTexture":{
					"index":0
				},
				"metallicFactor":0
			}
		}
	],
	"meshes":[
		{
			"name":"Cube.034",
			"primitives":[
				{
					"attributes":{
						"POSITION":0,
						"NORMAL":1,
						"TEXCOORD_0":2
					},
					"indices":3
				}
			]
		},
		{
			"name":"pine_forest_rock_02",
			"primitives":[
				{
					"attributes":{
						"POSITION":4,
						"NORMAL":5,
						"TEXCOORD_0":6
					},
					"indices":7,
					"material":0
				}
			]
		}
	],
	"textures":[
		{
			"sampler":0,
			"source":0
		}
	],
	"images":[
		{
			"mimeType":"image/png",
			"name":"pine_forest_textures",
			"uri":"pine_forest_textures.png"
		}
	],
	"accessors":[
		{
			"bufferView":0,
			"componentType":5126,
			"count":24,
			"max":[
				1,
				1,
				1
			],
			"min":[
				-1,
				-1,
				-1
			],
			"type":"VEC3"
		},
		{
			"bufferView":1,
			"componentType":5126,
			"count":24,
			"type":"VEC3"
		},
		{
			"bufferView":2,
			"componentType":5126,
			"count":24,
			"type":"VEC2"
		},
		{
			"bufferView":3,
			"componentType":5123,
			"count":36,
			"type":"SCALAR"
		},
		{
			"bufferView":4,
			"componentType":5126,
			"count":484,
			"max":[
				9.219599723815918,
				8.390700340270996,
				4.211699962615967
			],
			"min":[
				-9.219599723815918,
				-8.390700340270996,
				-4.211699962615967
			],
			"type":"VEC3"
		},
		{
			"bufferView":5,
			"componentType":5126,
			"count":484,
			"type":"VEC3"
		},
		{
			"bufferView":6,
			"componentType":5126,
			"count":484,
			"type":"VEC2"
		},
		{
			"bufferView":7,
			"componentType":5123,
			"count":2676,
			"type":"SCALAR"
		}
	],
	"bufferViews":[
		{
			"buffer":0,
			"byteLength":288,
			"byteOffset":0,
			"target":34962
		},
		{
			"buffer":0,
			"byteLength":288,
			"byteOffset":288,
			"target":34962
		},
		{
			"buffer":0,
			"byteLength":192,
			"byteOffset":576,
			"target":34962
		},
		{
			"buffer":0,
			"byteLength":72,
			"byteOffset":768,
			"target":34963
		},
		{
			"buffer":0,
			"byteLength":5808,
			"byteOffset":840,
			"target":34962
		},
		{
			"buffer":0,
			"byteLength":5808,
			"byteOffset":6648,
			"target":34962
		},
		{
			"buffer":0,
			"byteLength":3872,
			"byteOffset":12456,
			"target":34962
		},
		{
			"buffer":0,
			"byteLength":5352,
			"byteOffset":16328,
			"target":34963
		}
	],
	"samplers":[
		{
			"magFilter":9729,
			"minFilter":9987
		}
	],
	"buffers":[
		{
			"byteLength":21680,
			"uri":"pineForest_rock_02.bin"
		}
	]
}
