{
	"asset":{
		"generator":"Khronos glTF Blender I/O v3.6.28",
		"version":"2.0"
	},
	"extensionsUsed":[
		"KHR_materials_specular"
	],
	"scene":0,
	"scenes":[
		{
			"extras":{
				"xol_link_apps":[
					{
						"id":52251,
						"port":"52251",
						"type":"BLD",
						"label":"Blender Foundation - Blender"
					},
					{
						"id":53466,
						"port":"53466",
						"type":"BLD",
						"label":"Blender Foundation - Blender"
					},
					{
						"id":53637,
						"port":"53637",
						"type":"BLD",
						"label":"Blender Foundation - Blender"
					}
				],
				"xol_link_apps_list":0
			},
			"name":"Scene",
			"nodes":[
				2
			]
		}
	],
	"nodes":[
		{
			"extras":{
				"xrengine.entity":"collider_pine",
				"xrengine.EE_collider.shape":"box"
			},
			"mesh":0,
			"name":"collider_shape.037",
			"rotation":[
				-0.70710688829422,
				0,
				0,
				0.7071066498756409
			],
			"scale":[
				12.939227104187012,
				7.917873859405518,
				5.296010494232178
			],
			"translation":[
				0.19413615763187408,
				-0.22135436534881592,
				-0.46291035413742065
			]
		},
		{
			"children":[
				0
			],
			"mesh":1,
			"name":"pine_forest_rock_07",
			"rotation":[
				0.70710688829422,
				0,
				0,
				0.7071066498756409
			],
			"scale":[
				0.1000218391418457,
				0.1000218391418457,
				0.1000218391418457
			]
		},
		{
			"children":[
				1
			],
			"extras":{
				"xrengine.entity":"rbd_nature",
				"xrengine.EE_rigidbody.type":"fixed"
			},
			"name":"pineForestRock01.007"
		}
	],
	"materials":[
		{
			"doubleSided":true,
			"extensions":{
				"KHR_materials_specular":{
					"specularColorFactor":[
						0.07086616754531859,
						0.07086616754531859,
						0.07086616754531859
					]
				}
			},
			"name":"pine_forest.001",
			"pbrMetallicRoughness":{
				"baseColorTexture":{
					"index":0
				},
				"metallicFactor":0
			}
		}
	],
	"meshes":[
		{
			"name":"Cube.038",
			"primitives":[
				{
					"attributes":{
						"POSITION":0,
						"NORMAL":1,
						"TEXCOORD_0":2
					},
					"indices":3
				}
			]
		},
		{
			"name":"pine_forest_rock_07",
			"primitives":[
				{
					"attributes":{
						"POSITION":4,
						"NORMAL":5,
						"TEXCOORD_0":6
					},
					"indices":7,
					"material":0
				}
			]
		}
	],
	"textures":[
		{
			"sampler":0,
			"source":0
		}
	],
	"images":[
		{
			"mimeType":"image/png",
			"name":"pine_forest_textures",
			"uri":"pine_forest_textures.png"
		}
	],
	"accessors":[
		{
			"bufferView":0,
			"componentType":5126,
			"count":24,
			"max":[
				1,
				1,
				1
			],
			"min":[
				-1,
				-1,
				-1
			],
			"type":"VEC3"
		},
		{
			"bufferView":1,
			"componentType":5126,
			"count":24,
			"type":"VEC3"
		},
		{
			"bufferView":2,
			"componentType":5126,
			"count":24,
			"type":"VEC2"
		},
		{
			"bufferView":3,
			"componentType":5123,
			"count":36,
			"type":"SCALAR"
		},
		{
			"bufferView":4,
			"componentType":5126,
			"count":285,
			"max":[
				9.47599983215332,
				5.888700008392334,
				3.5416998863220215
			],
			"min":[
				-9.47599983215332,
				-5.888700008392334,
				-3.5416998863220215
			],
			"type":"VEC3"
		},
		{
			"bufferView":5,
			"componentType":5126,
			"count":285,
			"type":"VEC3"
		},
		{
			"bufferView":6,
			"componentType":5126,
			"count":285,
			"type":"VEC2"
		},
		{
			"bufferView":7,
			"componentType":5123,
			"count":1494,
			"type":"SCALAR"
		}
	],
	"bufferViews":[
		{
			"buffer":0,
			"byteLength":288,
			"byteOffset":0,
			"target":34962
		},
		{
			"buffer":0,
			"byteLength":288,
			"byteOffset":288,
			"target":34962
		},
		{
			"buffer":0,
			"byteLength":192,
			"byteOffset":576,
			"target":34962
		},
		{
			"buffer":0,
			"byteLength":72,
			"byteOffset":768,
			"target":34963
		},
		{
			"buffer":0,
			"byteLength":3420,
			"byteOffset":840,
			"target":34962
		},
		{
			"buffer":0,
			"byteLength":3420,
			"byteOffset":4260,
			"target":34962
		},
		{
			"buffer":0,
			"byteLength":2280,
			"byteOffset":7680,
			"target":34962
		},
		{
			"buffer":0,
			"byteLength":2988,
			"byteOffset":9960,
			"target":34963
		}
	],
	"samplers":[
		{
			"magFilter":9729,
			"minFilter":9987
		}
	],
	"buffers":[
		{
			"byteLength":12948,
			"uri":"pineForest_rock_07.bin"
		}
	]
}
