{
	"asset":{
		"generator":"Khronos glTF Blender I/O v4.1.63",
		"version":"2.0"
	},
	"extensionsUsed":[
		"EXT_mesh_gpu_instancing"
	],
	"scene":0,
	"scenes":[
		{
			"name":"Scene",
			"nodes":[
				7
			]
		}
	],
	"nodes":[
		{
			"extras":{
				"xrengine.entity":"collider_shape",
				"xrengine.EE_collider.shape":"box"
			},
			"mesh":0,
			"name":"collider.001",
			"scale":[
				-0.0900404155254364,
				-1.2411919832229614,
				-0.0900404155254364
			],
			"translation":[
				0,
				1.2468096017837524,
				0.046906352043151855
			]
		},
		{
			"extensions":{
				"EXT_mesh_gpu_instancing":{
					"attributes":{
						"TRANSLATION":28,
						"ROTATION":29,
						"SCALE":30
					}
				}
			},
			"mesh":1,
			"name":"pine_bushy.004",
			"scale":[
				0.06565051525831223,
				0.06565051525831223,
				0.06565051525831223
			]
		},
		{
			"extensions":{
				"EXT_mesh_gpu_instancing":{
					"attributes":{
						"TRANSLATION":31,
						"ROTATION":32,
						"SCALE":33
					}
				}
			},
			"mesh":2,
			"name":"pine_filler.004",
			"scale":[
				0.06565051525831223,
				0.06565051525831223,
				0.06565051525831223
			]
		},
		{
			"extensions":{
				"EXT_mesh_gpu_instancing":{
					"attributes":{
						"TRANSLATION":34,
						"ROTATION":35,
						"SCALE":36
					}
				}
			},
			"mesh":3,
			"name":"pine_large.003",
			"scale":[
				0.06565051525831223,
				0.06565051525831223,
				0.06565051525831223
			]
		},
		{
			"extensions":{
				"EXT_mesh_gpu_instancing":{
					"attributes":{
						"TRANSLATION":37,
						"ROTATION":38,
						"SCALE":39
					}
				}
			},
			"mesh":4,
			"name":"pine_med.003",
			"scale":[
				0.06565051525831223,
				0.06565051525831223,
				0.06565051525831223
			]
		},
		{
			"extensions":{
				"EXT_mesh_gpu_instancing":{
					"attributes":{
						"TRANSLATION":40,
						"ROTATION":41,
						"SCALE":42
					}
				}
			},
			"mesh":5,
			"name":"pine_short.005",
			"scale":[
				0.06565051525831223,
				0.06565051525831223,
				0.06565051525831223
			]
		},
		{
			"mesh":6,
			"name":"pine_tree_small",
			"rotation":[
				0.70710688829422,
				0,
				0,
				0.7071066498756409
			],
			"scale":[
				0.06565051525831223,
				0.06565050780773163,
				0.06565050780773163
			]
		},
		{
			"children":[
				0,
				1,
				2,
				3,
				4,
				5,
				6
			],
			"extras":{
				"xrengine.entity":"rbd_container",
				"xrengine.EE_rigidbody.type":"fixed"
			},
			"name":"pineTreeSm"
		}
	],
	"materials":[
		{
			"doubleSided":true,
			"name":"19___Default.003",
			"pbrMetallicRoughness":{
				"baseColorTexture":{
					"index":0
				},
				"metallicFactor":0,
				"roughnessFactor":0
			}
		}
	],
	"meshes":[
		{
			"name":"Cube",
			"primitives":[
				{
					"attributes":{
						"POSITION":0,
						"NORMAL":1,
						"TEXCOORD_0":2
					},
					"indices":3
				}
			]
		},
		{
			"name":"pine_bushy_01.003",
			"primitives":[
				{
					"attributes":{
						"POSITION":4,
						"NORMAL":5,
						"TEXCOORD_0":6
					},
					"indices":7,
					"material":0
				}
			]
		},
		{
			"name":"pine_filler_01.004",
			"primitives":[
				{
					"attributes":{
						"POSITION":8,
						"NORMAL":9,
						"TEXCOORD_0":10
					},
					"indices":11,
					"material":0
				}
			]
		},
		{
			"name":"pine_large_01.003",
			"primitives":[
				{
					"attributes":{
						"POSITION":12,
						"NORMAL":13,
						"TEXCOORD_0":14
					},
					"indices":15,
					"material":0
				}
			]
		},
		{
			"name":"pine_med_01",
			"primitives":[
				{
					"attributes":{
						"POSITION":16,
						"NORMAL":17,
						"TEXCOORD_0":18
					},
					"indices":19,
					"material":0
				}
			]
		},
		{
			"name":"pine_short_01.004",
			"primitives":[
				{
					"attributes":{
						"POSITION":20,
						"NORMAL":21,
						"TEXCOORD_0":22
					},
					"indices":23,
					"material":0
				}
			]
		},
		{
			"name":"pine_tree_small",
			"primitives":[
				{
					"attributes":{
						"POSITION":24,
						"NORMAL":25,
						"TEXCOORD_0":26
					},
					"indices":27,
					"material":0
				}
			]
		}
	],
	"textures":[
		{
			"sampler":0,
			"source":0
		}
	],
	"images":[
		{
			"mimeType":"image/png",
			"name":"Map__20_Map_Output_Selector",
			"uri":"Map__20_Map_Output_Selector.png"
		}
	],
	"accessors":[
		{
			"bufferView":0,
			"componentType":5126,
			"count":24,
			"max":[
				1,
				1,
				1
			],
			"min":[
				-1,
				-1,
				-1
			],
			"type":"VEC3"
		},
		{
			"bufferView":1,
			"componentType":5126,
			"count":24,
			"type":"VEC3"
		},
		{
			"bufferView":2,
			"componentType":5126,
			"count":24,
			"type":"VEC2"
		},
		{
			"bufferView":3,
			"componentType":5123,
			"count":36,
			"type":"SCALAR"
		},
		{
			"bufferView":4,
			"componentType":5126,
			"count":17014,
			"max":[
				-0.0052999998442828655,
				4.109499931335449,
				1.1050000190734863
			],
			"min":[
				-16.542800903320312,
				-6.461999893188477,
				-10.596500396728516
			],
			"type":"VEC3"
		},
		{
			"bufferView":5,
			"componentType":5126,
			"count":17014,
			"type":"VEC3"
		},
		{
			"bufferView":6,
			"componentType":5126,
			"count":17014,
			"type":"VEC2"
		},
		{
			"bufferView":7,
			"componentType":5123,
			"count":17016,
			"type":"SCALAR"
		},
		{
			"bufferView":8,
			"componentType":5126,
			"count":2705,
			"max":[
				0.020099999383091927,
				7.497099876403809,
				0.12290000170469284
			],
			"min":[
				-15.869600296020508,
				-6.0279998779296875,
				-10.625100135803223
			],
			"type":"VEC3"
		},
		{
			"bufferView":9,
			"componentType":5126,
			"count":2705,
			"type":"VEC3"
		},
		{
			"bufferView":10,
			"componentType":5126,
			"count":2705,
			"type":"VEC2"
		},
		{
			"bufferView":11,
			"componentType":5123,
			"count":5862,
			"type":"SCALAR"
		},
		{
			"bufferView":12,
			"componentType":5126,
			"count":7252,
			"max":[
				0.03999999910593033,
				9.17770004272461,
				0.8100000023841858
			],
			"min":[
				-43.62080001831055,
				-11.179400444030762,
				-14.457300186157227
			],
			"type":"VEC3"
		},
		{
			"bufferView":13,
			"componentType":5126,
			"count":7252,
			"type":"VEC3"
		},
		{
			"bufferView":14,
			"componentType":5126,
			"count":7252,
			"type":"VEC2"
		},
		{
			"bufferView":15,
			"componentType":5123,
			"count":16659,
			"type":"SCALAR"
		},
		{
			"bufferView":16,
			"componentType":5126,
			"count":7095,
			"max":[
				-0.004900000058114529,
				12.190999984741211,
				6.879799842834473
			],
			"min":[
				-47.65510177612305,
				-10.111200332641602,
				-11.309800148010254
			],
			"type":"VEC3"
		},
		{
			"bufferView":17,
			"componentType":5126,
			"count":7095,
			"type":"VEC3"
		},
		{
			"bufferView":18,
			"componentType":5126,
			"count":7095,
			"type":"VEC2"
		},
		{
			"bufferView":19,
			"componentType":5123,
			"count":16662,
			"type":"SCALAR"
		},
		{
			"bufferView":20,
			"componentType":5126,
			"count":4608,
			"max":[
				0.08179999887943268,
				9.274100303649902,
				2.664599895477295
			],
			"min":[
				-27.326499938964844,
				-8.868399620056152,
				-9.961099624633789
			],
			"type":"VEC3"
		},
		{
			"bufferView":21,
			"componentType":5126,
			"count":4608,
			"type":"VEC3"
		},
		{
			"bufferView":22,
			"componentType":5126,
			"count":4608,
			"type":"VEC2"
		},
		{
			"bufferView":23,
			"componentType":5123,
			"count":10038,
			"type":"SCALAR"
		},
		{
			"bufferView":24,
			"componentType":5126,
			"count":353,
			"max":[
				1.7030999660491943,
				2.5915000438690186,
				-0.17980000376701355
			],
			"min":[
				-1.5492000579833984,
				-0.7196000218391418,
				-106.08360290527344
			],
			"type":"VEC3"
		},
		{
			"bufferView":25,
			"componentType":5126,
			"count":353,
			"type":"VEC3"
		},
		{
			"bufferView":26,
			"componentType":5126,
			"count":353,
			"type":"VEC2"
		},
		{
			"bufferView":27,
			"componentType":5123,
			"count":966,
			"type":"SCALAR"
		},
		{
			"bufferView":28,
			"componentType":5126,
			"count":3,
			"type":"VEC3"
		},
		{
			"bufferView":29,
			"componentType":5126,
			"count":3,
			"type":"VEC4"
		},
		{
			"bufferView":30,
			"componentType":5126,
			"count":3,
			"type":"VEC3"
		},
		{
			"bufferView":31,
			"componentType":5126,
			"count":14,
			"type":"VEC3"
		},
		{
			"bufferView":32,
			"componentType":5126,
			"count":14,
			"type":"VEC4"
		},
		{
			"bufferView":33,
			"componentType":5126,
			"count":14,
			"type":"VEC3"
		},
		{
			"bufferView":34,
			"componentType":5126,
			"count":2,
			"type":"VEC3"
		},
		{
			"bufferView":35,
			"componentType":5126,
			"count":2,
			"type":"VEC4"
		},
		{
			"bufferView":36,
			"componentType":5126,
			"count":2,
			"type":"VEC3"
		},
		{
			"bufferView":37,
			"componentType":5126,
			"count":7,
			"type":"VEC3"
		},
		{
			"bufferView":38,
			"componentType":5126,
			"count":7,
			"type":"VEC4"
		},
		{
			"bufferView":39,
			"componentType":5126,
			"count":7,
			"type":"VEC3"
		},
		{
			"bufferView":40,
			"componentType":5126,
			"count":12,
			"type":"VEC3"
		},
		{
			"bufferView":41,
			"componentType":5126,
			"count":12,
			"type":"VEC4"
		},
		{
			"bufferView":42,
			"componentType":5126,
			"count":12,
			"type":"VEC3"
		}
	],
	"bufferViews":[
		{
			"buffer":0,
			"byteLength":288,
			"byteOffset":0,
			"target":34962
		},
		{
			"buffer":0,
			"byteLength":288,
			"byteOffset":288,
			"target":34962
		},
		{
			"buffer":0,
			"byteLength":192,
			"byteOffset":576,
			"target":34962
		},
		{
			"buffer":0,
			"byteLength":72,
			"byteOffset":768,
			"target":34963
		},
		{
			"buffer":0,
			"byteLength":204168,
			"byteOffset":840,
			"target":34962
		},
		{
			"buffer":0,
			"byteLength":204168,
			"byteOffset":205008,
			"target":34962
		},
		{
			"buffer":0,
			"byteLength":136112,
			"byteOffset":409176,
			"target":34962
		},
		{
			"buffer":0,
			"byteLength":34032,
			"byteOffset":545288,
			"target":34963
		},
		{
			"buffer":0,
			"byteLength":32460,
			"byteOffset":579320,
			"target":34962
		},
		{
			"buffer":0,
			"byteLength":32460,
			"byteOffset":611780,
			"target":34962
		},
		{
			"buffer":0,
			"byteLength":21640,
			"byteOffset":644240,
			"target":34962
		},
		{
			"buffer":0,
			"byteLength":11724,
			"byteOffset":665880,
			"target":34963
		},
		{
			"buffer":0,
			"byteLength":87024,
			"byteOffset":677604,
			"target":34962
		},
		{
			"buffer":0,
			"byteLength":87024,
			"byteOffset":764628,
			"target":34962
		},
		{
			"buffer":0,
			"byteLength":58016,
			"byteOffset":851652,
			"target":34962
		},
		{
			"buffer":0,
			"byteLength":33318,
			"byteOffset":909668,
			"target":34963
		},
		{
			"buffer":0,
			"byteLength":85140,
			"byteOffset":942988,
			"target":34962
		},
		{
			"buffer":0,
			"byteLength":85140,
			"byteOffset":1028128,
			"target":34962
		},
		{
			"buffer":0,
			"byteLength":56760,
			"byteOffset":1113268,
			"target":34962
		},
		{
			"buffer":0,
			"byteLength":33324,
			"byteOffset":1170028,
			"target":34963
		},
		{
			"buffer":0,
			"byteLength":55296,
			"byteOffset":1203352,
			"target":34962
		},
		{
			"buffer":0,
			"byteLength":55296,
			"byteOffset":1258648,
			"target":34962
		},
		{
			"buffer":0,
			"byteLength":36864,
			"byteOffset":1313944,
			"target":34962
		},
		{
			"buffer":0,
			"byteLength":20076,
			"byteOffset":1350808,
			"target":34963
		},
		{
			"buffer":0,
			"byteLength":4236,
			"byteOffset":1370884,
			"target":34962
		},
		{
			"buffer":0,
			"byteLength":4236,
			"byteOffset":1375120,
			"target":34962
		},
		{
			"buffer":0,
			"byteLength":2824,
			"byteOffset":1379356,
			"target":34962
		},
		{
			"buffer":0,
			"byteLength":1932,
			"byteOffset":1382180,
			"target":34963
		},
		{
			"buffer":0,
			"byteLength":36,
			"byteOffset":1384112
		},
		{
			"buffer":0,
			"byteLength":48,
			"byteOffset":1384148
		},
		{
			"buffer":0,
			"byteLength":36,
			"byteOffset":1384196
		},
		{
			"buffer":0,
			"byteLength":168,
			"byteOffset":1384232
		},
		{
			"buffer":0,
			"byteLength":224,
			"byteOffset":1384400
		},
		{
			"buffer":0,
			"byteLength":168,
			"byteOffset":1384624
		},
		{
			"buffer":0,
			"byteLength":24,
			"byteOffset":1384792
		},
		{
			"buffer":0,
			"byteLength":32,
			"byteOffset":1384816
		},
		{
			"buffer":0,
			"byteLength":24,
			"byteOffset":1384848
		},
		{
			"buffer":0,
			"byteLength":84,
			"byteOffset":1384872
		},
		{
			"buffer":0,
			"byteLength":112,
			"byteOffset":1384956
		},
		{
			"buffer":0,
			"byteLength":84,
			"byteOffset":1385068
		},
		{
			"buffer":0,
			"byteLength":144,
			"byteOffset":1385152
		},
		{
			"buffer":0,
			"byteLength":192,
			"byteOffset":1385296
		},
		{
			"buffer":0,
			"byteLength":144,
			"byteOffset":1385488
		}
	],
	"samplers":[
		{
			"magFilter":9729,
			"minFilter":9987
		}
	],
	"buffers":[
		{
			"byteLength":1385632,
			"uri":"pineTreeSm.bin"
		}
	]
}
