{
	"asset":{
		"generator":"Khronos glTF Blender I/O v3.6.28",
		"version":"2.0"
	},
	"scene":0,
	"scenes":[
		{
			"extras":{
				"xol_link_apps":[
					{
						"id":52251,
						"port":"52251",
						"type":"BLD",
						"label":"Blender Foundation - Blender"
					},
					{
						"id":53466,
						"port":"53466",
						"type":"BLD",
						"label":"Blender Foundation - Blender"
					},
					{
						"id":53637,
						"port":"53637",
						"type":"BLD",
						"label":"Blender Foundation - Blender"
					}
				],
				"xol_link_apps_list":0
			},
			"name":"Scene",
			"nodes":[
				13
			]
		}
	],
	"nodes":[
		{
			"extras":{
				"xrengine.entity":"collider",
				"xrengine.EE_collider.shape":"box"
			},
			"mesh":0,
			"name":"Cube",
			"scale":[
				1.2761428356170654,
				2.7450015544891357,
				1.2761428356170654
			],
			"translation":[
				-0.20817594230175018,
				2.648749589920044,
				-0.42186811566352844
			]
		},
		{
			"extras":{
				"xrengine.entity":"collider",
				"xrengine.EE_collider.shape":"box"
			},
			"mesh":1,
			"name":"Cube.001",
			"rotation":[
				0.19053268432617188,
				-0.01481788232922554,
				-0.10048438608646393,
				0.9764121174812317
			],
			"scale":[
				0.5027406215667725,
				0.5085306167602539,
				1.3569896221160889
			],
			"translation":[
				0.1875806450843811,
				0.165470153093338,
				2.2063982486724854
			]
		},
		{
			"extras":{
				"xrengine.entity":"collider",
				"xrengine.EE_collider.shape":"box"
			},
			"mesh":2,
			"name":"Cube.002",
			"rotation":[
				0.07461456954479218,
				0.3973572552204132,
				-0.281096488237381,
				0.8703590631484985
			],
			"scale":[
				0.5027406215667725,
				0.5085306167602539,
				1.3569895029067993
			],
			"translation":[
				2.153437614440918,
				-0.049028217792510986,
				1.0693339109420776
			]
		},
		{
			"extras":{
				"xrengine.entity":"collider",
				"xrengine.EE_collider.shape":"box"
			},
			"mesh":3,
			"name":"Cube.003",
			"rotation":[
				-0.05647512897849083,
				0.8731883764266968,
				-0.22964581847190857,
				0.4261636435985565
			],
			"scale":[
				0.5027406215667725,
				0.5085306167602539,
				1.3569895029067993
			],
			"translation":[
				2.2160139083862305,
				-0.11542671918869019,
				-1.7596083879470825
			]
		},
		{
			"extras":{
				"xrengine.entity":"collider",
				"xrengine.EE_collider.shape":"box"
			},
			"mesh":4,
			"name":"Cube.004",
			"rotation":[
				-0.007357897236943245,
				-0.9502174258232117,
				0.3109908401966095,
				0.01781649701297283
			],
			"scale":[
				0.5027406215667725,
				0.5085306167602539,
				1.3569895029067993
			],
			"translation":[
				-0.4467809796333313,
				0.13075891137123108,
				-2.117375373840332
			]
		},
		{
			"extras":{
				"xrengine.entity":"collider",
				"xrengine.EE_collider.shape":"box"
			},
			"mesh":5,
			"name":"Cube.005",
			"rotation":[
				-0.07467599958181381,
				-0.8391411900520325,
				0.3399639427661896,
				0.4179594814777374
			],
			"scale":[
				0.5027406215667725,
				0.5085306167602539,
				1.3569895029067993
			],
			"translation":[
				-2.085402488708496,
				0.12980899214744568,
				-0.7955545783042908
			]
		},
		{
			"extras":{
				"xrengine.entity":"collider",
				"xrengine.EE_collider.shape":"box"
			},
			"mesh":6,
			"name":"Cube.006",
			"rotation":[
				-0.08875013142824173,
				-0.4109605848789215,
				0.49600914120674133,
				0.7597432136535645
			],
			"scale":[
				0.5027406215667725,
				0.5085306167602539,
				1.3569895029067993
			],
			"translation":[
				-2.1161599159240723,
				0.047460466623306274,
				1.487282156944275
			]
		},
		{
			"extras":{
				"xrengine.entity":"collider",
				"xrengine.EE_collider.shape":"box"
			},
			"mesh":7,
			"name":"Cube.007",
			"rotation":[
				-0.19533629715442657,
				0.0702531561255455,
				0.23602713644504547,
				0.9493152499198914
			],
			"scale":[
				1.0008323192596436,
				2.1528046131134033,
				1.0008323192596436
			],
			"translation":[
				-0.873275876045227,
				6.023727893829346,
				-0.7218294143676758
			]
		},
		{
			"extras":{
				"xrengine.entity":"collider",
				"xrengine.EE_collider.shape":"box"
			},
			"mesh":8,
			"name":"Cube.008",
			"rotation":[
				-0.44200825691223145,
				0.027848608791828156,
				0.1667894870042801,
				0.8809281587600708
			],
			"scale":[
				0.8490923047065735,
				2.726970911026001,
				1.0015043020248413
			],
			"translation":[
				-2.646129608154297,
				8.590792655944824,
				-3.2590010166168213
			]
		},
		{
			"extras":{
				"xrengine.entity":"collider",
				"xrengine.EE_collider.shape":"box"
			},
			"mesh":9,
			"name":"Cube.009",
			"rotation":[
				-0.4139552712440491,
				0.13184970617294312,
				-0.11173553764820099,
				0.8937403559684753
			],
			"scale":[
				0.6785896420478821,
				2.179379463195801,
				0.8003964424133301
			],
			"translation":[
				-3.6658411026000977,
				10.867154121398926,
				-7.088061332702637
			]
		},
		{
			"extras":{
				"xrengine.entity":"collider",
				"xrengine.EE_collider.shape":"box"
			},
			"mesh":10,
			"name":"Cube.010",
			"rotation":[
				-0.5918466448783875,
				-0.38511353731155396,
				-0.3163493573665619,
				0.6335048079490662
			],
			"scale":[
				0.553842306137085,
				1.7787370681762695,
				0.6532569527626038
			],
			"translation":[
				-1.8875515460968018,
				9.954806327819824,
				-7.392509937286377
			]
		},
		{
			"extras":{
				"xrengine.entity":"collider",
				"xrengine.EE_collider.shape":"box"
			},
			"mesh":11,
			"name":"Cube.011",
			"rotation":[
				0.3630583584308624,
				-0.1199694499373436,
				0.04253571480512619,
				0.9230312705039978
			],
			"scale":[
				0.789085328578949,
				2.5342507362365723,
				0.9307260513305664
			],
			"translation":[
				-2.7553606033325195,
				10.376611709594727,
				-1.5324448347091675
			]
		},
		{
			"extras":{
				"xrengine.entity":"collider",
				"xrengine.EE_collider.shape":"box"
			},
			"mesh":12,
			"name":"Cube.012",
			"rotation":[
				0.3497428894042969,
				-0.2954411804676056,
				-0.5601484179496765,
				0.690382719039917
			],
			"scale":[
				0.477956086397171,
				1.5350183248519897,
				0.5637491345405579
			],
			"translation":[
				-1.1747784614562988,
				12.240168571472168,
				1.8951741456985474
			]
		},
		{
			"children":[
				0,
				1,
				2,
				3,
				4,
				5,
				6,
				7,
				8,
				9,
				10,
				11,
				12
			],
			"extras":{
				"xrengine.entity":"rbd_maple",
				"xrengine.EE_rigidbody.type":"fixed"
			},
			"mesh":13,
			"name":"import_assets"
		}
	],
	"materials":[
		{
			"name":"globe_objects",
			"normalTexture":{
				"index":0
			},
			"pbrMetallicRoughness":{
				"baseColorTexture":{
					"index":1
				},
				"metallicFactor":0,
				"metallicRoughnessTexture":{
					"index":2
				},
				"roughnessFactor":0.4399999976158142
			}
		}
	],
	"meshes":[
		{
			"name":"Cube.001",
			"primitives":[
				{
					"attributes":{
						"POSITION":0,
						"NORMAL":1,
						"TEXCOORD_0":2
					},
					"indices":3
				}
			]
		},
		{
			"name":"Cube.002",
			"primitives":[
				{
					"attributes":{
						"POSITION":4,
						"NORMAL":5,
						"TEXCOORD_0":6
					},
					"indices":3
				}
			]
		},
		{
			"name":"Cube.003",
			"primitives":[
				{
					"attributes":{
						"POSITION":7,
						"NORMAL":8,
						"TEXCOORD_0":9
					},
					"indices":3
				}
			]
		},
		{
			"name":"Cube.004",
			"primitives":[
				{
					"attributes":{
						"POSITION":10,
						"NORMAL":11,
						"TEXCOORD_0":12
					},
					"indices":3
				}
			]
		},
		{
			"name":"Cube.005",
			"primitives":[
				{
					"attributes":{
						"POSITION":13,
						"NORMAL":14,
						"TEXCOORD_0":15
					},
					"indices":3
				}
			]
		},
		{
			"name":"Cube.006",
			"primitives":[
				{
					"attributes":{
						"POSITION":16,
						"NORMAL":17,
						"TEXCOORD_0":18
					},
					"indices":3
				}
			]
		},
		{
			"name":"Cube.007",
			"primitives":[
				{
					"attributes":{
						"POSITION":19,
						"NORMAL":20,
						"TEXCOORD_0":21
					},
					"indices":3
				}
			]
		},
		{
			"name":"Cube.008",
			"primitives":[
				{
					"attributes":{
						"POSITION":22,
						"NORMAL":23,
						"TEXCOORD_0":24
					},
					"indices":3
				}
			]
		},
		{
			"name":"Cube.009",
			"primitives":[
				{
					"attributes":{
						"POSITION":25,
						"NORMAL":26,
						"TEXCOORD_0":27
					},
					"indices":3
				}
			]
		},
		{
			"name":"Cube.010",
			"primitives":[
				{
					"attributes":{
						"POSITION":28,
						"NORMAL":29,
						"TEXCOORD_0":30
					},
					"indices":3
				}
			]
		},
		{
			"name":"Cube.011",
			"primitives":[
				{
					"attributes":{
						"POSITION":31,
						"NORMAL":32,
						"TEXCOORD_0":33
					},
					"indices":3
				}
			]
		},
		{
			"name":"Cube.012",
			"primitives":[
				{
					"attributes":{
						"POSITION":34,
						"NORMAL":35,
						"TEXCOORD_0":36
					},
					"indices":3
				}
			]
		},
		{
			"name":"Cube.013",
			"primitives":[
				{
					"attributes":{
						"POSITION":37,
						"NORMAL":38,
						"TEXCOORD_0":39
					},
					"indices":3
				}
			]
		},
		{
			"name":"material34",
			"primitives":[
				{
					"attributes":{
						"POSITION":40,
						"NORMAL":41,
						"TEXCOORD_0":42
					},
					"indices":43,
					"material":0
				}
			]
		}
	],
	"textures":[
		{
			"sampler":0,
			"source":0
		},
		{
			"sampler":0,
			"source":1
		},
		{
			"sampler":0,
			"source":2
		}
	],
	"images":[
		{
			"mimeType":"image/png",
			"name":"globe_foliage_out02_Normal",
			"uri":"globe_foliage_out02_Normal.png"
		},
		{
			"mimeType":"image/png",
			"name":"globe_foliage_out02_Base_color",
			"uri":"globe_foliage_out02_Base_color.png"
		},
		{
			"mimeType":"image/png",
			"name":"globe_foliage_out02_Roughness",
			"uri":"globe_foliage_out02_Roughness.png"
		}
	],
	"accessors":[
		{
			"bufferView":0,
			"componentType":5126,
			"count":24,
			"max":[
				1,
				1,
				1
			],
			"min":[
				-1,
				-1,
				-1
			],
			"type":"VEC3"
		},
		{
			"bufferView":1,
			"componentType":5126,
			"count":24,
			"type":"VEC3"
		},
		{
			"bufferView":2,
			"componentType":5126,
			"count":24,
			"type":"VEC2"
		},
		{
			"bufferView":3,
			"componentType":5123,
			"count":36,
			"type":"SCALAR"
		},
		{
			"bufferView":4,
			"componentType":5126,
			"count":24,
			"max":[
				1,
				1,
				1
			],
			"min":[
				-1,
				-1,
				-1
			],
			"type":"VEC3"
		},
		{
			"bufferView":5,
			"componentType":5126,
			"count":24,
			"type":"VEC3"
		},
		{
			"bufferView":6,
			"componentType":5126,
			"count":24,
			"type":"VEC2"
		},
		{
			"bufferView":7,
			"componentType":5126,
			"count":24,
			"max":[
				1,
				1,
				1
			],
			"min":[
				-1,
				-1,
				-1
			],
			"type":"VEC3"
		},
		{
			"bufferView":8,
			"componentType":5126,
			"count":24,
			"type":"VEC3"
		},
		{
			"bufferView":9,
			"componentType":5126,
			"count":24,
			"type":"VEC2"
		},
		{
			"bufferView":10,
			"componentType":5126,
			"count":24,
			"max":[
				1,
				1,
				1
			],
			"min":[
				-1,
				-1,
				-1
			],
			"type":"VEC3"
		},
		{
			"bufferView":11,
			"componentType":5126,
			"count":24,
			"type":"VEC3"
		},
		{
			"bufferView":12,
			"componentType":5126,
			"count":24,
			"type":"VEC2"
		},
		{
			"bufferView":13,
			"componentType":5126,
			"count":24,
			"max":[
				1,
				1,
				1
			],
			"min":[
				-1,
				-1,
				-1
			],
			"type":"VEC3"
		},
		{
			"bufferView":14,
			"componentType":5126,
			"count":24,
			"type":"VEC3"
		},
		{
			"bufferView":15,
			"componentType":5126,
			"count":24,
			"type":"VEC2"
		},
		{
			"bufferView":16,
			"componentType":5126,
			"count":24,
			"max":[
				1,
				1,
				1
			],
			"min":[
				-1,
				-1,
				-1
			],
			"type":"VEC3"
		},
		{
			"bufferView":17,
			"componentType":5126,
			"count":24,
			"type":"VEC3"
		},
		{
			"bufferView":18,
			"componentType":5126,
			"count":24,
			"type":"VEC2"
		},
		{
			"bufferView":19,
			"componentType":5126,
			"count":24,
			"max":[
				1,
				1,
				1
			],
			"min":[
				-1,
				-1,
				-1
			],
			"type":"VEC3"
		},
		{
			"bufferView":20,
			"componentType":5126,
			"count":24,
			"type":"VEC3"
		},
		{
			"bufferView":21,
			"componentType":5126,
			"count":24,
			"type":"VEC2"
		},
		{
			"bufferView":22,
			"componentType":5126,
			"count":24,
			"max":[
				1,
				1,
				1
			],
			"min":[
				-1,
				-1,
				-1
			],
			"type":"VEC3"
		},
		{
			"bufferView":23,
			"componentType":5126,
			"count":24,
			"type":"VEC3"
		},
		{
			"bufferView":24,
			"componentType":5126,
			"count":24,
			"type":"VEC2"
		},
		{
			"bufferView":25,
			"componentType":5126,
			"count":24,
			"max":[
				1,
				1,
				1
			],
			"min":[
				-1,
				-1,
				-1
			],
			"type":"VEC3"
		},
		{
			"bufferView":26,
			"componentType":5126,
			"count":24,
			"type":"VEC3"
		},
		{
			"bufferView":27,
			"componentType":5126,
			"count":24,
			"type":"VEC2"
		},
		{
			"bufferView":28,
			"componentType":5126,
			"count":24,
			"max":[
				1,
				1,
				1
			],
			"min":[
				-1,
				-1,
				-1
			],
			"type":"VEC3"
		},
		{
			"bufferView":29,
			"componentType":5126,
			"count":24,
			"type":"VEC3"
		},
		{
			"bufferView":30,
			"componentType":5126,
			"count":24,
			"type":"VEC2"
		},
		{
			"bufferView":31,
			"componentType":5126,
			"count":24,
			"max":[
				1,
				1,
				1
			],
			"min":[
				-1,
				-1,
				-1
			],
			"type":"VEC3"
		},
		{
			"bufferView":32,
			"componentType":5126,
			"count":24,
			"type":"VEC3"
		},
		{
			"bufferView":33,
			"componentType":5126,
			"count":24,
			"type":"VEC2"
		},
		{
			"bufferView":34,
			"componentType":5126,
			"count":24,
			"max":[
				1,
				1,
				1
			],
			"min":[
				-1,
				-1,
				-1
			],
			"type":"VEC3"
		},
		{
			"bufferView":35,
			"componentType":5126,
			"count":24,
			"type":"VEC3"
		},
		{
			"bufferView":36,
			"componentType":5126,
			"count":24,
			"type":"VEC2"
		},
		{
			"bufferView":37,
			"componentType":5126,
			"count":24,
			"max":[
				1,
				1,
				1
			],
			"min":[
				-1,
				-1,
				-1
			],
			"type":"VEC3"
		},
		{
			"bufferView":38,
			"componentType":5126,
			"count":24,
			"type":"VEC3"
		},
		{
			"bufferView":39,
			"componentType":5126,
			"count":24,
			"type":"VEC2"
		},
		{
			"bufferView":40,
			"componentType":5126,
			"count":68503,
			"max":[
				4.400551795959473,
				25.174144744873047,
				13.153592109680176
			],
			"min":[
				-17.308162689208984,
				-3.800708055496216,
				-18.673892974853516
			],
			"type":"VEC3"
		},
		{
			"bufferView":41,
			"componentType":5126,
			"count":68503,
			"type":"VEC3"
		},
		{
			"bufferView":42,
			"componentType":5126,
			"count":68503,
			"type":"VEC2"
		},
		{
			"bufferView":43,
			"componentType":5125,
			"count":202320,
			"type":"SCALAR"
		}
	],
	"bufferViews":[
		{
			"buffer":0,
			"byteLength":288,
			"byteOffset":0,
			"target":34962
		},
		{
			"buffer":0,
			"byteLength":288,
			"byteOffset":288,
			"target":34962
		},
		{
			"buffer":0,
			"byteLength":192,
			"byteOffset":576,
			"target":34962
		},
		{
			"buffer":0,
			"byteLength":72,
			"byteOffset":768,
			"target":34963
		},
		{
			"buffer":0,
			"byteLength":288,
			"byteOffset":840,
			"target":34962
		},
		{
			"buffer":0,
			"byteLength":288,
			"byteOffset":1128,
			"target":34962
		},
		{
			"buffer":0,
			"byteLength":192,
			"byteOffset":1416,
			"target":34962
		},
		{
			"buffer":0,
			"byteLength":288,
			"byteOffset":1608,
			"target":34962
		},
		{
			"buffer":0,
			"byteLength":288,
			"byteOffset":1896,
			"target":34962
		},
		{
			"buffer":0,
			"byteLength":192,
			"byteOffset":2184,
			"target":34962
		},
		{
			"buffer":0,
			"byteLength":288,
			"byteOffset":2376,
			"target":34962
		},
		{
			"buffer":0,
			"byteLength":288,
			"byteOffset":2664,
			"target":34962
		},
		{
			"buffer":0,
			"byteLength":192,
			"byteOffset":2952,
			"target":34962
		},
		{
			"buffer":0,
			"byteLength":288,
			"byteOffset":3144,
			"target":34962
		},
		{
			"buffer":0,
			"byteLength":288,
			"byteOffset":3432,
			"target":34962
		},
		{
			"buffer":0,
			"byteLength":192,
			"byteOffset":3720,
			"target":34962
		},
		{
			"buffer":0,
			"byteLength":288,
			"byteOffset":3912,
			"target":34962
		},
		{
			"buffer":0,
			"byteLength":288,
			"byteOffset":4200,
			"target":34962
		},
		{
			"buffer":0,
			"byteLength":192,
			"byteOffset":4488,
			"target":34962
		},
		{
			"buffer":0,
			"byteLength":288,
			"byteOffset":4680,
			"target":34962
		},
		{
			"buffer":0,
			"byteLength":288,
			"byteOffset":4968,
			"target":34962
		},
		{
			"buffer":0,
			"byteLength":192,
			"byteOffset":5256,
			"target":34962
		},
		{
			"buffer":0,
			"byteLength":288,
			"byteOffset":5448,
			"target":34962
		},
		{
			"buffer":0,
			"byteLength":288,
			"byteOffset":5736,
			"target":34962
		},
		{
			"buffer":0,
			"byteLength":192,
			"byteOffset":6024,
			"target":34962
		},
		{
			"buffer":0,
			"byteLength":288,
			"byteOffset":6216,
			"target":34962
		},
		{
			"buffer":0,
			"byteLength":288,
			"byteOffset":6504,
			"target":34962
		},
		{
			"buffer":0,
			"byteLength":192,
			"byteOffset":6792,
			"target":34962
		},
		{
			"buffer":0,
			"byteLength":288,
			"byteOffset":6984,
			"target":34962
		},
		{
			"buffer":0,
			"byteLength":288,
			"byteOffset":7272,
			"target":34962
		},
		{
			"buffer":0,
			"byteLength":192,
			"byteOffset":7560,
			"target":34962
		},
		{
			"buffer":0,
			"byteLength":288,
			"byteOffset":7752,
			"target":34962
		},
		{
			"buffer":0,
			"byteLength":288,
			"byteOffset":8040,
			"target":34962
		},
		{
			"buffer":0,
			"byteLength":192,
			"byteOffset":8328,
			"target":34962
		},
		{
			"buffer":0,
			"byteLength":288,
			"byteOffset":8520,
			"target":34962
		},
		{
			"buffer":0,
			"byteLength":288,
			"byteOffset":8808,
			"target":34962
		},
		{
			"buffer":0,
			"byteLength":192,
			"byteOffset":9096,
			"target":34962
		},
		{
			"buffer":0,
			"byteLength":288,
			"byteOffset":9288,
			"target":34962
		},
		{
			"buffer":0,
			"byteLength":288,
			"byteOffset":9576,
			"target":34962
		},
		{
			"buffer":0,
			"byteLength":192,
			"byteOffset":9864,
			"target":34962
		},
		{
			"buffer":0,
			"byteLength":822036,
			"byteOffset":10056,
			"target":34962
		},
		{
			"buffer":0,
			"byteLength":822036,
			"byteOffset":832092,
			"target":34962
		},
		{
			"buffer":0,
			"byteLength":548024,
			"byteOffset":1654128,
			"target":34962
		},
		{
			"buffer":0,
			"byteLength":809280,
			"byteOffset":2202152,
			"target":34963
		}
	],
	"samplers":[
		{
			"magFilter":9729,
			"minFilter":9987
		}
	],
	"buffers":[
		{
			"byteLength":3011432,
			"uri":"red_maple_colliders.bin"
		}
	]
}
