{
	"asset":{
		"generator":"Khronos glTF Blender I/O v4.0.44",
		"version":"2.0"
	},
	"scene":0,
	"scenes":[
		{
			"name":"Scene",
			"nodes":[
				0
			]
		}
	],
	"nodes":[
		{
			"mesh":0,
			"name":"ground_coverage_weeds_04",
			"rotation":[
				0.7071068286895752,
				0,
				0,
				0.7071068286895752
			]
		}
	],
	"materials":[
		{
			"doubleSided":true,
			"name":"ground_coverage_plants",
			"pbrMetallicRoughness":{
				"baseColorTexture":{
					"index":0
				},
				"metallicFactor":0,
				"roughnessFactor":0.5
			}
		}
	],
	"meshes":[
		{
			"name":"Object003",
			"primitives":[
				{
					"attributes":{
						"POSITION":0,
						"NORMAL":1,
						"TEXCOORD_0":2
					},
					"indices":3,
					"material":0
				}
			]
		}
	],
	"textures":[
		{
			"sampler":0,
			"source":0
		}
	],
	"images":[
		{
			"mimeType":"image/png",
			"name":"ground_coverage_plants_diffuse",
			"uri":"ground_coverage_plants_diffuse.png"
		}
	],
	"accessors":[
		{
			"bufferView":0,
			"componentType":5126,
			"count":1105,
			"max":[
				20.987600326538086,
				-23.434099197387695,
				0.5479000210762024
			],
			"min":[
				10.801799774169922,
				-34.26129913330078,
				-3.4890999794006348
			],
			"type":"VEC3"
		},
		{
			"bufferView":1,
			"componentType":5126,
			"count":1105,
			"type":"VEC3"
		},
		{
			"bufferView":2,
			"componentType":5126,
			"count":1105,
			"type":"VEC2"
		},
		{
			"bufferView":3,
			"componentType":5123,
			"count":2628,
			"type":"SCALAR"
		}
	],
	"bufferViews":[
		{
			"buffer":0,
			"byteLength":13260,
			"byteOffset":0,
			"target":34962
		},
		{
			"buffer":0,
			"byteLength":13260,
			"byteOffset":13260,
			"target":34962
		},
		{
			"buffer":0,
			"byteLength":8840,
			"byteOffset":26520,
			"target":34962
		},
		{
			"buffer":0,
			"byteLength":5256,
			"byteOffset":35360,
			"target":34963
		}
	],
	"samplers":[
		{
			"magFilter":9729,
			"minFilter":9987
		}
	],
	"buffers":[
		{
			"byteLength":40616,
			"uri":"ground_coverage_weeds_04.bin"
		}
	]
}
