{
	"asset":{
		"generator":"Khronos glTF Blender I/O v4.0.44",
		"version":"2.0"
	},
	"scene":0,
	"scenes":[
		{
			"name":"Scene",
			"nodes":[
				0
			]
		}
	],
	"nodes":[
		{
			"mesh":0,
			"name":"ground_coverage_dandelion_flower_01",
			"rotation":[
				0.7071068286895752,
				0,
				0,
				0.7071068286895752
			]
		}
	],
	"materials":[
		{
			"doubleSided":true,
			"name":"ground_coverage_plants",
			"pbrMetallicRoughness":{
				"baseColorTexture":{
					"index":0
				},
				"metallicFactor":0,
				"roughnessFactor":0.5
			}
		}
	],
	"meshes":[
		{
			"name":"dandelion_flower_01",
			"primitives":[
				{
					"attributes":{
						"POSITION":0,
						"NORMAL":1,
						"TEXCOORD_0":2
					},
					"indices":3,
					"material":0
				}
			]
		}
	],
	"textures":[
		{
			"sampler":0,
			"source":0
		}
	],
	"images":[
		{
			"mimeType":"image/png",
			"name":"ground_coverage_plants_diffuse",
			"uri":"ground_coverage_plants_diffuse.png"
		}
	],
	"accessors":[
		{
			"bufferView":0,
			"componentType":5126,
			"count":5967,
			"max":[
				5.242700099945068,
				-40.132301330566406,
				-0.11649999767541885
			],
			"min":[
				-4.109000205993652,
				-48.061798095703125,
				-6.020899772644043
			],
			"type":"VEC3"
		},
		{
			"bufferView":1,
			"componentType":5126,
			"count":5967,
			"type":"VEC3"
		},
		{
			"bufferView":2,
			"componentType":5126,
			"count":5967,
			"type":"VEC2"
		},
		{
			"bufferView":3,
			"componentType":5123,
			"count":14745,
			"type":"SCALAR"
		}
	],
	"bufferViews":[
		{
			"buffer":0,
			"byteLength":71604,
			"byteOffset":0,
			"target":34962
		},
		{
			"buffer":0,
			"byteLength":71604,
			"byteOffset":71604,
			"target":34962
		},
		{
			"buffer":0,
			"byteLength":47736,
			"byteOffset":143208,
			"target":34962
		},
		{
			"buffer":0,
			"byteLength":29490,
			"byteOffset":190944,
			"target":34963
		}
	],
	"samplers":[
		{
			"magFilter":9729,
			"minFilter":9987
		}
	],
	"buffers":[
		{
			"byteLength":220436,
			"uri":"ground_coverage_dandelion_flower_01.bin"
		}
	]
}
