{
	"asset":{
		"generator":"Khronos glTF Blender I/O v4.0.44",
		"version":"2.0"
	},
	"scene":0,
	"scenes":[
		{
			"name":"Scene",
			"nodes":[
				0
			]
		}
	],
	"nodes":[
		{
			"mesh":0,
			"name":"ground_coverage_sorrel_leaves_01",
			"rotation":[
				0.7071068286895752,
				0,
				0,
				0.7071068286895752
			]
		}
	],
	"materials":[
		{
			"doubleSided":true,
			"name":"ground_coverage_plants",
			"pbrMetallicRoughness":{
				"baseColorTexture":{
					"index":0
				},
				"metallicFactor":0,
				"roughnessFactor":0.5
			}
		}
	],
	"meshes":[
		{
			"name":"shrub_sorrel_01_b.001",
			"primitives":[
				{
					"attributes":{
						"POSITION":0,
						"NORMAL":1,
						"TEXCOORD_0":2
					},
					"indices":3,
					"material":0
				}
			]
		}
	],
	"textures":[
		{
			"sampler":0,
			"source":0
		}
	],
	"images":[
		{
			"mimeType":"image/png",
			"name":"ground_coverage_plants_diffuse",
			"uri":"ground_coverage_plants_diffuse.png"
		}
	],
	"accessors":[
		{
			"bufferView":0,
			"componentType":5126,
			"count":897,
			"max":[
				-7.961699962615967,
				14.57390022277832,
				0.4016999900341034
			],
			"min":[
				-12.050000190734863,
				9.044899940490723,
				-1.8758000135421753
			],
			"type":"VEC3"
		},
		{
			"bufferView":1,
			"componentType":5126,
			"count":897,
			"type":"VEC3"
		},
		{
			"bufferView":2,
			"componentType":5126,
			"count":897,
			"type":"VEC2"
		},
		{
			"bufferView":3,
			"componentType":5123,
			"count":2856,
			"type":"SCALAR"
		}
	],
	"bufferViews":[
		{
			"buffer":0,
			"byteLength":10764,
			"byteOffset":0,
			"target":34962
		},
		{
			"buffer":0,
			"byteLength":10764,
			"byteOffset":10764,
			"target":34962
		},
		{
			"buffer":0,
			"byteLength":7176,
			"byteOffset":21528,
			"target":34962
		},
		{
			"buffer":0,
			"byteLength":5712,
			"byteOffset":28704,
			"target":34963
		}
	],
	"samplers":[
		{
			"magFilter":9729,
			"minFilter":9987
		}
	],
	"buffers":[
		{
			"byteLength":34416,
			"uri":"ground_coverage_sorrel_leaves_01.bin"
		}
	]
}
