{
	"asset":{
		"generator":"Khronos glTF Blender I/O v4.0.44",
		"version":"2.0"
	},
	"scene":0,
	"scenes":[
		{
			"name":"Scene",
			"nodes":[
				0
			]
		}
	],
	"nodes":[
		{
			"mesh":0,
			"name":"ground_coverage_sorrel_flowers_03",
			"rotation":[
				0.7071068286895752,
				0,
				0,
				0.7071068286895752
			]
		}
	],
	"materials":[
		{
			"doubleSided":true,
			"name":"ground_coverage_plants",
			"pbrMetallicRoughness":{
				"baseColorTexture":{
					"index":0
				},
				"metallicFactor":0,
				"roughnessFactor":0.5
			}
		}
	],
	"meshes":[
		{
			"name":"shrub_sorrel_01_a003.001",
			"primitives":[
				{
					"attributes":{
						"POSITION":0,
						"NORMAL":1,
						"TEXCOORD_0":2
					},
					"indices":3,
					"material":0
				}
			]
		}
	],
	"textures":[
		{
			"sampler":0,
			"source":0
		}
	],
	"images":[
		{
			"mimeType":"image/png",
			"name":"ground_coverage_plants_diffuse",
			"uri":"ground_coverage_plants_diffuse.png"
		}
	],
	"accessors":[
		{
			"bufferView":0,
			"componentType":5126,
			"count":3053,
			"max":[
				-7.920599937438965,
				-29.49250030517578,
				0.6086999773979187
			],
			"min":[
				-13.192000389099121,
				-34.313499450683594,
				-2.8287999629974365
			],
			"type":"VEC3"
		},
		{
			"bufferView":1,
			"componentType":5126,
			"count":3053,
			"type":"VEC3"
		},
		{
			"bufferView":2,
			"componentType":5126,
			"count":3053,
			"type":"VEC2"
		},
		{
			"bufferView":3,
			"componentType":5123,
			"count":10374,
			"type":"SCALAR"
		}
	],
	"bufferViews":[
		{
			"buffer":0,
			"byteLength":36636,
			"byteOffset":0,
			"target":34962
		},
		{
			"buffer":0,
			"byteLength":36636,
			"byteOffset":36636,
			"target":34962
		},
		{
			"buffer":0,
			"byteLength":24424,
			"byteOffset":73272,
			"target":34962
		},
		{
			"buffer":0,
			"byteLength":20748,
			"byteOffset":97696,
			"target":34963
		}
	],
	"samplers":[
		{
			"magFilter":9729,
			"minFilter":9987
		}
	],
	"buffers":[
		{
			"byteLength":118444,
			"uri":"ground_coverage_sorrel_flowers_03.bin"
		}
	]
}
