{
	"asset":{
		"generator":"Khronos glTF Blender I/O v4.0.44",
		"version":"2.0"
	},
	"scene":0,
	"scenes":[
		{
			"name":"Scene",
			"nodes":[
				0
			]
		}
	],
	"nodes":[
		{
			"mesh":0,
			"name":"ground_coverage_dandelion_flower_03",
			"rotation":[
				0.7071068286895752,
				0,
				0,
				0.7071068286895752
			]
		}
	],
	"materials":[
		{
			"doubleSided":true,
			"name":"ground_coverage_plants",
			"pbrMetallicRoughness":{
				"baseColorTexture":{
					"index":0
				},
				"metallicFactor":0,
				"roughnessFactor":0.5
			}
		}
	],
	"meshes":[
		{
			"name":"dandelion_flower_03",
			"primitives":[
				{
					"attributes":{
						"POSITION":0,
						"NORMAL":1,
						"TEXCOORD_0":2
					},
					"indices":3,
					"material":0
				}
			]
		}
	],
	"textures":[
		{
			"sampler":0,
			"source":0
		}
	],
	"images":[
		{
			"mimeType":"image/png",
			"name":"ground_coverage_plants_diffuse",
			"uri":"ground_coverage_plants_diffuse.png"
		}
	],
	"accessors":[
		{
			"bufferView":0,
			"componentType":5126,
			"count":1970,
			"max":[
				3.401900053024292,
				-14.63029956817627,
				-0.11320000141859055
			],
			"min":[
				-2.6203999519348145,
				-20.762399673461914,
				-3.7750000953674316
			],
			"type":"VEC3"
		},
		{
			"bufferView":1,
			"componentType":5126,
			"count":1970,
			"type":"VEC3"
		},
		{
			"bufferView":2,
			"componentType":5126,
			"count":1970,
			"type":"VEC2"
		},
		{
			"bufferView":3,
			"componentType":5123,
			"count":4359,
			"type":"SCALAR"
		}
	],
	"bufferViews":[
		{
			"buffer":0,
			"byteLength":23640,
			"byteOffset":0,
			"target":34962
		},
		{
			"buffer":0,
			"byteLength":23640,
			"byteOffset":23640,
			"target":34962
		},
		{
			"buffer":0,
			"byteLength":15760,
			"byteOffset":47280,
			"target":34962
		},
		{
			"buffer":0,
			"byteLength":8718,
			"byteOffset":63040,
			"target":34963
		}
	],
	"samplers":[
		{
			"magFilter":9729,
			"minFilter":9987
		}
	],
	"buffers":[
		{
			"byteLength":71760,
			"uri":"ground_coverage_dandelion_flower_03.bin"
		}
	]
}
