{
	"asset":{
		"generator":"Khronos glTF Blender I/O v4.0.44",
		"version":"2.0"
	},
	"scene":0,
	"scenes":[
		{
			"name":"Scene",
			"nodes":[
				0
			]
		}
	],
	"nodes":[
		{
			"mesh":0,
			"name":"ground_coverage_dandelion_leaves_01",
			"rotation":[
				0.7071068286895752,
				0,
				0,
				0.7071068286895752
			]
		}
	],
	"materials":[
		{
			"doubleSided":true,
			"name":"ground_coverage_plants",
			"pbrMetallicRoughness":{
				"baseColorTexture":{
					"index":0
				},
				"metallicFactor":0,
				"roughnessFactor":0.5
			}
		}
	],
	"meshes":[
		{
			"name":"dandelion_leaves_002",
			"primitives":[
				{
					"attributes":{
						"POSITION":0,
						"NORMAL":1,
						"TEXCOORD_0":2
					},
					"indices":3,
					"material":0
				}
			]
		}
	],
	"textures":[
		{
			"sampler":0,
			"source":0
		}
	],
	"images":[
		{
			"mimeType":"image/png",
			"name":"ground_coverage_plants_diffuse",
			"uri":"ground_coverage_plants_diffuse.png"
		}
	],
	"accessors":[
		{
			"bufferView":0,
			"componentType":5126,
			"count":1392,
			"max":[
				2.526599884033203,
				0.2468000054359436,
				-0.15029999613761902
			],
			"min":[
				-2.731600046157837,
				-4.195799827575684,
				-2.163599967956543
			],
			"type":"VEC3"
		},
		{
			"bufferView":1,
			"componentType":5126,
			"count":1392,
			"type":"VEC3"
		},
		{
			"bufferView":2,
			"componentType":5126,
			"count":1392,
			"type":"VEC2"
		},
		{
			"bufferView":3,
			"componentType":5123,
			"count":3291,
			"type":"SCALAR"
		}
	],
	"bufferViews":[
		{
			"buffer":0,
			"byteLength":16704,
			"byteOffset":0,
			"target":34962
		},
		{
			"buffer":0,
			"byteLength":16704,
			"byteOffset":16704,
			"target":34962
		},
		{
			"buffer":0,
			"byteLength":11136,
			"byteOffset":33408,
			"target":34962
		},
		{
			"buffer":0,
			"byteLength":6582,
			"byteOffset":44544,
			"target":34963
		}
	],
	"samplers":[
		{
			"magFilter":9729,
			"minFilter":9987
		}
	],
	"buffers":[
		{
			"byteLength":51128,
			"uri":"ground_coverage_dandelion_leaves_02.bin"
		}
	]
}
