{
	"asset":{
		"generator":"Khronos glTF Blender I/O v4.0.44",
		"version":"2.0"
	},
	"scene":0,
	"scenes":[
		{
			"name":"Scene",
			"nodes":[
				0
			]
		}
	],
	"nodes":[
		{
			"mesh":0,
			"name":"ground_coverage_dandelion_flower_02",
			"rotation":[
				0.7071068286895752,
				0,
				0,
				0.7071068286895752
			]
		}
	],
	"materials":[
		{
			"doubleSided":true,
			"name":"ground_coverage_plants",
			"pbrMetallicRoughness":{
				"baseColorTexture":{
					"index":0
				},
				"metallicFactor":0,
				"roughnessFactor":0.5
			}
		}
	],
	"meshes":[
		{
			"name":"dandelion_flower_02",
			"primitives":[
				{
					"attributes":{
						"POSITION":0,
						"NORMAL":1,
						"TEXCOORD_0":2
					},
					"indices":3,
					"material":0
				}
			]
		}
	],
	"textures":[
		{
			"sampler":0,
			"source":0
		}
	],
	"images":[
		{
			"mimeType":"image/png",
			"name":"ground_coverage_plants_diffuse",
			"uri":"ground_coverage_plants_diffuse.png"
		}
	],
	"accessors":[
		{
			"bufferView":0,
			"componentType":5126,
			"count":5311,
			"max":[
				4.884300231933594,
				-27.552099227905273,
				-0.1168999969959259
			],
			"min":[
				-2.984100103378296,
				-34.83169937133789,
				-4.182700157165527
			],
			"type":"VEC3"
		},
		{
			"bufferView":1,
			"componentType":5126,
			"count":5311,
			"type":"VEC3"
		},
		{
			"bufferView":2,
			"componentType":5126,
			"count":5311,
			"type":"VEC2"
		},
		{
			"bufferView":3,
			"componentType":5123,
			"count":14994,
			"type":"SCALAR"
		}
	],
	"bufferViews":[
		{
			"buffer":0,
			"byteLength":63732,
			"byteOffset":0,
			"target":34962
		},
		{
			"buffer":0,
			"byteLength":63732,
			"byteOffset":63732,
			"target":34962
		},
		{
			"buffer":0,
			"byteLength":42488,
			"byteOffset":127464,
			"target":34962
		},
		{
			"buffer":0,
			"byteLength":29988,
			"byteOffset":169952,
			"target":34963
		}
	],
	"samplers":[
		{
			"magFilter":9729,
			"minFilter":9987
		}
	],
	"buffers":[
		{
			"byteLength":199940,
			"uri":"ground_coverage_dandelion_flower_02.bin"
		}
	]
}
