{
	"asset":{
		"generator":"Khronos glTF Blender I/O v4.0.44",
		"version":"2.0"
	},
	"scene":0,
	"scenes":[
		{
			"name":"Scene",
			"nodes":[
				0
			]
		}
	],
	"nodes":[
		{
			"mesh":0,
			"name":"ground_coverage_sorrel_flowers_01",
			"rotation":[
				0.7071068286895752,
				0,
				0,
				0.7071068286895752
			]
		}
	],
	"materials":[
		{
			"doubleSided":true,
			"name":"ground_coverage_plants",
			"pbrMetallicRoughness":{
				"baseColorTexture":{
					"index":0
				},
				"metallicFactor":0,
				"roughnessFactor":0.5
			}
		}
	],
	"meshes":[
		{
			"name":"shrub_sorrel_01_d001.001",
			"primitives":[
				{
					"attributes":{
						"POSITION":0,
						"NORMAL":1,
						"TEXCOORD_0":2
					},
					"indices":3,
					"material":0
				}
			]
		}
	],
	"textures":[
		{
			"sampler":0,
			"source":0
		}
	],
	"images":[
		{
			"mimeType":"image/png",
			"name":"ground_coverage_plants_diffuse",
			"uri":"ground_coverage_plants_diffuse.png"
		}
	],
	"accessors":[
		{
			"bufferView":0,
			"componentType":5126,
			"count":1342,
			"max":[
				-8.8302001953125,
				1.249400019645691,
				0.4196999967098236
			],
			"min":[
				-12.516900062561035,
				-3.4263999462127686,
				-2.716200113296509
			],
			"type":"VEC3"
		},
		{
			"bufferView":1,
			"componentType":5126,
			"count":1342,
			"type":"VEC3"
		},
		{
			"bufferView":2,
			"componentType":5126,
			"count":1342,
			"type":"VEC2"
		},
		{
			"bufferView":3,
			"componentType":5123,
			"count":4182,
			"type":"SCALAR"
		}
	],
	"bufferViews":[
		{
			"buffer":0,
			"byteLength":16104,
			"byteOffset":0,
			"target":34962
		},
		{
			"buffer":0,
			"byteLength":16104,
			"byteOffset":16104,
			"target":34962
		},
		{
			"buffer":0,
			"byteLength":10736,
			"byteOffset":32208,
			"target":34962
		},
		{
			"buffer":0,
			"byteLength":8364,
			"byteOffset":42944,
			"target":34963
		}
	],
	"samplers":[
		{
			"magFilter":9729,
			"minFilter":9987
		}
	],
	"buffers":[
		{
			"byteLength":51308,
			"uri":"ground_coverage_sorrel_flowers_01.bin"
		}
	]
}
