{
	"asset":{
		"generator":"Khronos glTF Blender I/O v3.6.28",
		"version":"2.0"
	},
	"scene":0,
	"scenes":[
		{
			"name":"Scene",
			"nodes":[
				0
			]
		}
	],
	"nodes":[
		{
			"mesh":0,
			"name":"wheat03",
			"rotation":[
				0.2759157419204712,
				0.6767875552177429,
				-0.6337778568267822,
				0.25328806042671204
			],
			"scale":[
				0.814521849155426,
				0.814521849155426,
				0.8145216703414917
			],
			"translation":[
				-0.10526332259178162,
				-0.050765275955200195,
				0.10783004760742188
			]
		}
	],
	"materials":[
		{
			"alphaMode":"BLEND",
			"doubleSided":true,
			"name":"wheat texture",
			"pbrMetallicRoughness":{
				"baseColorTexture":{
					"index":0
				},
				"metallicFactor":0,
				"roughnessFactor":0.8777778148651123
			}
		}
	],
	"meshes":[
		{
			"name":"Plane.006",
			"primitives":[
				{
					"attributes":{
						"POSITION":0,
						"NORMAL":1,
						"TEXCOORD_0":2
					},
					"indices":3,
					"material":0
				}
			]
		}
	],
	"textures":[
		{
			"sampler":0,
			"source":0
		}
	],
	"images":[
		{
			"mimeType":"image/png",
			"name":"wheat_texture",
			"uri":"wheat_texture.png"
		}
	],
	"accessors":[
		{
			"bufferView":0,
			"componentType":5126,
			"count":102,
			"max":[
				0.265680730342865,
				1.1043981313705444,
				0.24511252343654633
			],
			"min":[
				-4.238184452056885,
				-0.1749265193939209,
				-20.94849395751953
			],
			"type":"VEC3"
		},
		{
			"bufferView":1,
			"componentType":5126,
			"count":102,
			"type":"VEC3"
		},
		{
			"bufferView":2,
			"componentType":5126,
			"count":102,
			"type":"VEC2"
		},
		{
			"bufferView":3,
			"componentType":5123,
			"count":288,
			"type":"SCALAR"
		}
	],
	"bufferViews":[
		{
			"buffer":0,
			"byteLength":1224,
			"byteOffset":0,
			"target":34962
		},
		{
			"buffer":0,
			"byteLength":1224,
			"byteOffset":1224,
			"target":34962
		},
		{
			"buffer":0,
			"byteLength":816,
			"byteOffset":2448,
			"target":34962
		},
		{
			"buffer":0,
			"byteLength":576,
			"byteOffset":3264,
			"target":34963
		}
	],
	"samplers":[
		{
			"magFilter":9729,
			"minFilter":9987,
			"wrapS":33071,
			"wrapT":33071
		}
	],
	"buffers":[
		{
			"byteLength":3840,
			"uri":"wheat03.bin"
		}
	]
}
