{
	"asset":{
		"generator":"Khronos glTF Blender I/O v3.6.28",
		"version":"2.0"
	},
	"extensionsUsed":[
		"KHR_texture_transform"
	],
	"extensionsRequired":[
		"KHR_texture_transform"
	],
	"scene":0,
	"scenes":[
		{
			"extras":{
				"xol_link_apps":[
					{
						"id":52251,
						"port":"52251",
						"type":"BLD",
						"label":"Blender Foundation - Blender"
					}
				],
				"xol_link_apps_list":0
			},
			"name":"Scene",
			"nodes":[
				16
			]
		}
	],
	"nodes":[
		{
			"mesh":0,
			"name":"BETE_Material.005_0"
		},
		{
			"children":[
				0
			],
			"name":"BETE",
			"rotation":[
				-0.70710688829422,
				0,
				0,
				0.7071066498756409
			],
			"scale":[
				100000,
				99999.9921875,
				99999.9921875
			],
			"translation":[
				-337.05047607421875,
				6980.439453125,
				421.1142272949219
			]
		},
		{
			"name":"Cylinder.002",
			"rotation":[
				-0.70710688829422,
				0,
				0,
				0.7071066498756409
			],
			"scale":[
				100000,
				99999.9921875,
				99999.9921875
			],
			"translation":[
				-595.319580078125,
				6678.755859375,
				418.4136047363281
			]
		},
		{
			"mesh":1,
			"name":"EXTERIOR.002_Material_0"
		},
		{
			"mesh":2,
			"name":"EXTERIOR.002_Material_0.001"
		},
		{
			"mesh":3,
			"name":"EXTERIOR.002_Material_0.002"
		},
		{
			"children":[
				3,
				4,
				5
			],
			"name":"EXTERIOR.002",
			"rotation":[
				-0.70710688829422,
				0,
				0,
				0.7071066498756409
			],
			"scale":[
				100000,
				99999.9921875,
				99999.9921875
			],
			"translation":[
				-702.0341186523438,
				12713.447265625,
				594.4652099609375
			]
		},
		{
			"mesh":4,
			"name":"INTERIOR.001_Material.007_0"
		},
		{
			"children":[
				7
			],
			"name":"INTERIOR.001",
			"rotation":[
				-0.70710688829422,
				0,
				0,
				0.7071066498756409
			],
			"scale":[
				100000,
				99999.9921875,
				99999.9921875
			],
			"translation":[
				-702.0341186523438,
				12713.447265625,
				594.4652099609375
			]
		},
		{
			"mesh":5,
			"name":"planta join.001_Material.006_0"
		},
		{
			"mesh":6,
			"name":"planta join.001_Material.006_0.001"
		},
		{
			"children":[
				9,
				10
			],
			"name":"planta join.001",
			"rotation":[
				-0.6898772716522217,
				0.06512348353862762,
				-0.05686431750655174,
				0.7187453508377075
			],
			"scale":[
				99999.9921875,
				100000,
				100000.0078125
			],
			"translation":[
				-784.6123657226562,
				13732.806640625,
				466.8930358886719
			]
		},
		{
			"children":[
				1,
				2,
				6,
				8,
				11
			],
			"name":"RootNode"
		},
		{
			"children":[
				12
			],
			"name":"6a474bbd0e064fd5ae5df7089755eedf.fbx",
			"rotation":[
				0.70710688829422,
				0,
				0,
				0.7071066498756409
			],
			"scale":[
				0.009999999776482582,
				0.010000000707805157,
				0.010000000707805157
			]
		},
		{
			"extras":{
				"xrengine.entity":"collider_plant",
				"xrengine.EE_collider.shape":"box"
			},
			"mesh":7,
			"name":"collider",
			"rotation":[
				0.70710688829422,
				0,
				0,
				0.7071066498756409
			],
			"scale":[
				36.4495964050293,
				90.21553802490234,
				36.4495964050293
			],
			"translation":[
				0,
				-1.0381018910265993e-05,
				77.26337432861328
			]
		},
		{
			"mesh":8,
			"name":"Cylinder",
			"rotation":[
				0.70710688829422,
				0,
				0,
				0.7071066498756409
			],
			"scale":[
				6.88165283203125,
				2.4202487468719482,
				6.88165283203125
			],
			"translation":[
				-5.372744560241699,
				-3.8043527603149414,
				67.40312194824219
			]
		},
		{
			"children":[
				13,
				14,
				15
			],
			"extras":{
				"xrengine.entity":"rbd_plant",
				"xrengine.EE_rigidbody.type":"fixed"
			},
			"name":"bamboo_agave",
			"rotation":[
				-0.70710688829422,
				0,
				0,
				0.7071066498756409
			],
			"scale":[
				0.032257165759801865,
				0.032257165759801865,
				0.032257165759801865
			]
		}
	],
	"materials":[
		{
			"doubleSided":true,
			"name":"Material.005",
			"pbrMetallicRoughness":{
				"baseColorTexture":{
					"extensions":{
						"KHR_texture_transform":{
							"offset":[
								9.992007221626409e-16,
								4.371139000186241e-08
							],
							"rotation":1.5707963705062866
						}
					},
					"index":0
				},
				"metallicFactor":0,
				"roughnessFactor":0.2923508584499359
			}
		},
		{
			"doubleSided":true,
			"name":"Material.001",
			"pbrMetallicRoughness":{
				"metallicFactor":0,
				"roughnessFactor":0.9869762659072876
			}
		},
		{
			"doubleSided":true,
			"name":"Material.007",
			"pbrMetallicRoughness":{
				"baseColorFactor":[
					0.004173591732978821,
					0.6471754312515259,
					0,
					1
				],
				"metallicFactor":0,
				"roughnessFactor":0.9618870615959167
			}
		},
		{
			"doubleSided":true,
			"name":"Material.006",
			"pbrMetallicRoughness":{
				"baseColorFactor":[
					0.4338605999946594,
					0.4338605999946594,
					0.4338605999946594,
					1
				],
				"baseColorTexture":{
					"extensions":{
						"KHR_texture_transform":{
							"offset":[
								1.7444378643967592e-07,
								-1.5832468447385395e-08
							],
							"rotation":-6.2831854820251465,
							"scale":[
								0.9317047595977783,
								0.9977021217346191
							]
						}
					},
					"index":1
				},
				"metallicFactor":0
			}
		}
	],
	"meshes":[
		{
			"name":"BETE_Material.005_0",
			"primitives":[
				{
					"attributes":{
						"POSITION":0,
						"NORMAL":1,
						"TEXCOORD_0":2,
						"TEXCOORD_1":3
					},
					"indices":4,
					"material":0
				}
			]
		},
		{
			"name":"EXTERIOR.002_Material_0",
			"primitives":[
				{
					"attributes":{
						"POSITION":5,
						"NORMAL":6,
						"TEXCOORD_0":7
					},
					"indices":8,
					"material":1
				}
			]
		},
		{
			"name":"EXTERIOR.002_Material_0.001",
			"primitives":[
				{
					"attributes":{
						"POSITION":9,
						"NORMAL":10,
						"TEXCOORD_0":11
					},
					"indices":12,
					"material":1
				}
			]
		},
		{
			"name":"EXTERIOR.002_Material_0.002",
			"primitives":[
				{
					"attributes":{
						"POSITION":13,
						"NORMAL":14,
						"TEXCOORD_0":15
					},
					"indices":16,
					"material":1
				}
			]
		},
		{
			"name":"INTERIOR.001_Material.007_0",
			"primitives":[
				{
					"attributes":{
						"POSITION":17,
						"NORMAL":18,
						"TEXCOORD_0":19
					},
					"indices":20,
					"material":2
				}
			]
		},
		{
			"name":"planta join.001_Material.006_0",
			"primitives":[
				{
					"attributes":{
						"POSITION":21,
						"NORMAL":22,
						"TEXCOORD_0":23
					},
					"indices":24,
					"material":3
				}
			]
		},
		{
			"name":"planta join.001_Material.006_0.001",
			"primitives":[
				{
					"attributes":{
						"POSITION":25,
						"NORMAL":26,
						"TEXCOORD_0":27
					},
					"indices":28,
					"material":3
				}
			]
		},
		{
			"name":"Cube.001",
			"primitives":[
				{
					"attributes":{
						"POSITION":29,
						"NORMAL":30,
						"TEXCOORD_0":31
					},
					"indices":32
				}
			]
		},
		{
			"name":"Cylinder",
			"primitives":[
				{
					"attributes":{
						"POSITION":33,
						"NORMAL":34,
						"TEXCOORD_0":35
					},
					"indices":36
				}
			]
		}
	],
	"textures":[
		{
			"sampler":0,
			"source":0
		},
		{
			"sampler":0,
			"source":1
		}
	],
	"images":[
		{
			"bufferView":5,
			"mimeType":"image/png",
			"name":"Image_0bamboo"
		},
		{
			"bufferView":26,
			"mimeType":"image/png",
			"name":"Image_1bamboo"
		}
	],
	"accessors":[
		{
			"bufferView":0,
			"componentType":5126,
			"count":198,
			"max":[
				0.04505627974867821,
				0.03928468003869057,
				0.06723522394895554
			],
			"min":[
				-0.045083187520504,
				-0.03938930109143257,
				-0.0672544315457344
			],
			"type":"VEC3"
		},
		{
			"bufferView":1,
			"componentType":5126,
			"count":198,
			"type":"VEC3"
		},
		{
			"bufferView":2,
			"componentType":5126,
			"count":198,
			"type":"VEC2"
		},
		{
			"bufferView":3,
			"componentType":5126,
			"count":198,
			"type":"VEC2"
		},
		{
			"bufferView":4,
			"componentType":5123,
			"count":354,
			"type":"SCALAR"
		},
		{
			"bufferView":6,
			"componentType":5126,
			"count":5092,
			"max":[
				0.02637520618736744,
				0.026815570890903473,
				0.004215114749968052
			],
			"min":[
				-0.026902802288532257,
				-0.028254980221390724,
				-0.041516657918691635
			],
			"type":"VEC3"
		},
		{
			"bufferView":7,
			"componentType":5126,
			"count":5092,
			"type":"VEC3"
		},
		{
			"bufferView":8,
			"componentType":5126,
			"count":5092,
			"type":"VEC2"
		},
		{
			"bufferView":9,
			"componentType":5123,
			"count":17685,
			"type":"SCALAR"
		},
		{
			"bufferView":10,
			"componentType":5126,
			"count":5072,
			"max":[
				0.02627255767583847,
				0.026697169989347458,
				0.003843976417556405
			],
			"min":[
				-0.027323080226778984,
				-0.028382843360304832,
				-0.04155084490776062
			],
			"type":"VEC3"
		},
		{
			"bufferView":11,
			"componentType":5126,
			"count":5072,
			"type":"VEC3"
		},
		{
			"bufferView":12,
			"componentType":5126,
			"count":5072,
			"type":"VEC2"
		},
		{
			"bufferView":13,
			"componentType":5123,
			"count":17709,
			"type":"SCALAR"
		},
		{
			"bufferView":14,
			"componentType":5126,
			"count":2237,
			"max":[
				0.026522336527705193,
				0.02623322606086731,
				0.0034576873295009136
			],
			"min":[
				-0.027004368603229523,
				-0.027904611080884933,
				-0.04115046560764313
			],
			"type":"VEC3"
		},
		{
			"bufferView":15,
			"componentType":5126,
			"count":2237,
			"type":"VEC3"
		},
		{
			"bufferView":16,
			"componentType":5126,
			"count":2237,
			"type":"VEC2"
		},
		{
			"bufferView":17,
			"componentType":5123,
			"count":7755,
			"type":"SCALAR"
		},
		{
			"bufferView":18,
			"componentType":5126,
			"count":7721,
			"max":[
				0.02360653690993786,
				0.023910677060484886,
				0.008776486851274967
			],
			"min":[
				-0.024397948756814003,
				-0.025418179109692574,
				-0.03876733407378197
			],
			"type":"VEC3"
		},
		{
			"bufferView":19,
			"componentType":5126,
			"count":7721,
			"type":"VEC3"
		},
		{
			"bufferView":20,
			"componentType":5126,
			"count":7721,
			"type":"VEC2"
		},
		{
			"bufferView":21,
			"componentType":5123,
			"count":15201,
			"type":"SCALAR"
		},
		{
			"bufferView":22,
			"componentType":5126,
			"count":6449,
			"max":[
				0.06197617948055267,
				0.07184450328350067,
				0.06317751109600067
			],
			"min":[
				-0.07947316020727158,
				-0.07588806003332138,
				-0.02818197011947632
			],
			"type":"VEC3"
		},
		{
			"bufferView":23,
			"componentType":5126,
			"count":6449,
			"type":"VEC3"
		},
		{
			"bufferView":24,
			"componentType":5126,
			"count":6449,
			"type":"VEC2"
		},
		{
			"bufferView":25,
			"componentType":5123,
			"count":18300,
			"type":"SCALAR"
		},
		{
			"bufferView":27,
			"componentType":5126,
			"count":2471,
			"max":[
				0.057789191603660583,
				0.07184450328350067,
				0.060959506779909134
			],
			"min":[
				-0.07458227872848511,
				-0.056922797113657,
				-0.027739431709051132
			],
			"type":"VEC3"
		},
		{
			"bufferView":28,
			"componentType":5126,
			"count":2471,
			"type":"VEC3"
		},
		{
			"bufferView":29,
			"componentType":5126,
			"count":2471,
			"type":"VEC2"
		},
		{
			"bufferView":30,
			"componentType":5123,
			"count":6021,
			"type":"SCALAR"
		},
		{
			"bufferView":31,
			"componentType":5126,
			"count":24,
			"max":[
				1,
				1,
				1
			],
			"min":[
				-1,
				-1,
				-1
			],
			"type":"VEC3"
		},
		{
			"bufferView":32,
			"componentType":5126,
			"count":24,
			"type":"VEC3"
		},
		{
			"bufferView":33,
			"componentType":5126,
			"count":24,
			"type":"VEC2"
		},
		{
			"bufferView":34,
			"componentType":5123,
			"count":36,
			"type":"SCALAR"
		},
		{
			"bufferView":35,
			"componentType":5126,
			"count":448,
			"max":[
				1,
				1,
				1
			],
			"min":[
				-1,
				-1,
				-1
			],
			"type":"VEC3"
		},
		{
			"bufferView":36,
			"componentType":5126,
			"count":448,
			"type":"VEC3"
		},
		{
			"bufferView":37,
			"componentType":5126,
			"count":448,
			"type":"VEC2"
		},
		{
			"bufferView":38,
			"componentType":5123,
			"count":756,
			"type":"SCALAR"
		}
	],
	"bufferViews":[
		{
			"buffer":0,
			"byteLength":2376,
			"byteOffset":0,
			"target":34962
		},
		{
			"buffer":0,
			"byteLength":2376,
			"byteOffset":2376,
			"target":34962
		},
		{
			"buffer":0,
			"byteLength":1584,
			"byteOffset":4752,
			"target":34962
		},
		{
			"buffer":0,
			"byteLength":1584,
			"byteOffset":6336,
			"target":34962
		},
		{
			"buffer":0,
			"byteLength":708,
			"byteOffset":7920,
			"target":34963
		},
		{
			"buffer":0,
			"byteLength":560397,
			"byteOffset":8628
		},
		{
			"buffer":0,
			"byteLength":61104,
			"byteOffset":569028,
			"target":34962
		},
		{
			"buffer":0,
			"byteLength":61104,
			"byteOffset":630132,
			"target":34962
		},
		{
			"buffer":0,
			"byteLength":40736,
			"byteOffset":691236,
			"target":34962
		},
		{
			"buffer":0,
			"byteLength":35370,
			"byteOffset":731972,
			"target":34963
		},
		{
			"buffer":0,
			"byteLength":60864,
			"byteOffset":767344,
			"target":34962
		},
		{
			"buffer":0,
			"byteLength":60864,
			"byteOffset":828208,
			"target":34962
		},
		{
			"buffer":0,
			"byteLength":40576,
			"byteOffset":889072,
			"target":34962
		},
		{
			"buffer":0,
			"byteLength":35418,
			"byteOffset":929648,
			"target":34963
		},
		{
			"buffer":0,
			"byteLength":26844,
			"byteOffset":965068,
			"target":34962
		},
		{
			"buffer":0,
			"byteLength":26844,
			"byteOffset":991912,
			"target":34962
		},
		{
			"buffer":0,
			"byteLength":17896,
			"byteOffset":1018756,
			"target":34962
		},
		{
			"buffer":0,
			"byteLength":15510,
			"byteOffset":1036652,
			"target":34963
		},
		{
			"buffer":0,
			"byteLength":92652,
			"byteOffset":1052164,
			"target":34962
		},
		{
			"buffer":0,
			"byteLength":92652,
			"byteOffset":1144816,
			"target":34962
		},
		{
			"buffer":0,
			"byteLength":61768,
			"byteOffset":1237468,
			"target":34962
		},
		{
			"buffer":0,
			"byteLength":30402,
			"byteOffset":1299236,
			"target":34963
		},
		{
			"buffer":0,
			"byteLength":77388,
			"byteOffset":1329640,
			"target":34962
		},
		{
			"buffer":0,
			"byteLength":77388,
			"byteOffset":1407028,
			"target":34962
		},
		{
			"buffer":0,
			"byteLength":51592,
			"byteOffset":1484416,
			"target":34962
		},
		{
			"buffer":0,
			"byteLength":36600,
			"byteOffset":1536008,
			"target":34963
		},
		{
			"buffer":0,
			"byteLength":764420,
			"byteOffset":1572608
		},
		{
			"buffer":0,
			"byteLength":29652,
			"byteOffset":2337028,
			"target":34962
		},
		{
			"buffer":0,
			"byteLength":29652,
			"byteOffset":2366680,
			"target":34962
		},
		{
			"buffer":0,
			"byteLength":19768,
			"byteOffset":2396332,
			"target":34962
		},
		{
			"buffer":0,
			"byteLength":12042,
			"byteOffset":2416100,
			"target":34963
		},
		{
			"buffer":0,
			"byteLength":288,
			"byteOffset":2428144,
			"target":34962
		},
		{
			"buffer":0,
			"byteLength":288,
			"byteOffset":2428432,
			"target":34962
		},
		{
			"buffer":0,
			"byteLength":192,
			"byteOffset":2428720,
			"target":34962
		},
		{
			"buffer":0,
			"byteLength":72,
			"byteOffset":2428912,
			"target":34963
		},
		{
			"buffer":0,
			"byteLength":5376,
			"byteOffset":2428984,
			"target":34962
		},
		{
			"buffer":0,
			"byteLength":5376,
			"byteOffset":2434360,
			"target":34962
		},
		{
			"buffer":0,
			"byteLength":3584,
			"byteOffset":2439736,
			"target":34962
		},
		{
			"buffer":0,
			"byteLength":1512,
			"byteOffset":2443320,
			"target":34963
		}
	],
	"samplers":[
		{
			"magFilter":9729,
			"minFilter":9987
		}
	],
	"buffers":[
		{
			"byteLength":2444832,
			"uri":"data:application/octet-stream;base64,"
		}
	]
}
