{
	"asset":{
		"generator":"Khronos glTF Blender I/O v3.6.28",
		"version":"2.0"
	},
	"extensionsUsed":[
		"KHR_materials_specular"
	],
	"scene":0,
	"scenes":[
		{
			"extras":{
				"xol_link_apps":[
					{
						"id":52251,
						"port":"52251",
						"type":"BLD",
						"label":"Blender Foundation - Blender"
					},
					{
						"id":53460,
						"port":"53460",
						"type":"BLD",
						"label":"Blender Foundation - Blender"
					}
				],
				"xol_link_apps_list":0
			},
			"name":"Scene",
			"nodes":[
				10
			]
		}
	],
	"nodes":[
		{
			"mesh":0,
			"name":"Object_2"
		},
		{
			"mesh":1,
			"name":"Object_3"
		},
		{
			"mesh":2,
			"name":"Object_4"
		},
		{
			"mesh":3,
			"name":"Object_5"
		},
		{
			"mesh":4,
			"name":"Object_6"
		},
		{
			"mesh":5,
			"name":"Object_7"
		},
		{
			"mesh":6,
			"name":"Object_8"
		},
		{
			"mesh":7,
			"name":"Object_9"
		},
		{
			"children":[
				0,
				1,
				2,
				3,
				4,
				5,
				6,
				7
			],
			"name":"Begonia_Rex_SF.obj.cleaner.materialmerger.gles"
		},
		{
			"extras":{
				"xrengine.entity":"collider",
				"xrengine.EE_collider.shape":"box"
			},
			"mesh":8,
			"name":"plant_collider",
			"rotation":[
				0.70710688829422,
				0,
				0,
				0.7071066498756409
			],
			"scale":[
				1.327310562133789,
				1.3273104429244995,
				1.3273104429244995
			],
			"translation":[
				0,
				0,
				1.2737329006195068
			]
		},
		{
			"children":[
				8,
				9
			],
			"extras":{
				"xrengine.entity":"rbd_plant",
				"xrengine.EE_rigidbody.type":"fixed"
			},
			"name":"begonia_rex",
			"rotation":[
				-0.70710688829422,
				0,
				0,
				0.7071066498756409
			]
		}
	],
	"materials":[
		{
			"doubleSided":true,
			"extensions":{
				"KHR_materials_specular":{
					"specularColorFactor":[
						0.8549222946166991,
						0.8549222946166991,
						0.8549222946166991
					]
				}
			},
			"name":"Begonia_Rex",
			"normalTexture":{
				"index":0
			},
			"pbrMetallicRoughness":{
				"baseColorTexture":{
					"index":1
				},
				"metallicFactor":0,
				"roughnessFactor":0.5
			}
		}
	],
	"meshes":[
		{
			"name":"Object_0",
			"primitives":[
				{
					"attributes":{
						"POSITION":0,
						"NORMAL":1,
						"TEXCOORD_0":2
					},
					"indices":3,
					"material":0
				}
			]
		},
		{
			"name":"Object_1",
			"primitives":[
				{
					"attributes":{
						"POSITION":4,
						"NORMAL":5,
						"TEXCOORD_0":6
					},
					"indices":7,
					"material":0
				}
			]
		},
		{
			"name":"Object_2",
			"primitives":[
				{
					"attributes":{
						"POSITION":8,
						"NORMAL":9,
						"TEXCOORD_0":10
					},
					"indices":11,
					"material":0
				}
			]
		},
		{
			"name":"Object_3",
			"primitives":[
				{
					"attributes":{
						"POSITION":12,
						"NORMAL":13,
						"TEXCOORD_0":14
					},
					"indices":15,
					"material":0
				}
			]
		},
		{
			"name":"Object_4",
			"primitives":[
				{
					"attributes":{
						"POSITION":16,
						"NORMAL":17,
						"TEXCOORD_0":18
					},
					"indices":19,
					"material":0
				}
			]
		},
		{
			"name":"Object_5",
			"primitives":[
				{
					"attributes":{
						"POSITION":20,
						"NORMAL":21,
						"TEXCOORD_0":22
					},
					"indices":23,
					"material":0
				}
			]
		},
		{
			"name":"Object_6",
			"primitives":[
				{
					"attributes":{
						"POSITION":24,
						"NORMAL":25,
						"TEXCOORD_0":26
					},
					"indices":27,
					"material":0
				}
			]
		},
		{
			"name":"Object_7",
			"primitives":[
				{
					"attributes":{
						"POSITION":28,
						"NORMAL":29,
						"TEXCOORD_0":30
					},
					"indices":31,
					"material":0
				}
			]
		},
		{
			"name":"Cube",
			"primitives":[
				{
					"attributes":{
						"POSITION":32,
						"NORMAL":33,
						"TEXCOORD_0":34
					},
					"indices":35
				}
			]
		}
	],
	"textures":[
		{
			"sampler":0,
			"source":0
		},
		{
			"sampler":0,
			"source":1
		}
	],
	"images":[
		{
			"mimeType":"image/png",
			"name":"Image_2_begonia",
			"uri":"Image_2_begonia.png"
		},
		{
			"mimeType":"image/jpeg",
			"name":"Image_0begonia_begonia",
			"uri":"Image_0begonia_begonia.jpg"
		}
	],
	"accessors":[
		{
			"bufferView":0,
			"componentType":5126,
			"count":66060,
			"max":[
				2.0594310760498047,
				1.9498770236968994,
				2.651577949523926
			],
			"min":[
				-1.4328409433364868,
				-1.7188999652862549,
				1.1151009798049927
			],
			"type":"VEC3"
		},
		{
			"bufferView":1,
			"componentType":5126,
			"count":66060,
			"type":"VEC3"
		},
		{
			"bufferView":2,
			"componentType":5126,
			"count":66060,
			"type":"VEC2"
		},
		{
			"bufferView":3,
			"componentType":5125,
			"count":339705,
			"type":"SCALAR"
		},
		{
			"bufferView":4,
			"componentType":5126,
			"count":70914,
			"max":[
				1.3936649560928345,
				1.7617030143737793,
				2.639575958251953
			],
			"min":[
				-2.0408899784088135,
				-1.610084056854248,
				0.015754999592900276
			],
			"type":"VEC3"
		},
		{
			"bufferView":5,
			"componentType":5126,
			"count":70914,
			"type":"VEC3"
		},
		{
			"bufferView":6,
			"componentType":5126,
			"count":70914,
			"type":"VEC2"
		},
		{
			"bufferView":7,
			"componentType":5125,
			"count":343746,
			"type":"SCALAR"
		},
		{
			"bufferView":8,
			"componentType":5126,
			"count":65599,
			"max":[
				1.2529009580612183,
				1.7552030086517334,
				2.4907360076904297
			],
			"min":[
				-1.924934983253479,
				-1.3981629610061646,
				0.016909999772906303
			],
			"type":"VEC3"
		},
		{
			"bufferView":9,
			"componentType":5126,
			"count":65599,
			"type":"VEC3"
		},
		{
			"bufferView":10,
			"componentType":5126,
			"count":65599,
			"type":"VEC2"
		},
		{
			"bufferView":11,
			"componentType":5125,
			"count":320034,
			"type":"SCALAR"
		},
		{
			"bufferView":12,
			"componentType":5126,
			"count":65666,
			"max":[
				0.9232230186462402,
				1.6176270246505737,
				2.587315082550049
			],
			"min":[
				-1.65876305103302,
				-1.2809070348739624,
				0.020093999803066254
			],
			"type":"VEC3"
		},
		{
			"bufferView":13,
			"componentType":5126,
			"count":65666,
			"type":"VEC3"
		},
		{
			"bufferView":14,
			"componentType":5126,
			"count":65666,
			"type":"VEC2"
		},
		{
			"bufferView":15,
			"componentType":5125,
			"count":323634,
			"type":"SCALAR"
		},
		{
			"bufferView":16,
			"componentType":5126,
			"count":65589,
			"max":[
				0.6656240224838257,
				1.1326689720153809,
				2.6564559936523438
			],
			"min":[
				-1.5801550149917603,
				-1.0303269624710083,
				0.118927001953125
			],
			"type":"VEC3"
		},
		{
			"bufferView":17,
			"componentType":5126,
			"count":65589,
			"type":"VEC3"
		},
		{
			"bufferView":18,
			"componentType":5126,
			"count":65589,
			"type":"VEC2"
		},
		{
			"bufferView":19,
			"componentType":5125,
			"count":335994,
			"type":"SCALAR"
		},
		{
			"bufferView":20,
			"componentType":5126,
			"count":65581,
			"max":[
				0.35541999340057373,
				0.983210027217865,
				2.6392359733581543
			],
			"min":[
				-1.5510499477386475,
				-0.6929259896278381,
				0.40142399072647095
			],
			"type":"VEC3"
		},
		{
			"bufferView":21,
			"componentType":5126,
			"count":65581,
			"type":"VEC3"
		},
		{
			"bufferView":22,
			"componentType":5126,
			"count":65581,
			"type":"VEC2"
		},
		{
			"bufferView":23,
			"componentType":5125,
			"count":323178,
			"type":"SCALAR"
		},
		{
			"bufferView":24,
			"componentType":5126,
			"count":65587,
			"max":[
				0.7509099841117859,
				1.241029977798462,
				2.654171943664551
			],
			"min":[
				-1.5805720090866089,
				-1.0677520036697388,
				0.238427996635437
			],
			"type":"VEC3"
		},
		{
			"bufferView":25,
			"componentType":5126,
			"count":65587,
			"type":"VEC3"
		},
		{
			"bufferView":26,
			"componentType":5126,
			"count":65587,
			"type":"VEC2"
		},
		{
			"bufferView":27,
			"componentType":5125,
			"count":316113,
			"type":"SCALAR"
		},
		{
			"bufferView":28,
			"componentType":5126,
			"count":46599,
			"max":[
				0.8314440250396729,
				1.4845420122146606,
				2.6531529426574707
			],
			"min":[
				-1.5805720090866089,
				-1.1498130559921265,
				0.02301199920475483
			],
			"type":"VEC3"
		},
		{
			"bufferView":29,
			"componentType":5126,
			"count":46599,
			"type":"VEC3"
		},
		{
			"bufferView":30,
			"componentType":5126,
			"count":46599,
			"type":"VEC2"
		},
		{
			"bufferView":31,
			"componentType":5123,
			"count":185358,
			"type":"SCALAR"
		},
		{
			"bufferView":32,
			"componentType":5126,
			"count":24,
			"max":[
				1,
				1,
				1
			],
			"min":[
				-1,
				-1,
				-1
			],
			"type":"VEC3"
		},
		{
			"bufferView":33,
			"componentType":5126,
			"count":24,
			"type":"VEC3"
		},
		{
			"bufferView":34,
			"componentType":5126,
			"count":24,
			"type":"VEC2"
		},
		{
			"bufferView":35,
			"componentType":5123,
			"count":36,
			"type":"SCALAR"
		}
	],
	"bufferViews":[
		{
			"buffer":0,
			"byteLength":792720,
			"byteOffset":0,
			"target":34962
		},
		{
			"buffer":0,
			"byteLength":792720,
			"byteOffset":792720,
			"target":34962
		},
		{
			"buffer":0,
			"byteLength":528480,
			"byteOffset":1585440,
			"target":34962
		},
		{
			"buffer":0,
			"byteLength":1358820,
			"byteOffset":2113920,
			"target":34963
		},
		{
			"buffer":0,
			"byteLength":850968,
			"byteOffset":3472740,
			"target":34962
		},
		{
			"buffer":0,
			"byteLength":850968,
			"byteOffset":4323708,
			"target":34962
		},
		{
			"buffer":0,
			"byteLength":567312,
			"byteOffset":5174676,
			"target":34962
		},
		{
			"buffer":0,
			"byteLength":1374984,
			"byteOffset":5741988,
			"target":34963
		},
		{
			"buffer":0,
			"byteLength":787188,
			"byteOffset":7116972,
			"target":34962
		},
		{
			"buffer":0,
			"byteLength":787188,
			"byteOffset":7904160,
			"target":34962
		},
		{
			"buffer":0,
			"byteLength":524792,
			"byteOffset":8691348,
			"target":34962
		},
		{
			"buffer":0,
			"byteLength":1280136,
			"byteOffset":9216140,
			"target":34963
		},
		{
			"buffer":0,
			"byteLength":787992,
			"byteOffset":10496276,
			"target":34962
		},
		{
			"buffer":0,
			"byteLength":787992,
			"byteOffset":11284268,
			"target":34962
		},
		{
			"buffer":0,
			"byteLength":525328,
			"byteOffset":12072260,
			"target":34962
		},
		{
			"buffer":0,
			"byteLength":1294536,
			"byteOffset":12597588,
			"target":34963
		},
		{
			"buffer":0,
			"byteLength":787068,
			"byteOffset":13892124,
			"target":34962
		},
		{
			"buffer":0,
			"byteLength":787068,
			"byteOffset":14679192,
			"target":34962
		},
		{
			"buffer":0,
			"byteLength":524712,
			"byteOffset":15466260,
			"target":34962
		},
		{
			"buffer":0,
			"byteLength":1343976,
			"byteOffset":15990972,
			"target":34963
		},
		{
			"buffer":0,
			"byteLength":786972,
			"byteOffset":17334948,
			"target":34962
		},
		{
			"buffer":0,
			"byteLength":786972,
			"byteOffset":18121920,
			"target":34962
		},
		{
			"buffer":0,
			"byteLength":524648,
			"byteOffset":18908892,
			"target":34962
		},
		{
			"buffer":0,
			"byteLength":1292712,
			"byteOffset":19433540,
			"target":34963
		},
		{
			"buffer":0,
			"byteLength":787044,
			"byteOffset":20726252,
			"target":34962
		},
		{
			"buffer":0,
			"byteLength":787044,
			"byteOffset":21513296,
			"target":34962
		},
		{
			"buffer":0,
			"byteLength":524696,
			"byteOffset":22300340,
			"target":34962
		},
		{
			"buffer":0,
			"byteLength":1264452,
			"byteOffset":22825036,
			"target":34963
		},
		{
			"buffer":0,
			"byteLength":559188,
			"byteOffset":24089488,
			"target":34962
		},
		{
			"buffer":0,
			"byteLength":559188,
			"byteOffset":24648676,
			"target":34962
		},
		{
			"buffer":0,
			"byteLength":372792,
			"byteOffset":25207864,
			"target":34962
		},
		{
			"buffer":0,
			"byteLength":370716,
			"byteOffset":25580656,
			"target":34963
		},
		{
			"buffer":0,
			"byteLength":288,
			"byteOffset":25951372,
			"target":34962
		},
		{
			"buffer":0,
			"byteLength":288,
			"byteOffset":25951660,
			"target":34962
		},
		{
			"buffer":0,
			"byteLength":192,
			"byteOffset":25951948,
			"target":34962
		},
		{
			"buffer":0,
			"byteLength":72,
			"byteOffset":25952140,
			"target":34963
		}
	],
	"samplers":[
		{
			"magFilter":9729,
			"minFilter":9987
		}
	],
	"buffers":[
		{
			"byteLength":25952212,
			"uri":"begonia_rex.bin"
		}
	]
}
