{
	"asset":{
		"generator":"Khronos glTF Blender I/O v3.6.28",
		"version":"2.0"
	},
	"scene":0,
	"scenes":[
		{
			"extras":{
				"xol_link_apps":[
					{
						"id":52251,
						"port":"52251",
						"type":"BLD",
						"label":"Blender Foundation - Blender"
					},
					{
						"id":53466,
						"port":"53466",
						"type":"BLD",
						"label":"Blender Foundation - Blender"
					}
				],
				"xol_link_apps_list":0
			},
			"name":"Scene",
			"nodes":[
				9
			]
		}
	],
	"nodes":[
		{
			"extras":{
				"xrengine.entity":"collider_plant",
				"xrengine.EE_collider.shape":"box"
			},
			"mesh":0,
			"name":"collider",
			"rotation":[
				0.70710688829422,
				0,
				0,
				0.7071066498756409
			],
			"scale":[
				0.2149144560098648,
				0.343527227640152,
				0.21491441130638123
			],
			"translation":[
				0,
				0,
				0.2524492144584656
			]
		},
		{
			"extras":{
				"xrengine.entity":"collider_plant",
				"xrengine.EE_collider.shape":"box"
			},
			"mesh":1,
			"name":"collider.001",
			"rotation":[
				0.70710688829422,
				0,
				0,
				0.7071066498756409
			],
			"scale":[
				0.3596801161766052,
				0.495249480009079,
				0.30983349680900574
			],
			"translation":[
				-0.04722767695784569,
				0,
				1.1081185340881348
			]
		},
		{
			"mesh":2,
			"name":"concrete_pot_lambert3_0"
		},
		{
			"children":[
				2
			],
			"name":"concrete_pot"
		},
		{
			"mesh":3,
			"name":"plant_lambert2_0"
		},
		{
			"children":[
				4
			],
			"name":"plant"
		},
		{
			"children":[
				3,
				5
			],
			"name":"group1",
			"scale":[
				0.009999999776482582,
				0.009999999776482582,
				0.009999999776482582
			]
		},
		{
			"children":[
				6
			],
			"name":"RootNode"
		},
		{
			"children":[
				7
			],
			"name":"ecbad94c5a7e48f582eb5188a2bdcc64.fbx",
			"rotation":[
				0.70710688829422,
				0,
				0,
				0.7071066498756409
			]
		},
		{
			"children":[
				0,
				1,
				8
			],
			"extras":{
				"xrengine.entity":"rbd_plant",
				"xrengine.EE_rigidbody.type":"fixed"
			},
			"name":"rhyzome_plant",
			"rotation":[
				-0.70710688829422,
				0,
				0,
				0.7071066498756409
			],
			"scale":[
				2.3640153408050537,
				2.364015579223633,
				2.364015579223633
			]
		}
	],
	"materials":[
		{
			"doubleSided":true,
			"name":"phong1",
			"normalTexture":{
				"index":0
			},
			"pbrMetallicRoughness":{
				"baseColorFactor":[
					0.8193024396896362,
					0.8193024396896362,
					0.8193024396896362,
					1
				],
				"metallicRoughnessTexture":{
					"index":1
				}
			}
		},
		{
			"doubleSided":true,
			"name":"lambert3",
			"pbrMetallicRoughness":{
				"baseColorTexture":{
					"index":2
				},
				"metallicFactor":0,
				"roughnessFactor":0.5287635326385498
			}
		},
		{
			"doubleSided":true,
			"name":"lambert2",
			"pbrMetallicRoughness":{
				"baseColorTexture":{
					"index":3
				},
				"metallicFactor":0,
				"roughnessFactor":0.3946678638458252
			}
		}
	],
	"meshes":[
		{
			"name":"Cube.001",
			"primitives":[
				{
					"attributes":{
						"POSITION":0,
						"NORMAL":1,
						"TEXCOORD_0":2
					},
					"indices":3,
					"material":0
				}
			]
		},
		{
			"name":"Cube.002",
			"primitives":[
				{
					"attributes":{
						"POSITION":4,
						"NORMAL":5,
						"TEXCOORD_0":6
					},
					"indices":3,
					"material":0
				}
			]
		},
		{
			"name":"concrete_pot_lambert3_0",
			"primitives":[
				{
					"attributes":{
						"POSITION":7,
						"NORMAL":8,
						"TEXCOORD_0":9,
						"TEXCOORD_1":10
					},
					"indices":11,
					"material":1
				}
			]
		},
		{
			"name":"plant_lambert2_0",
			"primitives":[
				{
					"attributes":{
						"POSITION":12,
						"NORMAL":13,
						"TEXCOORD_0":14
					},
					"indices":15,
					"material":2
				}
			]
		}
	],
	"textures":[
		{
			"sampler":0,
			"source":0
		},
		{
			"sampler":0,
			"source":1
		},
		{
			"sampler":0,
			"source":2
		},
		{
			"sampler":0,
			"source":3
		}
	],
	"images":[
		{
			"mimeType":"image/png",
			"name":"Image_4",
			"uri":"Image_4.png"
		},
		{
			"mimeType":"image/png",
			"name":"Image_3",
			"uri":"Image_3.png"
		},
		{
			"mimeType":"image/jpeg",
			"name":"Image_0_rhyzome",
			"uri":"Image_0_rhyzome.jpg"
		},
		{
			"mimeType":"image/jpeg",
			"name":"Image_1_rhyzome",
			"uri":"Image_1_rhyzome.jpg"
		}
	],
	"accessors":[
		{
			"bufferView":0,
			"componentType":5126,
			"count":24,
			"max":[
				1,
				1,
				1
			],
			"min":[
				-1,
				-1,
				-1
			],
			"type":"VEC3"
		},
		{
			"bufferView":1,
			"componentType":5126,
			"count":24,
			"type":"VEC3"
		},
		{
			"bufferView":2,
			"componentType":5126,
			"count":24,
			"type":"VEC2"
		},
		{
			"bufferView":3,
			"componentType":5123,
			"count":36,
			"type":"SCALAR"
		},
		{
			"bufferView":4,
			"componentType":5126,
			"count":24,
			"max":[
				1,
				1,
				1
			],
			"min":[
				-1,
				-1,
				-1
			],
			"type":"VEC3"
		},
		{
			"bufferView":5,
			"componentType":5126,
			"count":24,
			"type":"VEC3"
		},
		{
			"bufferView":6,
			"componentType":5126,
			"count":24,
			"type":"VEC2"
		},
		{
			"bufferView":7,
			"componentType":5126,
			"count":333,
			"max":[
				20,
				50,
				20.000001907348633
			],
			"min":[
				-20.000003814697266,
				0,
				-20.000009536743164
			],
			"type":"VEC3"
		},
		{
			"bufferView":8,
			"componentType":5126,
			"count":333,
			"type":"VEC3"
		},
		{
			"bufferView":9,
			"componentType":5126,
			"count":333,
			"type":"VEC2"
		},
		{
			"bufferView":10,
			"componentType":5126,
			"count":333,
			"type":"VEC2"
		},
		{
			"bufferView":11,
			"componentType":5123,
			"count":1680,
			"type":"SCALAR"
		},
		{
			"bufferView":12,
			"componentType":5126,
			"count":8358,
			"max":[
				45.191810607910156,
				181.39337158203125,
				57.12501525878906
			],
			"min":[
				-52.37874984741211,
				45.72132873535156,
				-42.71507263183594
			],
			"type":"VEC3"
		},
		{
			"bufferView":13,
			"componentType":5126,
			"count":8358,
			"type":"VEC3"
		},
		{
			"bufferView":14,
			"componentType":5126,
			"count":8358,
			"type":"VEC2"
		},
		{
			"bufferView":15,
			"componentType":5123,
			"count":45024,
			"type":"SCALAR"
		}
	],
	"bufferViews":[
		{
			"buffer":0,
			"byteLength":288,
			"byteOffset":0,
			"target":34962
		},
		{
			"buffer":0,
			"byteLength":288,
			"byteOffset":288,
			"target":34962
		},
		{
			"buffer":0,
			"byteLength":192,
			"byteOffset":576,
			"target":34962
		},
		{
			"buffer":0,
			"byteLength":72,
			"byteOffset":768,
			"target":34963
		},
		{
			"buffer":0,
			"byteLength":288,
			"byteOffset":840,
			"target":34962
		},
		{
			"buffer":0,
			"byteLength":288,
			"byteOffset":1128,
			"target":34962
		},
		{
			"buffer":0,
			"byteLength":192,
			"byteOffset":1416,
			"target":34962
		},
		{
			"buffer":0,
			"byteLength":3996,
			"byteOffset":1608,
			"target":34962
		},
		{
			"buffer":0,
			"byteLength":3996,
			"byteOffset":5604,
			"target":34962
		},
		{
			"buffer":0,
			"byteLength":2664,
			"byteOffset":9600,
			"target":34962
		},
		{
			"buffer":0,
			"byteLength":2664,
			"byteOffset":12264,
			"target":34962
		},
		{
			"buffer":0,
			"byteLength":3360,
			"byteOffset":14928,
			"target":34963
		},
		{
			"buffer":0,
			"byteLength":100296,
			"byteOffset":18288,
			"target":34962
		},
		{
			"buffer":0,
			"byteLength":100296,
			"byteOffset":118584,
			"target":34962
		},
		{
			"buffer":0,
			"byteLength":66864,
			"byteOffset":218880,
			"target":34962
		},
		{
			"buffer":0,
			"byteLength":90048,
			"byteOffset":285744,
			"target":34963
		}
	],
	"samplers":[
		{
			"magFilter":9729,
			"minFilter":9987
		}
	],
	"buffers":[
		{
			"byteLength":375792,
			"uri":"rhyzomePlant_colliders.bin"
		}
	]
}
