{
	"asset":{
		"generator":"Khronos glTF Blender I/O v3.6.28",
		"version":"2.0"
	},
	"scene":0,
	"scenes":[
		{
			"extras":{
				"xol_link_apps":[
					{
						"id":52251,
						"port":"52251",
						"type":"BLD",
						"label":"Blender Foundation - Blender"
					},
					{
						"id":53466,
						"port":"53466",
						"type":"BLD",
						"label":"Blender Foundation - Blender"
					}
				],
				"xol_link_apps_list":0
			},
			"name":"Scene",
			"nodes":[
				10
			]
		}
	],
	"nodes":[
		{
			"mesh":0,
			"name":"Cylinder.005_dirt.001_0"
		},
		{
			"mesh":1,
			"name":"Cylinder.005_leaves_0"
		},
		{
			"mesh":2,
			"name":"Cylinder.005_leaves_0.001"
		},
		{
			"mesh":3,
			"name":"Cylinder.005_leaves_0.002"
		},
		{
			"mesh":4,
			"name":"Cylinder.005_plant_0"
		},
		{
			"mesh":5,
			"name":"Cylinder.005_pot_0"
		},
		{
			"children":[
				0,
				1,
				2,
				3,
				4,
				5
			],
			"name":"Cylinder.005",
			"rotation":[
				-0.70710688829422,
				0,
				0,
				0.7071066498756409
			],
			"scale":[
				100,
				100,
				100
			]
		},
		{
			"children":[
				6
			],
			"name":"RootNode"
		},
		{
			"children":[
				7
			],
			"name":"9c342151a6aa4d3a9e58fde4bedb787f.fbx",
			"rotation":[
				0.70710688829422,
				0,
				0,
				0.7071066498756409
			],
			"scale":[
				0.009999998845160007,
				0.010000001639127731,
				0.010000001639127731
			]
		},
		{
			"extras":{
				"xrengine.entity":"nature_collider",
				"xrengine.EE_collider.shape":"box"
			},
			"mesh":6,
			"name":"plant_collider01",
			"rotation":[
				0.7071069478988647,
				0,
				0,
				0.7071066498756409
			],
			"scale":[
				0.9894626140594482,
				3.827880859375,
				0.9894626140594482
			],
			"translation":[
				0.024808300659060478,
				-0.1525113731622696,
				3.850827217102051
			]
		},
		{
			"children":[
				8,
				9
			],
			"extras":{
				"xrengine.entity":"rbd_plan",
				"xrengine.EE_rigidbody.type":"fixed"
			},
			"name":"Sketchfab_model",
			"rotation":[
				-0.70710688829422,
				0,
				0,
				0.7071066498756409
			],
			"scale":[
				0.33216431736946106,
				0.33216434717178345,
				0.33216434717178345
			]
		}
	],
	"materials":[
		{
			"doubleSided":true,
			"name":"dirt.002",
			"pbrMetallicRoughness":{
				"baseColorTexture":{
					"index":0
				},
				"metallicFactor":0,
				"roughnessFactor":0.8211145401000977
			}
		},
		{
			"doubleSided":true,
			"name":"leaves.001",
			"pbrMetallicRoughness":{
				"baseColorTexture":{
					"index":1
				},
				"metallicFactor":0,
				"roughnessFactor":0.8211145401000977
			}
		},
		{
			"doubleSided":true,
			"name":"plant.001",
			"pbrMetallicRoughness":{
				"baseColorTexture":{
					"index":2
				},
				"metallicFactor":0,
				"roughnessFactor":0.8211145401000977
			}
		},
		{
			"doubleSided":true,
			"name":"material.001",
			"pbrMetallicRoughness":{
				"baseColorTexture":{
					"index":3
				},
				"metallicFactor":0,
				"roughnessFactor":0.8211145401000977
			}
		}
	],
	"meshes":[
		{
			"name":"Cylinder.005_dirt.001_0.001",
			"primitives":[
				{
					"attributes":{
						"COLOR_0":0,
						"POSITION":1,
						"NORMAL":2,
						"TEXCOORD_0":3
					},
					"indices":4,
					"material":0
				}
			]
		},
		{
			"name":"Cylinder.005_leaves_0.003",
			"primitives":[
				{
					"attributes":{
						"COLOR_0":5,
						"POSITION":6,
						"NORMAL":7,
						"TEXCOORD_0":8
					},
					"indices":9,
					"material":1
				}
			]
		},
		{
			"name":"Cylinder.005_leaves_0.004",
			"primitives":[
				{
					"attributes":{
						"COLOR_0":10,
						"POSITION":11,
						"NORMAL":12,
						"TEXCOORD_0":13
					},
					"indices":14,
					"material":1
				}
			]
		},
		{
			"name":"Cylinder.005_leaves_0.005",
			"primitives":[
				{
					"attributes":{
						"COLOR_0":15,
						"POSITION":16,
						"NORMAL":17,
						"TEXCOORD_0":18
					},
					"indices":19,
					"material":1
				}
			]
		},
		{
			"name":"Cylinder.005_plant_0.001",
			"primitives":[
				{
					"attributes":{
						"COLOR_0":20,
						"POSITION":21,
						"NORMAL":22,
						"TEXCOORD_0":23
					},
					"indices":24,
					"material":2
				}
			]
		},
		{
			"name":"Cylinder.005_pot_0.001",
			"primitives":[
				{
					"attributes":{
						"COLOR_0":25,
						"POSITION":26,
						"NORMAL":27,
						"TEXCOORD_0":28
					},
					"indices":29,
					"material":3
				}
			]
		},
		{
			"name":"Cube.001",
			"primitives":[
				{
					"attributes":{
						"POSITION":30,
						"NORMAL":31,
						"TEXCOORD_0":32
					},
					"indices":33
				}
			]
		}
	],
	"textures":[
		{
			"sampler":0,
			"source":0
		},
		{
			"sampler":0,
			"source":1
		},
		{
			"sampler":0,
			"source":2
		},
		{
			"sampler":0,
			"source":3
		}
	],
	"images":[
		{
			"mimeType":"image/jpeg",
			"name":"Image_3",
			"uri":"Image_3.jpg"
		},
		{
			"mimeType":"image/jpeg",
			"name":"Image_2",
			"uri":"Image_2.jpg"
		},
		{
			"mimeType":"image/jpeg",
			"name":"Image_1",
			"uri":"Image_1.jpg"
		},
		{
			"mimeType":"image/jpeg",
			"name":"Image_0",
			"uri":"Image_0.jpg"
		}
	],
	"accessors":[
		{
			"bufferView":0,
			"componentType":5123,
			"count":772,
			"normalized":true,
			"type":"VEC4"
		},
		{
			"bufferView":1,
			"componentType":5126,
			"count":772,
			"max":[
				0.9023220539093018,
				0.9023220539093018,
				1.0121341943740845
			],
			"min":[
				-0.9023220539093018,
				-0.9023220539093018,
				0.6765906810760498
			],
			"type":"VEC3"
		},
		{
			"bufferView":2,
			"componentType":5126,
			"count":772,
			"type":"VEC3"
		},
		{
			"bufferView":3,
			"componentType":5126,
			"count":772,
			"type":"VEC2"
		},
		{
			"bufferView":4,
			"componentType":5123,
			"count":2946,
			"type":"SCALAR"
		},
		{
			"bufferView":5,
			"componentType":5123,
			"count":72630,
			"normalized":true,
			"type":"VEC4"
		},
		{
			"bufferView":6,
			"componentType":5126,
			"count":72630,
			"max":[
				1.13297438621521,
				1.288324236869812,
				9.176024436950684
			],
			"min":[
				-1.158624529838562,
				-1.4250670671463013,
				0.7454503774642944
			],
			"type":"VEC3"
		},
		{
			"bufferView":7,
			"componentType":5126,
			"count":72630,
			"type":"VEC3"
		},
		{
			"bufferView":8,
			"componentType":5126,
			"count":72630,
			"type":"VEC2"
		},
		{
			"bufferView":9,
			"componentType":5125,
			"count":143298,
			"type":"SCALAR"
		},
		{
			"bufferView":10,
			"componentType":5123,
			"count":71942,
			"normalized":true,
			"type":"VEC4"
		},
		{
			"bufferView":11,
			"componentType":5126,
			"count":71942,
			"max":[
				1.0184621810913086,
				1.0778465270996094,
				9.965510368347168
			],
			"min":[
				-1.1512037515640259,
				-1.3850102424621582,
				0.7454503774642944
			],
			"type":"VEC3"
		},
		{
			"bufferView":12,
			"componentType":5126,
			"count":71942,
			"type":"VEC3"
		},
		{
			"bufferView":13,
			"componentType":5126,
			"count":71942,
			"type":"VEC2"
		},
		{
			"bufferView":14,
			"componentType":5125,
			"count":83334,
			"type":"SCALAR"
		},
		{
			"bufferView":15,
			"componentType":5123,
			"count":43382,
			"normalized":true,
			"type":"VEC4"
		},
		{
			"bufferView":16,
			"componentType":5126,
			"count":43382,
			"max":[
				0.9048217535018921,
				1.0778465270996094,
				9.965510368347168
			],
			"min":[
				-1.1453019380569458,
				-1.3850102424621582,
				0.7793983817100525
			],
			"type":"VEC3"
		},
		{
			"bufferView":17,
			"componentType":5126,
			"count":43382,
			"type":"VEC3"
		},
		{
			"bufferView":18,
			"componentType":5126,
			"count":43382,
			"type":"VEC2"
		},
		{
			"bufferView":19,
			"componentType":5123,
			"count":55368,
			"type":"SCALAR"
		},
		{
			"bufferView":20,
			"componentType":5123,
			"count":12334,
			"normalized":true,
			"type":"VEC4"
		},
		{
			"bufferView":21,
			"componentType":5126,
			"count":12334,
			"max":[
				0.9503301978111267,
				1.060898780822754,
				9.845768928527832
			],
			"min":[
				-1.158278465270996,
				-1.3605483770370483,
				0.7123349905014038
			],
			"type":"VEC3"
		},
		{
			"bufferView":22,
			"componentType":5126,
			"count":12334,
			"type":"VEC3"
		},
		{
			"bufferView":23,
			"componentType":5126,
			"count":12334,
			"type":"VEC2"
		},
		{
			"bufferView":24,
			"componentType":5123,
			"count":13905,
			"type":"SCALAR"
		},
		{
			"bufferView":25,
			"componentType":5123,
			"count":4250,
			"normalized":true,
			"type":"VEC4"
		},
		{
			"bufferView":26,
			"componentType":5126,
			"count":4250,
			"max":[
				1.134667158126831,
				1.134667158126831,
				1.221590518951416
			],
			"min":[
				-1.1346672773361206,
				-1.134667158126831,
				0
			],
			"type":"VEC3"
		},
		{
			"bufferView":27,
			"componentType":5126,
			"count":4250,
			"type":"VEC3"
		},
		{
			"bufferView":28,
			"componentType":5126,
			"count":4250,
			"type":"VEC2"
		},
		{
			"bufferView":29,
			"componentType":5123,
			"count":22656,
			"type":"SCALAR"
		},
		{
			"bufferView":30,
			"componentType":5126,
			"count":24,
			"max":[
				1,
				1,
				1
			],
			"min":[
				-1,
				-1,
				-1
			],
			"type":"VEC3"
		},
		{
			"bufferView":31,
			"componentType":5126,
			"count":24,
			"type":"VEC3"
		},
		{
			"bufferView":32,
			"componentType":5126,
			"count":24,
			"type":"VEC2"
		},
		{
			"bufferView":33,
			"componentType":5123,
			"count":36,
			"type":"SCALAR"
		}
	],
	"bufferViews":[
		{
			"buffer":0,
			"byteLength":6176,
			"byteOffset":0,
			"target":34962
		},
		{
			"buffer":0,
			"byteLength":9264,
			"byteOffset":6176,
			"target":34962
		},
		{
			"buffer":0,
			"byteLength":9264,
			"byteOffset":15440,
			"target":34962
		},
		{
			"buffer":0,
			"byteLength":6176,
			"byteOffset":24704,
			"target":34962
		},
		{
			"buffer":0,
			"byteLength":5892,
			"byteOffset":30880,
			"target":34963
		},
		{
			"buffer":0,
			"byteLength":581040,
			"byteOffset":36772,
			"target":34962
		},
		{
			"buffer":0,
			"byteLength":871560,
			"byteOffset":617812,
			"target":34962
		},
		{
			"buffer":0,
			"byteLength":871560,
			"byteOffset":1489372,
			"target":34962
		},
		{
			"buffer":0,
			"byteLength":581040,
			"byteOffset":2360932,
			"target":34962
		},
		{
			"buffer":0,
			"byteLength":573192,
			"byteOffset":2941972,
			"target":34963
		},
		{
			"buffer":0,
			"byteLength":575536,
			"byteOffset":3515164,
			"target":34962
		},
		{
			"buffer":0,
			"byteLength":863304,
			"byteOffset":4090700,
			"target":34962
		},
		{
			"buffer":0,
			"byteLength":863304,
			"byteOffset":4954004,
			"target":34962
		},
		{
			"buffer":0,
			"byteLength":575536,
			"byteOffset":5817308,
			"target":34962
		},
		{
			"buffer":0,
			"byteLength":333336,
			"byteOffset":6392844,
			"target":34963
		},
		{
			"buffer":0,
			"byteLength":347056,
			"byteOffset":6726180,
			"target":34962
		},
		{
			"buffer":0,
			"byteLength":520584,
			"byteOffset":7073236,
			"target":34962
		},
		{
			"buffer":0,
			"byteLength":520584,
			"byteOffset":7593820,
			"target":34962
		},
		{
			"buffer":0,
			"byteLength":347056,
			"byteOffset":8114404,
			"target":34962
		},
		{
			"buffer":0,
			"byteLength":110736,
			"byteOffset":8461460,
			"target":34963
		},
		{
			"buffer":0,
			"byteLength":98672,
			"byteOffset":8572196,
			"target":34962
		},
		{
			"buffer":0,
			"byteLength":148008,
			"byteOffset":8670868,
			"target":34962
		},
		{
			"buffer":0,
			"byteLength":148008,
			"byteOffset":8818876,
			"target":34962
		},
		{
			"buffer":0,
			"byteLength":98672,
			"byteOffset":8966884,
			"target":34962
		},
		{
			"buffer":0,
			"byteLength":27810,
			"byteOffset":9065556,
			"target":34963
		},
		{
			"buffer":0,
			"byteLength":34000,
			"byteOffset":9093368,
			"target":34962
		},
		{
			"buffer":0,
			"byteLength":51000,
			"byteOffset":9127368,
			"target":34962
		},
		{
			"buffer":0,
			"byteLength":51000,
			"byteOffset":9178368,
			"target":34962
		},
		{
			"buffer":0,
			"byteLength":34000,
			"byteOffset":9229368,
			"target":34962
		},
		{
			"buffer":0,
			"byteLength":45312,
			"byteOffset":9263368,
			"target":34963
		},
		{
			"buffer":0,
			"byteLength":288,
			"byteOffset":9308680,
			"target":34962
		},
		{
			"buffer":0,
			"byteLength":288,
			"byteOffset":9308968,
			"target":34962
		},
		{
			"buffer":0,
			"byteLength":192,
			"byteOffset":9309256,
			"target":34962
		},
		{
			"buffer":0,
			"byteLength":72,
			"byteOffset":9309448,
			"target":34963
		}
	],
	"samplers":[
		{
			"magFilter":9729,
			"minFilter":9987
		}
	],
	"buffers":[
		{
			"byteLength":9309520,
			"uri":"tall_vine_house_plants.bin"
		}
	]
}
