{
	"asset":{
		"generator":"Khronos glTF Blender I/O v3.6.28",
		"version":"2.0"
	},
	"extensionsUsed":[
		"KHR_materials_specular",
		"KHR_materials_ior"
	],
	"scene":0,
	"scenes":[
		{
			"extras":{
				"xol_link_apps":[
					{
						"id":52251,
						"port":"52251",
						"type":"BLD",
						"label":"Blender Foundation - Blender"
					},
					{
						"id":53466,
						"port":"53466",
						"type":"BLD",
						"label":"Blender Foundation - Blender"
					},
					{
						"id":53637,
						"port":"53637",
						"type":"BLD",
						"label":"Blender Foundation - Blender"
					},
					{
						"id":58392,
						"port":"58392",
						"type":"BLD",
						"label":"Blender Foundation - Blender"
					}
				],
				"xol_link_apps_list":0
			},
			"name":"Scene",
			"nodes":[
				3
			]
		}
	],
	"nodes":[
		{
			"extras":{
				"xrengine.entity":"collider_cliffs",
				"xrengine.EE_collider.shape":"box"
			},
			"mesh":0,
			"name":"colliderShape",
			"scale":[
				-0.7844452261924744,
				-3.4029431343078613,
				-0.7844452261924744
			],
			"translation":[
				0,
				-2.4413199424743652,
				0
			]
		},
		{
			"extras":{
				"currentUVSet":"map1"
			},
			"mesh":1,
			"name":"Cliff_Huge"
		},
		{
			"children":[
				1
			],
			"name":"RT_Meshes",
			"rotation":[
				0.7071067690849304,
				0,
				0,
				0.7071068286895752
			],
			"scale":[
				-0.003637002781033516,
				-0.003637002781033516,
				-0.003637002781033516
			]
		},
		{
			"children":[
				0,
				2
			],
			"extras":{
				"xrengine.entity":"rbd_cliff",
				"xrengine.EE_rigidbody.type":"fixed"
			},
			"name":"cliff_parentContainer01",
			"scale":[
				-2.7495172023773193,
				-2.7495172023773193,
				-2.7495172023773193
			]
		}
	],
	"materials":[
		{
			"doubleSided":true,
			"name":"Material",
			"pbrMetallicRoughness":{
				"baseColorFactor":[
					0.800000011920929,
					0.800000011920929,
					0.800000011920929,
					1
				],
				"metallicFactor":0,
				"roughnessFactor":0.5
			}
		},
		{
			"doubleSided":true,
			"extensions":{
				"KHR_materials_specular":{
					"specularColorFactor":[
						0.06757752150104841,
						0.06757752150104841,
						0.06757752150104841
					]
				},
				"KHR_materials_ior":{
					"ior":1.4500000476837158
				}
			},
			"name":"cliff_collection_huge",
			"normalTexture":{
				"index":0
			},
			"pbrMetallicRoughness":{
				"baseColorTexture":{
					"index":1
				},
				"metallicFactor":0,
				"metallicRoughnessTexture":{
					"index":2
				}
			}
		}
	],
	"meshes":[
		{
			"name":"Cube.001",
			"primitives":[
				{
					"attributes":{
						"POSITION":0,
						"NORMAL":1,
						"TEXCOORD_0":2
					},
					"indices":3,
					"material":0
				}
			]
		},
		{
			"name":"Mesh",
			"primitives":[
				{
					"attributes":{
						"POSITION":4,
						"NORMAL":5,
						"TEXCOORD_0":6
					},
					"indices":7,
					"material":1
				}
			]
		}
	],
	"textures":[
		{
			"sampler":0,
			"source":0
		},
		{
			"sampler":0,
			"source":1
		},
		{
			"sampler":0,
			"source":2
		}
	],
	"images":[
		{
			"mimeType":"image/png",
			"name":"Cliff_Huge_Normal",
			"uri":"Cliff_Huge_Normal.png"
		},
		{
			"mimeType":"image/png",
			"name":"Cliff_Huge_BaseColor",
			"uri":"Cliff_Huge_BaseColor.png"
		},
		{
			"mimeType":"image/png",
			"name":"Cliff_Huge_Roughness",
			"uri":"Cliff_Huge_Roughness.png"
		}
	],
	"accessors":[
		{
			"bufferView":0,
			"componentType":5126,
			"count":24,
			"max":[
				1,
				1,
				1
			],
			"min":[
				-1,
				-1,
				-1
			],
			"type":"VEC3"
		},
		{
			"bufferView":1,
			"componentType":5126,
			"count":24,
			"type":"VEC3"
		},
		{
			"bufferView":2,
			"componentType":5126,
			"count":24,
			"type":"VEC2"
		},
		{
			"bufferView":3,
			"componentType":5123,
			"count":36,
			"type":"SCALAR"
		},
		{
			"bufferView":4,
			"componentType":5126,
			"count":2686,
			"max":[
				243.2607421875,
				256.0811767578125,
				24.306276321411133
			],
			"min":[
				-255.072265625,
				-245.26783752441406,
				-1623.81201171875
			],
			"type":"VEC3"
		},
		{
			"bufferView":5,
			"componentType":5126,
			"count":2686,
			"type":"VEC3"
		},
		{
			"bufferView":6,
			"componentType":5126,
			"count":2686,
			"type":"VEC2"
		},
		{
			"bufferView":7,
			"componentType":5123,
			"count":14220,
			"type":"SCALAR"
		}
	],
	"bufferViews":[
		{
			"buffer":0,
			"byteLength":288,
			"byteOffset":0,
			"target":34962
		},
		{
			"buffer":0,
			"byteLength":288,
			"byteOffset":288,
			"target":34962
		},
		{
			"buffer":0,
			"byteLength":192,
			"byteOffset":576,
			"target":34962
		},
		{
			"buffer":0,
			"byteLength":72,
			"byteOffset":768,
			"target":34963
		},
		{
			"buffer":0,
			"byteLength":32232,
			"byteOffset":840,
			"target":34962
		},
		{
			"buffer":0,
			"byteLength":32232,
			"byteOffset":33072,
			"target":34962
		},
		{
			"buffer":0,
			"byteLength":21488,
			"byteOffset":65304,
			"target":34962
		},
		{
			"buffer":0,
			"byteLength":28440,
			"byteOffset":86792,
			"target":34963
		}
	],
	"samplers":[
		{
			"magFilter":9729,
			"minFilter":9987
		}
	],
	"buffers":[
		{
			"byteLength":115232,
			"uri":"cliff_collection_cliff01.bin"
		}
	]
}
