{
	"asset":{
		"generator":"Khronos glTF Blender I/O v4.0.44",
		"version":"2.0"
	},
	"scene":0,
	"scenes":[
		{
			"extras":{
				"sun_pos_properties":{
					"show_surface":0,
					"show_analemmas":0,
					"show_north":0,
					"latitude":0.0,
					"day_of_year":280,
					"sun_object":null,
					"object_collection":{},
					"sky_texture":"Pure-Sky Texture",
					"time":6.103796482086182,
					"longitude":0.0,
					"north_offset":2.2699999809265137,
					"use_refraction":1,
					"sun_distance":50.0,
					"use_day_of_year":1,
					"day":7,
					"month":10,
					"year":2022,
					"UTC_zone":0.0,
					"use_daylight_savings":0
				},
				"true_sky":{
					"presets":{
						"full_sky_preset":{
							"presets":[
								{
									"name":"Default",
									"display_name":"Default"
								},
								{
									"name":"Morning",
									"display_name":"Morning"
								},
								{
									"name":"Mid-Morning",
									"display_name":"Mid-Morning"
								},
								{
									"name":"Midday",
									"display_name":"Midday"
								},
								{
									"name":"Azure Afternoon",
									"display_name":"Azure Afternoon"
								},
								{
									"name":"Dusty Afternoon",
									"display_name":"Dusty Afternoon"
								},
								{
									"name":"Dusk",
									"display_name":"Dusk"
								},
								{
									"name":"Dusty Dusk",
									"display_name":"Dusty Dusk"
								},
								{
									"name":"Alien Morning",
									"display_name":"Alien Morning"
								},
								{
									"name":"Alien Gas Desert",
									"display_name":"Alien Gas Desert"
								},
								{
									"name":"Alien Day",
									"display_name":"Alien Day"
								},
								{
									"name":"Mars",
									"display_name":"Mars"
								}
							]
						},
						"time_preset":{
							"presets":[
								{
									"name":"Sunrise",
									"display_name":"Sunrise"
								},
								{
									"name":"Morning - Golden Hour End",
									"display_name":"Morning - Golden Hour End"
								},
								{
									"name":"Mid-Morning",
									"display_name":"Mid-Morning"
								},
								{
									"name":"Noon",
									"display_name":"Noon"
								},
								{
									"name":"Afternoon",
									"display_name":"Afternoon"
								},
								{
									"name":"Evening - Golden Hour Start",
									"display_name":"Evening - Golden Hour Start"
								},
								{
									"name":"Sunset",
									"display_name":"Sunset"
								}
							]
						},
						"sol_hsv_preset":{
							"presets":[
								{
									"name":"Base",
									"display_name":"Base"
								},
								{
									"name":"Test",
									"display_name":"Mars"
								},
								{
									"name":"Venus",
									"display_name":"Venus"
								},
								{
									"name":"Saturated",
									"display_name":"Saturated"
								},
								{
									"name":"Desaturated",
									"display_name":"Desaturated"
								}
							]
						},
						"atmosphere_preset":{
							"presets":[
								{
									"name":"Clear",
									"display_name":"Clear"
								},
								{
									"name":"Dusty",
									"display_name":"Dusty"
								}
							]
						},
						"haze_preset":{
							"presets":[
								{
									"name":"Clear",
									"display_name":"Clear"
								},
								{
									"name":"Polluted",
									"display_name":"Polluted"
								},
								{
									"name":"Drab",
									"display_name":"Drab"
								},
								{
									"name":"Other",
									"display_name":"Mars"
								},
								{
									"name":"Green",
									"display_name":"Green"
								}
							]
						},
						"fog_preset":{
							"presets":[
								{
									"name":"Fog Clear",
									"display_name":"Fog Clear"
								},
								{
									"name":"Fog Dense",
									"display_name":"Fog Dense"
								},
								{
									"name":"",
									"display_name":"Fog Blanket"
								},
								{
									"name":"Fog Stormy",
									"display_name":"Fog Stormy"
								},
								{
									"name":"Fog (Sandy)",
									"display_name":"Fog (Sandy/Dust)"
								}
							]
						},
						"night_sky_preset":{
							"presets":[
								{
									"name":"Test",
									"display_name":"Clear Night"
								},
								{
									"name":"Clear Night w/o Moon",
									"display_name":"Clear Night w/o Moon"
								},
								{
									"name":"Test 2",
									"display_name":"Hazy Night"
								},
								{
									"name":"Hazy Night w/o Moon",
									"display_name":"Hazy Night w/o Moon"
								}
							]
						},
						"night_hdris_preset":{
							"presets":[
								{
									"name":"Earth Night",
									"display_name":"Earth Night"
								},
								{
									"name":"Interstellar Nursery",
									"display_name":"Interstellar Nursery"
								},
								{
									"name":"Black Hole",
									"display_name":"Black Hole"
								},
								{
									"name":"Blue Nebula",
									"display_name":"Blue Nebula"
								},
								{
									"name":"Red Nebula",
									"display_name":"Blue Clouds"
								},
								{
									"name":"Red Gas",
									"display_name":"Red Gas"
								},
								{
									"name":"Great Portal",
									"display_name":"Great Portal"
								},
								{
									"name":"Orange Nebula",
									"display_name":"Orange Nebula"
								}
							]
						},
						"moon_preset":{
							"presets":[
								{
									"name":"Base",
									"display_name":"Earth Moon"
								},
								{
									"name":"Super Moon",
									"display_name":"Super Moon"
								}
							]
						},
						"moon_phase_preset":{
							"presets":[
								{
									"name":"Waxing Crescent",
									"display_name":"Waxing Crescent"
								},
								{
									"name":"First Quarter",
									"display_name":"First Quarter"
								},
								{
									"name":"Waxing Gibbous",
									"display_name":"Waxing Gibbous"
								},
								{
									"name":"Full",
									"display_name":"Full"
								},
								{
									"name":"Waning Gibbous",
									"display_name":"Waning Gibbous"
								},
								{
									"name":"Third Quarter",
									"display_name":"Third Quarter"
								},
								{
									"name":"Waning Crescent",
									"display_name":"Waning Crescent"
								}
							]
						},
						"nebula_preset":{
							"presets":[
								{
									"name":"Base",
									"display_name":"Base"
								},
								{
									"name":"Pale Wisp",
									"display_name":"Pale Wisp"
								},
								{
									"name":"Golden Flares",
									"display_name":"Golden Flares"
								}
							]
						},
						"stars_preset":{
							"presets":[
								{
									"name":"Base",
									"display_name":"Base"
								},
								{
									"name":"Deep Space",
									"display_name":"Deep Space"
								},
								{
									"name":"Starry Night",
									"display_name":"Starry Night"
								}
							]
						},
						"night_clarity_preset":{
							"presets":[
								{
									"name":"Base",
									"display_name":"Base"
								},
								{
									"name":"Intense",
									"display_name":"City Lights"
								}
							]
						},
						"cloud_preset":{
							"presets":[
								{
									"name":"tVFX_Clouds-Stratocumulus",
									"display_name":"Stratocumulus"
								},
								{
									"name":"tVFX_Clouds-Cumulus Mediocris",
									"display_name":"Cumulus Mediocris"
								},
								{
									"name":"tVFX_Clouds-Cumulonimbus",
									"display_name":"Cumulonimbus"
								},
								{
									"name":"tVFX_Clouds-Cirrus",
									"display_name":"Cirrus"
								},
								{
									"name":"tVFX_Clouds-Altostratus Translucidus",
									"display_name":"Altostratus Translucidus"
								},
								{
									"name":"tVFX_Clouds-Altostratus Opacus",
									"display_name":"Altostratus Opacus"
								},
								{
									"name":"tVFX_Clouds-Altocumulus",
									"display_name":"Altocumulus"
								}
							]
						}
					},
					"performance":{
						"performance_items":[
							{
								"name":"Testing"
							},
							{
								"name":"Viewport Render Region"
							},
							{
								"name":"Pixel Size"
							},
							{
								"name":"Tile Size"
							},
							{
								"name":"True-Speed"
							}
						]
					}
				},
				"srr_settings":{
					"status":{
						"is_rendering":0,
						"should_stop":0
					}
				},
				"puresky_properties":{
					"int_flag_updt_camera":0,
					"int_type_puresky":0,
					"int_camera_clipend":1000,
					"int_world_clipend":1000,
					"fl_cy_sun_intensity":0.30000001192092896,
					"fl_cy_sky_stars_gamma":1.5,
					"bool_cy_hlc_link":1,
					"bool_cy_mlc_link":1,
					"bool_cy_llc_link":1,
					"bool_cy_scc_link":0,
					"int_cycle_volume_max_step":10,
					"int_cycle_volume_bounces":0,
					"fl_cycles_sun_angle":129.8734130859375,
					"float_cycles_time_day":6.103796482086182,
					"int_cycles_day_of_year":280,
					"bool_cycles_use_day_of_year":1,
					"int_cycles_day":7,
					"int_cycles_month":10,
					"int_cycles_year":2022,
					"float_cycles_utc":0.0,
					"int_cycle_sample_viewport":10,
					"int_cycle_sample_render":10,
					"bool_fast_gi":0,
					"fl_fast_gi_ao_factor":1.0,
					"fl_cy_anim_anime":0.0,
					"cy_hlc_mask_image":{
						"name":"Paint Mask HLC 0",
						"type":"Image"
					},
					"cy_mlc_mask_image":{
						"name":"Paint Mask MLC",
						"type":"Image"
					},
					"cy_llc_mask_image":{
						"name":"Paint Mask LLC",
						"type":"Image"
					},
					"bool_render_region":0,
					"str_quality_mode":"FastGI"
				},
				"uuid":"c80ef3d4-e6cf-4c03-94b4-41dc122479a8",
				"assets reported":{},
				"expanded1":1,
				"expanded_sky_manage":1
			},
			"name":"Scene",
			"nodes":[
				2
			]
		}
	],
	"nodes":[
		{
			"mesh":0,
			"name":"Desert_cliff_1_mesh"
		},
		{
			"extras":{
				"xrengine.entity":"Desert_cliff_1_mesh_Box_Collider",
				"xrengine.EE_collider.shape":"mesh"
			},
			"mesh":1,
			"name":"Desert_cliff_1_mesh_Box_Collider",
			"rotation":[
				-0.7286263704299927,
				0.12045096606016159,
				0.6721556782722473,
				0.0529337003827095
			],
			"scale":[
				2.043712854385376,
				1.306868314743042,
				1.6957632303237915
			],
			"translation":[
				0.006540624890476465,
				0.9855413436889648,
				-0.05723094940185547
			]
		},
		{
			"children":[
				0,
				1
			],
			"extras":{
				"xrengine.entity":"Desert_cliff_1",
				"xrengine.EE_rigidbody.type":"fixed"
			},
			"name":"Desert_cliff_1"
		}
	],
	"materials":[
		{
			"doubleSided":true,
			"name":"Material.001",
			"normalTexture":{
				"index":0
			},
			"pbrMetallicRoughness":{
				"baseColorTexture":{
					"index":1
				},
				"metallicRoughnessTexture":{
					"index":2
				}
			}
		}
	],
	"meshes":[
		{
			"name":"Big_Red_Rocks_1.001",
			"primitives":[
				{
					"attributes":{
						"POSITION":0,
						"NORMAL":1,
						"TEXCOORD_0":2
					},
					"indices":3,
					"material":0
				}
			]
		},
		{
			"name":"Cube.003",
			"primitives":[
				{
					"attributes":{
						"POSITION":4,
						"NORMAL":5,
						"TEXCOORD_0":6
					},
					"indices":7
				}
			]
		}
	],
	"textures":[
		{
			"sampler":0,
			"source":0
		},
		{
			"sampler":0,
			"source":1
		},
		{
			"sampler":0,
			"source":2
		}
	],
	"images":[
		{
			"mimeType":"image/png",
			"name":"Red_Desert_Cliffs_Normal",
			"uri":"textures/Red_Desert_Cliffs_Normal.png"
		},
		{
			"mimeType":"image/png",
			"name":"Red_Desert_Cliffs_BaseColor",
			"uri":"textures/Red_Desert_Cliffs_BaseColor.png"
		},
		{
			"mimeType":"image/png",
			"name":"Red_Desert_Cliffs_Metallic-Red_Desert_Cliffs_Roughness",
			"uri":"textures/Red_Desert_Cliffs_Metallic-Red_Desert_Cliffs_Roughness.png"
		}
	],
	"accessors":[
		{
			"bufferView":0,
			"componentType":5126,
			"count":8797,
			"max":[
				1.5888885259628296,
				2.3231661319732666,
				2.0479736328125
			],
			"min":[
				-1.5888885259628296,
				1.7881393432617188e-07,
				-2.047973394393921
			],
			"type":"VEC3"
		},
		{
			"bufferView":1,
			"componentType":5126,
			"count":8797,
			"type":"VEC3"
		},
		{
			"bufferView":2,
			"componentType":5126,
			"count":8797,
			"type":"VEC2"
		},
		{
			"bufferView":3,
			"componentType":5123,
			"count":43620,
			"type":"SCALAR"
		},
		{
			"bufferView":4,
			"componentType":5126,
			"count":3179,
			"max":[
				0.9885175824165344,
				0.9224274754524231,
				1.0135248899459839
			],
			"min":[
				-0.9497635364532471,
				-1.0502779483795166,
				-0.9812190532684326
			],
			"type":"VEC3"
		},
		{
			"bufferView":5,
			"componentType":5126,
			"count":3179,
			"type":"VEC3"
		},
		{
			"bufferView":6,
			"componentType":5126,
			"count":3179,
			"type":"VEC2"
		},
		{
			"bufferView":7,
			"componentType":5123,
			"count":4716,
			"type":"SCALAR"
		}
	],
	"bufferViews":[
		{
			"buffer":0,
			"byteLength":105564,
			"byteOffset":0,
			"target":34962
		},
		{
			"buffer":0,
			"byteLength":105564,
			"byteOffset":105564,
			"target":34962
		},
		{
			"buffer":0,
			"byteLength":70376,
			"byteOffset":211128,
			"target":34962
		},
		{
			"buffer":0,
			"byteLength":87240,
			"byteOffset":281504,
			"target":34963
		},
		{
			"buffer":0,
			"byteLength":38148,
			"byteOffset":368744,
			"target":34962
		},
		{
			"buffer":0,
			"byteLength":38148,
			"byteOffset":406892,
			"target":34962
		},
		{
			"buffer":0,
			"byteLength":25432,
			"byteOffset":445040,
			"target":34962
		},
		{
			"buffer":0,
			"byteLength":9432,
			"byteOffset":470472,
			"target":34963
		}
	],
	"samplers":[
		{
			"magFilter":9729,
			"minFilter":9987
		}
	],
	"buffers":[
		{
			"byteLength":479904,
			"uri":"Desert_cliff_1.bin"
		}
	]
}
