{
	"asset":{
		"generator":"Khronos glTF Blender I/O v4.0.44",
		"version":"2.0"
	},
	"scene":0,
	"scenes":[
		{
			"extras":{
				"sun_pos_properties":{
					"show_surface":0,
					"show_analemmas":0,
					"show_north":0,
					"latitude":0.0,
					"day_of_year":280,
					"sun_object":null,
					"object_collection":{},
					"sky_texture":"Pure-Sky Texture",
					"time":6.103796482086182,
					"longitude":0.0,
					"north_offset":2.2699999809265137,
					"use_refraction":1,
					"sun_distance":50.0,
					"use_day_of_year":1,
					"day":7,
					"month":10,
					"year":2022,
					"UTC_zone":0.0,
					"use_daylight_savings":0
				},
				"true_sky":{
					"presets":{
						"full_sky_preset":{
							"presets":[
								{
									"name":"Default",
									"display_name":"Default"
								},
								{
									"name":"Morning",
									"display_name":"Morning"
								},
								{
									"name":"Mid-Morning",
									"display_name":"Mid-Morning"
								},
								{
									"name":"Midday",
									"display_name":"Midday"
								},
								{
									"name":"Azure Afternoon",
									"display_name":"Azure Afternoon"
								},
								{
									"name":"Dusty Afternoon",
									"display_name":"Dusty Afternoon"
								},
								{
									"name":"Dusk",
									"display_name":"Dusk"
								},
								{
									"name":"Dusty Dusk",
									"display_name":"Dusty Dusk"
								},
								{
									"name":"Alien Morning",
									"display_name":"Alien Morning"
								},
								{
									"name":"Alien Gas Desert",
									"display_name":"Alien Gas Desert"
								},
								{
									"name":"Alien Day",
									"display_name":"Alien Day"
								},
								{
									"name":"Mars",
									"display_name":"Mars"
								}
							]
						},
						"time_preset":{
							"presets":[
								{
									"name":"Sunrise",
									"display_name":"Sunrise"
								},
								{
									"name":"Morning - Golden Hour End",
									"display_name":"Morning - Golden Hour End"
								},
								{
									"name":"Mid-Morning",
									"display_name":"Mid-Morning"
								},
								{
									"name":"Noon",
									"display_name":"Noon"
								},
								{
									"name":"Afternoon",
									"display_name":"Afternoon"
								},
								{
									"name":"Evening - Golden Hour Start",
									"display_name":"Evening - Golden Hour Start"
								},
								{
									"name":"Sunset",
									"display_name":"Sunset"
								}
							]
						},
						"sol_hsv_preset":{
							"presets":[
								{
									"name":"Base",
									"display_name":"Base"
								},
								{
									"name":"Test",
									"display_name":"Mars"
								},
								{
									"name":"Venus",
									"display_name":"Venus"
								},
								{
									"name":"Saturated",
									"display_name":"Saturated"
								},
								{
									"name":"Desaturated",
									"display_name":"Desaturated"
								}
							]
						},
						"atmosphere_preset":{
							"presets":[
								{
									"name":"Clear",
									"display_name":"Clear"
								},
								{
									"name":"Dusty",
									"display_name":"Dusty"
								}
							]
						},
						"haze_preset":{
							"presets":[
								{
									"name":"Clear",
									"display_name":"Clear"
								},
								{
									"name":"Polluted",
									"display_name":"Polluted"
								},
								{
									"name":"Drab",
									"display_name":"Drab"
								},
								{
									"name":"Other",
									"display_name":"Mars"
								},
								{
									"name":"Green",
									"display_name":"Green"
								}
							]
						},
						"fog_preset":{
							"presets":[
								{
									"name":"Fog Clear",
									"display_name":"Fog Clear"
								},
								{
									"name":"Fog Dense",
									"display_name":"Fog Dense"
								},
								{
									"name":"",
									"display_name":"Fog Blanket"
								},
								{
									"name":"Fog Stormy",
									"display_name":"Fog Stormy"
								},
								{
									"name":"Fog (Sandy)",
									"display_name":"Fog (Sandy/Dust)"
								}
							]
						},
						"night_sky_preset":{
							"presets":[
								{
									"name":"Test",
									"display_name":"Clear Night"
								},
								{
									"name":"Clear Night w/o Moon",
									"display_name":"Clear Night w/o Moon"
								},
								{
									"name":"Test 2",
									"display_name":"Hazy Night"
								},
								{
									"name":"Hazy Night w/o Moon",
									"display_name":"Hazy Night w/o Moon"
								}
							]
						},
						"night_hdris_preset":{
							"presets":[
								{
									"name":"Earth Night",
									"display_name":"Earth Night"
								},
								{
									"name":"Interstellar Nursery",
									"display_name":"Interstellar Nursery"
								},
								{
									"name":"Black Hole",
									"display_name":"Black Hole"
								},
								{
									"name":"Blue Nebula",
									"display_name":"Blue Nebula"
								},
								{
									"name":"Red Nebula",
									"display_name":"Blue Clouds"
								},
								{
									"name":"Red Gas",
									"display_name":"Red Gas"
								},
								{
									"name":"Great Portal",
									"display_name":"Great Portal"
								},
								{
									"name":"Orange Nebula",
									"display_name":"Orange Nebula"
								}
							]
						},
						"moon_preset":{
							"presets":[
								{
									"name":"Base",
									"display_name":"Earth Moon"
								},
								{
									"name":"Super Moon",
									"display_name":"Super Moon"
								}
							]
						},
						"moon_phase_preset":{
							"presets":[
								{
									"name":"Waxing Crescent",
									"display_name":"Waxing Crescent"
								},
								{
									"name":"First Quarter",
									"display_name":"First Quarter"
								},
								{
									"name":"Waxing Gibbous",
									"display_name":"Waxing Gibbous"
								},
								{
									"name":"Full",
									"display_name":"Full"
								},
								{
									"name":"Waning Gibbous",
									"display_name":"Waning Gibbous"
								},
								{
									"name":"Third Quarter",
									"display_name":"Third Quarter"
								},
								{
									"name":"Waning Crescent",
									"display_name":"Waning Crescent"
								}
							]
						},
						"nebula_preset":{
							"presets":[
								{
									"name":"Base",
									"display_name":"Base"
								},
								{
									"name":"Pale Wisp",
									"display_name":"Pale Wisp"
								},
								{
									"name":"Golden Flares",
									"display_name":"Golden Flares"
								}
							]
						},
						"stars_preset":{
							"presets":[
								{
									"name":"Base",
									"display_name":"Base"
								},
								{
									"name":"Deep Space",
									"display_name":"Deep Space"
								},
								{
									"name":"Starry Night",
									"display_name":"Starry Night"
								}
							]
						},
						"night_clarity_preset":{
							"presets":[
								{
									"name":"Base",
									"display_name":"Base"
								},
								{
									"name":"Intense",
									"display_name":"City Lights"
								}
							]
						},
						"cloud_preset":{
							"presets":[
								{
									"name":"tVFX_Clouds-Stratocumulus",
									"display_name":"Stratocumulus"
								},
								{
									"name":"tVFX_Clouds-Cumulus Mediocris",
									"display_name":"Cumulus Mediocris"
								},
								{
									"name":"tVFX_Clouds-Cumulonimbus",
									"display_name":"Cumulonimbus"
								},
								{
									"name":"tVFX_Clouds-Cirrus",
									"display_name":"Cirrus"
								},
								{
									"name":"tVFX_Clouds-Altostratus Translucidus",
									"display_name":"Altostratus Translucidus"
								},
								{
									"name":"tVFX_Clouds-Altostratus Opacus",
									"display_name":"Altostratus Opacus"
								},
								{
									"name":"tVFX_Clouds-Altocumulus",
									"display_name":"Altocumulus"
								}
							]
						}
					},
					"performance":{
						"performance_items":[
							{
								"name":"Testing"
							},
							{
								"name":"Viewport Render Region"
							},
							{
								"name":"Pixel Size"
							},
							{
								"name":"Tile Size"
							},
							{
								"name":"True-Speed"
							}
						]
					}
				},
				"srr_settings":{
					"status":{
						"is_rendering":0,
						"should_stop":0
					}
				},
				"puresky_properties":{
					"int_flag_updt_camera":0,
					"int_type_puresky":0,
					"int_camera_clipend":1000,
					"int_world_clipend":1000,
					"fl_cy_sun_intensity":0.30000001192092896,
					"fl_cy_sky_stars_gamma":1.5,
					"bool_cy_hlc_link":1,
					"bool_cy_mlc_link":1,
					"bool_cy_llc_link":1,
					"bool_cy_scc_link":0,
					"int_cycle_volume_max_step":10,
					"int_cycle_volume_bounces":0,
					"fl_cycles_sun_angle":129.8734130859375,
					"float_cycles_time_day":6.103796482086182,
					"int_cycles_day_of_year":280,
					"bool_cycles_use_day_of_year":1,
					"int_cycles_day":7,
					"int_cycles_month":10,
					"int_cycles_year":2022,
					"float_cycles_utc":0.0,
					"int_cycle_sample_viewport":10,
					"int_cycle_sample_render":10,
					"bool_fast_gi":0,
					"fl_fast_gi_ao_factor":1.0,
					"fl_cy_anim_anime":0.0,
					"cy_hlc_mask_image":{
						"name":"Paint Mask HLC 0",
						"type":"Image"
					},
					"cy_mlc_mask_image":{
						"name":"Paint Mask MLC",
						"type":"Image"
					},
					"cy_llc_mask_image":{
						"name":"Paint Mask LLC",
						"type":"Image"
					},
					"bool_render_region":0,
					"str_quality_mode":"FastGI"
				},
				"uuid":"c80ef3d4-e6cf-4c03-94b4-41dc122479a8",
				"assets reported":{},
				"expanded1":1,
				"expanded_sky_manage":1
			},
			"name":"Scene",
			"nodes":[
				2
			]
		}
	],
	"nodes":[
		{
			"mesh":0,
			"name":"Desert_Cliff_3_mesh",
			"rotation":[
				0.7071068286895752,
				0,
				0,
				0.7071068286895752
			],
			"translation":[
				0.06288650631904602,
				1.2662160396575928,
				-0.10222434997558594
			]
		},
		{
			"extras":{
				"xrengine.entity":"Desert_Cliff_3_mesh_Box_Collider",
				"xrengine.EE_collider.shape":"mesh"
			},
			"mesh":1,
			"name":"Desert_Cliff_3_mesh_Box_Collider",
			"rotation":[
				-0.46037134528160095,
				-0.033830832690000534,
				-0.8870770931243896,
				0.0028204983100295067
			],
			"scale":[
				3.798429489135742,
				1.5057730674743652,
				2.6934878826141357
			],
			"translation":[
				-0.02567068673670292,
				1.3317900896072388,
				-0.23416247963905334
			]
		},
		{
			"children":[
				0,
				1
			],
			"extras":{
				"xrengine.entity":"Desert_Cliff_3",
				"xrengine.EE_rigidbody.type":"fixed"
			},
			"name":"Grey_Desert_Cliff_3"
		}
	],
	"materials":[
		{
			"doubleSided":true,
			"name":"cliffs_grey",
			"normalTexture":{
				"index":0
			},
			"pbrMetallicRoughness":{
				"baseColorTexture":{
					"index":1
				},
				"metallicRoughnessTexture":{
					"index":2
				}
			}
		}
	],
	"meshes":[
		{
			"name":"Cube.013",
			"primitives":[
				{
					"attributes":{
						"POSITION":0,
						"NORMAL":1,
						"TEXCOORD_0":2
					},
					"indices":3,
					"material":0
				}
			]
		},
		{
			"name":"Cube.002",
			"primitives":[
				{
					"attributes":{
						"POSITION":4,
						"NORMAL":5,
						"TEXCOORD_0":6
					},
					"indices":7
				}
			]
		}
	],
	"textures":[
		{
			"sampler":0,
			"source":0
		},
		{
			"sampler":0,
			"source":1
		},
		{
			"sampler":0,
			"source":2
		}
	],
	"images":[
		{
			"mimeType":"image/png",
			"name":"Grey_Desert_Cliffs_Normal",
			"uri":"textures/Grey_Desert_Cliffs_Normal.png"
		},
		{
			"mimeType":"image/png",
			"name":"Grey_Desert_Cliffs_BaseColor",
			"uri":"textures/Grey_Desert_Cliffs_BaseColor.png"
		},
		{
			"mimeType":"image/png",
			"name":"Grey_Desert_Cliffs_Metallic-Grey_Desert_Cliffs_Roughness",
			"uri":"textures/Grey_Desert_Cliffs_Metallic-Grey_Desert_Cliffs_Roughness.png"
		}
	],
	"accessors":[
		{
			"bufferView":0,
			"componentType":5126,
			"count":7744,
			"max":[
				3.0441529750823975,
				3.597900390625,
				1.2662156820297241
			],
			"min":[
				-3.1699259281158447,
				-3.39345121383667,
				-1.5963013172149658
			],
			"type":"VEC3"
		},
		{
			"bufferView":1,
			"componentType":5126,
			"count":7744,
			"type":"VEC3"
		},
		{
			"bufferView":2,
			"componentType":5126,
			"count":7744,
			"type":"VEC2"
		},
		{
			"bufferView":3,
			"componentType":5123,
			"count":37416,
			"type":"SCALAR"
		},
		{
			"bufferView":4,
			"componentType":5126,
			"count":3412,
			"max":[
				0.9874064922332764,
				0.9833391308784485,
				1.0288947820663452
			],
			"min":[
				-1.0261644124984741,
				-0.9921435117721558,
				-0.9987930655479431
			],
			"type":"VEC3"
		},
		{
			"bufferView":5,
			"componentType":5126,
			"count":3412,
			"type":"VEC3"
		},
		{
			"bufferView":6,
			"componentType":5126,
			"count":3412,
			"type":"VEC2"
		},
		{
			"bufferView":7,
			"componentType":5123,
			"count":5334,
			"type":"SCALAR"
		}
	],
	"bufferViews":[
		{
			"buffer":0,
			"byteLength":92928,
			"byteOffset":0,
			"target":34962
		},
		{
			"buffer":0,
			"byteLength":92928,
			"byteOffset":92928,
			"target":34962
		},
		{
			"buffer":0,
			"byteLength":61952,
			"byteOffset":185856,
			"target":34962
		},
		{
			"buffer":0,
			"byteLength":74832,
			"byteOffset":247808,
			"target":34963
		},
		{
			"buffer":0,
			"byteLength":40944,
			"byteOffset":322640,
			"target":34962
		},
		{
			"buffer":0,
			"byteLength":40944,
			"byteOffset":363584,
			"target":34962
		},
		{
			"buffer":0,
			"byteLength":27296,
			"byteOffset":404528,
			"target":34962
		},
		{
			"buffer":0,
			"byteLength":10668,
			"byteOffset":431824,
			"target":34963
		}
	],
	"samplers":[
		{
			"magFilter":9729,
			"minFilter":9987
		}
	],
	"buffers":[
		{
			"byteLength":442492,
			"uri":"Grey_Desert_Cliff_3.bin"
		}
	]
}
