{
	"asset":{
		"generator":"Khronos glTF Blender I/O v3.6.28",
		"version":"2.0"
	},
	"extensionsUsed":[
		"KHR_materials_specular",
		"KHR_materials_ior"
	],
	"scene":0,
	"scenes":[
		{
			"extras":{
				"xol_link_apps":[
					{
						"id":52251,
						"port":"52251",
						"type":"BLD",
						"label":"Blender Foundation - Blender"
					},
					{
						"id":53466,
						"port":"53466",
						"type":"BLD",
						"label":"Blender Foundation - Blender"
					},
					{
						"id":53637,
						"port":"53637",
						"type":"BLD",
						"label":"Blender Foundation - Blender"
					},
					{
						"id":54884,
						"port":"54884",
						"type":"BLD",
						"label":"Blender Foundation - Blender"
					},
					{
						"id":58392,
						"port":"58392",
						"type":"BLD",
						"label":"Blender Foundation - Blender"
					}
				],
				"xol_link_apps_list":0
			},
			"name":"Scene",
			"nodes":[
				6
			]
		}
	],
	"nodes":[
		{
			"extras":{
				"xrengine.entity":"collider_shape",
				"xrengine.EE_collider.shape":"box"
			},
			"mesh":0,
			"name":"colliderShape.014",
			"scale":[
				-0.0810915157198906,
				-0.0810915157198906,
				-0.04830663278698921
			],
			"translation":[
				0.007178706582635641,
				-0.024480754509568214,
				0.03858255594968796
			]
		},
		{
			"extras":{
				"xrengine.entity":"collider_shape",
				"xrengine.EE_collider.shape":"box"
			},
			"mesh":1,
			"name":"colliderShape.024",
			"scale":[
				-0.16793625056743622,
				-0.023641671985387802,
				-0.1000404804944992
			],
			"translation":[
				0.003610737156122923,
				-0.014290375635027885,
				0.005303762387484312
			]
		},
		{
			"extras":{
				"xrengine.entity":"collider_shape",
				"xrengine.EE_collider.shape":"box"
			},
			"mesh":2,
			"name":"colliderShape.025",
			"rotation":[
				0,
				0.6621648669242859,
				0,
				0.7493582367897034
			],
			"scale":[
				-0.19738219678401947,
				-0.023641671985387802,
				-0.10033349692821503
			],
			"translation":[
				0.003610737156122923,
				-0.005137082654982805,
				-0.012621527537703514
			]
		},
		{
			"extras":{
				"currentUVSet":"map1"
			},
			"mesh":3,
			"name":"Rock_Pile_B"
		},
		{
			"children":[
				3
			],
			"name":"RT_Rock_Piles.001"
		},
		{
			"children":[
				4
			],
			"name":"Export_Ready.008",
			"rotation":[
				0.7071067690849304,
				0,
				0,
				0.7071068286895752
			],
			"scale":[
				-0.003637002781033516,
				-0.003637002781033516,
				-0.003637002781033516
			]
		},
		{
			"children":[
				0,
				1,
				2,
				5
			],
			"extras":{
				"xrengine.entity":"rbd_cliff",
				"xrengine.EE_rigidbody.type":"fixed"
			},
			"name":"rockFormations_parentContainer01.002",
			"scale":[
				-2.7495172023773193,
				-2.7495172023773193,
				-2.7495172023773193
			]
		}
	],
	"materials":[
		{
			"doubleSided":true,
			"extensions":{
				"KHR_materials_specular":{
					"specularColorFactor":[
						0.11672485483851533,
						0.11672485483851533,
						0.11672485483851533
					]
				},
				"KHR_materials_ior":{
					"ior":1.4500000476837158
				}
			},
			"name":"rocks_collection",
			"normalTexture":{
				"index":0
			},
			"pbrMetallicRoughness":{
				"baseColorTexture":{
					"index":1
				},
				"metallicFactor":0,
				"metallicRoughnessTexture":{
					"index":2
				}
			}
		}
	],
	"meshes":[
		{
			"name":"Cube.015",
			"primitives":[
				{
					"attributes":{
						"POSITION":0,
						"NORMAL":1,
						"TEXCOORD_0":2
					},
					"indices":3
				}
			]
		},
		{
			"name":"Cube.025",
			"primitives":[
				{
					"attributes":{
						"POSITION":4,
						"NORMAL":5,
						"TEXCOORD_0":6
					},
					"indices":3
				}
			]
		},
		{
			"name":"Cube.026",
			"primitives":[
				{
					"attributes":{
						"POSITION":7,
						"NORMAL":8,
						"TEXCOORD_0":9
					},
					"indices":3
				}
			]
		},
		{
			"name":"Mesh.008",
			"primitives":[
				{
					"attributes":{
						"POSITION":10,
						"NORMAL":11,
						"TEXCOORD_0":12
					},
					"indices":13,
					"material":0
				}
			]
		}
	],
	"textures":[
		{
			"sampler":0,
			"source":0
		},
		{
			"sampler":0,
			"source":1
		},
		{
			"sampler":0,
			"source":2
		}
	],
	"images":[
		{
			"mimeType":"image/png",
			"name":"Rock_Collection_IR_Rocks_Grp_01_Normal",
			"uri":"Rock_Collection_IR_Rocks_Grp_01_Normal.png"
		},
		{
			"mimeType":"image/png",
			"name":"Rock_Collection_IR_Rocks_Grp_01_BaseColor",
			"uri":"Rock_Collection_IR_Rocks_Grp_01_BaseColor.png"
		},
		{
			"mimeType":"image/png",
			"name":"Rock_Collection_IR_Rocks_Grp_01_Roughness",
			"uri":"Rock_Collection_IR_Rocks_Grp_01_Roughness.png"
		}
	],
	"accessors":[
		{
			"bufferView":0,
			"componentType":5126,
			"count":24,
			"max":[
				1,
				1,
				1
			],
			"min":[
				-1,
				-1,
				-1
			],
			"type":"VEC3"
		},
		{
			"bufferView":1,
			"componentType":5126,
			"count":24,
			"type":"VEC3"
		},
		{
			"bufferView":2,
			"componentType":5126,
			"count":24,
			"type":"VEC2"
		},
		{
			"bufferView":3,
			"componentType":5123,
			"count":36,
			"type":"SCALAR"
		},
		{
			"bufferView":4,
			"componentType":5126,
			"count":24,
			"max":[
				1,
				1,
				1
			],
			"min":[
				-1,
				-1,
				-1
			],
			"type":"VEC3"
		},
		{
			"bufferView":5,
			"componentType":5126,
			"count":24,
			"type":"VEC3"
		},
		{
			"bufferView":6,
			"componentType":5126,
			"count":24,
			"type":"VEC2"
		},
		{
			"bufferView":7,
			"componentType":5126,
			"count":24,
			"max":[
				1,
				1,
				1
			],
			"min":[
				-1,
				-1,
				-1
			],
			"type":"VEC3"
		},
		{
			"bufferView":8,
			"componentType":5126,
			"count":24,
			"type":"VEC3"
		},
		{
			"bufferView":9,
			"componentType":5126,
			"count":24,
			"type":"VEC2"
		},
		{
			"bufferView":10,
			"componentType":5126,
			"count":2149,
			"max":[
				53.774227142333984,
				61.670318603515625,
				10.113719940185547
			],
			"min":[
				-52.97688293457031,
				-61.74586486816406,
				-29.321535110473633
			],
			"type":"VEC3"
		},
		{
			"bufferView":11,
			"componentType":5126,
			"count":2149,
			"type":"VEC3"
		},
		{
			"bufferView":12,
			"componentType":5126,
			"count":2149,
			"type":"VEC2"
		},
		{
			"bufferView":13,
			"componentType":5123,
			"count":9576,
			"type":"SCALAR"
		}
	],
	"bufferViews":[
		{
			"buffer":0,
			"byteLength":288,
			"byteOffset":0,
			"target":34962
		},
		{
			"buffer":0,
			"byteLength":288,
			"byteOffset":288,
			"target":34962
		},
		{
			"buffer":0,
			"byteLength":192,
			"byteOffset":576,
			"target":34962
		},
		{
			"buffer":0,
			"byteLength":72,
			"byteOffset":768,
			"target":34963
		},
		{
			"buffer":0,
			"byteLength":288,
			"byteOffset":840,
			"target":34962
		},
		{
			"buffer":0,
			"byteLength":288,
			"byteOffset":1128,
			"target":34962
		},
		{
			"buffer":0,
			"byteLength":192,
			"byteOffset":1416,
			"target":34962
		},
		{
			"buffer":0,
			"byteLength":288,
			"byteOffset":1608,
			"target":34962
		},
		{
			"buffer":0,
			"byteLength":288,
			"byteOffset":1896,
			"target":34962
		},
		{
			"buffer":0,
			"byteLength":192,
			"byteOffset":2184,
			"target":34962
		},
		{
			"buffer":0,
			"byteLength":25788,
			"byteOffset":2376,
			"target":34962
		},
		{
			"buffer":0,
			"byteLength":25788,
			"byteOffset":28164,
			"target":34962
		},
		{
			"buffer":0,
			"byteLength":17192,
			"byteOffset":53952,
			"target":34962
		},
		{
			"buffer":0,
			"byteLength":19152,
			"byteOffset":71144,
			"target":34963
		}
	],
	"samplers":[
		{
			"magFilter":9729,
			"minFilter":9987
		}
	],
	"buffers":[
		{
			"byteLength":90296,
			"uri":"rock_collection_rockFormation02.bin"
		}
	]
}
