{
	"asset":{
		"generator":"Khronos glTF Blender I/O v3.6.28",
		"version":"2.0"
	},
	"extensionsUsed":[
		"KHR_materials_specular",
		"KHR_materials_ior"
	],
	"scene":0,
	"scenes":[
		{
			"extras":{
				"xol_link_apps":[
					{
						"id":52251,
						"port":"52251",
						"type":"BLD",
						"label":"Blender Foundation - Blender"
					},
					{
						"id":53466,
						"port":"53466",
						"type":"BLD",
						"label":"Blender Foundation - Blender"
					},
					{
						"id":53637,
						"port":"53637",
						"type":"BLD",
						"label":"Blender Foundation - Blender"
					},
					{
						"id":54884,
						"port":"54884",
						"type":"BLD",
						"label":"Blender Foundation - Blender"
					},
					{
						"id":58392,
						"port":"58392",
						"type":"BLD",
						"label":"Blender Foundation - Blender"
					}
				],
				"xol_link_apps_list":0
			},
			"name":"Scene",
			"nodes":[
				15
			]
		}
	],
	"nodes":[
		{
			"extras":{
				"xrengine.entity":"collider_shape",
				"xrengine.EE_collider.shape":"box"
			},
			"mesh":0,
			"name":"colliderShape.017",
			"scale":[
				-0.019235480576753616,
				-0.019235480576753616,
				-0.019235480576753616
			],
			"translation":[
				0.0399404801428318,
				0.000969862041529268,
				0.022979792207479477
			]
		},
		{
			"extras":{
				"xrengine.entity":"collider_shape",
				"xrengine.EE_collider.shape":"box"
			},
			"mesh":1,
			"name":"colliderShape.036",
			"rotation":[
				0.06937598437070847,
				-0.30362454056739807,
				-0.0020929214078933,
				0.9502604603767395
			],
			"scale":[
				-0.019235480576753616,
				-0.019235480576753616,
				-0.019235480576753616
			],
			"translation":[
				0.0447569414973259,
				0.0025113942101597786,
				-0.04099821299314499
			]
		},
		{
			"extras":{
				"xrengine.entity":"collider_shape",
				"xrengine.EE_collider.shape":"box"
			},
			"mesh":2,
			"name":"colliderShape.037",
			"scale":[
				-0.027877716347575188,
				-0.027877716347575188,
				-0.027877716347575188
			],
			"translation":[
				-0.0022509966511279345,
				-0.008132528513669968,
				-0.055074773728847504
			]
		},
		{
			"extras":{
				"xrengine.entity":"collider_shape",
				"xrengine.EE_collider.shape":"box"
			},
			"mesh":3,
			"name":"colliderShape.038",
			"scale":[
				-0.01610131561756134,
				-0.01610131561756134,
				-0.01610131561756134
			],
			"translation":[
				-0.036748386919498444,
				-0.005542352329939604,
				-0.011979691684246063
			]
		},
		{
			"extras":{
				"xrengine.entity":"collider_shape",
				"xrengine.EE_collider.shape":"box"
			},
			"mesh":4,
			"name":"colliderShape.039",
			"scale":[
				-0.01858973689377308,
				-0.01858973689377308,
				-0.01858973689377308
			],
			"translation":[
				-0.06130746752023697,
				-0.0027057311963289976,
				0.10345689207315445
			]
		},
		{
			"extras":{
				"xrengine.entity":"collider_shape",
				"xrengine.EE_collider.shape":"box"
			},
			"mesh":5,
			"name":"colliderShape.040",
			"scale":[
				-0.01507522352039814,
				-0.01507522352039814,
				-0.01507522352039814
			],
			"translation":[
				0.0022176094353199005,
				-0.007688037119805813,
				0.16240833699703217
			]
		},
		{
			"extras":{
				"xrengine.entity":"collider_shape",
				"xrengine.EE_collider.shape":"box"
			},
			"mesh":6,
			"name":"colliderShape.041",
			"scale":[
				0.016176830977201462,
				0.016176830977201462,
				0.016176830977201462
			],
			"translation":[
				-0.04715637490153313,
				-0.013636657036840916,
				-0.22590062022209167
			]
		},
		{
			"extras":{
				"xrengine.entity":"collider_shape",
				"xrengine.EE_collider.shape":"box"
			},
			"mesh":7,
			"name":"colliderShape.042",
			"scale":[
				0.016176830977201462,
				0.016176830977201462,
				0.016176830977201462
			],
			"translation":[
				-0.005267077591270208,
				-0.010190148837864399,
				-0.2793215811252594
			]
		},
		{
			"extras":{
				"xrengine.entity":"collider_shape",
				"xrengine.EE_collider.shape":"box"
			},
			"mesh":8,
			"name":"colliderShape.043",
			"scale":[
				0.016176830977201462,
				0.016176830977201462,
				0.016176830977201462
			],
			"translation":[
				0.07376269996166229,
				0.002199020469561219,
				-0.19807544350624084
			]
		},
		{
			"extras":{
				"xrengine.entity":"collider_shape",
				"xrengine.EE_collider.shape":"box"
			},
			"mesh":9,
			"name":"colliderShape.044",
			"scale":[
				0.016176830977201462,
				0.016176830977201462,
				0.016176830977201462
			],
			"translation":[
				0.05271304398775101,
				-0.0052831354551017284,
				-0.34903889894485474
			]
		},
		{
			"extras":{
				"xrengine.entity":"collider_shape",
				"xrengine.EE_collider.shape":"box"
			},
			"mesh":10,
			"name":"colliderShape.045",
			"scale":[
				-0.01507522352039814,
				-0.01507522352039814,
				-0.01507522352039814
			],
			"translation":[
				0.007819516584277153,
				-0.006897794082760811,
				0.20894227921962738
			]
		},
		{
			"extras":{
				"xrengine.entity":"collider_shape",
				"xrengine.EE_collider.shape":"box"
			},
			"mesh":11,
			"name":"colliderShape.046",
			"scale":[
				-0.01507522352039814,
				-0.01507522352039814,
				-0.01507522352039814
			],
			"translation":[
				0.09088708460330963,
				-0.010340518318116665,
				0.30555641651153564
			]
		},
		{
			"extras":{
				"currentUVSet":"map1"
			},
			"mesh":12,
			"name":"Stones_Scattered_A"
		},
		{
			"children":[
				12
			],
			"name":"RT_Scattered_Stones"
		},
		{
			"children":[
				13
			],
			"name":"Export_Ready.012",
			"rotation":[
				0.7071067690849304,
				0,
				0,
				0.7071068286895752
			],
			"scale":[
				-0.003637002781033516,
				-0.003637002781033516,
				-0.003637002781033516
			]
		},
		{
			"children":[
				0,
				1,
				2,
				3,
				4,
				5,
				6,
				7,
				8,
				9,
				10,
				11,
				14
			],
			"extras":{
				"xrengine.entity":"rbd_cliff",
				"xrengine.EE_rigidbody.type":"fixed"
			},
			"name":"rockFormations_parentContainer01.005",
			"scale":[
				-2.7495172023773193,
				-2.7495172023773193,
				-2.7495172023773193
			]
		}
	],
	"materials":[
		{
			"doubleSided":true,
			"extensions":{
				"KHR_materials_specular":{
					"specularColorFactor":[
						0.11672485483851533,
						0.11672485483851533,
						0.11672485483851533
					]
				},
				"KHR_materials_ior":{
					"ior":1.4500000476837158
				}
			},
			"name":"rocks_collection",
			"normalTexture":{
				"index":0
			},
			"pbrMetallicRoughness":{
				"baseColorTexture":{
					"index":1
				},
				"metallicFactor":0,
				"metallicRoughnessTexture":{
					"index":2
				}
			}
		}
	],
	"meshes":[
		{
			"name":"Cube.018",
			"primitives":[
				{
					"attributes":{
						"POSITION":0,
						"NORMAL":1,
						"TEXCOORD_0":2
					},
					"indices":3
				}
			]
		},
		{
			"name":"Cube.037",
			"primitives":[
				{
					"attributes":{
						"POSITION":4,
						"NORMAL":5,
						"TEXCOORD_0":6
					},
					"indices":3
				}
			]
		},
		{
			"name":"Cube.038",
			"primitives":[
				{
					"attributes":{
						"POSITION":7,
						"NORMAL":8,
						"TEXCOORD_0":9
					},
					"indices":3
				}
			]
		},
		{
			"name":"Cube.039",
			"primitives":[
				{
					"attributes":{
						"POSITION":10,
						"NORMAL":11,
						"TEXCOORD_0":12
					},
					"indices":3
				}
			]
		},
		{
			"name":"Cube.040",
			"primitives":[
				{
					"attributes":{
						"POSITION":13,
						"NORMAL":14,
						"TEXCOORD_0":15
					},
					"indices":3
				}
			]
		},
		{
			"name":"Cube.041",
			"primitives":[
				{
					"attributes":{
						"POSITION":16,
						"NORMAL":17,
						"TEXCOORD_0":18
					},
					"indices":3
				}
			]
		},
		{
			"name":"Cube.042",
			"primitives":[
				{
					"attributes":{
						"POSITION":19,
						"NORMAL":20,
						"TEXCOORD_0":21
					},
					"indices":3
				}
			]
		},
		{
			"name":"Cube.043",
			"primitives":[
				{
					"attributes":{
						"POSITION":22,
						"NORMAL":23,
						"TEXCOORD_0":24
					},
					"indices":3
				}
			]
		},
		{
			"name":"Cube.044",
			"primitives":[
				{
					"attributes":{
						"POSITION":25,
						"NORMAL":26,
						"TEXCOORD_0":27
					},
					"indices":3
				}
			]
		},
		{
			"name":"Cube.045",
			"primitives":[
				{
					"attributes":{
						"POSITION":28,
						"NORMAL":29,
						"TEXCOORD_0":30
					},
					"indices":3
				}
			]
		},
		{
			"name":"Cube.046",
			"primitives":[
				{
					"attributes":{
						"POSITION":31,
						"NORMAL":32,
						"TEXCOORD_0":33
					},
					"indices":3
				}
			]
		},
		{
			"name":"Cube.047",
			"primitives":[
				{
					"attributes":{
						"POSITION":34,
						"NORMAL":35,
						"TEXCOORD_0":36
					},
					"indices":3
				}
			]
		},
		{
			"name":"Mesh.012",
			"primitives":[
				{
					"attributes":{
						"POSITION":37,
						"NORMAL":38,
						"TEXCOORD_0":39
					},
					"indices":40,
					"material":0
				}
			]
		}
	],
	"textures":[
		{
			"sampler":0,
			"source":0
		},
		{
			"sampler":0,
			"source":1
		},
		{
			"sampler":0,
			"source":2
		}
	],
	"images":[
		{
			"mimeType":"image/png",
			"name":"Rock_Collection_IR_Rocks_Grp_01_Normal",
			"uri":"Rock_Collection_IR_Rocks_Grp_01_Normal.png"
		},
		{
			"mimeType":"image/png",
			"name":"Rock_Collection_IR_Rocks_Grp_01_BaseColor",
			"uri":"Rock_Collection_IR_Rocks_Grp_01_BaseColor.png"
		},
		{
			"mimeType":"image/png",
			"name":"Rock_Collection_IR_Rocks_Grp_01_Roughness",
			"uri":"Rock_Collection_IR_Rocks_Grp_01_Roughness.png"
		}
	],
	"accessors":[
		{
			"bufferView":0,
			"componentType":5126,
			"count":24,
			"max":[
				1,
				1,
				1
			],
			"min":[
				-1,
				-1,
				-1
			],
			"type":"VEC3"
		},
		{
			"bufferView":1,
			"componentType":5126,
			"count":24,
			"type":"VEC3"
		},
		{
			"bufferView":2,
			"componentType":5126,
			"count":24,
			"type":"VEC2"
		},
		{
			"bufferView":3,
			"componentType":5123,
			"count":36,
			"type":"SCALAR"
		},
		{
			"bufferView":4,
			"componentType":5126,
			"count":24,
			"max":[
				1,
				1,
				1
			],
			"min":[
				-1,
				-1,
				-1
			],
			"type":"VEC3"
		},
		{
			"bufferView":5,
			"componentType":5126,
			"count":24,
			"type":"VEC3"
		},
		{
			"bufferView":6,
			"componentType":5126,
			"count":24,
			"type":"VEC2"
		},
		{
			"bufferView":7,
			"componentType":5126,
			"count":24,
			"max":[
				1,
				1,
				1
			],
			"min":[
				-1,
				-1,
				-1
			],
			"type":"VEC3"
		},
		{
			"bufferView":8,
			"componentType":5126,
			"count":24,
			"type":"VEC3"
		},
		{
			"bufferView":9,
			"componentType":5126,
			"count":24,
			"type":"VEC2"
		},
		{
			"bufferView":10,
			"componentType":5126,
			"count":24,
			"max":[
				1,
				1,
				1
			],
			"min":[
				-1,
				-1,
				-1
			],
			"type":"VEC3"
		},
		{
			"bufferView":11,
			"componentType":5126,
			"count":24,
			"type":"VEC3"
		},
		{
			"bufferView":12,
			"componentType":5126,
			"count":24,
			"type":"VEC2"
		},
		{
			"bufferView":13,
			"componentType":5126,
			"count":24,
			"max":[
				1,
				1,
				1
			],
			"min":[
				-1,
				-1,
				-1
			],
			"type":"VEC3"
		},
		{
			"bufferView":14,
			"componentType":5126,
			"count":24,
			"type":"VEC3"
		},
		{
			"bufferView":15,
			"componentType":5126,
			"count":24,
			"type":"VEC2"
		},
		{
			"bufferView":16,
			"componentType":5126,
			"count":24,
			"max":[
				1,
				1,
				1
			],
			"min":[
				-1,
				-1,
				-1
			],
			"type":"VEC3"
		},
		{
			"bufferView":17,
			"componentType":5126,
			"count":24,
			"type":"VEC3"
		},
		{
			"bufferView":18,
			"componentType":5126,
			"count":24,
			"type":"VEC2"
		},
		{
			"bufferView":19,
			"componentType":5126,
			"count":24,
			"max":[
				1,
				1,
				1
			],
			"min":[
				-1,
				-1,
				-1
			],
			"type":"VEC3"
		},
		{
			"bufferView":20,
			"componentType":5126,
			"count":24,
			"type":"VEC3"
		},
		{
			"bufferView":21,
			"componentType":5126,
			"count":24,
			"type":"VEC2"
		},
		{
			"bufferView":22,
			"componentType":5126,
			"count":24,
			"max":[
				1,
				1,
				1
			],
			"min":[
				-1,
				-1,
				-1
			],
			"type":"VEC3"
		},
		{
			"bufferView":23,
			"componentType":5126,
			"count":24,
			"type":"VEC3"
		},
		{
			"bufferView":24,
			"componentType":5126,
			"count":24,
			"type":"VEC2"
		},
		{
			"bufferView":25,
			"componentType":5126,
			"count":24,
			"max":[
				1,
				1,
				1
			],
			"min":[
				-1,
				-1,
				-1
			],
			"type":"VEC3"
		},
		{
			"bufferView":26,
			"componentType":5126,
			"count":24,
			"type":"VEC3"
		},
		{
			"bufferView":27,
			"componentType":5126,
			"count":24,
			"type":"VEC2"
		},
		{
			"bufferView":28,
			"componentType":5126,
			"count":24,
			"max":[
				1,
				1,
				1
			],
			"min":[
				-1,
				-1,
				-1
			],
			"type":"VEC3"
		},
		{
			"bufferView":29,
			"componentType":5126,
			"count":24,
			"type":"VEC3"
		},
		{
			"bufferView":30,
			"componentType":5126,
			"count":24,
			"type":"VEC2"
		},
		{
			"bufferView":31,
			"componentType":5126,
			"count":24,
			"max":[
				1,
				1,
				1
			],
			"min":[
				-1,
				-1,
				-1
			],
			"type":"VEC3"
		},
		{
			"bufferView":32,
			"componentType":5126,
			"count":24,
			"type":"VEC3"
		},
		{
			"bufferView":33,
			"componentType":5126,
			"count":24,
			"type":"VEC2"
		},
		{
			"bufferView":34,
			"componentType":5126,
			"count":24,
			"max":[
				1,
				1,
				1
			],
			"min":[
				-1,
				-1,
				-1
			],
			"type":"VEC3"
		},
		{
			"bufferView":35,
			"componentType":5126,
			"count":24,
			"type":"VEC3"
		},
		{
			"bufferView":36,
			"componentType":5126,
			"count":24,
			"type":"VEC2"
		},
		{
			"bufferView":37,
			"componentType":5126,
			"count":569,
			"max":[
				29.7431640625,
				110.0696029663086,
				1.961035966873169
			],
			"min":[
				-29.95977783203125,
				-110.06963348388672,
				-6.2593536376953125
			],
			"type":"VEC3"
		},
		{
			"bufferView":38,
			"componentType":5126,
			"count":569,
			"type":"VEC3"
		},
		{
			"bufferView":39,
			"componentType":5126,
			"count":569,
			"type":"VEC2"
		},
		{
			"bufferView":40,
			"componentType":5123,
			"count":2532,
			"type":"SCALAR"
		}
	],
	"bufferViews":[
		{
			"buffer":0,
			"byteLength":288,
			"byteOffset":0,
			"target":34962
		},
		{
			"buffer":0,
			"byteLength":288,
			"byteOffset":288,
			"target":34962
		},
		{
			"buffer":0,
			"byteLength":192,
			"byteOffset":576,
			"target":34962
		},
		{
			"buffer":0,
			"byteLength":72,
			"byteOffset":768,
			"target":34963
		},
		{
			"buffer":0,
			"byteLength":288,
			"byteOffset":840,
			"target":34962
		},
		{
			"buffer":0,
			"byteLength":288,
			"byteOffset":1128,
			"target":34962
		},
		{
			"buffer":0,
			"byteLength":192,
			"byteOffset":1416,
			"target":34962
		},
		{
			"buffer":0,
			"byteLength":288,
			"byteOffset":1608,
			"target":34962
		},
		{
			"buffer":0,
			"byteLength":288,
			"byteOffset":1896,
			"target":34962
		},
		{
			"buffer":0,
			"byteLength":192,
			"byteOffset":2184,
			"target":34962
		},
		{
			"buffer":0,
			"byteLength":288,
			"byteOffset":2376,
			"target":34962
		},
		{
			"buffer":0,
			"byteLength":288,
			"byteOffset":2664,
			"target":34962
		},
		{
			"buffer":0,
			"byteLength":192,
			"byteOffset":2952,
			"target":34962
		},
		{
			"buffer":0,
			"byteLength":288,
			"byteOffset":3144,
			"target":34962
		},
		{
			"buffer":0,
			"byteLength":288,
			"byteOffset":3432,
			"target":34962
		},
		{
			"buffer":0,
			"byteLength":192,
			"byteOffset":3720,
			"target":34962
		},
		{
			"buffer":0,
			"byteLength":288,
			"byteOffset":3912,
			"target":34962
		},
		{
			"buffer":0,
			"byteLength":288,
			"byteOffset":4200,
			"target":34962
		},
		{
			"buffer":0,
			"byteLength":192,
			"byteOffset":4488,
			"target":34962
		},
		{
			"buffer":0,
			"byteLength":288,
			"byteOffset":4680,
			"target":34962
		},
		{
			"buffer":0,
			"byteLength":288,
			"byteOffset":4968,
			"target":34962
		},
		{
			"buffer":0,
			"byteLength":192,
			"byteOffset":5256,
			"target":34962
		},
		{
			"buffer":0,
			"byteLength":288,
			"byteOffset":5448,
			"target":34962
		},
		{
			"buffer":0,
			"byteLength":288,
			"byteOffset":5736,
			"target":34962
		},
		{
			"buffer":0,
			"byteLength":192,
			"byteOffset":6024,
			"target":34962
		},
		{
			"buffer":0,
			"byteLength":288,
			"byteOffset":6216,
			"target":34962
		},
		{
			"buffer":0,
			"byteLength":288,
			"byteOffset":6504,
			"target":34962
		},
		{
			"buffer":0,
			"byteLength":192,
			"byteOffset":6792,
			"target":34962
		},
		{
			"buffer":0,
			"byteLength":288,
			"byteOffset":6984,
			"target":34962
		},
		{
			"buffer":0,
			"byteLength":288,
			"byteOffset":7272,
			"target":34962
		},
		{
			"buffer":0,
			"byteLength":192,
			"byteOffset":7560,
			"target":34962
		},
		{
			"buffer":0,
			"byteLength":288,
			"byteOffset":7752,
			"target":34962
		},
		{
			"buffer":0,
			"byteLength":288,
			"byteOffset":8040,
			"target":34962
		},
		{
			"buffer":0,
			"byteLength":192,
			"byteOffset":8328,
			"target":34962
		},
		{
			"buffer":0,
			"byteLength":288,
			"byteOffset":8520,
			"target":34962
		},
		{
			"buffer":0,
			"byteLength":288,
			"byteOffset":8808,
			"target":34962
		},
		{
			"buffer":0,
			"byteLength":192,
			"byteOffset":9096,
			"target":34962
		},
		{
			"buffer":0,
			"byteLength":6828,
			"byteOffset":9288,
			"target":34962
		},
		{
			"buffer":0,
			"byteLength":6828,
			"byteOffset":16116,
			"target":34962
		},
		{
			"buffer":0,
			"byteLength":4552,
			"byteOffset":22944,
			"target":34962
		},
		{
			"buffer":0,
			"byteLength":5064,
			"byteOffset":27496,
			"target":34963
		}
	],
	"samplers":[
		{
			"magFilter":9729,
			"minFilter":9987
		}
	],
	"buffers":[
		{
			"byteLength":32560,
			"uri":"rock_collection_rockFormation05.bin"
		}
	]
}
