{
	"asset":{
		"generator":"Khronos glTF Blender I/O v3.6.28",
		"version":"2.0"
	},
	"extensionsUsed":[
		"KHR_materials_specular",
		"KHR_materials_ior"
	],
	"scene":0,
	"scenes":[
		{
			"extras":{
				"xol_link_apps":[
					{
						"id":52251,
						"port":"52251",
						"type":"BLD",
						"label":"Blender Foundation - Blender"
					},
					{
						"id":53466,
						"port":"53466",
						"type":"BLD",
						"label":"Blender Foundation - Blender"
					},
					{
						"id":53637,
						"port":"53637",
						"type":"BLD",
						"label":"Blender Foundation - Blender"
					},
					{
						"id":54884,
						"port":"54884",
						"type":"BLD",
						"label":"Blender Foundation - Blender"
					},
					{
						"id":58392,
						"port":"58392",
						"type":"BLD",
						"label":"Blender Foundation - Blender"
					}
				],
				"xol_link_apps_list":0
			},
			"name":"Scene",
			"nodes":[
				8
			]
		}
	],
	"nodes":[
		{
			"extras":{
				"xrengine.entity":"collider_shape",
				"xrengine.EE_collider.shape":"box"
			},
			"mesh":0,
			"name":"colliderShape.015",
			"rotation":[
				0,
				-0.22325840592384338,
				0,
				0.9747593402862549
			],
			"scale":[
				-0.07161401957273483,
				-0.07161402702331543,
				-0.07161401957273483
			],
			"translation":[
				-0.07464105635881424,
				-0.0009353266796097159,
				-0.017660807818174362
			]
		},
		{
			"extras":{
				"xrengine.entity":"collider_shape",
				"xrengine.EE_collider.shape":"box"
			},
			"mesh":1,
			"name":"colliderShape.026",
			"scale":[
				-0.06428229808807373,
				-0.06428229808807373,
				-0.06428229808807373
			],
			"translation":[
				0.02187553606927395,
				0.013487539254128933,
				0.022515365853905678
			]
		},
		{
			"extras":{
				"xrengine.entity":"collider_shape",
				"xrengine.EE_collider.shape":"box"
			},
			"mesh":2,
			"name":"colliderShape.027",
			"rotation":[
				-0.002031048759818077,
				-0.26944491267204285,
				-0.003586629405617714,
				0.9630070924758911
			],
			"scale":[
				-0.05071423202753067,
				-0.07803281396627426,
				-0.03926932439208031
			],
			"translation":[
				0.12501996755599976,
				0.022046618163585663,
				0.013866561464965343
			]
		},
		{
			"extras":{
				"xrengine.entity":"collider_shape",
				"xrengine.EE_collider.shape":"box"
			},
			"mesh":3,
			"name":"colliderShape.028",
			"rotation":[
				-0.0029046698473393917,
				-0.38534218072891235,
				-0.0051293582655489445,
				0.9227549433708191
			],
			"scale":[
				-0.06428230553865433,
				-0.06428230553865433,
				-0.06428230553865433
			],
			"translation":[
				0.08766347169876099,
				0.011790498159825802,
				0.11275053024291992
			]
		},
		{
			"extras":{
				"xrengine.entity":"collider_shape",
				"xrengine.EE_collider.shape":"box"
			},
			"mesh":4,
			"name":"colliderShape.029",
			"rotation":[
				0.02914775162935257,
				0.9435228109359741,
				0.00934639573097229,
				0.32989057898521423
			],
			"scale":[
				-0.059325095266103745,
				-0.052778758108615875,
				-0.04758274555206299
			],
			"translation":[
				-0.02688988856971264,
				-0.0028880126774311066,
				0.10199366509914398
			]
		},
		{
			"extras":{
				"currentUVSet":"map1"
			},
			"mesh":5,
			"name":"Rock_Pile_C"
		},
		{
			"children":[
				5
			],
			"name":"RT_Rock_Piles.002"
		},
		{
			"children":[
				6
			],
			"name":"Export_Ready.009",
			"rotation":[
				0.7071067690849304,
				0,
				0,
				0.7071068286895752
			],
			"scale":[
				-0.003637002781033516,
				-0.003637002781033516,
				-0.003637002781033516
			]
		},
		{
			"children":[
				0,
				1,
				2,
				3,
				4,
				7
			],
			"extras":{
				"xrengine.entity":"rbd_cliff",
				"xrengine.EE_rigidbody.type":"fixed"
			},
			"name":"rockFormations_parentContainer01.003",
			"scale":[
				-2.7495172023773193,
				-2.7495172023773193,
				-2.7495172023773193
			]
		}
	],
	"materials":[
		{
			"doubleSided":true,
			"extensions":{
				"KHR_materials_specular":{
					"specularColorFactor":[
						0.11672485483851533,
						0.11672485483851533,
						0.11672485483851533
					]
				},
				"KHR_materials_ior":{
					"ior":1.4500000476837158
				}
			},
			"name":"rocks_collection",
			"normalTexture":{
				"index":0
			},
			"pbrMetallicRoughness":{
				"baseColorTexture":{
					"index":1
				},
				"metallicFactor":0,
				"metallicRoughnessTexture":{
					"index":2
				}
			}
		}
	],
	"meshes":[
		{
			"name":"Cube.016",
			"primitives":[
				{
					"attributes":{
						"POSITION":0,
						"NORMAL":1,
						"TEXCOORD_0":2
					},
					"indices":3
				}
			]
		},
		{
			"name":"Cube.027",
			"primitives":[
				{
					"attributes":{
						"POSITION":4,
						"NORMAL":5,
						"TEXCOORD_0":6
					},
					"indices":3
				}
			]
		},
		{
			"name":"Cube.028",
			"primitives":[
				{
					"attributes":{
						"POSITION":7,
						"NORMAL":8,
						"TEXCOORD_0":9
					},
					"indices":3
				}
			]
		},
		{
			"name":"Cube.029",
			"primitives":[
				{
					"attributes":{
						"POSITION":10,
						"NORMAL":11,
						"TEXCOORD_0":12
					},
					"indices":3
				}
			]
		},
		{
			"name":"Cube.030",
			"primitives":[
				{
					"attributes":{
						"POSITION":13,
						"NORMAL":14,
						"TEXCOORD_0":15
					},
					"indices":3
				}
			]
		},
		{
			"name":"Mesh.009",
			"primitives":[
				{
					"attributes":{
						"POSITION":16,
						"NORMAL":17,
						"TEXCOORD_0":18,
						"TEXCOORD_1":19
					},
					"indices":20,
					"material":0
				}
			]
		}
	],
	"textures":[
		{
			"sampler":0,
			"source":0
		},
		{
			"sampler":0,
			"source":1
		},
		{
			"sampler":0,
			"source":2
		}
	],
	"images":[
		{
			"mimeType":"image/png",
			"name":"Rock_Collection_IR_Rocks_Grp_01_Normal",
			"uri":"Rock_Collection_IR_Rocks_Grp_01_Normal.png"
		},
		{
			"mimeType":"image/png",
			"name":"Rock_Collection_IR_Rocks_Grp_01_BaseColor",
			"uri":"Rock_Collection_IR_Rocks_Grp_01_BaseColor.png"
		},
		{
			"mimeType":"image/png",
			"name":"Rock_Collection_IR_Rocks_Grp_01_Roughness",
			"uri":"Rock_Collection_IR_Rocks_Grp_01_Roughness.png"
		}
	],
	"accessors":[
		{
			"bufferView":0,
			"componentType":5126,
			"count":24,
			"max":[
				1,
				1,
				1
			],
			"min":[
				-1,
				-1,
				-1
			],
			"type":"VEC3"
		},
		{
			"bufferView":1,
			"componentType":5126,
			"count":24,
			"type":"VEC3"
		},
		{
			"bufferView":2,
			"componentType":5126,
			"count":24,
			"type":"VEC2"
		},
		{
			"bufferView":3,
			"componentType":5123,
			"count":36,
			"type":"SCALAR"
		},
		{
			"bufferView":4,
			"componentType":5126,
			"count":24,
			"max":[
				1,
				1,
				1
			],
			"min":[
				-1,
				-1,
				-1
			],
			"type":"VEC3"
		},
		{
			"bufferView":5,
			"componentType":5126,
			"count":24,
			"type":"VEC3"
		},
		{
			"bufferView":6,
			"componentType":5126,
			"count":24,
			"type":"VEC2"
		},
		{
			"bufferView":7,
			"componentType":5126,
			"count":24,
			"max":[
				1,
				1,
				1
			],
			"min":[
				-1,
				-1,
				-1
			],
			"type":"VEC3"
		},
		{
			"bufferView":8,
			"componentType":5126,
			"count":24,
			"type":"VEC3"
		},
		{
			"bufferView":9,
			"componentType":5126,
			"count":24,
			"type":"VEC2"
		},
		{
			"bufferView":10,
			"componentType":5126,
			"count":24,
			"max":[
				1,
				1,
				1
			],
			"min":[
				-1,
				-1,
				-1
			],
			"type":"VEC3"
		},
		{
			"bufferView":11,
			"componentType":5126,
			"count":24,
			"type":"VEC3"
		},
		{
			"bufferView":12,
			"componentType":5126,
			"count":24,
			"type":"VEC2"
		},
		{
			"bufferView":13,
			"componentType":5126,
			"count":24,
			"max":[
				1,
				1,
				1
			],
			"min":[
				-1,
				-1,
				-1
			],
			"type":"VEC3"
		},
		{
			"bufferView":14,
			"componentType":5126,
			"count":24,
			"type":"VEC3"
		},
		{
			"bufferView":15,
			"componentType":5126,
			"count":24,
			"type":"VEC2"
		},
		{
			"bufferView":16,
			"componentType":5126,
			"count":1419,
			"max":[
				50.38589859008789,
				57.242431640625,
				33.84143829345703
			],
			"min":[
				-50.385894775390625,
				-57.24247741699219,
				-21.27325439453125
			],
			"type":"VEC3"
		},
		{
			"bufferView":17,
			"componentType":5126,
			"count":1419,
			"type":"VEC3"
		},
		{
			"bufferView":18,
			"componentType":5126,
			"count":1419,
			"type":"VEC2"
		},
		{
			"bufferView":19,
			"componentType":5126,
			"count":1419,
			"type":"VEC2"
		},
		{
			"bufferView":20,
			"componentType":5123,
			"count":6378,
			"type":"SCALAR"
		}
	],
	"bufferViews":[
		{
			"buffer":0,
			"byteLength":288,
			"byteOffset":0,
			"target":34962
		},
		{
			"buffer":0,
			"byteLength":288,
			"byteOffset":288,
			"target":34962
		},
		{
			"buffer":0,
			"byteLength":192,
			"byteOffset":576,
			"target":34962
		},
		{
			"buffer":0,
			"byteLength":72,
			"byteOffset":768,
			"target":34963
		},
		{
			"buffer":0,
			"byteLength":288,
			"byteOffset":840,
			"target":34962
		},
		{
			"buffer":0,
			"byteLength":288,
			"byteOffset":1128,
			"target":34962
		},
		{
			"buffer":0,
			"byteLength":192,
			"byteOffset":1416,
			"target":34962
		},
		{
			"buffer":0,
			"byteLength":288,
			"byteOffset":1608,
			"target":34962
		},
		{
			"buffer":0,
			"byteLength":288,
			"byteOffset":1896,
			"target":34962
		},
		{
			"buffer":0,
			"byteLength":192,
			"byteOffset":2184,
			"target":34962
		},
		{
			"buffer":0,
			"byteLength":288,
			"byteOffset":2376,
			"target":34962
		},
		{
			"buffer":0,
			"byteLength":288,
			"byteOffset":2664,
			"target":34962
		},
		{
			"buffer":0,
			"byteLength":192,
			"byteOffset":2952,
			"target":34962
		},
		{
			"buffer":0,
			"byteLength":288,
			"byteOffset":3144,
			"target":34962
		},
		{
			"buffer":0,
			"byteLength":288,
			"byteOffset":3432,
			"target":34962
		},
		{
			"buffer":0,
			"byteLength":192,
			"byteOffset":3720,
			"target":34962
		},
		{
			"buffer":0,
			"byteLength":17028,
			"byteOffset":3912,
			"target":34962
		},
		{
			"buffer":0,
			"byteLength":17028,
			"byteOffset":20940,
			"target":34962
		},
		{
			"buffer":0,
			"byteLength":11352,
			"byteOffset":37968,
			"target":34962
		},
		{
			"buffer":0,
			"byteLength":11352,
			"byteOffset":49320,
			"target":34962
		},
		{
			"buffer":0,
			"byteLength":12756,
			"byteOffset":60672,
			"target":34963
		}
	],
	"samplers":[
		{
			"magFilter":9729,
			"minFilter":9987
		}
	],
	"buffers":[
		{
			"byteLength":73428,
			"uri":"rock_collection_rockFormation03.bin"
		}
	]
}
