{
	"asset":{
		"generator":"Khronos glTF Blender I/O v3.6.28",
		"version":"2.0"
	},
	"extensionsUsed":[
		"KHR_materials_specular",
		"KHR_materials_ior"
	],
	"scene":0,
	"scenes":[
		{
			"extras":{
				"xol_link_apps":[
					{
						"id":52251,
						"port":"52251",
						"type":"BLD",
						"label":"Blender Foundation - Blender"
					},
					{
						"id":53466,
						"port":"53466",
						"type":"BLD",
						"label":"Blender Foundation - Blender"
					},
					{
						"id":53637,
						"port":"53637",
						"type":"BLD",
						"label":"Blender Foundation - Blender"
					},
					{
						"id":54884,
						"port":"54884",
						"type":"BLD",
						"label":"Blender Foundation - Blender"
					},
					{
						"id":58392,
						"port":"58392",
						"type":"BLD",
						"label":"Blender Foundation - Blender"
					}
				],
				"xol_link_apps_list":0
			},
			"name":"Scene",
			"nodes":[
				12
			]
		}
	],
	"nodes":[
		{
			"extras":{
				"xrengine.entity":"collider_shape",
				"xrengine.EE_collider.shape":"box"
			},
			"mesh":0,
			"name":"colliderShape.018",
			"scale":[
				-0.06987551599740982,
				-0.06987551599740982,
				-0.06987551599740982
			]
		},
		{
			"extras":{
				"xrengine.entity":"collider_shape",
				"xrengine.EE_collider.shape":"box"
			},
			"mesh":1,
			"name":"colliderShape.047",
			"scale":[
				-0.047051019966602325,
				-0.09272876381874084,
				-0.07302232831716537
			],
			"translation":[
				-0.01906464621424675,
				0.0022034673020243645,
				0.11377815902233124
			]
		},
		{
			"extras":{
				"xrengine.entity":"collider_shape",
				"xrengine.EE_collider.shape":"box"
			},
			"mesh":2,
			"name":"colliderShape.048",
			"scale":[
				-0.06987551599740982,
				-0.06987551599740982,
				-0.06987551599740982
			],
			"translation":[
				-0.037664659321308136,
				0.008073150180280209,
				0.021999726071953773
			]
		},
		{
			"extras":{
				"xrengine.entity":"collider_shape",
				"xrengine.EE_collider.shape":"box"
			},
			"mesh":3,
			"name":"colliderShape.049",
			"scale":[
				-0.03377990797162056,
				-0.06657388806343079,
				-0.0524258017539978
			],
			"translation":[
				0.06794470548629761,
				0.009887367486953735,
				0.0819038599729538
			]
		},
		{
			"extras":{
				"xrengine.entity":"collider_shape",
				"xrengine.EE_collider.shape":"box"
			},
			"mesh":4,
			"name":"colliderShape.050",
			"scale":[
				-0.03377990797162056,
				-0.06657388806343079,
				-0.0524258017539978
			],
			"translation":[
				-0.009385875426232815,
				0.009770149365067482,
				-0.09280303120613098
			]
		},
		{
			"extras":{
				"xrengine.entity":"collider_shape",
				"xrengine.EE_collider.shape":"box"
			},
			"mesh":5,
			"name":"colliderShape.051",
			"scale":[
				0.015070924535393715,
				0.029701964929699898,
				0.023389801383018494
			],
			"translation":[
				-0.016481749713420868,
				-0.004091754090040922,
				-0.1646120250225067
			]
		},
		{
			"extras":{
				"xrengine.entity":"collider_shape",
				"xrengine.EE_collider.shape":"box"
			},
			"mesh":6,
			"name":"colliderShape.052",
			"scale":[
				0.015070924535393715,
				0.029701964929699898,
				0.023389801383018494
			],
			"translation":[
				-0.08548785001039505,
				-0.007852861657738686,
				-0.10920029133558273
			]
		},
		{
			"extras":{
				"xrengine.entity":"collider_shape",
				"xrengine.EE_collider.shape":"box"
			},
			"mesh":7,
			"name":"colliderShape.053",
			"scale":[
				0.015070924535393715,
				0.029701964929699898,
				0.023389801383018494
			],
			"translation":[
				-0.07895004004240036,
				-0.00917417649179697,
				0.1792750358581543
			]
		},
		{
			"extras":{
				"xrengine.entity":"collider_shape",
				"xrengine.EE_collider.shape":"box"
			},
			"mesh":8,
			"name":"colliderShape.054",
			"scale":[
				0.015070924535393715,
				0.029701964929699898,
				0.023389801383018494
			],
			"translation":[
				0.08342872560024261,
				1.9222490664105862e-05,
				-0.011187244206666946
			]
		},
		{
			"extras":{
				"currentUVSet":"map1"
			},
			"mesh":9,
			"name":"Rock_Pile_E"
		},
		{
			"children":[
				9
			],
			"name":"RT_Rock_Piles.004"
		},
		{
			"children":[
				10
			],
			"name":"Export_Ready.011",
			"rotation":[
				0.7071067690849304,
				0,
				0,
				0.7071068286895752
			],
			"scale":[
				-0.003637002781033516,
				-0.003637002781033516,
				-0.003637002781033516
			]
		},
		{
			"children":[
				0,
				1,
				2,
				3,
				4,
				5,
				6,
				7,
				8,
				11
			],
			"extras":{
				"xrengine.entity":"rbd_cliff",
				"xrengine.EE_rigidbody.type":"fixed"
			},
			"name":"rockFormations_parentContainer01.006",
			"scale":[
				-2.7495172023773193,
				-2.7495172023773193,
				-2.7495172023773193
			]
		}
	],
	"materials":[
		{
			"doubleSided":true,
			"extensions":{
				"KHR_materials_specular":{
					"specularColorFactor":[
						0.11672485483851533,
						0.11672485483851533,
						0.11672485483851533
					]
				},
				"KHR_materials_ior":{
					"ior":1.4500000476837158
				}
			},
			"name":"rocks_collection",
			"normalTexture":{
				"index":0
			},
			"pbrMetallicRoughness":{
				"baseColorTexture":{
					"index":1
				},
				"metallicFactor":0,
				"metallicRoughnessTexture":{
					"index":2
				}
			}
		}
	],
	"meshes":[
		{
			"name":"Cube.019",
			"primitives":[
				{
					"attributes":{
						"POSITION":0,
						"NORMAL":1,
						"TEXCOORD_0":2
					},
					"indices":3
				}
			]
		},
		{
			"name":"Cube.048",
			"primitives":[
				{
					"attributes":{
						"POSITION":4,
						"NORMAL":5,
						"TEXCOORD_0":6
					},
					"indices":3
				}
			]
		},
		{
			"name":"Cube.049",
			"primitives":[
				{
					"attributes":{
						"POSITION":7,
						"NORMAL":8,
						"TEXCOORD_0":9
					},
					"indices":3
				}
			]
		},
		{
			"name":"Cube.050",
			"primitives":[
				{
					"attributes":{
						"POSITION":10,
						"NORMAL":11,
						"TEXCOORD_0":12
					},
					"indices":3
				}
			]
		},
		{
			"name":"Cube.051",
			"primitives":[
				{
					"attributes":{
						"POSITION":13,
						"NORMAL":14,
						"TEXCOORD_0":15
					},
					"indices":3
				}
			]
		},
		{
			"name":"Cube.052",
			"primitives":[
				{
					"attributes":{
						"POSITION":16,
						"NORMAL":17,
						"TEXCOORD_0":18
					},
					"indices":3
				}
			]
		},
		{
			"name":"Cube.053",
			"primitives":[
				{
					"attributes":{
						"POSITION":19,
						"NORMAL":20,
						"TEXCOORD_0":21
					},
					"indices":3
				}
			]
		},
		{
			"name":"Cube.054",
			"primitives":[
				{
					"attributes":{
						"POSITION":22,
						"NORMAL":23,
						"TEXCOORD_0":24
					},
					"indices":3
				}
			]
		},
		{
			"name":"Cube.055",
			"primitives":[
				{
					"attributes":{
						"POSITION":25,
						"NORMAL":26,
						"TEXCOORD_0":27
					},
					"indices":3
				}
			]
		},
		{
			"name":"Mesh.011",
			"primitives":[
				{
					"attributes":{
						"POSITION":28,
						"NORMAL":29,
						"TEXCOORD_0":30
					},
					"indices":31,
					"material":0
				}
			]
		}
	],
	"textures":[
		{
			"sampler":0,
			"source":0
		},
		{
			"sampler":0,
			"source":1
		},
		{
			"sampler":0,
			"source":2
		}
	],
	"images":[
		{
			"mimeType":"image/png",
			"name":"Rock_Collection_IR_Rocks_Grp_01_Normal",
			"uri":"Rock_Collection_IR_Rocks_Grp_01_Normal.png"
		},
		{
			"mimeType":"image/png",
			"name":"Rock_Collection_IR_Rocks_Grp_01_BaseColor",
			"uri":"Rock_Collection_IR_Rocks_Grp_01_BaseColor.png"
		},
		{
			"mimeType":"image/png",
			"name":"Rock_Collection_IR_Rocks_Grp_01_Roughness",
			"uri":"Rock_Collection_IR_Rocks_Grp_01_Roughness.png"
		}
	],
	"accessors":[
		{
			"bufferView":0,
			"componentType":5126,
			"count":24,
			"max":[
				1,
				1,
				1
			],
			"min":[
				-1,
				-1,
				-1
			],
			"type":"VEC3"
		},
		{
			"bufferView":1,
			"componentType":5126,
			"count":24,
			"type":"VEC3"
		},
		{
			"bufferView":2,
			"componentType":5126,
			"count":24,
			"type":"VEC2"
		},
		{
			"bufferView":3,
			"componentType":5123,
			"count":36,
			"type":"SCALAR"
		},
		{
			"bufferView":4,
			"componentType":5126,
			"count":24,
			"max":[
				1,
				1,
				1
			],
			"min":[
				-1,
				-1,
				-1
			],
			"type":"VEC3"
		},
		{
			"bufferView":5,
			"componentType":5126,
			"count":24,
			"type":"VEC3"
		},
		{
			"bufferView":6,
			"componentType":5126,
			"count":24,
			"type":"VEC2"
		},
		{
			"bufferView":7,
			"componentType":5126,
			"count":24,
			"max":[
				1,
				1,
				1
			],
			"min":[
				-1,
				-1,
				-1
			],
			"type":"VEC3"
		},
		{
			"bufferView":8,
			"componentType":5126,
			"count":24,
			"type":"VEC3"
		},
		{
			"bufferView":9,
			"componentType":5126,
			"count":24,
			"type":"VEC2"
		},
		{
			"bufferView":10,
			"componentType":5126,
			"count":24,
			"max":[
				1,
				1,
				1
			],
			"min":[
				-1,
				-1,
				-1
			],
			"type":"VEC3"
		},
		{
			"bufferView":11,
			"componentType":5126,
			"count":24,
			"type":"VEC3"
		},
		{
			"bufferView":12,
			"componentType":5126,
			"count":24,
			"type":"VEC2"
		},
		{
			"bufferView":13,
			"componentType":5126,
			"count":24,
			"max":[
				1,
				1,
				1
			],
			"min":[
				-1,
				-1,
				-1
			],
			"type":"VEC3"
		},
		{
			"bufferView":14,
			"componentType":5126,
			"count":24,
			"type":"VEC3"
		},
		{
			"bufferView":15,
			"componentType":5126,
			"count":24,
			"type":"VEC2"
		},
		{
			"bufferView":16,
			"componentType":5126,
			"count":24,
			"max":[
				1,
				1,
				1
			],
			"min":[
				-1,
				-1,
				-1
			],
			"type":"VEC3"
		},
		{
			"bufferView":17,
			"componentType":5126,
			"count":24,
			"type":"VEC3"
		},
		{
			"bufferView":18,
			"componentType":5126,
			"count":24,
			"type":"VEC2"
		},
		{
			"bufferView":19,
			"componentType":5126,
			"count":24,
			"max":[
				1,
				1,
				1
			],
			"min":[
				-1,
				-1,
				-1
			],
			"type":"VEC3"
		},
		{
			"bufferView":20,
			"componentType":5126,
			"count":24,
			"type":"VEC3"
		},
		{
			"bufferView":21,
			"componentType":5126,
			"count":24,
			"type":"VEC2"
		},
		{
			"bufferView":22,
			"componentType":5126,
			"count":24,
			"max":[
				1,
				1,
				1
			],
			"min":[
				-1,
				-1,
				-1
			],
			"type":"VEC3"
		},
		{
			"bufferView":23,
			"componentType":5126,
			"count":24,
			"type":"VEC3"
		},
		{
			"bufferView":24,
			"componentType":5126,
			"count":24,
			"type":"VEC2"
		},
		{
			"bufferView":25,
			"componentType":5126,
			"count":24,
			"max":[
				1,
				1,
				1
			],
			"min":[
				-1,
				-1,
				-1
			],
			"type":"VEC3"
		},
		{
			"bufferView":26,
			"componentType":5126,
			"count":24,
			"type":"VEC3"
		},
		{
			"bufferView":27,
			"componentType":5126,
			"count":24,
			"type":"VEC2"
		},
		{
			"bufferView":28,
			"componentType":5126,
			"count":1238,
			"max":[
				37.844886779785156,
				85.36053466796875,
				20.7225341796875
			],
			"min":[
				-35.79682922363281,
				-85.36050415039062,
				-29.321535110473633
			],
			"type":"VEC3"
		},
		{
			"bufferView":29,
			"componentType":5126,
			"count":1238,
			"type":"VEC3"
		},
		{
			"bufferView":30,
			"componentType":5126,
			"count":1238,
			"type":"VEC2"
		},
		{
			"bufferView":31,
			"componentType":5123,
			"count":5616,
			"type":"SCALAR"
		}
	],
	"bufferViews":[
		{
			"buffer":0,
			"byteLength":288,
			"byteOffset":0,
			"target":34962
		},
		{
			"buffer":0,
			"byteLength":288,
			"byteOffset":288,
			"target":34962
		},
		{
			"buffer":0,
			"byteLength":192,
			"byteOffset":576,
			"target":34962
		},
		{
			"buffer":0,
			"byteLength":72,
			"byteOffset":768,
			"target":34963
		},
		{
			"buffer":0,
			"byteLength":288,
			"byteOffset":840,
			"target":34962
		},
		{
			"buffer":0,
			"byteLength":288,
			"byteOffset":1128,
			"target":34962
		},
		{
			"buffer":0,
			"byteLength":192,
			"byteOffset":1416,
			"target":34962
		},
		{
			"buffer":0,
			"byteLength":288,
			"byteOffset":1608,
			"target":34962
		},
		{
			"buffer":0,
			"byteLength":288,
			"byteOffset":1896,
			"target":34962
		},
		{
			"buffer":0,
			"byteLength":192,
			"byteOffset":2184,
			"target":34962
		},
		{
			"buffer":0,
			"byteLength":288,
			"byteOffset":2376,
			"target":34962
		},
		{
			"buffer":0,
			"byteLength":288,
			"byteOffset":2664,
			"target":34962
		},
		{
			"buffer":0,
			"byteLength":192,
			"byteOffset":2952,
			"target":34962
		},
		{
			"buffer":0,
			"byteLength":288,
			"byteOffset":3144,
			"target":34962
		},
		{
			"buffer":0,
			"byteLength":288,
			"byteOffset":3432,
			"target":34962
		},
		{
			"buffer":0,
			"byteLength":192,
			"byteOffset":3720,
			"target":34962
		},
		{
			"buffer":0,
			"byteLength":288,
			"byteOffset":3912,
			"target":34962
		},
		{
			"buffer":0,
			"byteLength":288,
			"byteOffset":4200,
			"target":34962
		},
		{
			"buffer":0,
			"byteLength":192,
			"byteOffset":4488,
			"target":34962
		},
		{
			"buffer":0,
			"byteLength":288,
			"byteOffset":4680,
			"target":34962
		},
		{
			"buffer":0,
			"byteLength":288,
			"byteOffset":4968,
			"target":34962
		},
		{
			"buffer":0,
			"byteLength":192,
			"byteOffset":5256,
			"target":34962
		},
		{
			"buffer":0,
			"byteLength":288,
			"byteOffset":5448,
			"target":34962
		},
		{
			"buffer":0,
			"byteLength":288,
			"byteOffset":5736,
			"target":34962
		},
		{
			"buffer":0,
			"byteLength":192,
			"byteOffset":6024,
			"target":34962
		},
		{
			"buffer":0,
			"byteLength":288,
			"byteOffset":6216,
			"target":34962
		},
		{
			"buffer":0,
			"byteLength":288,
			"byteOffset":6504,
			"target":34962
		},
		{
			"buffer":0,
			"byteLength":192,
			"byteOffset":6792,
			"target":34962
		},
		{
			"buffer":0,
			"byteLength":14856,
			"byteOffset":6984,
			"target":34962
		},
		{
			"buffer":0,
			"byteLength":14856,
			"byteOffset":21840,
			"target":34962
		},
		{
			"buffer":0,
			"byteLength":9904,
			"byteOffset":36696,
			"target":34962
		},
		{
			"buffer":0,
			"byteLength":11232,
			"byteOffset":46600,
			"target":34963
		}
	],
	"samplers":[
		{
			"magFilter":9729,
			"minFilter":9987
		}
	],
	"buffers":[
		{
			"byteLength":57832,
			"uri":"rock_collection_rockFormation06.bin"
		}
	]
}
