{
	"asset":{
		"generator":"Khronos glTF Blender I/O v3.6.28",
		"version":"2.0"
	},
	"extensionsUsed":[
		"KHR_materials_specular",
		"KHR_materials_ior"
	],
	"scene":0,
	"scenes":[
		{
			"extras":{
				"xol_link_apps":[
					{
						"id":52251,
						"port":"52251",
						"type":"BLD",
						"label":"Blender Foundation - Blender"
					},
					{
						"id":53466,
						"port":"53466",
						"type":"BLD",
						"label":"Blender Foundation - Blender"
					},
					{
						"id":53637,
						"port":"53637",
						"type":"BLD",
						"label":"Blender Foundation - Blender"
					},
					{
						"id":54884,
						"port":"54884",
						"type":"BLD",
						"label":"Blender Foundation - Blender"
					},
					{
						"id":58392,
						"port":"58392",
						"type":"BLD",
						"label":"Blender Foundation - Blender"
					}
				],
				"xol_link_apps_list":0
			},
			"name":"Scene",
			"nodes":[
				4
			]
		}
	],
	"nodes":[
		{
			"extras":{
				"xrengine.entity":"collider_shape",
				"xrengine.EE_collider.shape":"box"
			},
			"mesh":0,
			"name":"colliderShape.096",
			"scale":[
				0.004023131914436817,
				0.004023131914436817,
				0.004023131914436817
			]
		},
		{
			"extras":{
				"currentUVSet":"map1"
			},
			"mesh":1,
			"name":"Stone_J"
		},
		{
			"children":[
				1
			],
			"name":"RT_Foliage_Stones.009"
		},
		{
			"children":[
				2
			],
			"name":"Export_Ready.031",
			"rotation":[
				0.7071067690849304,
				0,
				0,
				0.7071068286895752
			],
			"scale":[
				-0.003637002781033516,
				-0.003637002781033516,
				-0.003637002781033516
			]
		},
		{
			"children":[
				0,
				3
			],
			"extras":{
				"xrengine.entity":"rbd_cliff",
				"xrengine.EE_rigidbody.type":"fixed"
			},
			"name":"rockStone_parentContainer01.010",
			"scale":[
				-2.7495172023773193,
				-2.7495172023773193,
				-2.7495172023773193
			]
		}
	],
	"materials":[
		{
			"doubleSided":true,
			"extensions":{
				"KHR_materials_specular":{
					"specularColorFactor":[
						0.11672485483851533,
						0.11672485483851533,
						0.11672485483851533
					]
				},
				"KHR_materials_ior":{
					"ior":1.4500000476837158
				}
			},
			"name":"rocks_collection",
			"normalTexture":{
				"index":0
			},
			"pbrMetallicRoughness":{
				"baseColorTexture":{
					"index":1
				},
				"metallicFactor":0,
				"metallicRoughnessTexture":{
					"index":2
				}
			}
		}
	],
	"meshes":[
		{
			"name":"Cube.104",
			"primitives":[
				{
					"attributes":{
						"POSITION":0,
						"NORMAL":1,
						"TEXCOORD_0":2
					},
					"indices":3
				}
			]
		},
		{
			"name":"Mesh.031",
			"primitives":[
				{
					"attributes":{
						"POSITION":4,
						"NORMAL":5,
						"TEXCOORD_0":6
					},
					"indices":7,
					"material":0
				}
			]
		}
	],
	"textures":[
		{
			"sampler":0,
			"source":0
		},
		{
			"sampler":0,
			"source":1
		},
		{
			"sampler":0,
			"source":2
		}
	],
	"images":[
		{
			"mimeType":"image/png",
			"name":"Rock_Collection_IR_Rocks_Grp_01_Normal",
			"uri":"Rock_Collection_IR_Rocks_Grp_01_Normal.png"
		},
		{
			"mimeType":"image/png",
			"name":"Rock_Collection_IR_Rocks_Grp_01_BaseColor",
			"uri":"Rock_Collection_IR_Rocks_Grp_01_BaseColor.png"
		},
		{
			"mimeType":"image/png",
			"name":"Rock_Collection_IR_Rocks_Grp_01_Roughness",
			"uri":"Rock_Collection_IR_Rocks_Grp_01_Roughness.png"
		}
	],
	"accessors":[
		{
			"bufferView":0,
			"componentType":5126,
			"count":24,
			"max":[
				1,
				1,
				1
			],
			"min":[
				-1,
				-1,
				-1
			],
			"type":"VEC3"
		},
		{
			"bufferView":1,
			"componentType":5126,
			"count":24,
			"type":"VEC3"
		},
		{
			"bufferView":2,
			"componentType":5126,
			"count":24,
			"type":"VEC2"
		},
		{
			"bufferView":3,
			"componentType":5123,
			"count":36,
			"type":"SCALAR"
		},
		{
			"bufferView":4,
			"componentType":5126,
			"count":10,
			"max":[
				1.6490135192871094,
				1.4253082275390625,
				1.2021126747131348
			],
			"min":[
				-1.649017333984375,
				-1.4252967834472656,
				-1.2021126747131348
			],
			"type":"VEC3"
		},
		{
			"bufferView":5,
			"componentType":5126,
			"count":10,
			"type":"VEC3"
		},
		{
			"bufferView":6,
			"componentType":5126,
			"count":10,
			"type":"VEC2"
		},
		{
			"bufferView":7,
			"componentType":5123,
			"count":42,
			"type":"SCALAR"
		}
	],
	"bufferViews":[
		{
			"buffer":0,
			"byteLength":288,
			"byteOffset":0,
			"target":34962
		},
		{
			"buffer":0,
			"byteLength":288,
			"byteOffset":288,
			"target":34962
		},
		{
			"buffer":0,
			"byteLength":192,
			"byteOffset":576,
			"target":34962
		},
		{
			"buffer":0,
			"byteLength":72,
			"byteOffset":768,
			"target":34963
		},
		{
			"buffer":0,
			"byteLength":120,
			"byteOffset":840,
			"target":34962
		},
		{
			"buffer":0,
			"byteLength":120,
			"byteOffset":960,
			"target":34962
		},
		{
			"buffer":0,
			"byteLength":80,
			"byteOffset":1080,
			"target":34962
		},
		{
			"buffer":0,
			"byteLength":84,
			"byteOffset":1160,
			"target":34963
		}
	],
	"samplers":[
		{
			"magFilter":9729,
			"minFilter":9987
		}
	],
	"buffers":[
		{
			"byteLength":1244,
			"uri":"rock_collection_rock_stone010.bin"
		}
	]
}
