{
    "asset" : {
        "generator" : "Khronos glTF Blender I/O v3.2.43",
        "version" : "2.0"
    },
    "scene" : 0,
    "scenes" : [
        {
            "name" : "Scene",
            "nodes" : [
                0
            ]
        }
    ],
    "nodes" : [
        {
            "mesh" : 0,
            "name" : "desert_shrub_03",
            "rotation" : [
                0.7071068286895752,
                0,
                0,
                0.7071067094802856
            ],
            "scale" : [
                0.4969978630542755,
                0.4969978630542755,
                0.4969978630542755
            ]
        }
    ],
    "materials" : [
        {
            "doubleSided" : true,
            "name" : "desert",
            "pbrMetallicRoughness" : {
                "baseColorTexture" : {
                    "index" : 0
                },
                "metallicFactor" : 0,
                "roughnessFactor" : 0.4000000059604645
            }
        }
    ],
    "meshes" : [
        {
            "name" : "shrub_02_d_LOD0",
            "primitives" : [
                {
                    "attributes" : {
                        "POSITION" : 0,
                        "NORMAL" : 1,
                        "TEXCOORD_0" : 2
                    },
                    "indices" : 3,
                    "material" : 0
                }
            ]
        }
    ],
    "textures" : [
        {
            "sampler" : 0,
            "source" : 0
        }
    ],
    "images" : [
        {
            "mimeType" : "image/png",
            "name" : "nature_desert_diffuse",
            "uri" : "nature_desert_diffuse.png"
        }
    ],
    "accessors" : [
        {
            "bufferView" : 0,
            "componentType" : 5126,
            "count" : 7542,
            "max" : [
                25.394699096679688,
                -5.4156999588012695,
                0.28360000252723694
            ],
            "min" : [
                18.53969955444336,
                -12.615300178527832,
                -7.607399940490723
            ],
            "type" : "VEC3"
        },
        {
            "bufferView" : 1,
            "componentType" : 5126,
            "count" : 7542,
            "type" : "VEC3"
        },
        {
            "bufferView" : 2,
            "componentType" : 5126,
            "count" : 7542,
            "type" : "VEC2"
        },
        {
            "bufferView" : 3,
            "componentType" : 5123,
            "count" : 10932,
            "type" : "SCALAR"
        }
    ],
    "bufferViews" : [
        {
            "buffer" : 0,
            "byteLength" : 90504,
            "byteOffset" : 0
        },
        {
            "buffer" : 0,
            "byteLength" : 90504,
            "byteOffset" : 90504
        },
        {
            "buffer" : 0,
            "byteLength" : 60336,
            "byteOffset" : 181008
        },
        {
            "buffer" : 0,
            "byteLength" : 21864,
            "byteOffset" : 241344
        }
    ],
    "samplers" : [
        {
            "magFilter" : 9729,
            "minFilter" : 9987
        }
    ],
    "buffers" : [
        {
            "byteLength" : 263208,
            "uri" : "desert_shrub_03.bin"
        }
    ]
}
