{
    "asset" : {
        "generator" : "Khronos glTF Blender I/O v3.2.43",
        "version" : "2.0"
    },
    "scene" : 0,
    "scenes" : [
        {
            "name" : "Scene",
            "nodes" : [
                0
            ]
        }
    ],
    "nodes" : [
        {
            "mesh" : 0,
            "name" : "desert_shrub_01",
            "rotation" : [
                0.7071068286895752,
                0,
                0,
                0.7071067094802856
            ],
            "scale" : [
                0.4969978630542755,
                0.4969978630542755,
                0.4969978630542755
            ]
        }
    ],
    "materials" : [
        {
            "doubleSided" : true,
            "name" : "desert",
            "pbrMetallicRoughness" : {
                "baseColorTexture" : {
                    "index" : 0
                },
                "metallicFactor" : 0,
                "roughnessFactor" : 0.4000000059604645
            }
        }
    ],
    "meshes" : [
        {
            "name" : "Object004",
            "primitives" : [
                {
                    "attributes" : {
                        "POSITION" : 0,
                        "NORMAL" : 1,
                        "TEXCOORD_0" : 2
                    },
                    "indices" : 3,
                    "material" : 0
                }
            ]
        }
    ],
    "textures" : [
        {
            "sampler" : 0,
            "source" : 0
        }
    ],
    "images" : [
        {
            "mimeType" : "image/png",
            "name" : "nature_desert_diffuse",
            "uri" : "nature_desert_diffuse.png"
        }
    ],
    "accessors" : [
        {
            "bufferView" : 0,
            "componentType" : 5126,
            "count" : 10863,
            "max" : [
                26.615100860595703,
                15.399999618530273,
                0.7501999735832214
            ],
            "min" : [
                18.000499725341797,
                6.701700210571289,
                -9.539299964904785
            ],
            "type" : "VEC3"
        },
        {
            "bufferView" : 1,
            "componentType" : 5126,
            "count" : 10863,
            "type" : "VEC3"
        },
        {
            "bufferView" : 2,
            "componentType" : 5126,
            "count" : 10863,
            "type" : "VEC2"
        },
        {
            "bufferView" : 3,
            "componentType" : 5123,
            "count" : 15789,
            "type" : "SCALAR"
        }
    ],
    "bufferViews" : [
        {
            "buffer" : 0,
            "byteLength" : 130356,
            "byteOffset" : 0
        },
        {
            "buffer" : 0,
            "byteLength" : 130356,
            "byteOffset" : 130356
        },
        {
            "buffer" : 0,
            "byteLength" : 86904,
            "byteOffset" : 260712
        },
        {
            "buffer" : 0,
            "byteLength" : 31578,
            "byteOffset" : 347616
        }
    ],
    "samplers" : [
        {
            "magFilter" : 9729,
            "minFilter" : 9987
        }
    ],
    "buffers" : [
        {
            "byteLength" : 379196,
            "uri" : "desert_shrub_01.bin"
        }
    ]
}
