{
	"asset":{
		"generator":"Khronos glTF Blender I/O v3.6.28",
		"version":"2.0"
	},
	"extensionsUsed":[
		"KHR_materials_specular"
	],
	"scene":0,
	"scenes":[
		{
			"extras":{
				"xol_link_apps":[],
				"xol_link_apps_list":0
			},
			"name":"Scene",
			"nodes":[
				5
			]
		}
	],
	"nodes":[
		{
			"extras":{
				"xrengine.entity":"colliderShape",
				"xrengine.EE_collider.shape":"box"
			},
			"mesh":0,
			"name":"Cube.002",
			"scale":[
				0.381219744682312,
				0.22449113428592682,
				0.3230781555175781
			],
			"translation":[
				0.005139946937561035,
				0.25036948919296265,
				0.10672564804553986
			]
		},
		{
			"mesh":1,
			"name":"material1.013",
			"rotation":[
				0.044927261769771576,
				0.21292145550251007,
				0.11061904579401016,
				0.9697471857070923
			],
			"scale":[
				0.7638596296310425,
				0.8357872366905212,
				0.637763500213623
			],
			"translation":[
				-0.14719848334789276,
				0.2794199287891388,
				0.018250830471515656
			]
		},
		{
			"children":[
				1
			],
			"name":"piece0.001"
		},
		{
			"mesh":2,
			"name":"material1.014",
			"rotation":[
				0.006221558433026075,
				0.9934932589530945,
				0.04716232419013977,
				0.10348023474216461
			],
			"scale":[
				0.5102687478065491,
				0.5111678838729858,
				0.6150142550468445
			],
			"translation":[
				0.12869961559772491,
				0.2664230465888977,
				0.1408163160085678
			]
		},
		{
			"children":[
				3
			],
			"name":"piece2.001"
		},
		{
			"children":[
				0,
				2,
				4
			],
			"extras":{
				"xrengine.entity":"stump02_rbd",
				"xrengine.EE_rigidbody.type":"fixed"
			},
			"mesh":3,
			"name":"abstract_stump_02"
		}
	],
	"materials":[
		{
			"name":"stylized_nature.012",
			"pbrMetallicRoughness":{
				"baseColorTexture":{
					"index":0
				},
				"metallicFactor":0,
				"metallicRoughnessTexture":{
					"index":1
				},
				"roughnessFactor":0.9049999713897705
			}
		},
		{
			"name":"stylized_nature.013",
			"pbrMetallicRoughness":{
				"baseColorTexture":{
					"index":2
				},
				"metallicFactor":0,
				"metallicRoughnessTexture":{
					"index":3
				},
				"roughnessFactor":0.9049999713897705
			}
		},
		{
			"extensions":{
				"KHR_materials_specular":{
					"specularColorTexture":{
						"index":4
					}
				}
			},
			"name":"stylized_nature",
			"pbrMetallicRoughness":{
				"baseColorTexture":{
					"index":5
				},
				"metallicFactor":0,
				"roughnessFactor":0.4119170904159546
			}
		}
	],
	"meshes":[
		{
			"name":"Cube.002",
			"primitives":[
				{
					"attributes":{
						"POSITION":0,
						"NORMAL":1,
						"TEXCOORD_0":2
					},
					"indices":3
				}
			]
		},
		{
			"name":"material1.013",
			"primitives":[
				{
					"attributes":{
						"POSITION":4,
						"NORMAL":5,
						"TEXCOORD_0":6
					},
					"indices":7,
					"material":0
				}
			]
		},
		{
			"name":"material1.014",
			"primitives":[
				{
					"attributes":{
						"POSITION":8,
						"NORMAL":9,
						"TEXCOORD_0":10
					},
					"indices":11,
					"material":1
				}
			]
		},
		{
			"name":"material1.012",
			"primitives":[
				{
					"attributes":{
						"POSITION":12,
						"NORMAL":13,
						"TEXCOORD_0":14
					},
					"indices":15,
					"material":2
				}
			]
		}
	],
	"textures":[
		{
			"sampler":0,
			"source":0
		},
		{
			"sampler":0,
			"source":1
		},
		{
			"sampler":0,
			"source":0
		},
		{
			"sampler":0,
			"source":1
		},
		{
			"sampler":0,
			"source":2
		},
		{
			"sampler":0,
			"source":0
		}
	],
	"images":[
		{
			"mimeType":"image/png",
			"name":"stylized_forest_diffuse",
			"uri":"stylized_forest_diffuse.png"
		},
		{
			"mimeType":"image/png",
			"name":".png",
			"uri":".png"
		},
		{
			"mimeType":"image/png",
			"name":"Image",
			"uri":"Image.png"
		}
	],
	"accessors":[
		{
			"bufferView":0,
			"componentType":5126,
			"count":24,
			"max":[
				1,
				1,
				1
			],
			"min":[
				-1,
				-1,
				-1
			],
			"type":"VEC3"
		},
		{
			"bufferView":1,
			"componentType":5126,
			"count":24,
			"type":"VEC3"
		},
		{
			"bufferView":2,
			"componentType":5126,
			"count":24,
			"type":"VEC2"
		},
		{
			"bufferView":3,
			"componentType":5123,
			"count":36,
			"type":"SCALAR"
		},
		{
			"bufferView":4,
			"componentType":5126,
			"count":2464,
			"max":[
				0.3663400113582611,
				0.2382199764251709,
				0.33769500255584717
			],
			"min":[
				-0.3663400113582611,
				-0.23822003602981567,
				-0.33769500255584717
			],
			"type":"VEC3"
		},
		{
			"bufferView":5,
			"componentType":5126,
			"count":2464,
			"type":"VEC3"
		},
		{
			"bufferView":6,
			"componentType":5126,
			"count":2464,
			"type":"VEC2"
		},
		{
			"bufferView":7,
			"componentType":5123,
			"count":7260,
			"type":"SCALAR"
		},
		{
			"bufferView":8,
			"componentType":5126,
			"count":3225,
			"max":[
				0.5018900632858276,
				0.3400000333786011,
				0.47723501920700073
			],
			"min":[
				-0.5018900632858276,
				-0.3399999737739563,
				-0.47723501920700073
			],
			"type":"VEC3"
		},
		{
			"bufferView":9,
			"componentType":5126,
			"count":3225,
			"type":"VEC3"
		},
		{
			"bufferView":10,
			"componentType":5126,
			"count":3225,
			"type":"VEC2"
		},
		{
			"bufferView":11,
			"componentType":5123,
			"count":9654,
			"type":"SCALAR"
		},
		{
			"bufferView":12,
			"componentType":5126,
			"count":163,
			"max":[
				0.22583352029323578,
				0.40234827995300293,
				0.16018426418304443
			],
			"min":[
				-0.21519821882247925,
				0.004113063216209412,
				-0.15156087279319763
			],
			"type":"VEC3"
		},
		{
			"bufferView":13,
			"componentType":5126,
			"count":163,
			"type":"VEC3"
		},
		{
			"bufferView":14,
			"componentType":5126,
			"count":163,
			"type":"VEC2"
		},
		{
			"bufferView":15,
			"componentType":5123,
			"count":576,
			"type":"SCALAR"
		}
	],
	"bufferViews":[
		{
			"buffer":0,
			"byteLength":288,
			"byteOffset":0,
			"target":34962
		},
		{
			"buffer":0,
			"byteLength":288,
			"byteOffset":288,
			"target":34962
		},
		{
			"buffer":0,
			"byteLength":192,
			"byteOffset":576,
			"target":34962
		},
		{
			"buffer":0,
			"byteLength":72,
			"byteOffset":768,
			"target":34963
		},
		{
			"buffer":0,
			"byteLength":29568,
			"byteOffset":840,
			"target":34962
		},
		{
			"buffer":0,
			"byteLength":29568,
			"byteOffset":30408,
			"target":34962
		},
		{
			"buffer":0,
			"byteLength":19712,
			"byteOffset":59976,
			"target":34962
		},
		{
			"buffer":0,
			"byteLength":14520,
			"byteOffset":79688,
			"target":34963
		},
		{
			"buffer":0,
			"byteLength":38700,
			"byteOffset":94208,
			"target":34962
		},
		{
			"buffer":0,
			"byteLength":38700,
			"byteOffset":132908,
			"target":34962
		},
		{
			"buffer":0,
			"byteLength":25800,
			"byteOffset":171608,
			"target":34962
		},
		{
			"buffer":0,
			"byteLength":19308,
			"byteOffset":197408,
			"target":34963
		},
		{
			"buffer":0,
			"byteLength":1956,
			"byteOffset":216716,
			"target":34962
		},
		{
			"buffer":0,
			"byteLength":1956,
			"byteOffset":218672,
			"target":34962
		},
		{
			"buffer":0,
			"byteLength":1304,
			"byteOffset":220628,
			"target":34962
		},
		{
			"buffer":0,
			"byteLength":1152,
			"byteOffset":221932,
			"target":34963
		}
	],
	"samplers":[
		{
			"magFilter":9729,
			"minFilter":9987
		}
	],
	"buffers":[
		{
			"byteLength":223084,
			"uri":"abstract_nature_stump_02.bin"
		}
	]
}
