{
	"asset":{
		"generator":"Khronos glTF Blender I/O v3.6.28",
		"version":"2.0"
	},
	"extensionsUsed":[
		"KHR_materials_specular"
	],
	"scene":0,
	"scenes":[
		{
			"extras":{
				"xol_link_apps":[],
				"xol_link_apps_list":0
			},
			"name":"Scene",
			"nodes":[
				1
			]
		}
	],
	"nodes":[
		{
			"extras":{
				"xrengine.entity":"colliderShape",
				"xrengine.EE_collider.shape":"box"
			},
			"mesh":0,
			"name":"Cube",
			"scale":[
				0.37076470255851746,
				0.23194868862628937,
				0.43578019738197327
			],
			"translation":[
				-0.13650143146514893,
				0.24722808599472046,
				0.02801918238401413
			]
		},
		{
			"children":[
				0
			],
			"extras":{
				"xrengine.entity":"stump01_rbd",
				"xrengine.EE_rigidbody.type":"fixed"
			},
			"mesh":1,
			"name":"abstract_stump_01"
		}
	],
	"materials":[
		{
			"extensions":{
				"KHR_materials_specular":{
					"specularColorTexture":{
						"index":0
					}
				}
			},
			"name":"stylized_nature",
			"pbrMetallicRoughness":{
				"baseColorTexture":{
					"index":1
				},
				"metallicFactor":0,
				"roughnessFactor":0.4119170904159546
			}
		}
	],
	"meshes":[
		{
			"name":"Cube",
			"primitives":[
				{
					"attributes":{
						"POSITION":0,
						"NORMAL":1,
						"TEXCOORD_0":2
					},
					"indices":3
				}
			]
		},
		{
			"name":"material1.011",
			"primitives":[
				{
					"attributes":{
						"POSITION":4,
						"NORMAL":5,
						"TEXCOORD_0":6
					},
					"indices":7,
					"material":0
				}
			]
		}
	],
	"textures":[
		{
			"sampler":0,
			"source":0
		},
		{
			"sampler":0,
			"source":1
		}
	],
	"images":[
		{
			"mimeType":"image/png",
			"name":"Image",
			"uri":"Image.png"
		},
		{
			"mimeType":"image/png",
			"name":"stylized_forest_diffuse",
			"uri":"stylized_forest_diffuse.png"
		}
	],
	"accessors":[
		{
			"bufferView":0,
			"componentType":5126,
			"count":24,
			"max":[
				1,
				1,
				1
			],
			"min":[
				-1,
				-1,
				-1
			],
			"type":"VEC3"
		},
		{
			"bufferView":1,
			"componentType":5126,
			"count":24,
			"type":"VEC3"
		},
		{
			"bufferView":2,
			"componentType":5126,
			"count":24,
			"type":"VEC2"
		},
		{
			"bufferView":3,
			"componentType":5123,
			"count":36,
			"type":"SCALAR"
		},
		{
			"bufferView":4,
			"componentType":5126,
			"count":2540,
			"max":[
				0.265418142080307,
				0.5567406415939331,
				0.43347978591918945
			],
			"min":[
				-0.5274443030357361,
				-0.0019640037789940834,
				-0.3854483664035797
			],
			"type":"VEC3"
		},
		{
			"bufferView":5,
			"componentType":5126,
			"count":2540,
			"type":"VEC3"
		},
		{
			"bufferView":6,
			"componentType":5126,
			"count":2540,
			"type":"VEC2"
		},
		{
			"bufferView":7,
			"componentType":5123,
			"count":7482,
			"type":"SCALAR"
		}
	],
	"bufferViews":[
		{
			"buffer":0,
			"byteLength":288,
			"byteOffset":0,
			"target":34962
		},
		{
			"buffer":0,
			"byteLength":288,
			"byteOffset":288,
			"target":34962
		},
		{
			"buffer":0,
			"byteLength":192,
			"byteOffset":576,
			"target":34962
		},
		{
			"buffer":0,
			"byteLength":72,
			"byteOffset":768,
			"target":34963
		},
		{
			"buffer":0,
			"byteLength":30480,
			"byteOffset":840,
			"target":34962
		},
		{
			"buffer":0,
			"byteLength":30480,
			"byteOffset":31320,
			"target":34962
		},
		{
			"buffer":0,
			"byteLength":20320,
			"byteOffset":61800,
			"target":34962
		},
		{
			"buffer":0,
			"byteLength":14964,
			"byteOffset":82120,
			"target":34963
		}
	],
	"samplers":[
		{
			"magFilter":9729,
			"minFilter":9987
		}
	],
	"buffers":[
		{
			"byteLength":97084,
			"uri":"abstract_nature_stump_01.bin"
		}
	]
}
