{
	"asset":{
		"generator":"Khronos glTF Blender I/O v3.6.28",
		"version":"2.0"
	},
	"extensionsUsed":[
		"KHR_materials_specular"
	],
	"scene":0,
	"scenes":[
		{
			"extras":{
				"xol_link_apps":[],
				"xol_link_apps_list":0
			},
			"name":"Scene",
			"nodes":[
				2
			]
		}
	],
	"nodes":[
		{
			"extras":{
				"xrengine.entity":"colliderShape",
				"xrengine.EE_collider.shape":"box"
			},
			"mesh":0,
			"name":"Cube.009",
			"scale":[
				0.16843082010746002,
				0.5343727469444275,
				0.16788522899150848
			],
			"translation":[
				-0.2799321413040161,
				0.6417181491851807,
				-0.017549626529216766
			]
		},
		{
			"extras":{
				"xrengine.entity":"colliderShape",
				"xrengine.EE_collider.shape":"box"
			},
			"mesh":1,
			"name":"Cube.010",
			"scale":[
				0.3998261094093323,
				0.11666275560855865,
				0.3233126103878021
			],
			"translation":[
				-0.2799321413040161,
				0.09035217761993408,
				0.042061325162649155
			]
		},
		{
			"children":[
				0,
				1
			],
			"extras":{
				"xrengine.entity":"tree04_rbd",
				"xrengine.EE_rigidbody.type":"fixed"
			},
			"mesh":2,
			"name":"abstract_tree_04"
		}
	],
	"materials":[
		{
			"extensions":{
				"KHR_materials_specular":{
					"specularColorTexture":{
						"index":0
					}
				}
			},
			"name":"stylized_nature",
			"pbrMetallicRoughness":{
				"baseColorTexture":{
					"index":1
				},
				"metallicFactor":0,
				"roughnessFactor":0.4119170904159546
			}
		}
	],
	"meshes":[
		{
			"name":"Cube.009",
			"primitives":[
				{
					"attributes":{
						"POSITION":0,
						"NORMAL":1,
						"TEXCOORD_0":2
					},
					"indices":3
				}
			]
		},
		{
			"name":"Cube.010",
			"primitives":[
				{
					"attributes":{
						"POSITION":4,
						"NORMAL":5,
						"TEXCOORD_0":6
					},
					"indices":3
				}
			]
		},
		{
			"name":"material1.008",
			"primitives":[
				{
					"attributes":{
						"POSITION":7,
						"NORMAL":8,
						"TEXCOORD_0":9
					},
					"indices":10,
					"material":0
				}
			]
		}
	],
	"textures":[
		{
			"sampler":0,
			"source":0
		},
		{
			"sampler":0,
			"source":1
		}
	],
	"images":[
		{
			"mimeType":"image/png",
			"name":"Image",
			"uri":"Image.png"
		},
		{
			"mimeType":"image/png",
			"name":"stylized_forest_diffuse",
			"uri":"stylized_forest_diffuse.png"
		}
	],
	"accessors":[
		{
			"bufferView":0,
			"componentType":5126,
			"count":24,
			"max":[
				1,
				1,
				1
			],
			"min":[
				-1,
				-1,
				-1
			],
			"type":"VEC3"
		},
		{
			"bufferView":1,
			"componentType":5126,
			"count":24,
			"type":"VEC3"
		},
		{
			"bufferView":2,
			"componentType":5126,
			"count":24,
			"type":"VEC2"
		},
		{
			"bufferView":3,
			"componentType":5123,
			"count":36,
			"type":"SCALAR"
		},
		{
			"bufferView":4,
			"componentType":5126,
			"count":24,
			"max":[
				1,
				1,
				1
			],
			"min":[
				-1,
				-1,
				-1
			],
			"type":"VEC3"
		},
		{
			"bufferView":5,
			"componentType":5126,
			"count":24,
			"type":"VEC3"
		},
		{
			"bufferView":6,
			"componentType":5126,
			"count":24,
			"type":"VEC2"
		},
		{
			"bufferView":7,
			"componentType":5126,
			"count":15461,
			"max":[
				0.4291701912879944,
				2.012425184249878,
				0.97084641456604
			],
			"min":[
				-0.7058867812156677,
				-0.0005262200720608234,
				-1.0108277797698975
			],
			"type":"VEC3"
		},
		{
			"bufferView":8,
			"componentType":5126,
			"count":15461,
			"type":"VEC3"
		},
		{
			"bufferView":9,
			"componentType":5126,
			"count":15461,
			"type":"VEC2"
		},
		{
			"bufferView":10,
			"componentType":5123,
			"count":48894,
			"type":"SCALAR"
		}
	],
	"bufferViews":[
		{
			"buffer":0,
			"byteLength":288,
			"byteOffset":0,
			"target":34962
		},
		{
			"buffer":0,
			"byteLength":288,
			"byteOffset":288,
			"target":34962
		},
		{
			"buffer":0,
			"byteLength":192,
			"byteOffset":576,
			"target":34962
		},
		{
			"buffer":0,
			"byteLength":72,
			"byteOffset":768,
			"target":34963
		},
		{
			"buffer":0,
			"byteLength":288,
			"byteOffset":840,
			"target":34962
		},
		{
			"buffer":0,
			"byteLength":288,
			"byteOffset":1128,
			"target":34962
		},
		{
			"buffer":0,
			"byteLength":192,
			"byteOffset":1416,
			"target":34962
		},
		{
			"buffer":0,
			"byteLength":185532,
			"byteOffset":1608,
			"target":34962
		},
		{
			"buffer":0,
			"byteLength":185532,
			"byteOffset":187140,
			"target":34962
		},
		{
			"buffer":0,
			"byteLength":123688,
			"byteOffset":372672,
			"target":34962
		},
		{
			"buffer":0,
			"byteLength":97788,
			"byteOffset":496360,
			"target":34963
		}
	],
	"samplers":[
		{
			"magFilter":9729,
			"minFilter":9987
		}
	],
	"buffers":[
		{
			"byteLength":594148,
			"uri":"abstract_nature_tree_04.bin"
		}
	]
}
