{
	"asset":{
		"generator":"Khronos glTF Blender I/O v3.6.28",
		"version":"2.0"
	},
	"extensionsUsed":[
		"KHR_materials_specular"
	],
	"scene":0,
	"scenes":[
		{
			"extras":{
				"xol_link_apps":[],
				"xol_link_apps_list":0
			},
			"name":"Scene",
			"nodes":[
				2
			]
		}
	],
	"nodes":[
		{
			"extras":{
				"xrengine.entity":"colliderShape",
				"xrengine.EE_collider.shape":"box"
			},
			"mesh":0,
			"name":"Cube.005",
			"scale":[
				0.46317198872566223,
				0.14406928420066833,
				0.5443915724754333
			],
			"translation":[
				0.1647433489561081,
				0.12869349122047424,
				0.373922199010849
			]
		},
		{
			"extras":{
				"xrengine.entity":"colliderShape",
				"xrengine.EE_collider.shape":"box"
			},
			"mesh":1,
			"name":"Cube.006",
			"scale":[
				0.2613235116004944,
				0.861315131187439,
				0.26980704069137573
			],
			"translation":[
				0.1987532377243042,
				1.0169100761413574,
				0.3350656032562256
			]
		},
		{
			"children":[
				0,
				1
			],
			"extras":{
				"xrengine.entity":"tree02_rbd",
				"xrengine.EE_rigidbody.type":"fixed"
			},
			"mesh":2,
			"name":"abstract_tree_02"
		}
	],
	"materials":[
		{
			"extensions":{
				"KHR_materials_specular":{
					"specularColorTexture":{
						"index":0
					}
				}
			},
			"name":"stylized_nature",
			"pbrMetallicRoughness":{
				"baseColorTexture":{
					"index":1
				},
				"metallicFactor":0,
				"roughnessFactor":0.4119170904159546
			}
		}
	],
	"meshes":[
		{
			"name":"Cube.005",
			"primitives":[
				{
					"attributes":{
						"POSITION":0,
						"NORMAL":1,
						"TEXCOORD_0":2
					},
					"indices":3
				}
			]
		},
		{
			"name":"Cube.006",
			"primitives":[
				{
					"attributes":{
						"POSITION":4,
						"NORMAL":5,
						"TEXCOORD_0":6
					},
					"indices":3
				}
			]
		},
		{
			"name":"material1.006",
			"primitives":[
				{
					"attributes":{
						"POSITION":7,
						"NORMAL":8,
						"TEXCOORD_0":9
					},
					"indices":10,
					"material":0
				}
			]
		}
	],
	"textures":[
		{
			"sampler":0,
			"source":0
		},
		{
			"sampler":0,
			"source":1
		}
	],
	"images":[
		{
			"mimeType":"image/png",
			"name":"Image",
			"uri":"Image.png"
		},
		{
			"mimeType":"image/png",
			"name":"stylized_forest_diffuse",
			"uri":"stylized_forest_diffuse.png"
		}
	],
	"accessors":[
		{
			"bufferView":0,
			"componentType":5126,
			"count":24,
			"max":[
				1,
				1,
				1
			],
			"min":[
				-1,
				-1,
				-1
			],
			"type":"VEC3"
		},
		{
			"bufferView":1,
			"componentType":5126,
			"count":24,
			"type":"VEC3"
		},
		{
			"bufferView":2,
			"componentType":5126,
			"count":24,
			"type":"VEC2"
		},
		{
			"bufferView":3,
			"componentType":5123,
			"count":36,
			"type":"SCALAR"
		},
		{
			"bufferView":4,
			"componentType":5126,
			"count":24,
			"max":[
				1,
				1,
				1
			],
			"min":[
				-1,
				-1,
				-1
			],
			"type":"VEC3"
		},
		{
			"bufferView":5,
			"componentType":5126,
			"count":24,
			"type":"VEC3"
		},
		{
			"bufferView":6,
			"componentType":5126,
			"count":24,
			"type":"VEC2"
		},
		{
			"bufferView":7,
			"componentType":5126,
			"count":18485,
			"max":[
				0.8515092134475708,
				2.9406943321228027,
				1.3243482112884521
			],
			"min":[
				-1.0865988731384277,
				-0.0016099953791126609,
				-1.1718945503234863
			],
			"type":"VEC3"
		},
		{
			"bufferView":8,
			"componentType":5126,
			"count":18485,
			"type":"VEC3"
		},
		{
			"bufferView":9,
			"componentType":5126,
			"count":18485,
			"type":"VEC2"
		},
		{
			"bufferView":10,
			"componentType":5123,
			"count":63939,
			"type":"SCALAR"
		}
	],
	"bufferViews":[
		{
			"buffer":0,
			"byteLength":288,
			"byteOffset":0,
			"target":34962
		},
		{
			"buffer":0,
			"byteLength":288,
			"byteOffset":288,
			"target":34962
		},
		{
			"buffer":0,
			"byteLength":192,
			"byteOffset":576,
			"target":34962
		},
		{
			"buffer":0,
			"byteLength":72,
			"byteOffset":768,
			"target":34963
		},
		{
			"buffer":0,
			"byteLength":288,
			"byteOffset":840,
			"target":34962
		},
		{
			"buffer":0,
			"byteLength":288,
			"byteOffset":1128,
			"target":34962
		},
		{
			"buffer":0,
			"byteLength":192,
			"byteOffset":1416,
			"target":34962
		},
		{
			"buffer":0,
			"byteLength":221820,
			"byteOffset":1608,
			"target":34962
		},
		{
			"buffer":0,
			"byteLength":221820,
			"byteOffset":223428,
			"target":34962
		},
		{
			"buffer":0,
			"byteLength":147880,
			"byteOffset":445248,
			"target":34962
		},
		{
			"buffer":0,
			"byteLength":127878,
			"byteOffset":593128,
			"target":34963
		}
	],
	"samplers":[
		{
			"magFilter":9729,
			"minFilter":9987
		}
	],
	"buffers":[
		{
			"byteLength":721008,
			"uri":"abstract_nature_tree_02.bin"
		}
	]
}
