{
	"asset":{
		"generator":"Khronos glTF Blender I/O v3.6.28",
		"version":"2.0"
	},
	"extensionsUsed":[
		"KHR_materials_specular"
	],
	"scene":0,
	"scenes":[
		{
			"extras":{
				"xol_link_apps":[],
				"xol_link_apps_list":0
			},
			"name":"Scene",
			"nodes":[
				8
			]
		}
	],
	"nodes":[
		{
			"extras":{
				"xrengine.entity":"colliderShape",
				"xrengine.EE_collider.shape":"box"
			},
			"mesh":0,
			"name":"Cube.001",
			"scale":[
				0.3067581355571747,
				0.04522005468606949,
				0.261370986700058
			],
			"translation":[
				0.14161503314971924,
				-0.015381664037704468,
				0.40555787086486816
			]
		},
		{
			"extras":{
				"xrengine.entity":"colliderShape",
				"xrengine.EE_collider.shape":"box"
			},
			"mesh":1,
			"name":"Cube.013",
			"rotation":[
				-0.11577489227056503,
				0,
				0,
				0.99327552318573
			],
			"scale":[
				0.15331022441387177,
				0.33612656593322754,
				0.16693949699401855
			],
			"translation":[
				0.14377763867378235,
				0.33294254541397095,
				0.3404403328895569
			]
		},
		{
			"extras":{
				"xrengine.entity":"colliderShape",
				"xrengine.EE_collider.shape":"box"
			},
			"mesh":2,
			"name":"Cube.014",
			"rotation":[
				-0.5122371912002563,
				0,
				0,
				0.8588440418243408
			],
			"scale":[
				0.08005339652299881,
				0.08320257067680359,
				0.14000387489795685
			],
			"translation":[
				0.14161503314971924,
				0.07304244488477707,
				0.22830209136009216
			]
		},
		{
			"extras":{
				"xrengine.entity":"colliderShape",
				"xrengine.EE_collider.shape":"box"
			},
			"mesh":3,
			"name":"Cube.015",
			"rotation":[
				-0.31128957867622375,
				-0.5142893195152283,
				-0.32170772552490234,
				0.7315117716789246
			],
			"scale":[
				0.08005339652299881,
				0.08320257067680359,
				0.14000385999679565
			],
			"translation":[
				0.2974664568901062,
				0.04269562289118767,
				0.3849364221096039
			]
		},
		{
			"extras":{
				"xrengine.entity":"colliderShape",
				"xrengine.EE_collider.shape":"box"
			},
			"mesh":4,
			"name":"Cube.016",
			"rotation":[
				-0.6936995983123779,
				-0.04950797185301781,
				-0.019641555845737457,
				0.7182925343513489
			],
			"scale":[
				0.08111217617988586,
				0.08323530852794647,
				0.23474137485027313
			],
			"translation":[
				0.0398375578224659,
				0.20906849205493927,
				0.3888757824897766
			]
		},
		{
			"extras":{
				"xrengine.entity":"colliderShape",
				"xrengine.EE_collider.shape":"box"
			},
			"mesh":5,
			"name":"Cube.017",
			"rotation":[
				-0.9531265497207642,
				0,
				0,
				0.3025719225406647
			],
			"scale":[
				0.08005339652299881,
				0.08320257812738419,
				0.14000385999679565
			],
			"translation":[
				0.13851594924926758,
				0.03851098567247391,
				0.5538274049758911
			]
		},
		{
			"extras":{
				"xrengine.entity":"colliderShape",
				"xrengine.EE_collider.shape":"box"
			},
			"mesh":6,
			"name":"Cube.018",
			"rotation":[
				0.4277704358100891,
				0.241575226187706,
				0.8539641499519348,
				0.17146241664886475
			],
			"scale":[
				0.08005339652299881,
				0.08320257067680359,
				0.14000385999679565
			],
			"translation":[
				0.008524307049810886,
				0.006693238392472267,
				0.322020947933197
			]
		},
		{
			"extras":{
				"xrengine.entity":"colliderShape",
				"xrengine.EE_collider.shape":"box"
			},
			"mesh":7,
			"name":"Cube.019",
			"rotation":[
				0.44925424456596375,
				0.24583886563777924,
				0.8428598642349243,
				0.16529116034507751
			],
			"scale":[
				0.08005339652299881,
				0.08320257067680359,
				0.14000384509563446
			],
			"translation":[
				0.008192602545022964,
				0.005036184564232826,
				0.45699644088745117
			]
		},
		{
			"children":[
				0,
				1,
				2,
				3,
				4,
				5,
				6,
				7
			],
			"extras":{
				"xrengine.entity":"tree06_rbd",
				"xrengine.EE_rigidbody.type":"fixed"
			},
			"mesh":8,
			"name":"abstract_tree_06"
		}
	],
	"materials":[
		{
			"extensions":{
				"KHR_materials_specular":{
					"specularColorTexture":{
						"index":0
					}
				}
			},
			"name":"stylized_nature",
			"pbrMetallicRoughness":{
				"baseColorTexture":{
					"index":1
				},
				"metallicFactor":0,
				"roughnessFactor":0.4119170904159546
			}
		}
	],
	"meshes":[
		{
			"name":"Cube.001",
			"primitives":[
				{
					"attributes":{
						"POSITION":0,
						"NORMAL":1,
						"TEXCOORD_0":2
					},
					"indices":3
				}
			]
		},
		{
			"name":"Cube.014",
			"primitives":[
				{
					"attributes":{
						"POSITION":4,
						"NORMAL":5,
						"TEXCOORD_0":6
					},
					"indices":3
				}
			]
		},
		{
			"name":"Cube.015",
			"primitives":[
				{
					"attributes":{
						"POSITION":7,
						"NORMAL":8,
						"TEXCOORD_0":9
					},
					"indices":3
				}
			]
		},
		{
			"name":"Cube.016",
			"primitives":[
				{
					"attributes":{
						"POSITION":10,
						"NORMAL":11,
						"TEXCOORD_0":12
					},
					"indices":3
				}
			]
		},
		{
			"name":"Cube.017",
			"primitives":[
				{
					"attributes":{
						"POSITION":13,
						"NORMAL":14,
						"TEXCOORD_0":15
					},
					"indices":3
				}
			]
		},
		{
			"name":"Cube.018",
			"primitives":[
				{
					"attributes":{
						"POSITION":16,
						"NORMAL":17,
						"TEXCOORD_0":18
					},
					"indices":3
				}
			]
		},
		{
			"name":"Cube.019",
			"primitives":[
				{
					"attributes":{
						"POSITION":19,
						"NORMAL":20,
						"TEXCOORD_0":21
					},
					"indices":3
				}
			]
		},
		{
			"name":"Cube.020",
			"primitives":[
				{
					"attributes":{
						"POSITION":22,
						"NORMAL":23,
						"TEXCOORD_0":24
					},
					"indices":3
				}
			]
		},
		{
			"name":"material1.010",
			"primitives":[
				{
					"attributes":{
						"POSITION":25,
						"NORMAL":26,
						"TEXCOORD_0":27
					},
					"indices":28,
					"material":0
				}
			]
		}
	],
	"textures":[
		{
			"sampler":0,
			"source":0
		},
		{
			"sampler":0,
			"source":1
		}
	],
	"images":[
		{
			"mimeType":"image/png",
			"name":"Image",
			"uri":"Image.png"
		},
		{
			"mimeType":"image/png",
			"name":"stylized_forest_diffuse",
			"uri":"stylized_forest_diffuse.png"
		}
	],
	"accessors":[
		{
			"bufferView":0,
			"componentType":5126,
			"count":24,
			"max":[
				1,
				1,
				1
			],
			"min":[
				-1,
				-1,
				-1
			],
			"type":"VEC3"
		},
		{
			"bufferView":1,
			"componentType":5126,
			"count":24,
			"type":"VEC3"
		},
		{
			"bufferView":2,
			"componentType":5126,
			"count":24,
			"type":"VEC2"
		},
		{
			"bufferView":3,
			"componentType":5123,
			"count":36,
			"type":"SCALAR"
		},
		{
			"bufferView":4,
			"componentType":5126,
			"count":24,
			"max":[
				1,
				1,
				1
			],
			"min":[
				-1,
				-1,
				-1
			],
			"type":"VEC3"
		},
		{
			"bufferView":5,
			"componentType":5126,
			"count":24,
			"type":"VEC3"
		},
		{
			"bufferView":6,
			"componentType":5126,
			"count":24,
			"type":"VEC2"
		},
		{
			"bufferView":7,
			"componentType":5126,
			"count":24,
			"max":[
				1,
				1,
				1
			],
			"min":[
				-1,
				-1,
				-1
			],
			"type":"VEC3"
		},
		{
			"bufferView":8,
			"componentType":5126,
			"count":24,
			"type":"VEC3"
		},
		{
			"bufferView":9,
			"componentType":5126,
			"count":24,
			"type":"VEC2"
		},
		{
			"bufferView":10,
			"componentType":5126,
			"count":24,
			"max":[
				1,
				1,
				1
			],
			"min":[
				-1,
				-1,
				-1
			],
			"type":"VEC3"
		},
		{
			"bufferView":11,
			"componentType":5126,
			"count":24,
			"type":"VEC3"
		},
		{
			"bufferView":12,
			"componentType":5126,
			"count":24,
			"type":"VEC2"
		},
		{
			"bufferView":13,
			"componentType":5126,
			"count":24,
			"max":[
				1,
				1,
				1
			],
			"min":[
				-1,
				-1,
				-1
			],
			"type":"VEC3"
		},
		{
			"bufferView":14,
			"componentType":5126,
			"count":24,
			"type":"VEC3"
		},
		{
			"bufferView":15,
			"componentType":5126,
			"count":24,
			"type":"VEC2"
		},
		{
			"bufferView":16,
			"componentType":5126,
			"count":24,
			"max":[
				1,
				1,
				1
			],
			"min":[
				-1,
				-1,
				-1
			],
			"type":"VEC3"
		},
		{
			"bufferView":17,
			"componentType":5126,
			"count":24,
			"type":"VEC3"
		},
		{
			"bufferView":18,
			"componentType":5126,
			"count":24,
			"type":"VEC2"
		},
		{
			"bufferView":19,
			"componentType":5126,
			"count":24,
			"max":[
				1,
				1,
				1
			],
			"min":[
				-1,
				-1,
				-1
			],
			"type":"VEC3"
		},
		{
			"bufferView":20,
			"componentType":5126,
			"count":24,
			"type":"VEC3"
		},
		{
			"bufferView":21,
			"componentType":5126,
			"count":24,
			"type":"VEC2"
		},
		{
			"bufferView":22,
			"componentType":5126,
			"count":24,
			"max":[
				1,
				1,
				1
			],
			"min":[
				-1,
				-1,
				-1
			],
			"type":"VEC3"
		},
		{
			"bufferView":23,
			"componentType":5126,
			"count":24,
			"type":"VEC3"
		},
		{
			"bufferView":24,
			"componentType":5126,
			"count":24,
			"type":"VEC2"
		},
		{
			"bufferView":25,
			"componentType":5126,
			"count":15153,
			"max":[
				0.6927599906921387,
				1.5663714408874512,
				0.7784493565559387
			],
			"min":[
				-0.5342102646827698,
				0,
				-0.6953248977661133
			],
			"type":"VEC3"
		},
		{
			"bufferView":26,
			"componentType":5126,
			"count":15153,
			"type":"VEC3"
		},
		{
			"bufferView":27,
			"componentType":5126,
			"count":15153,
			"type":"VEC2"
		},
		{
			"bufferView":28,
			"componentType":5123,
			"count":49278,
			"type":"SCALAR"
		}
	],
	"bufferViews":[
		{
			"buffer":0,
			"byteLength":288,
			"byteOffset":0,
			"target":34962
		},
		{
			"buffer":0,
			"byteLength":288,
			"byteOffset":288,
			"target":34962
		},
		{
			"buffer":0,
			"byteLength":192,
			"byteOffset":576,
			"target":34962
		},
		{
			"buffer":0,
			"byteLength":72,
			"byteOffset":768,
			"target":34963
		},
		{
			"buffer":0,
			"byteLength":288,
			"byteOffset":840,
			"target":34962
		},
		{
			"buffer":0,
			"byteLength":288,
			"byteOffset":1128,
			"target":34962
		},
		{
			"buffer":0,
			"byteLength":192,
			"byteOffset":1416,
			"target":34962
		},
		{
			"buffer":0,
			"byteLength":288,
			"byteOffset":1608,
			"target":34962
		},
		{
			"buffer":0,
			"byteLength":288,
			"byteOffset":1896,
			"target":34962
		},
		{
			"buffer":0,
			"byteLength":192,
			"byteOffset":2184,
			"target":34962
		},
		{
			"buffer":0,
			"byteLength":288,
			"byteOffset":2376,
			"target":34962
		},
		{
			"buffer":0,
			"byteLength":288,
			"byteOffset":2664,
			"target":34962
		},
		{
			"buffer":0,
			"byteLength":192,
			"byteOffset":2952,
			"target":34962
		},
		{
			"buffer":0,
			"byteLength":288,
			"byteOffset":3144,
			"target":34962
		},
		{
			"buffer":0,
			"byteLength":288,
			"byteOffset":3432,
			"target":34962
		},
		{
			"buffer":0,
			"byteLength":192,
			"byteOffset":3720,
			"target":34962
		},
		{
			"buffer":0,
			"byteLength":288,
			"byteOffset":3912,
			"target":34962
		},
		{
			"buffer":0,
			"byteLength":288,
			"byteOffset":4200,
			"target":34962
		},
		{
			"buffer":0,
			"byteLength":192,
			"byteOffset":4488,
			"target":34962
		},
		{
			"buffer":0,
			"byteLength":288,
			"byteOffset":4680,
			"target":34962
		},
		{
			"buffer":0,
			"byteLength":288,
			"byteOffset":4968,
			"target":34962
		},
		{
			"buffer":0,
			"byteLength":192,
			"byteOffset":5256,
			"target":34962
		},
		{
			"buffer":0,
			"byteLength":288,
			"byteOffset":5448,
			"target":34962
		},
		{
			"buffer":0,
			"byteLength":288,
			"byteOffset":5736,
			"target":34962
		},
		{
			"buffer":0,
			"byteLength":192,
			"byteOffset":6024,
			"target":34962
		},
		{
			"buffer":0,
			"byteLength":181836,
			"byteOffset":6216,
			"target":34962
		},
		{
			"buffer":0,
			"byteLength":181836,
			"byteOffset":188052,
			"target":34962
		},
		{
			"buffer":0,
			"byteLength":121224,
			"byteOffset":369888,
			"target":34962
		},
		{
			"buffer":0,
			"byteLength":98556,
			"byteOffset":491112,
			"target":34963
		}
	],
	"samplers":[
		{
			"magFilter":9729,
			"minFilter":9987
		}
	],
	"buffers":[
		{
			"byteLength":589668,
			"uri":"abstract_nature_tree_06.bin"
		}
	]
}
