{
	"asset":{
		"version":"2.0",
		"generator":"Houdini GLTF 2.0 Exporter"
	},
	"accessors":[
		{
			"bufferView":0,
			"componentType":5123,
			"count":6108,
			"type":"SCALAR",
			"min":[0
			],
			"max":[1096
			]
		},
		{
			"bufferView":1,
			"componentType":5126,
			"count":1097,
			"type":"VEC3",
			"min":[-0.297059983,0,-0.239250004
			],
			"max":[0.297059983,0.316980004,0.239250004
			]
		},
		{
			"bufferView":2,
			"componentType":5126,
			"count":1097,
			"type":"VEC4",
			"min":[-0.995905697,-0.869786859,-0.833639085,1
			],
			"max":[0.999771774,0.919946849,0.979745388,1
			]
		},
		{
			"bufferView":3,
			"componentType":5126,
			"count":1097,
			"type":"VEC2",
			"min":[0.0057000001,0.306599975
			],
			"max":[0.668900013,0.922500014
			]
		},
		{
			"bufferView":4,
			"componentType":5126,
			"count":1097,
			"type":"VEC3",
			"min":[-0.990158796,-0.999653459,-0.997301459
			],
			"max":[0.992529035,0.999464929,0.998609006
			]
		}
	],
	"buffers":[
		{
			"uri":"fantasy_rock_07_data.bin",
			"byteLength":64872,
			"name":"main_buffer"
		}
	],
	"bufferViews":[
		{
			"buffer":0,
			"byteLength":12216,
			"target":34963
		},
		{
			"buffer":0,
			"byteOffset":12216,
			"byteLength":13164,
			"target":34962
		},
		{
			"buffer":0,
			"byteOffset":25380,
			"byteLength":17552,
			"target":34962
		},
		{
			"buffer":0,
			"byteOffset":42932,
			"byteLength":8776,
			"target":34962
		},
		{
			"buffer":0,
			"byteOffset":51708,
			"byteLength":13164,
			"target":34962
		}
	],
	"nodes":[
		{
			"name":"import",
			"mesh":0
		}
	],
	"meshes":[
		{
			"primitives":[
				{
					"attributes":{
						"NORMAL":4,
						"TEXCOORD_0":3,
						"TANGENT":2,
						"POSITION":1
					},
					"indices":0,
					"material":0
				}
			],
			"name":"material78"
		}
	],
	"materials":[
		{
			"name":"stylized_nature",
			"pbrMetallicRoughness":{
				"metallicFactor":0,
				"roughnessFactor":0.904999971,
				"baseColorTexture":{
					"index":0
				},
				"metallicRoughnessTexture":{
					"index":1
				}
			}
		}
	],
	"scenes":[
		{
			"nodes":[0
			]
		}
	],
	"textures":[
		{
			"source":0
		},
		{
			"source":1
		}
	],
	"images":[
		{
			"uri":"stylized_forest_diffuse.png",
			"mimeType":"image/png"
		},
		{
			"uri":".png",
			"mimeType":"image/png"
		}
	],
	"scene":0
}
