{
	"asset":{
		"version":"2.0",
		"generator":"Houdini GLTF 2.0 Exporter"
	},
	"accessors":[
		{
			"bufferView":0,
			"componentType":5123,
			"count":5466,
			"type":"SCALAR",
			"min":[0
			],
			"max":[1879
			]
		},
		{
			"bufferView":1,
			"componentType":5126,
			"count":1880,
			"type":"VEC3",
			"min":[-0.239745006,0,-0.239769995
			],
			"max":[0.239744991,1.0933001,0.239769995
			]
		},
		{
			"bufferView":2,
			"componentType":5126,
			"count":1880,
			"type":"VEC3",
			"min":[0,0,0
			],
			"max":[0,0,0
			]
		},
		{
			"bufferView":3,
			"componentType":5126,
			"count":1880,
			"type":"VEC3",
			"min":[100,100,100
			],
			"max":[100,100,100
			]
		},
		{
			"bufferView":4,
			"componentType":5126,
			"count":1880,
			"type":"VEC3",
			"min":[-1.57079649,0,0
			],
			"max":[-1.57079649,0,0
			]
		},
		{
			"bufferView":5,
			"componentType":5126,
			"count":1880,
			"type":"VEC4",
			"min":[-0.999870777,-0.913422823,-1,1
			],
			"max":[0.999964118,0.971072257,1,1
			]
		},
		{
			"bufferView":6,
			"componentType":5126,
			"count":1880,
			"type":"VEC2",
			"min":[0.742299974,0.0102999806
			],
			"max":[0.993099988,0.660899997
			]
		},
		{
			"bufferView":7,
			"componentType":5126,
			"count":1880,
			"type":"VEC3",
			"min":[-0.999873042,-0.999877036,-1
			],
			"max":[0.999873042,0.99987781,1
			]
		}
	],
	"buffers":[
		{
			"uri":"fantasy_lantern_01_data.bin",
			"byteLength":168852,
			"name":"main_buffer"
		}
	],
	"bufferViews":[
		{
			"buffer":0,
			"byteLength":10932,
			"target":34963
		},
		{
			"buffer":0,
			"byteOffset":10932,
			"byteLength":22560,
			"target":34962
		},
		{
			"buffer":0,
			"byteOffset":33492,
			"byteLength":22560,
			"target":34962
		},
		{
			"buffer":0,
			"byteOffset":56052,
			"byteLength":22560,
			"target":34962
		},
		{
			"buffer":0,
			"byteOffset":78612,
			"byteLength":22560,
			"target":34962
		},
		{
			"buffer":0,
			"byteOffset":101172,
			"byteLength":30080,
			"target":34962
		},
		{
			"buffer":0,
			"byteOffset":131252,
			"byteLength":15040,
			"target":34962
		},
		{
			"buffer":0,
			"byteOffset":146292,
			"byteLength":22560,
			"target":34962
		}
	],
	"nodes":[
		{
			"name":"import",
			"mesh":0
		}
	],
	"meshes":[
		{
			"primitives":[
				{
					"attributes":{
						"NORMAL":7,
						"_fbx_rotation":4,
						"TEXCOORD_0":6,
						"TANGENT":5,
						"_fbx_scale":3,
						"_fbx_translation":2,
						"POSITION":1
					},
					"indices":0,
					"material":0
				}
			],
			"name":"material78"
		}
	],
	"materials":[
		{
			"name":"stylized_nature",
			"pbrMetallicRoughness":{
				"metallicFactor":0,
				"roughnessFactor":0.904999971,
				"baseColorTexture":{
					"index":0
				},
				"metallicRoughnessTexture":{
					"index":1
				}
			}
		}
	],
	"scenes":[
		{
			"nodes":[0
			]
		}
	],
	"textures":[
		{
			"source":0
		},
		{
			"source":1
		}
	],
	"images":[
		{
			"uri":"stylized_forest_diffuse.png",
			"mimeType":"image/png"
		},
		{
			"uri":".png",
			"mimeType":"image/png"
		}
	],
	"scene":0
}
