{
	"asset":{
		"version":"2.0",
		"generator":"Houdini GLTF 2.0 Exporter"
	},
	"accessors":[
		{
			"bufferView":0,
			"componentType":5123,
			"count":3420,
			"type":"SCALAR",
			"min":[0
			],
			"max":[648
			]
		},
		{
			"bufferView":1,
			"componentType":5126,
			"count":649,
			"type":"VEC3",
			"min":[-0.166649982,0,-0.204240009
			],
			"max":[0.166649982,0.229140013,0.204240009
			]
		},
		{
			"bufferView":2,
			"componentType":5126,
			"count":649,
			"type":"VEC4",
			"min":[-0.999989152,-0.991737425,-0.844990134,1
			],
			"max":[0.999994874,0.784607112,0.999928951,1
			]
		},
		{
			"bufferView":3,
			"componentType":5126,
			"count":649,
			"type":"VEC2",
			"min":[0.195700005,0.00700002909
			],
			"max":[0.432599992,0.130400002
			]
		},
		{
			"bufferView":4,
			"componentType":5126,
			"count":649,
			"type":"VEC3",
			"min":[-0.998260856,-0.999987423,-0.997303009
			],
			"max":[0.994378269,0.99970293,0.981927752
			]
		}
	],
	"buffers":[
		{
			"uri":"fantasy_rock_06_data.bin",
			"byteLength":37992,
			"name":"main_buffer"
		}
	],
	"bufferViews":[
		{
			"buffer":0,
			"byteLength":6840,
			"target":34963
		},
		{
			"buffer":0,
			"byteOffset":6840,
			"byteLength":7788,
			"target":34962
		},
		{
			"buffer":0,
			"byteOffset":14628,
			"byteLength":10384,
			"target":34962
		},
		{
			"buffer":0,
			"byteOffset":25012,
			"byteLength":5192,
			"target":34962
		},
		{
			"buffer":0,
			"byteOffset":30204,
			"byteLength":7788,
			"target":34962
		}
	],
	"nodes":[
		{
			"name":"import",
			"mesh":0
		}
	],
	"meshes":[
		{
			"primitives":[
				{
					"attributes":{
						"NORMAL":4,
						"TEXCOORD_0":3,
						"TANGENT":2,
						"POSITION":1
					},
					"indices":0,
					"material":0
				}
			],
			"name":"material78"
		}
	],
	"materials":[
		{
			"name":"stylized_nature",
			"pbrMetallicRoughness":{
				"metallicFactor":0,
				"roughnessFactor":0.904999971,
				"baseColorTexture":{
					"index":0
				},
				"metallicRoughnessTexture":{
					"index":1
				}
			}
		}
	],
	"scenes":[
		{
			"nodes":[0
			]
		}
	],
	"textures":[
		{
			"source":0
		},
		{
			"source":1
		}
	],
	"images":[
		{
			"uri":"stylized_forest_diffuse.png",
			"mimeType":"image/png"
		},
		{
			"uri":".png",
			"mimeType":"image/png"
		}
	],
	"scene":0
}
