{
	"asset":{
		"version":"2.0",
		"generator":"Houdini GLTF 2.0 Exporter"
	},
	"accessors":[
		{
			"bufferView":0,
			"componentType":5123,
			"count":2235,
			"type":"SCALAR",
			"min":[0
			],
			"max":[543
			]
		},
		{
			"bufferView":1,
			"componentType":5126,
			"count":544,
			"type":"VEC3",
			"min":[-0.206239998,0,-0.297420025
			],
			"max":[0.206240028,0.0780700445,0.297419995
			]
		},
		{
			"bufferView":2,
			"componentType":5126,
			"count":544,
			"type":"VEC3",
			"min":[0,0,0
			],
			"max":[0,0,0
			]
		},
		{
			"bufferView":3,
			"componentType":5126,
			"count":544,
			"type":"VEC3",
			"min":[100,100,100
			],
			"max":[100,100,100
			]
		},
		{
			"bufferView":4,
			"componentType":5126,
			"count":544,
			"type":"VEC3",
			"min":[-1.57079649,0,0
			],
			"max":[-1.57079649,0,0
			]
		},
		{
			"bufferView":5,
			"componentType":5126,
			"count":544,
			"type":"VEC4",
			"min":[0.00335769542,-0.973188579,-0.971741021,1
			],
			"max":[0.999714434,0.94189316,0.692801058,1
			]
		},
		{
			"bufferView":6,
			"componentType":5126,
			"count":544,
			"type":"VEC2",
			"min":[0.280800015,0.547800004
			],
			"max":[0.609799981,0.764299989
			]
		},
		{
			"bufferView":7,
			"componentType":5126,
			"count":544,
			"type":"VEC3",
			"min":[-0.999319792,0.000681153906,-0.999546349
			],
			"max":[0.999393225,0.998867154,0.999546409
			]
		}
	],
	"buffers":[
		{
			"uri":"fantasy_water_lilly_data.bin",
			"byteLength":50168,
			"name":"main_buffer"
		}
	],
	"bufferViews":[
		{
			"buffer":0,
			"byteLength":4470,
			"target":34963
		},
		{
			"buffer":0,
			"byteOffset":4472,
			"byteLength":6528,
			"target":34962
		},
		{
			"buffer":0,
			"byteOffset":11000,
			"byteLength":6528,
			"target":34962
		},
		{
			"buffer":0,
			"byteOffset":17528,
			"byteLength":6528,
			"target":34962
		},
		{
			"buffer":0,
			"byteOffset":24056,
			"byteLength":6528,
			"target":34962
		},
		{
			"buffer":0,
			"byteOffset":30584,
			"byteLength":8704,
			"target":34962
		},
		{
			"buffer":0,
			"byteOffset":39288,
			"byteLength":4352,
			"target":34962
		},
		{
			"buffer":0,
			"byteOffset":43640,
			"byteLength":6528,
			"target":34962
		}
	],
	"nodes":[
		{
			"name":"import",
			"mesh":0
		}
	],
	"meshes":[
		{
			"primitives":[
				{
					"attributes":{
						"NORMAL":7,
						"_fbx_rotation":4,
						"TEXCOORD_0":6,
						"TANGENT":5,
						"_fbx_scale":3,
						"_fbx_translation":2,
						"POSITION":1
					},
					"indices":0,
					"material":0
				}
			],
			"name":"material78"
		}
	],
	"materials":[
		{
			"name":"stylized_nature",
			"pbrMetallicRoughness":{
				"metallicFactor":0,
				"roughnessFactor":0.904999971,
				"baseColorTexture":{
					"index":0
				},
				"metallicRoughnessTexture":{
					"index":1
				}
			}
		}
	],
	"scenes":[
		{
			"nodes":[0
			]
		}
	],
	"textures":[
		{
			"source":0
		},
		{
			"source":1
		}
	],
	"images":[
		{
			"uri":"stylized_forest_diffuse.png",
			"mimeType":"image/png"
		},
		{
			"uri":".png",
			"mimeType":"image/png"
		}
	],
	"scene":0
}
