{
	"asset":{
		"version":"2.0",
		"generator":"Houdini GLTF 2.0 Exporter"
	},
	"accessors":[
		{
			"bufferView":0,
			"componentType":5123,
			"count":492,
			"type":"SCALAR",
			"min":[0
			],
			"max":[154
			]
		},
		{
			"bufferView":1,
			"componentType":5126,
			"count":155,
			"type":"VEC3",
			"min":[-0.776490629,-0.000702699122,-0.430320024
			],
			"max":[0.257459402,1.00574207,0.432006568
			]
		},
		{
			"bufferView":2,
			"componentType":5126,
			"count":155,
			"type":"VEC3",
			"min":[0,0,0
			],
			"max":[0,0,0
			]
		},
		{
			"bufferView":3,
			"componentType":5126,
			"count":155,
			"type":"VEC3",
			"min":[100,100,100
			],
			"max":[100,100,100
			]
		},
		{
			"bufferView":4,
			"componentType":5126,
			"count":155,
			"type":"VEC3",
			"min":[-1.57079649,0,0
			],
			"max":[-1.57079649,0,0
			]
		},
		{
			"bufferView":5,
			"componentType":5126,
			"count":155,
			"type":"VEC4",
			"min":[-0.712230682,-0.985587418,-0.761904776,1
			],
			"max":[0.922777951,0.997501016,0.387396812,1
			]
		},
		{
			"bufferView":6,
			"componentType":5126,
			"count":155,
			"type":"VEC2",
			"min":[0.707175255,0.00337457657
			],
			"max":[0.870597422,0.0370717049
			]
		},
		{
			"bufferView":7,
			"componentType":5126,
			"count":155,
			"type":"VEC3",
			"min":[-0.993257523,0.0275574569,-0.98196435
			],
			"max":[0.993494928,0.99998194,0.996603489
			]
		}
	],
	"buffers":[
		{
			"uri":"fantasy_grass_01_data.bin",
			"byteLength":14004,
			"name":"main_buffer"
		}
	],
	"bufferViews":[
		{
			"buffer":0,
			"byteLength":984,
			"target":34963
		},
		{
			"buffer":0,
			"byteOffset":984,
			"byteLength":1860,
			"target":34962
		},
		{
			"buffer":0,
			"byteOffset":2844,
			"byteLength":1860,
			"target":34962
		},
		{
			"buffer":0,
			"byteOffset":4704,
			"byteLength":1860,
			"target":34962
		},
		{
			"buffer":0,
			"byteOffset":6564,
			"byteLength":1860,
			"target":34962
		},
		{
			"buffer":0,
			"byteOffset":8424,
			"byteLength":2480,
			"target":34962
		},
		{
			"buffer":0,
			"byteOffset":10904,
			"byteLength":1240,
			"target":34962
		},
		{
			"buffer":0,
			"byteOffset":12144,
			"byteLength":1860,
			"target":34962
		}
	],
	"nodes":[
		{
			"name":"import",
			"mesh":0
		}
	],
	"meshes":[
		{
			"primitives":[
				{
					"attributes":{
						"NORMAL":7,
						"_fbx_rotation":4,
						"TEXCOORD_0":6,
						"TANGENT":5,
						"_fbx_scale":3,
						"_fbx_translation":2,
						"POSITION":1
					},
					"indices":0,
					"material":0
				}
			],
			"name":"material78"
		}
	],
	"materials":[
		{
			"name":"stylized_nature",
			"pbrMetallicRoughness":{
				"metallicFactor":0,
				"roughnessFactor":0.904999971,
				"baseColorTexture":{
					"index":0
				},
				"metallicRoughnessTexture":{
					"index":1
				}
			}
		}
	],
	"scenes":[
		{
			"nodes":[0
			]
		}
	],
	"textures":[
		{
			"source":0
		},
		{
			"source":1
		}
	],
	"images":[
		{
			"uri":"stylized_forest_diffuse.png",
			"mimeType":"image/png"
		},
		{
			"uri":".png",
			"mimeType":"image/png"
		}
	],
	"scene":0
}
