{
	"asset":{
		"version":"2.0",
		"generator":"Houdini GLTF 2.0 Exporter"
	},
	"accessors":[
		{
			"bufferView":0,
			"componentType":5123,
			"count":4668,
			"type":"SCALAR",
			"min":[0
			],
			"max":[956
			]
		},
		{
			"bufferView":1,
			"componentType":5126,
			"count":957,
			"type":"VEC3",
			"min":[-0.0776663795,0,-0.087545
			],
			"max":[0.133143634,0.32001996,0.0875450075
			]
		},
		{
			"bufferView":2,
			"componentType":5126,
			"count":957,
			"type":"VEC3",
			"min":[0,0,0
			],
			"max":[0,0,0
			]
		},
		{
			"bufferView":3,
			"componentType":5126,
			"count":957,
			"type":"VEC3",
			"min":[100,100,100
			],
			"max":[100,100,100
			]
		},
		{
			"bufferView":4,
			"componentType":5126,
			"count":957,
			"type":"VEC3",
			"min":[-1.57079649,0,0
			],
			"max":[-1.57079649,0,0
			]
		},
		{
			"bufferView":5,
			"componentType":5126,
			"count":957,
			"type":"VEC4",
			"min":[-0.986845136,-0.871632636,-0.999660909,1
			],
			"max":[0.968107224,0.863140464,0.999951184,1
			]
		},
		{
			"bufferView":6,
			"componentType":5126,
			"count":957,
			"type":"VEC2",
			"min":[0.221499994,0.75090003
			],
			"max":[0.3046,0.879100025
			]
		},
		{
			"bufferView":7,
			"componentType":5126,
			"count":957,
			"type":"VEC3",
			"min":[-0.994886756,-0.99999845,-0.998583257
			],
			"max":[0.994625688,0.999027967,0.998201072
			]
		}
	],
	"buffers":[
		{
			"uri":"fantasy_mushroom_04_data.bin",
			"byteLength":89724,
			"name":"main_buffer"
		}
	],
	"bufferViews":[
		{
			"buffer":0,
			"byteLength":9336,
			"target":34963
		},
		{
			"buffer":0,
			"byteOffset":9336,
			"byteLength":11484,
			"target":34962
		},
		{
			"buffer":0,
			"byteOffset":20820,
			"byteLength":11484,
			"target":34962
		},
		{
			"buffer":0,
			"byteOffset":32304,
			"byteLength":11484,
			"target":34962
		},
		{
			"buffer":0,
			"byteOffset":43788,
			"byteLength":11484,
			"target":34962
		},
		{
			"buffer":0,
			"byteOffset":55272,
			"byteLength":15312,
			"target":34962
		},
		{
			"buffer":0,
			"byteOffset":70584,
			"byteLength":7656,
			"target":34962
		},
		{
			"buffer":0,
			"byteOffset":78240,
			"byteLength":11484,
			"target":34962
		}
	],
	"nodes":[
		{
			"name":"import",
			"mesh":0
		}
	],
	"meshes":[
		{
			"primitives":[
				{
					"attributes":{
						"NORMAL":7,
						"_fbx_rotation":4,
						"TEXCOORD_0":6,
						"TANGENT":5,
						"_fbx_scale":3,
						"_fbx_translation":2,
						"POSITION":1
					},
					"indices":0,
					"material":0
				}
			],
			"name":"material78"
		}
	],
	"materials":[
		{
			"name":"stylized_nature",
			"pbrMetallicRoughness":{
				"metallicFactor":0,
				"roughnessFactor":0.904999971,
				"baseColorTexture":{
					"index":0
				},
				"metallicRoughnessTexture":{
					"index":1
				}
			}
		}
	],
	"scenes":[
		{
			"nodes":[0
			]
		}
	],
	"textures":[
		{
			"source":0
		},
		{
			"source":1
		}
	],
	"images":[
		{
			"uri":"stylized_forest_diffuse.png",
			"mimeType":"image/png"
		},
		{
			"uri":".png",
			"mimeType":"image/png"
		}
	],
	"scene":0
}
