{
	"asset":{
		"version":"2.0",
		"generator":"Houdini GLTF 2.0 Exporter"
	},
	"accessors":[
		{
			"bufferView":0,
			"componentType":5123,
			"count":10584,
			"type":"SCALAR",
			"min":[0
			],
			"max":[3647
			]
		},
		{
			"bufferView":1,
			"componentType":5126,
			"count":3648,
			"type":"VEC3",
			"min":[-0.197325021,0,-0.201985016
			],
			"max":[0.197325021,1.49233007,0.201985016
			]
		},
		{
			"bufferView":2,
			"componentType":5126,
			"count":3648,
			"type":"VEC3",
			"min":[0,1553.30615,0
			],
			"max":[0,1553.30615,0
			]
		},
		{
			"bufferView":3,
			"componentType":5126,
			"count":3648,
			"type":"VEC3",
			"min":[100,100,100
			],
			"max":[100,100,100
			]
		},
		{
			"bufferView":4,
			"componentType":5126,
			"count":3648,
			"type":"VEC3",
			"min":[-1.57079649,0,0
			],
			"max":[-1.57079649,0,0
			]
		},
		{
			"bufferView":5,
			"componentType":5126,
			"count":3648,
			"type":"VEC4",
			"min":[-0.999650061,-0.999997973,-1,1
			],
			"max":[0.999965847,0.999877512,0.891021311,1
			]
		},
		{
			"bufferView":6,
			"componentType":5126,
			"count":3648,
			"type":"VEC2",
			"min":[0.742299974,0.0102999806
			],
			"max":[0.993099988,0.660899997
			]
		},
		{
			"bufferView":7,
			"componentType":5126,
			"count":3648,
			"type":"VEC3",
			"min":[-0.9991377,-0.990736485,-1
			],
			"max":[0.9991377,0.999876142,1
			]
		}
	],
	"buffers":[
		{
			"uri":"fantasy_lantern_02_data.bin",
			"byteLength":327600,
			"name":"main_buffer"
		}
	],
	"bufferViews":[
		{
			"buffer":0,
			"byteLength":21168,
			"target":34963
		},
		{
			"buffer":0,
			"byteOffset":21168,
			"byteLength":43776,
			"target":34962
		},
		{
			"buffer":0,
			"byteOffset":64944,
			"byteLength":43776,
			"target":34962
		},
		{
			"buffer":0,
			"byteOffset":108720,
			"byteLength":43776,
			"target":34962
		},
		{
			"buffer":0,
			"byteOffset":152496,
			"byteLength":43776,
			"target":34962
		},
		{
			"buffer":0,
			"byteOffset":196272,
			"byteLength":58368,
			"target":34962
		},
		{
			"buffer":0,
			"byteOffset":254640,
			"byteLength":29184,
			"target":34962
		},
		{
			"buffer":0,
			"byteOffset":283824,
			"byteLength":43776,
			"target":34962
		}
	],
	"nodes":[
		{
			"name":"import",
			"mesh":0
		}
	],
	"meshes":[
		{
			"primitives":[
				{
					"attributes":{
						"NORMAL":7,
						"_fbx_rotation":4,
						"TEXCOORD_0":6,
						"TANGENT":5,
						"_fbx_scale":3,
						"_fbx_translation":2,
						"POSITION":1
					},
					"indices":0,
					"material":0
				}
			],
			"name":"material78"
		}
	],
	"materials":[
		{
			"name":"stylized_nature",
			"pbrMetallicRoughness":{
				"metallicFactor":0,
				"roughnessFactor":0.904999971,
				"baseColorTexture":{
					"index":0
				},
				"metallicRoughnessTexture":{
					"index":1
				}
			}
		}
	],
	"scenes":[
		{
			"nodes":[0
			]
		}
	],
	"textures":[
		{
			"source":0
		},
		{
			"source":1
		}
	],
	"images":[
		{
			"uri":"stylized_forest_diffuse.png",
			"mimeType":"image/png"
		},
		{
			"uri":".png",
			"mimeType":"image/png"
		}
	],
	"scene":0
}
