{
	"asset":{
		"version":"2.0",
		"generator":"Houdini GLTF 2.0 Exporter"
	},
	"accessors":[
		{
			"bufferView":0,
			"componentType":5123,
			"count":4932,
			"type":"SCALAR",
			"min":[0
			],
			"max":[1016
			]
		},
		{
			"bufferView":1,
			"componentType":5126,
			"count":1017,
			"type":"VEC3",
			"min":[-0.107402503,0,-0.00772248209
			],
			"max":[0.0284024999,0.195084989,0.109722495
			]
		},
		{
			"bufferView":2,
			"componentType":5126,
			"count":1017,
			"type":"VEC3",
			"min":[0,0,0
			],
			"max":[0,0,0
			]
		},
		{
			"bufferView":3,
			"componentType":5126,
			"count":1017,
			"type":"VEC3",
			"min":[100,100,100
			],
			"max":[100,100,100
			]
		},
		{
			"bufferView":4,
			"componentType":5126,
			"count":1017,
			"type":"VEC3",
			"min":[-1.57079649,0,0
			],
			"max":[-1.57079649,0,0
			]
		},
		{
			"bufferView":5,
			"componentType":5126,
			"count":1017,
			"type":"VEC4",
			"min":[-0.987234592,-0.747390151,-0.941829085,1
			],
			"max":[0.988624096,0.979362905,0.999880195,1
			]
		},
		{
			"bufferView":6,
			"componentType":5126,
			"count":1017,
			"type":"VEC2",
			"min":[0.263300002,0.817900002
			],
			"max":[0.349400014,0.947399974
			]
		},
		{
			"bufferView":7,
			"componentType":5126,
			"count":1017,
			"type":"VEC3",
			"min":[-0.991619527,-0.998902857,-0.997264981
			],
			"max":[0.992852449,0.999402225,0.990732849
			]
		}
	],
	"buffers":[
		{
			"uri":"fantasy_mushroom_01_data.bin",
			"byteLength":95292,
			"name":"main_buffer"
		}
	],
	"bufferViews":[
		{
			"buffer":0,
			"byteLength":9864,
			"target":34963
		},
		{
			"buffer":0,
			"byteOffset":9864,
			"byteLength":12204,
			"target":34962
		},
		{
			"buffer":0,
			"byteOffset":22068,
			"byteLength":12204,
			"target":34962
		},
		{
			"buffer":0,
			"byteOffset":34272,
			"byteLength":12204,
			"target":34962
		},
		{
			"buffer":0,
			"byteOffset":46476,
			"byteLength":12204,
			"target":34962
		},
		{
			"buffer":0,
			"byteOffset":58680,
			"byteLength":16272,
			"target":34962
		},
		{
			"buffer":0,
			"byteOffset":74952,
			"byteLength":8136,
			"target":34962
		},
		{
			"buffer":0,
			"byteOffset":83088,
			"byteLength":12204,
			"target":34962
		}
	],
	"nodes":[
		{
			"name":"import",
			"mesh":0
		}
	],
	"meshes":[
		{
			"primitives":[
				{
					"attributes":{
						"NORMAL":7,
						"_fbx_rotation":4,
						"TEXCOORD_0":6,
						"TANGENT":5,
						"_fbx_scale":3,
						"_fbx_translation":2,
						"POSITION":1
					},
					"indices":0,
					"material":0
				}
			],
			"name":"material78"
		}
	],
	"materials":[
		{
			"name":"stylized_nature",
			"pbrMetallicRoughness":{
				"metallicFactor":0,
				"roughnessFactor":0.904999971,
				"baseColorTexture":{
					"index":0
				},
				"metallicRoughnessTexture":{
					"index":1
				}
			}
		}
	],
	"scenes":[
		{
			"nodes":[0
			]
		}
	],
	"textures":[
		{
			"source":0
		},
		{
			"source":1
		}
	],
	"images":[
		{
			"uri":"stylized_forest_diffuse.png",
			"mimeType":"image/png"
		},
		{
			"uri":".png",
			"mimeType":"image/png"
		}
	],
	"scene":0
}
