{
	"asset":{
		"version":"2.0",
		"generator":"Houdini GLTF 2.0 Exporter"
	},
	"accessors":[
		{
			"bufferView":0,
			"componentType":5123,
			"count":2634,
			"type":"SCALAR",
			"min":[0
			],
			"max":[510
			]
		},
		{
			"bufferView":1,
			"componentType":5126,
			"count":511,
			"type":"VEC3",
			"min":[-0.0756729096,0,-0.0240576323
			],
			"max":[0.0897191092,0.200856015,0.159950376
			]
		},
		{
			"bufferView":2,
			"componentType":5126,
			"count":511,
			"type":"VEC3",
			"min":[0,0,0
			],
			"max":[0,0,0
			]
		},
		{
			"bufferView":3,
			"componentType":5126,
			"count":511,
			"type":"VEC3",
			"min":[100,100,100
			],
			"max":[100,100,100
			]
		},
		{
			"bufferView":4,
			"componentType":5126,
			"count":511,
			"type":"VEC3",
			"min":[-1.57079649,0,0
			],
			"max":[-1.57079649,0,0
			]
		},
		{
			"bufferView":5,
			"componentType":5126,
			"count":511,
			"type":"VEC4",
			"min":[-0.889275253,-0.989534616,-0.976902425,1
			],
			"max":[0.999501109,0.984951138,0.988784492,1
			]
		},
		{
			"bufferView":6,
			"componentType":5126,
			"count":511,
			"type":"VEC2",
			"min":[0.756399989,0.673200011
			],
			"max":[0.979300022,0.903100014
			]
		},
		{
			"bufferView":7,
			"componentType":5126,
			"count":511,
			"type":"VEC3",
			"min":[-0.989556015,-0.96295315,-0.997544706
			],
			"max":[0.997041047,0.999579966,0.994753301
			]
		}
	],
	"buffers":[
		{
			"uri":"fantasy_mushroom_05_data.bin",
			"byteLength":48192,
			"name":"main_buffer"
		}
	],
	"bufferViews":[
		{
			"buffer":0,
			"byteLength":5268,
			"target":34963
		},
		{
			"buffer":0,
			"byteOffset":5268,
			"byteLength":6132,
			"target":34962
		},
		{
			"buffer":0,
			"byteOffset":11400,
			"byteLength":6132,
			"target":34962
		},
		{
			"buffer":0,
			"byteOffset":17532,
			"byteLength":6132,
			"target":34962
		},
		{
			"buffer":0,
			"byteOffset":23664,
			"byteLength":6132,
			"target":34962
		},
		{
			"buffer":0,
			"byteOffset":29796,
			"byteLength":8176,
			"target":34962
		},
		{
			"buffer":0,
			"byteOffset":37972,
			"byteLength":4088,
			"target":34962
		},
		{
			"buffer":0,
			"byteOffset":42060,
			"byteLength":6132,
			"target":34962
		}
	],
	"nodes":[
		{
			"name":"import",
			"mesh":0
		}
	],
	"meshes":[
		{
			"primitives":[
				{
					"attributes":{
						"NORMAL":7,
						"_fbx_rotation":4,
						"TEXCOORD_0":6,
						"TANGENT":5,
						"_fbx_scale":3,
						"_fbx_translation":2,
						"POSITION":1
					},
					"indices":0,
					"material":0
				}
			],
			"name":"material78"
		}
	],
	"materials":[
		{
			"name":"stylized_nature",
			"pbrMetallicRoughness":{
				"metallicFactor":0,
				"roughnessFactor":0.904999971,
				"baseColorTexture":{
					"index":0
				},
				"metallicRoughnessTexture":{
					"index":1
				}
			}
		}
	],
	"scenes":[
		{
			"nodes":[0
			]
		}
	],
	"textures":[
		{
			"source":0
		},
		{
			"source":1
		}
	],
	"images":[
		{
			"uri":"stylized_forest_diffuse.png",
			"mimeType":"image/png"
		},
		{
			"uri":".png",
			"mimeType":"image/png"
		}
	],
	"scene":0
}
