{
	"asset":{
		"version":"2.0",
		"generator":"Houdini GLTF 2.0 Exporter"
	},
	"accessors":[
		{
			"bufferView":0,
			"componentType":5123,
			"count":540,
			"type":"SCALAR",
			"min":[0
			],
			"max":[216
			]
		},
		{
			"bufferView":1,
			"componentType":5126,
			"count":217,
			"type":"VEC3",
			"min":[-0.61278069,-0.000513910258,-0.675795019
			],
			"max":[0.098621361,1.18844986,0.671744943
			]
		},
		{
			"bufferView":2,
			"componentType":5126,
			"count":217,
			"type":"VEC3",
			"min":[0,0,0
			],
			"max":[0,0,0
			]
		},
		{
			"bufferView":3,
			"componentType":5126,
			"count":217,
			"type":"VEC3",
			"min":[100,100,100
			],
			"max":[100,100,100
			]
		},
		{
			"bufferView":4,
			"componentType":5126,
			"count":217,
			"type":"VEC3",
			"min":[-1.57079649,0,0
			],
			"max":[-1.57079649,0,0
			]
		},
		{
			"bufferView":5,
			"componentType":5126,
			"count":217,
			"type":"VEC4",
			"min":[0.0565055758,-0.998367667,-0.10439454,1
			],
			"max":[0.954592168,-0.0415365994,0.738701284,1
			]
		},
		{
			"bufferView":6,
			"componentType":5126,
			"count":217,
			"type":"VEC2",
			"min":[0.548513353,0.02431041
			],
			"max":[0.997811437,0.129800022
			]
		},
		{
			"bufferView":7,
			"componentType":5126,
			"count":217,
			"type":"VEC3",
			"min":[-0.500591397,-0.0216076747,-0.869324565
			],
			"max":[0.991774082,0.982584774,0.971075654
			]
		}
	],
	"buffers":[
		{
			"uri":"fantasy_grass_04_data.bin",
			"byteLength":19308,
			"name":"main_buffer"
		}
	],
	"bufferViews":[
		{
			"buffer":0,
			"byteLength":1080,
			"target":34963
		},
		{
			"buffer":0,
			"byteOffset":1080,
			"byteLength":2604,
			"target":34962
		},
		{
			"buffer":0,
			"byteOffset":3684,
			"byteLength":2604,
			"target":34962
		},
		{
			"buffer":0,
			"byteOffset":6288,
			"byteLength":2604,
			"target":34962
		},
		{
			"buffer":0,
			"byteOffset":8892,
			"byteLength":2604,
			"target":34962
		},
		{
			"buffer":0,
			"byteOffset":11496,
			"byteLength":3472,
			"target":34962
		},
		{
			"buffer":0,
			"byteOffset":14968,
			"byteLength":1736,
			"target":34962
		},
		{
			"buffer":0,
			"byteOffset":16704,
			"byteLength":2604,
			"target":34962
		}
	],
	"nodes":[
		{
			"name":"import",
			"mesh":0
		}
	],
	"meshes":[
		{
			"primitives":[
				{
					"attributes":{
						"NORMAL":7,
						"_fbx_rotation":4,
						"TEXCOORD_0":6,
						"TANGENT":5,
						"_fbx_scale":3,
						"_fbx_translation":2,
						"POSITION":1
					},
					"indices":0,
					"material":0
				}
			],
			"name":"material78"
		}
	],
	"materials":[
		{
			"name":"stylized_nature",
			"pbrMetallicRoughness":{
				"metallicFactor":0,
				"roughnessFactor":0.904999971,
				"baseColorTexture":{
					"index":0
				},
				"metallicRoughnessTexture":{
					"index":1
				}
			}
		}
	],
	"scenes":[
		{
			"nodes":[0
			]
		}
	],
	"textures":[
		{
			"source":0
		},
		{
			"source":1
		}
	],
	"images":[
		{
			"uri":"stylized_forest_diffuse.png",
			"mimeType":"image/png"
		},
		{
			"uri":".png",
			"mimeType":"image/png"
		}
	],
	"scene":0
}
