{
	"asset":{
		"version":"2.0",
		"generator":"Houdini GLTF 2.0 Exporter"
	},
	"accessors":[
		{
			"bufferView":0,
			"componentType":5123,
			"count":3612,
			"type":"SCALAR",
			"min":[0
			],
			"max":[655
			]
		},
		{
			"bufferView":1,
			"componentType":5126,
			"count":656,
			"type":"VEC3",
			"min":[-0.329699993,0,-0.17814
			],
			"max":[0.329699993,0.0697799772,0.17814
			]
		},
		{
			"bufferView":2,
			"componentType":5126,
			"count":656,
			"type":"VEC4",
			"min":[-0.950060487,-0.998355746,-0.99902761,1
			],
			"max":[0.972615898,0.996264458,0.988622487,1
			]
		},
		{
			"bufferView":3,
			"componentType":5126,
			"count":656,
			"type":"VEC2",
			"min":[0.00970000029,0.00940001011
			],
			"max":[0.131899998,0.271000028
			]
		},
		{
			"bufferView":4,
			"componentType":5126,
			"count":656,
			"type":"VEC3",
			"min":[-0.98433131,-0.999894798,-0.999168873
			],
			"max":[0.973133504,1,0.998227477
			]
		}
	],
	"buffers":[
		{
			"uri":"fantasy_rock_05_data.bin",
			"byteLength":38712,
			"name":"main_buffer"
		}
	],
	"bufferViews":[
		{
			"buffer":0,
			"byteLength":7224,
			"target":34963
		},
		{
			"buffer":0,
			"byteOffset":7224,
			"byteLength":7872,
			"target":34962
		},
		{
			"buffer":0,
			"byteOffset":15096,
			"byteLength":10496,
			"target":34962
		},
		{
			"buffer":0,
			"byteOffset":25592,
			"byteLength":5248,
			"target":34962
		},
		{
			"buffer":0,
			"byteOffset":30840,
			"byteLength":7872,
			"target":34962
		}
	],
	"nodes":[
		{
			"name":"import",
			"mesh":0
		}
	],
	"meshes":[
		{
			"primitives":[
				{
					"attributes":{
						"NORMAL":4,
						"TEXCOORD_0":3,
						"TANGENT":2,
						"POSITION":1
					},
					"indices":0,
					"material":0
				}
			],
			"name":"material78"
		}
	],
	"materials":[
		{
			"name":"stylized_nature",
			"pbrMetallicRoughness":{
				"metallicFactor":0,
				"roughnessFactor":0.904999971,
				"baseColorTexture":{
					"index":0
				},
				"metallicRoughnessTexture":{
					"index":1
				}
			}
		}
	],
	"scenes":[
		{
			"nodes":[0
			]
		}
	],
	"textures":[
		{
			"source":0
		},
		{
			"source":1
		}
	],
	"images":[
		{
			"uri":"stylized_forest_diffuse.png",
			"mimeType":"image/png"
		},
		{
			"uri":".png",
			"mimeType":"image/png"
		}
	],
	"scene":0
}
