{
	"asset":{
		"version":"2.0",
		"generator":"Houdini GLTF 2.0 Exporter"
	},
	"accessors":[
		{
			"bufferView":0,
			"componentType":5123,
			"count":2130,
			"type":"SCALAR",
			"min":[0
			],
			"max":[406
			]
		},
		{
			"bufferView":1,
			"componentType":5126,
			"count":407,
			"type":"VEC3",
			"min":[-0.28809002,0,-0.141120002
			],
			"max":[0.28809002,0.0445800275,0.141120002
			]
		},
		{
			"bufferView":2,
			"componentType":5126,
			"count":407,
			"type":"VEC4",
			"min":[-0.680789351,-0.997202635,-0.995454848,1
			],
			"max":[0.999776602,0.991006851,0.516013503,1
			]
		},
		{
			"bufferView":3,
			"componentType":5126,
			"count":407,
			"type":"VEC2",
			"min":[0.00300000003,0.416499972
			],
			"max":[0.129700005,0.993900001
			]
		},
		{
			"bufferView":4,
			"componentType":5126,
			"count":407,
			"type":"VEC3",
			"min":[-0.98268193,-0.999798179,-0.998532951
			],
			"max":[0.996238172,1,0.997947454
			]
		}
	],
	"buffers":[
		{
			"uri":"fantasy_rock_03_data.bin",
			"byteLength":23796,
			"name":"main_buffer"
		}
	],
	"bufferViews":[
		{
			"buffer":0,
			"byteLength":4260,
			"target":34963
		},
		{
			"buffer":0,
			"byteOffset":4260,
			"byteLength":4884,
			"target":34962
		},
		{
			"buffer":0,
			"byteOffset":9144,
			"byteLength":6512,
			"target":34962
		},
		{
			"buffer":0,
			"byteOffset":15656,
			"byteLength":3256,
			"target":34962
		},
		{
			"buffer":0,
			"byteOffset":18912,
			"byteLength":4884,
			"target":34962
		}
	],
	"nodes":[
		{
			"name":"import",
			"mesh":0
		}
	],
	"meshes":[
		{
			"primitives":[
				{
					"attributes":{
						"NORMAL":4,
						"TEXCOORD_0":3,
						"TANGENT":2,
						"POSITION":1
					},
					"indices":0,
					"material":0
				}
			],
			"name":"material78"
		}
	],
	"materials":[
		{
			"name":"stylized_nature",
			"pbrMetallicRoughness":{
				"metallicFactor":0,
				"roughnessFactor":0.904999971,
				"baseColorTexture":{
					"index":0
				},
				"metallicRoughnessTexture":{
					"index":1
				}
			}
		}
	],
	"scenes":[
		{
			"nodes":[0
			]
		}
	],
	"textures":[
		{
			"source":0
		},
		{
			"source":1
		}
	],
	"images":[
		{
			"uri":"stylized_forest_diffuse.png",
			"mimeType":"image/png"
		},
		{
			"uri":".png",
			"mimeType":"image/png"
		}
	],
	"scene":0
}
