{
	"asset":{
		"version":"2.0",
		"generator":"Houdini GLTF 2.0 Exporter"
	},
	"accessors":[
		{
			"bufferView":0,
			"componentType":5123,
			"count":9480,
			"type":"SCALAR",
			"min":[0
			],
			"max":[1945
			]
		},
		{
			"bufferView":1,
			"componentType":5126,
			"count":1946,
			"type":"VEC3",
			"min":[-0.163460657,0,-0.194821239
			],
			"max":[0.221489355,0.386330128,0.188358784
			]
		},
		{
			"bufferView":2,
			"componentType":5126,
			"count":1946,
			"type":"VEC3",
			"min":[0,0,0
			],
			"max":[0,0,0
			]
		},
		{
			"bufferView":3,
			"componentType":5126,
			"count":1946,
			"type":"VEC3",
			"min":[100,100,100
			],
			"max":[100,100,100
			]
		},
		{
			"bufferView":4,
			"componentType":5126,
			"count":1946,
			"type":"VEC3",
			"min":[-1.57079649,0,0
			],
			"max":[-1.57079649,0,0
			]
		},
		{
			"bufferView":5,
			"componentType":5126,
			"count":1946,
			"type":"VEC4",
			"min":[-0.992127061,-0.973435283,-0.993015051,1
			],
			"max":[0.987054408,0.877277911,0.999697626,1
			]
		},
		{
			"bufferView":6,
			"componentType":5126,
			"count":1946,
			"type":"VEC2",
			"min":[0.625199974,0.49180001
			],
			"max":[0.733699977,0.664700031
			]
		},
		{
			"bufferView":7,
			"componentType":5126,
			"count":1946,
			"type":"VEC3",
			"min":[-0.996020436,-0.999734044,-0.999493897
			],
			"max":[0.999207079,0.999827921,0.999889374
			]
		}
	],
	"buffers":[
		{
			"uri":"fantasy_mushroom_03_data.bin",
			"byteLength":182424,
			"name":"main_buffer"
		}
	],
	"bufferViews":[
		{
			"buffer":0,
			"byteLength":18960,
			"target":34963
		},
		{
			"buffer":0,
			"byteOffset":18960,
			"byteLength":23352,
			"target":34962
		},
		{
			"buffer":0,
			"byteOffset":42312,
			"byteLength":23352,
			"target":34962
		},
		{
			"buffer":0,
			"byteOffset":65664,
			"byteLength":23352,
			"target":34962
		},
		{
			"buffer":0,
			"byteOffset":89016,
			"byteLength":23352,
			"target":34962
		},
		{
			"buffer":0,
			"byteOffset":112368,
			"byteLength":31136,
			"target":34962
		},
		{
			"buffer":0,
			"byteOffset":143504,
			"byteLength":15568,
			"target":34962
		},
		{
			"buffer":0,
			"byteOffset":159072,
			"byteLength":23352,
			"target":34962
		}
	],
	"nodes":[
		{
			"name":"import",
			"mesh":0
		}
	],
	"meshes":[
		{
			"primitives":[
				{
					"attributes":{
						"NORMAL":7,
						"_fbx_rotation":4,
						"TEXCOORD_0":6,
						"TANGENT":5,
						"_fbx_scale":3,
						"_fbx_translation":2,
						"POSITION":1
					},
					"indices":0,
					"material":0
				}
			],
			"name":"material78"
		}
	],
	"materials":[
		{
			"name":"stylized_nature",
			"pbrMetallicRoughness":{
				"metallicFactor":0,
				"roughnessFactor":0.904999971,
				"baseColorTexture":{
					"index":0
				},
				"metallicRoughnessTexture":{
					"index":1
				}
			}
		}
	],
	"scenes":[
		{
			"nodes":[0
			]
		}
	],
	"textures":[
		{
			"source":0
		},
		{
			"source":1
		}
	],
	"images":[
		{
			"uri":"stylized_forest_diffuse.png",
			"mimeType":"image/png"
		},
		{
			"uri":".png",
			"mimeType":"image/png"
		}
	],
	"scene":0
}
