{
	"asset":{
		"version":"2.0",
		"generator":"Houdini GLTF 2.0 Exporter"
	},
	"accessors":[
		{
			"bufferView":0,
			"componentType":5123,
			"count":6090,
			"type":"SCALAR",
			"min":[0
			],
			"max":[1107
			]
		},
		{
			"bufferView":1,
			"componentType":5126,
			"count":1108,
			"type":"VEC3",
			"min":[-0.27087,0,-0.217380002
			],
			"max":[0.27087,0.33288002,0.217380002
			]
		},
		{
			"bufferView":2,
			"componentType":5126,
			"count":1108,
			"type":"VEC4",
			"min":[-0.859774828,-0.848249674,-0.997041106,1
			],
			"max":[0.99626261,0.994550645,0.640516162,1
			]
		},
		{
			"bufferView":3,
			"componentType":5126,
			"count":1108,
			"type":"VEC2",
			"min":[0.371300012,0.315500021
			],
			"max":[0.688799977,0.890699983
			]
		},
		{
			"bufferView":4,
			"componentType":5126,
			"count":1108,
			"type":"VEC3",
			"min":[-0.996359825,-0.999140978,-0.999994576
			],
			"max":[0.998857141,0.9992221,0.999858975
			]
		}
	],
	"buffers":[
		{
			"uri":"fantasy_rock_08_data.bin",
			"byteLength":65364,
			"name":"main_buffer"
		}
	],
	"bufferViews":[
		{
			"buffer":0,
			"byteLength":12180,
			"target":34963
		},
		{
			"buffer":0,
			"byteOffset":12180,
			"byteLength":13296,
			"target":34962
		},
		{
			"buffer":0,
			"byteOffset":25476,
			"byteLength":17728,
			"target":34962
		},
		{
			"buffer":0,
			"byteOffset":43204,
			"byteLength":8864,
			"target":34962
		},
		{
			"buffer":0,
			"byteOffset":52068,
			"byteLength":13296,
			"target":34962
		}
	],
	"nodes":[
		{
			"name":"import",
			"mesh":0
		}
	],
	"meshes":[
		{
			"primitives":[
				{
					"attributes":{
						"NORMAL":4,
						"TEXCOORD_0":3,
						"TANGENT":2,
						"POSITION":1
					},
					"indices":0,
					"material":0
				}
			],
			"name":"material78"
		}
	],
	"materials":[
		{
			"name":"stylized_nature",
			"pbrMetallicRoughness":{
				"metallicFactor":0,
				"roughnessFactor":0.904999971,
				"baseColorTexture":{
					"index":0
				},
				"metallicRoughnessTexture":{
					"index":1
				}
			}
		}
	],
	"scenes":[
		{
			"nodes":[0
			]
		}
	],
	"textures":[
		{
			"source":0
		},
		{
			"source":1
		}
	],
	"images":[
		{
			"uri":"stylized_forest_diffuse.png",
			"mimeType":"image/png"
		},
		{
			"uri":".png",
			"mimeType":"image/png"
		}
	],
	"scene":0
}
