{
	"asset":{
		"version":"2.0",
		"generator":"Houdini GLTF 2.0 Exporter"
	},
	"accessors":[
		{
			"bufferView":0,
			"componentType":5123,
			"count":2340,
			"type":"SCALAR",
			"min":[0
			],
			"max":[437
			]
		},
		{
			"bufferView":1,
			"componentType":5126,
			"count":438,
			"type":"VEC3",
			"min":[-0.193640009,0,-0.103840008
			],
			"max":[0.193640009,0.0270400196,0.103840008
			]
		},
		{
			"bufferView":2,
			"componentType":5126,
			"count":438,
			"type":"VEC4",
			"min":[-0.833650708,-0.998803318,-0.879005373,1
			],
			"max":[0.988226473,0.99399513,0.999914229,1
			]
		},
		{
			"bufferView":3,
			"componentType":5126,
			"count":438,
			"type":"VEC2",
			"min":[0.873099983,0.328199983
			],
			"max":[0.99675566,0.521133542
			]
		},
		{
			"bufferView":4,
			"componentType":5126,
			"count":438,
			"type":"VEC3",
			"min":[-0.972689271,-0.999209881,-0.995166719
			],
			"max":[0.989814997,0.999889374,0.997428656
			]
		}
	],
	"buffers":[
		{
			"uri":"fantasy_rock_02_data.bin",
			"byteLength":25704,
			"name":"main_buffer"
		}
	],
	"bufferViews":[
		{
			"buffer":0,
			"byteLength":4680,
			"target":34963
		},
		{
			"buffer":0,
			"byteOffset":4680,
			"byteLength":5256,
			"target":34962
		},
		{
			"buffer":0,
			"byteOffset":9936,
			"byteLength":7008,
			"target":34962
		},
		{
			"buffer":0,
			"byteOffset":16944,
			"byteLength":3504,
			"target":34962
		},
		{
			"buffer":0,
			"byteOffset":20448,
			"byteLength":5256,
			"target":34962
		}
	],
	"nodes":[
		{
			"name":"import",
			"mesh":0
		}
	],
	"meshes":[
		{
			"primitives":[
				{
					"attributes":{
						"NORMAL":4,
						"TEXCOORD_0":3,
						"TANGENT":2,
						"POSITION":1
					},
					"indices":0,
					"material":0
				}
			],
			"name":"material78"
		}
	],
	"materials":[
		{
			"name":"stylized_nature",
			"pbrMetallicRoughness":{
				"metallicFactor":0,
				"roughnessFactor":0.904999971,
				"baseColorTexture":{
					"index":0
				},
				"metallicRoughnessTexture":{
					"index":1
				}
			}
		}
	],
	"scenes":[
		{
			"nodes":[0
			]
		}
	],
	"textures":[
		{
			"source":0
		},
		{
			"source":1
		}
	],
	"images":[
		{
			"uri":"stylized_forest_diffuse.png",
			"mimeType":"image/png"
		},
		{
			"uri":".png",
			"mimeType":"image/png"
		}
	],
	"scene":0
}
