{
	"asset":{
		"version":"2.0",
		"generator":"Houdini GLTF 2.0 Exporter"
	},
	"accessors":[
		{
			"bufferView":0,
			"componentType":5123,
			"count":18768,
			"type":"SCALAR",
			"min":[0
			],
			"max":[3866
			]
		},
		{
			"bufferView":1,
			"componentType":5126,
			"count":3867,
			"type":"VEC3",
			"min":[-0.221239999,0,-0.223690018
			],
			"max":[0.221240014,0.406329989,0.223690018
			]
		},
		{
			"bufferView":2,
			"componentType":5126,
			"count":3867,
			"type":"VEC3",
			"min":[0,0,0
			],
			"max":[0,0,0
			]
		},
		{
			"bufferView":3,
			"componentType":5126,
			"count":3867,
			"type":"VEC3",
			"min":[100,100,100
			],
			"max":[100,100,100
			]
		},
		{
			"bufferView":4,
			"componentType":5126,
			"count":3867,
			"type":"VEC3",
			"min":[-1.57079649,0,0
			],
			"max":[-1.57079649,0,0
			]
		},
		{
			"bufferView":5,
			"componentType":5126,
			"count":3867,
			"type":"VEC4",
			"min":[-0.992541015,-0.986454427,-0.999982476,1
			],
			"max":[0.997610807,0.974026561,0.994491041,1
			]
		},
		{
			"bufferView":6,
			"componentType":5126,
			"count":3867,
			"type":"VEC2",
			"min":[0.327600002,0.785699964
			],
			"max":[0.461299986,0.996399999
			]
		},
		{
			"bufferView":7,
			"componentType":5126,
			"count":3867,
			"type":"VEC3",
			"min":[-0.99899286,-0.999898851,-0.999813378
			],
			"max":[0.998579621,0.999998212,0.999373615
			]
		}
	],
	"buffers":[
		{
			"uri":"fantasy_mushroom_02_data.bin",
			"byteLength":362364,
			"name":"main_buffer"
		}
	],
	"bufferViews":[
		{
			"buffer":0,
			"byteLength":37536,
			"target":34963
		},
		{
			"buffer":0,
			"byteOffset":37536,
			"byteLength":46404,
			"target":34962
		},
		{
			"buffer":0,
			"byteOffset":83940,
			"byteLength":46404,
			"target":34962
		},
		{
			"buffer":0,
			"byteOffset":130344,
			"byteLength":46404,
			"target":34962
		},
		{
			"buffer":0,
			"byteOffset":176748,
			"byteLength":46404,
			"target":34962
		},
		{
			"buffer":0,
			"byteOffset":223152,
			"byteLength":61872,
			"target":34962
		},
		{
			"buffer":0,
			"byteOffset":285024,
			"byteLength":30936,
			"target":34962
		},
		{
			"buffer":0,
			"byteOffset":315960,
			"byteLength":46404,
			"target":34962
		}
	],
	"nodes":[
		{
			"name":"import",
			"mesh":0
		}
	],
	"meshes":[
		{
			"primitives":[
				{
					"attributes":{
						"NORMAL":7,
						"_fbx_rotation":4,
						"TEXCOORD_0":6,
						"TANGENT":5,
						"_fbx_scale":3,
						"_fbx_translation":2,
						"POSITION":1
					},
					"indices":0,
					"material":0
				}
			],
			"name":"material78"
		}
	],
	"materials":[
		{
			"name":"stylized_nature",
			"pbrMetallicRoughness":{
				"metallicFactor":0,
				"roughnessFactor":0.904999971,
				"baseColorTexture":{
					"index":0
				},
				"metallicRoughnessTexture":{
					"index":1
				}
			}
		}
	],
	"scenes":[
		{
			"nodes":[0
			]
		}
	],
	"textures":[
		{
			"source":0
		},
		{
			"source":1
		}
	],
	"images":[
		{
			"uri":"stylized_forest_diffuse.png",
			"mimeType":"image/png"
		},
		{
			"uri":".png",
			"mimeType":"image/png"
		}
	],
	"scene":0
}
