{
	"asset":{
		"version":"2.0",
		"generator":"Houdini GLTF 2.0 Exporter"
	},
	"accessors":[
		{
			"bufferView":0,
			"componentType":5123,
			"count":3498,
			"type":"SCALAR",
			"min":[0
			],
			"max":[621
			]
		},
		{
			"bufferView":1,
			"componentType":5126,
			"count":622,
			"type":"VEC3",
			"min":[-0.298079997,0,-0.20471999
			],
			"max":[0.298079997,0.0784200281,0.20471999
			]
		},
		{
			"bufferView":2,
			"componentType":5126,
			"count":622,
			"type":"VEC4",
			"min":[-0.928201854,-0.961612344,-0.966866672,1
			],
			"max":[0.999998629,0.997877598,0.873130262,1
			]
		},
		{
			"bufferView":3,
			"componentType":5126,
			"count":622,
			"type":"VEC2",
			"min":[0.1065,0.56400001
			],
			"max":[0.84890002,0.953000009
			]
		},
		{
			"bufferView":4,
			"componentType":5126,
			"count":622,
			"type":"VEC3",
			"min":[-0.995729625,-0.999995291,-0.996146262
			],
			"max":[0.999554992,1,0.998477161
			]
		}
	],
	"buffers":[
		{
			"uri":"fantasy_rock_04_data.bin",
			"byteLength":36852,
			"name":"main_buffer"
		}
	],
	"bufferViews":[
		{
			"buffer":0,
			"byteLength":6996,
			"target":34963
		},
		{
			"buffer":0,
			"byteOffset":6996,
			"byteLength":7464,
			"target":34962
		},
		{
			"buffer":0,
			"byteOffset":14460,
			"byteLength":9952,
			"target":34962
		},
		{
			"buffer":0,
			"byteOffset":24412,
			"byteLength":4976,
			"target":34962
		},
		{
			"buffer":0,
			"byteOffset":29388,
			"byteLength":7464,
			"target":34962
		}
	],
	"nodes":[
		{
			"name":"import",
			"mesh":0
		}
	],
	"meshes":[
		{
			"primitives":[
				{
					"attributes":{
						"NORMAL":4,
						"TEXCOORD_0":3,
						"TANGENT":2,
						"POSITION":1
					},
					"indices":0,
					"material":0
				}
			],
			"name":"material78"
		}
	],
	"materials":[
		{
			"name":"stylized_nature",
			"pbrMetallicRoughness":{
				"metallicFactor":0,
				"roughnessFactor":0.904999971,
				"baseColorTexture":{
					"index":0
				},
				"metallicRoughnessTexture":{
					"index":1
				}
			}
		}
	],
	"scenes":[
		{
			"nodes":[0
			]
		}
	],
	"textures":[
		{
			"source":0
		},
		{
			"source":1
		}
	],
	"images":[
		{
			"uri":"stylized_forest_diffuse.png",
			"mimeType":"image/png"
		},
		{
			"uri":".png",
			"mimeType":"image/png"
		}
	],
	"scene":0
}
