{
	"asset":{
		"version":"2.0",
		"generator":"Houdini GLTF 2.0 Exporter"
	},
	"accessors":[
		{
			"bufferView":0,
			"componentType":5123,
			"count":390,
			"type":"SCALAR",
			"min":[0
			],
			"max":[138
			]
		},
		{
			"bufferView":1,
			"componentType":5126,
			"count":139,
			"type":"VEC3",
			"min":[-0.6284796,0,-0.367920071
			],
			"max":[0.10453257,0.761879921,0.36444062
			]
		},
		{
			"bufferView":2,
			"componentType":5126,
			"count":139,
			"type":"VEC3",
			"min":[0,-14.9507523,0
			],
			"max":[0,-14.9507523,0
			]
		},
		{
			"bufferView":3,
			"componentType":5126,
			"count":139,
			"type":"VEC3",
			"min":[100,100,100
			],
			"max":[100,100,100
			]
		},
		{
			"bufferView":4,
			"componentType":5126,
			"count":139,
			"type":"VEC3",
			"min":[-1.57079649,0,0
			],
			"max":[-1.57079649,0,0
			]
		},
		{
			"bufferView":5,
			"componentType":5126,
			"count":139,
			"type":"VEC4",
			"min":[-0.931115568,-0.98394388,-0.989220679,1
			],
			"max":[0.00898630451,0.998745322,0.805448115,1
			]
		},
		{
			"bufferView":6,
			"componentType":5126,
			"count":139,
			"type":"VEC2",
			"min":[0.548517048,0.00360000134
			],
			"max":[0.997781157,0.128404975
			]
		},
		{
			"bufferView":7,
			"componentType":5126,
			"count":139,
			"type":"VEC3",
			"min":[-0.871900976,0.0340663977,-0.962377191
			],
			"max":[0.994236588,0.999981403,0.988030374
			]
		}
	],
	"buffers":[
		{
			"uri":"fantasy_grass_03_data.bin",
			"byteLength":12456,
			"name":"main_buffer"
		}
	],
	"bufferViews":[
		{
			"buffer":0,
			"byteLength":780,
			"target":34963
		},
		{
			"buffer":0,
			"byteOffset":780,
			"byteLength":1668,
			"target":34962
		},
		{
			"buffer":0,
			"byteOffset":2448,
			"byteLength":1668,
			"target":34962
		},
		{
			"buffer":0,
			"byteOffset":4116,
			"byteLength":1668,
			"target":34962
		},
		{
			"buffer":0,
			"byteOffset":5784,
			"byteLength":1668,
			"target":34962
		},
		{
			"buffer":0,
			"byteOffset":7452,
			"byteLength":2224,
			"target":34962
		},
		{
			"buffer":0,
			"byteOffset":9676,
			"byteLength":1112,
			"target":34962
		},
		{
			"buffer":0,
			"byteOffset":10788,
			"byteLength":1668,
			"target":34962
		}
	],
	"nodes":[
		{
			"name":"import",
			"mesh":0
		}
	],
	"meshes":[
		{
			"primitives":[
				{
					"attributes":{
						"NORMAL":7,
						"_fbx_rotation":4,
						"TEXCOORD_0":6,
						"TANGENT":5,
						"_fbx_scale":3,
						"_fbx_translation":2,
						"POSITION":1
					},
					"indices":0,
					"material":0
				}
			],
			"name":"material78"
		}
	],
	"materials":[
		{
			"name":"stylized_nature",
			"pbrMetallicRoughness":{
				"metallicFactor":0,
				"roughnessFactor":0.904999971,
				"baseColorTexture":{
					"index":0
				},
				"metallicRoughnessTexture":{
					"index":1
				}
			}
		}
	],
	"scenes":[
		{
			"nodes":[0
			]
		}
	],
	"textures":[
		{
			"source":0
		},
		{
			"source":1
		}
	],
	"images":[
		{
			"uri":"stylized_forest_diffuse.png",
			"mimeType":"image/png"
		},
		{
			"uri":".png",
			"mimeType":"image/png"
		}
	],
	"scene":0
}
